G04 #@! TF.GenerationSoftware,KiCad,Pcbnew,(6.0.2-0)*
G04 #@! TF.CreationDate,2022-06-21T21:38:28+10:00*
G04 #@! TF.ProjectId,keyboard-with-attached-pico,6b657962-6f61-4726-942d-776974682d61,1.01*
G04 #@! TF.SameCoordinates,Original*
G04 #@! TF.FileFunction,Soldermask,Top*
G04 #@! TF.FilePolarity,Negative*
%FSLAX46Y46*%
G04 Gerber Fmt 4.6, Leading zero omitted, Abs format (unit mm)*
G04 Created by KiCad (PCBNEW (6.0.2-0)) date 2022-06-21 21:38:28*
%MOMM*%
%LPD*%
G01*
G04 APERTURE LIST*
G04 Aperture macros list*
%AMRoundRect*
0 Rectangle with rounded corners*
0 $1 Rounding radius*
0 $2 $3 $4 $5 $6 $7 $8 $9 X,Y pos of 4 corners*
0 Add a 4 corners polygon primitive as box body*
4,1,4,$2,$3,$4,$5,$6,$7,$8,$9,$2,$3,0*
0 Add four circle primitives for the rounded corners*
1,1,$1+$1,$2,$3*
1,1,$1+$1,$4,$5*
1,1,$1+$1,$6,$7*
1,1,$1+$1,$8,$9*
0 Add four rect primitives between the rounded corners*
20,1,$1+$1,$2,$3,$4,$5,0*
20,1,$1+$1,$4,$5,$6,$7,0*
20,1,$1+$1,$6,$7,$8,$9,0*
20,1,$1+$1,$8,$9,$2,$3,0*%
G04 Aperture macros list end*
%ADD10C,1.802000*%
%ADD11C,4.102000*%
%ADD12C,2.302000*%
%ADD13C,3.302000*%
%ADD14RoundRect,0.051000X0.850000X-0.850000X0.850000X0.850000X-0.850000X0.850000X-0.850000X-0.850000X0*%
%ADD15O,1.802000X1.802000*%
%ADD16C,3.152000*%
%ADD17RoundRect,0.051000X-0.850000X0.850000X-0.850000X-0.850000X0.850000X-0.850000X0.850000X0.850000X0*%
G04 APERTURE END LIST*
D10*
X102235000Y-124920000D03*
D11*
X107315000Y-124920000D03*
D10*
X112395000Y-124920000D03*
D12*
X109855000Y-119840000D03*
X103505000Y-122380000D03*
D13*
X101092000Y-142494000D03*
X322834000Y-142240000D03*
D10*
X131445000Y-124920000D03*
D11*
X126365000Y-124920000D03*
D10*
X121285000Y-124920000D03*
D12*
X128905000Y-119840000D03*
X122555000Y-122380000D03*
D14*
X144780000Y-115824000D03*
D15*
X147320000Y-115824000D03*
D10*
X311785000Y-124920000D03*
X321945000Y-124920000D03*
D11*
X316865000Y-124920000D03*
D12*
X319405000Y-119840000D03*
X313055000Y-122380000D03*
D10*
X187960000Y-143970000D03*
D11*
X193040000Y-143970000D03*
D10*
X198120000Y-143970000D03*
D12*
X195580000Y-138890000D03*
X189230000Y-141430000D03*
D10*
X255270000Y-143970000D03*
X245110000Y-143970000D03*
D11*
X250190000Y-143970000D03*
D12*
X252730000Y-138890000D03*
X246380000Y-141430000D03*
D10*
X292735000Y-163020000D03*
D11*
X297815000Y-163020000D03*
D10*
X302895000Y-163020000D03*
D12*
X300355000Y-157940000D03*
X294005000Y-160480000D03*
D11*
X297815000Y-124920000D03*
D10*
X292735000Y-124920000D03*
X302895000Y-124920000D03*
D12*
X300355000Y-119840000D03*
X294005000Y-122380000D03*
D10*
X178435000Y-124920000D03*
X188595000Y-124920000D03*
D11*
X183515000Y-124920000D03*
D12*
X186055000Y-119840000D03*
X179705000Y-122380000D03*
D10*
X254635000Y-163020000D03*
X264795000Y-163020000D03*
D11*
X259715000Y-163020000D03*
D12*
X262255000Y-157940000D03*
X255905000Y-160480000D03*
D10*
X197485000Y-163020000D03*
X207645000Y-163020000D03*
D11*
X202565000Y-163020000D03*
D12*
X205105000Y-157940000D03*
X198755000Y-160480000D03*
D10*
X274320000Y-143970000D03*
X264160000Y-143970000D03*
D11*
X269240000Y-143970000D03*
D12*
X271780000Y-138890000D03*
X265430000Y-141430000D03*
D10*
X226060000Y-182070000D03*
D11*
X243040000Y-190310000D03*
D16*
X243040000Y-175070000D03*
D11*
X231140000Y-182070000D03*
D10*
X236220000Y-182070000D03*
D16*
X219240000Y-175070000D03*
D11*
X219240000Y-190310000D03*
D12*
X233680000Y-176990000D03*
X227330000Y-179530000D03*
D10*
X283845000Y-124920000D03*
X273685000Y-124920000D03*
D11*
X278765000Y-124920000D03*
D12*
X281305000Y-119840000D03*
X274955000Y-122380000D03*
D11*
X231140000Y-143970000D03*
D10*
X236220000Y-143970000D03*
X226060000Y-143970000D03*
D12*
X233680000Y-138890000D03*
X227330000Y-141430000D03*
D10*
X179070000Y-143970000D03*
X168910000Y-143970000D03*
D11*
X173990000Y-143970000D03*
D12*
X176530000Y-138890000D03*
X170180000Y-141430000D03*
D11*
X135890000Y-143970000D03*
D10*
X130810000Y-143970000D03*
X140970000Y-143970000D03*
D12*
X138430000Y-138890000D03*
X132080000Y-141430000D03*
D14*
X132080000Y-115824000D03*
D15*
X134620000Y-115824000D03*
X137160000Y-115824000D03*
X139700000Y-115824000D03*
D11*
X112077500Y-143970000D03*
D10*
X106997500Y-143970000D03*
X117157500Y-143970000D03*
D12*
X114617500Y-138890000D03*
X108267500Y-141430000D03*
D11*
X183515000Y-163020000D03*
D10*
X188595000Y-163020000D03*
X178435000Y-163020000D03*
D12*
X186055000Y-157940000D03*
X179705000Y-160480000D03*
D11*
X278765000Y-182070000D03*
D10*
X273685000Y-182070000D03*
X283845000Y-182070000D03*
D12*
X281305000Y-176990000D03*
X274955000Y-179530000D03*
D10*
X150495000Y-124920000D03*
D11*
X145415000Y-124920000D03*
D10*
X140335000Y-124920000D03*
D12*
X147955000Y-119840000D03*
X141605000Y-122380000D03*
D10*
X169545000Y-124920000D03*
D11*
X164465000Y-124920000D03*
D10*
X159385000Y-124920000D03*
D12*
X167005000Y-119840000D03*
X160655000Y-122380000D03*
D11*
X212090000Y-143970000D03*
D10*
X217170000Y-143970000D03*
X207010000Y-143970000D03*
D12*
X214630000Y-138890000D03*
X208280000Y-141430000D03*
D10*
X150495000Y-163020000D03*
X140335000Y-163020000D03*
D11*
X145415000Y-163020000D03*
D12*
X147955000Y-157940000D03*
X141605000Y-160480000D03*
D10*
X283210000Y-143970000D03*
X293370000Y-143970000D03*
D11*
X288290000Y-143970000D03*
D12*
X290830000Y-138890000D03*
X284480000Y-141430000D03*
D10*
X149860000Y-143970000D03*
X160020000Y-143970000D03*
D11*
X154940000Y-143970000D03*
D12*
X157480000Y-138890000D03*
X151130000Y-141430000D03*
D10*
X121920000Y-163020000D03*
D11*
X116840000Y-163020000D03*
D16*
X128740000Y-156020000D03*
X104940000Y-156020000D03*
D11*
X104940000Y-171260000D03*
X128740000Y-171260000D03*
D10*
X111760000Y-163020000D03*
D12*
X119380000Y-157940000D03*
X113030000Y-160480000D03*
D17*
X139700000Y-133604000D03*
D15*
X137160000Y-133604000D03*
X134620000Y-133604000D03*
D11*
X240665000Y-124920000D03*
D10*
X235585000Y-124920000D03*
X245745000Y-124920000D03*
D12*
X243205000Y-119840000D03*
X236855000Y-122380000D03*
D10*
X216535000Y-163020000D03*
X226695000Y-163020000D03*
D11*
X221615000Y-163020000D03*
D12*
X224155000Y-157940000D03*
X217805000Y-160480000D03*
D11*
X316865000Y-182070000D03*
D10*
X311785000Y-182070000D03*
X321945000Y-182070000D03*
D12*
X319405000Y-176990000D03*
X313055000Y-179530000D03*
D11*
X259715000Y-124920000D03*
D10*
X254635000Y-124920000D03*
X264795000Y-124920000D03*
D12*
X262255000Y-119840000D03*
X255905000Y-122380000D03*
D10*
X321945000Y-163020000D03*
X311785000Y-163020000D03*
D11*
X316865000Y-163020000D03*
D12*
X319405000Y-157940000D03*
X313055000Y-160480000D03*
D10*
X197485000Y-124920000D03*
D11*
X202565000Y-124920000D03*
D10*
X207645000Y-124920000D03*
D12*
X205105000Y-119840000D03*
X198755000Y-122380000D03*
D17*
X147320000Y-133604000D03*
D15*
X144780000Y-133604000D03*
D10*
X159385000Y-163020000D03*
X169545000Y-163020000D03*
D11*
X164465000Y-163020000D03*
D12*
X167005000Y-157940000D03*
X160655000Y-160480000D03*
D10*
X150495000Y-182070000D03*
D11*
X145415000Y-182070000D03*
D10*
X140335000Y-182070000D03*
D12*
X147955000Y-176990000D03*
X141605000Y-179530000D03*
D10*
X317182500Y-143970000D03*
D11*
X312102500Y-143970000D03*
D10*
X307022500Y-143970000D03*
D12*
X314642500Y-138890000D03*
X308292500Y-141430000D03*
D10*
X235585000Y-163020000D03*
X245745000Y-163020000D03*
D11*
X240665000Y-163020000D03*
D12*
X243205000Y-157940000D03*
X236855000Y-160480000D03*
D10*
X283845000Y-163020000D03*
D11*
X278765000Y-163020000D03*
D10*
X273685000Y-163020000D03*
D12*
X281305000Y-157940000D03*
X274955000Y-160480000D03*
D11*
X202565000Y-182070000D03*
D10*
X197485000Y-182070000D03*
X207645000Y-182070000D03*
D12*
X205105000Y-176990000D03*
X198755000Y-179530000D03*
D10*
X254635000Y-182070000D03*
X264795000Y-182070000D03*
D11*
X259715000Y-182070000D03*
D12*
X262255000Y-176990000D03*
X255905000Y-179530000D03*
D10*
X302895000Y-182070000D03*
D11*
X297815000Y-182070000D03*
D10*
X292735000Y-182070000D03*
D12*
X300355000Y-176990000D03*
X294005000Y-179530000D03*
D10*
X112395000Y-182070000D03*
X102235000Y-182070000D03*
D11*
X107315000Y-182070000D03*
D12*
X109855000Y-176990000D03*
X103505000Y-179530000D03*
D11*
X173990000Y-182070000D03*
D16*
X185890000Y-175070000D03*
X162090000Y-175070000D03*
D10*
X168910000Y-182070000D03*
D11*
X162090000Y-190310000D03*
X185890000Y-190310000D03*
D10*
X179070000Y-182070000D03*
D12*
X176530000Y-176990000D03*
X170180000Y-179530000D03*
D11*
X126365000Y-182070000D03*
D10*
X131445000Y-182070000D03*
X121285000Y-182070000D03*
D12*
X128905000Y-176990000D03*
X122555000Y-179530000D03*
D11*
X221615000Y-124920000D03*
D10*
X216535000Y-124920000D03*
X226695000Y-124920000D03*
D12*
X224155000Y-119840000D03*
X217805000Y-122380000D03*
D17*
X106680000Y-133604000D03*
D15*
X109220000Y-133604000D03*
X111760000Y-133604000D03*
X114300000Y-133604000D03*
M02*
