M48
; DRILL file {KiCad (6.0.2-0)} date Tuesday, 21 June 2022 at 09:39:18 pm
; FORMAT={-:-/ absolute / metric / decimal}
; #@! TF.CreationDate,2022-06-21T21:39:18+10:00
; #@! TF.GenerationSoftware,Kicad,Pcbnew,(6.0.2-0)
; #@! TF.FileFunction,NonPlated,1,2,NPTH
FMAT,2
METRIC
; #@! TA.AperFunction,NonPlated,NPTH,ComponentDrill
T1C1.700
; #@! TA.AperFunction,NonPlated,NPTH,ComponentDrill
T2C3.050
; #@! TA.AperFunction,NonPlated,NPTH,ComponentDrill
T3C3.200
; #@! TA.AperFunction,NonPlated,NPTH,ComponentDrill
T4C4.000
%
G90
G05
T1
X102.235Y-124.92
X102.235Y-182.07
X106.997Y-143.97
X111.76Y-163.02
X112.395Y-124.92
X112.395Y-182.07
X117.157Y-143.97
X121.285Y-124.92
X121.285Y-182.07
X121.92Y-163.02
X130.81Y-143.97
X131.445Y-124.92
X131.445Y-182.07
X140.335Y-124.92
X140.335Y-163.02
X140.335Y-182.07
X140.97Y-143.97
X149.86Y-143.97
X150.495Y-124.92
X150.495Y-163.02
X150.495Y-182.07
X159.385Y-124.92
X159.385Y-163.02
X160.02Y-143.97
X168.91Y-143.97
X168.91Y-182.07
X169.545Y-124.92
X169.545Y-163.02
X178.435Y-124.92
X178.435Y-163.02
X179.07Y-143.97
X179.07Y-182.07
X187.96Y-143.97
X188.595Y-124.92
X188.595Y-163.02
X197.485Y-124.92
X197.485Y-163.02
X197.485Y-182.07
X198.12Y-143.97
X207.01Y-143.97
X207.645Y-124.92
X207.645Y-163.02
X207.645Y-182.07
X216.535Y-124.92
X216.535Y-163.02
X217.17Y-143.97
X226.06Y-143.97
X226.06Y-182.07
X226.695Y-124.92
X226.695Y-163.02
X235.585Y-124.92
X235.585Y-163.02
X236.22Y-143.97
X236.22Y-182.07
X245.11Y-143.97
X245.745Y-124.92
X245.745Y-163.02
X254.635Y-124.92
X254.635Y-163.02
X254.635Y-182.07
X255.27Y-143.97
X264.16Y-143.97
X264.795Y-124.92
X264.795Y-163.02
X264.795Y-182.07
X273.685Y-124.92
X273.685Y-163.02
X273.685Y-182.07
X274.32Y-143.97
X283.21Y-143.97
X283.845Y-124.92
X283.845Y-163.02
X283.845Y-182.07
X292.735Y-124.92
X292.735Y-163.02
X292.735Y-182.07
X293.37Y-143.97
X302.895Y-124.92
X302.895Y-163.02
X302.895Y-182.07
X307.022Y-143.97
X311.785Y-124.92
X311.785Y-163.02
X311.785Y-182.07
X317.183Y-143.97
X321.945Y-124.92
X321.945Y-163.02
X321.945Y-182.07
T2
X104.94Y-156.02
X128.74Y-156.02
X162.09Y-175.07
X185.89Y-175.07
X219.24Y-175.07
X243.04Y-175.07
T3
X101.092Y-142.494
X322.834Y-142.24
T4
X104.94Y-171.26
X107.315Y-124.92
X107.315Y-182.07
X112.078Y-143.97
X116.84Y-163.02
X126.365Y-124.92
X126.365Y-182.07
X128.74Y-171.26
X135.89Y-143.97
X145.415Y-124.92
X145.415Y-163.02
X145.415Y-182.07
X154.94Y-143.97
X162.09Y-190.31
X164.465Y-124.92
X164.465Y-163.02
X173.99Y-143.97
X173.99Y-182.07
X183.515Y-124.92
X183.515Y-163.02
X185.89Y-190.31
X193.04Y-143.97
X202.565Y-124.92
X202.565Y-163.02
X202.565Y-182.07
X212.09Y-143.97
X219.24Y-190.31
X221.615Y-124.92
X221.615Y-163.02
X231.14Y-143.97
X231.14Y-182.07
X240.665Y-124.92
X240.665Y-163.02
X243.04Y-190.31
X250.19Y-143.97
X259.715Y-124.92
X259.715Y-163.02
X259.715Y-182.07
X269.24Y-143.97
X278.765Y-124.92
X278.765Y-163.02
X278.765Y-182.07
X288.29Y-143.97
X297.815Y-124.92
X297.815Y-163.02
X297.815Y-182.07
X312.102Y-143.97
X316.865Y-124.92
X316.865Y-163.02
X316.865Y-182.07
T0
M30
