%FSLAX45Y45*%
G04 Gerber Fmt 4.5, Leading zero omitted, Abs format (unit mm)*
G04 Created by KiCad (PCBNEW (6.0.2-0)) date 2022-06-21 21:39:33*
%MOMM*%
%LPD*%
G01*
G04 APERTURE LIST*
%TA.AperFunction,Profile*%
%ADD10C,0.050000*%
%TD*%
%ADD11C,0.200000*%
%ADD12C,0.170000*%
%ADD13C,0.305000*%
%ADD14C,0.320000*%
%ADD15C,0.400000*%
G04 APERTURE END LIST*
D10*
X9728200Y-11353800D02*
X9728200Y-19329400D01*
X9829800Y-11252200D02*
G75*
G03*
X9728200Y-11353800I0J-101600D01*
G01*
X32689800Y-11353800D02*
G75*
G03*
X32588200Y-11252200I-101600J0D01*
G01*
X9829800Y-11252200D02*
X32588200Y-11252200D01*
X32689800Y-11353800D02*
X32689800Y-19329400D01*
X32588200Y-19431000D02*
X9829800Y-19431000D01*
X32588200Y-19431000D02*
G75*
G03*
X32689800Y-19329400I0J101600D01*
G01*
X9728200Y-19329400D02*
G75*
G03*
X9829800Y-19431000I101600J0D01*
G01*
D11*
D12*
X10138500Y-12407000D02*
X10308500Y-12577000D01*
X10308500Y-12407000D02*
X10138500Y-12577000D01*
X10138500Y-18122000D02*
X10308500Y-18292000D01*
X10308500Y-18122000D02*
X10138500Y-18292000D01*
X10614750Y-14312000D02*
X10784750Y-14482000D01*
X10784750Y-14312000D02*
X10614750Y-14482000D01*
X11091000Y-16217000D02*
X11261000Y-16387000D01*
X11261000Y-16217000D02*
X11091000Y-16387000D01*
X11154500Y-12407000D02*
X11324500Y-12577000D01*
X11324500Y-12407000D02*
X11154500Y-12577000D01*
X11154500Y-18122000D02*
X11324500Y-18292000D01*
X11324500Y-18122000D02*
X11154500Y-18292000D01*
X11630750Y-14312000D02*
X11800750Y-14482000D01*
X11800750Y-14312000D02*
X11630750Y-14482000D01*
X12043500Y-12407000D02*
X12213500Y-12577000D01*
X12213500Y-12407000D02*
X12043500Y-12577000D01*
X12043500Y-18122000D02*
X12213500Y-18292000D01*
X12213500Y-18122000D02*
X12043500Y-18292000D01*
X12107000Y-16217000D02*
X12277000Y-16387000D01*
X12277000Y-16217000D02*
X12107000Y-16387000D01*
X12996000Y-14312000D02*
X13166000Y-14482000D01*
X13166000Y-14312000D02*
X12996000Y-14482000D01*
X13059500Y-12407000D02*
X13229500Y-12577000D01*
X13229500Y-12407000D02*
X13059500Y-12577000D01*
X13059500Y-18122000D02*
X13229500Y-18292000D01*
X13229500Y-18122000D02*
X13059500Y-18292000D01*
X13948500Y-12407000D02*
X14118500Y-12577000D01*
X14118500Y-12407000D02*
X13948500Y-12577000D01*
X13948500Y-16217000D02*
X14118500Y-16387000D01*
X14118500Y-16217000D02*
X13948500Y-16387000D01*
X13948500Y-18122000D02*
X14118500Y-18292000D01*
X14118500Y-18122000D02*
X13948500Y-18292000D01*
X14012000Y-14312000D02*
X14182000Y-14482000D01*
X14182000Y-14312000D02*
X14012000Y-14482000D01*
X14901000Y-14312000D02*
X15071000Y-14482000D01*
X15071000Y-14312000D02*
X14901000Y-14482000D01*
X14964500Y-12407000D02*
X15134500Y-12577000D01*
X15134500Y-12407000D02*
X14964500Y-12577000D01*
X14964500Y-16217000D02*
X15134500Y-16387000D01*
X15134500Y-16217000D02*
X14964500Y-16387000D01*
X14964500Y-18122000D02*
X15134500Y-18292000D01*
X15134500Y-18122000D02*
X14964500Y-18292000D01*
X15853500Y-12407000D02*
X16023500Y-12577000D01*
X16023500Y-12407000D02*
X15853500Y-12577000D01*
X15853500Y-16217000D02*
X16023500Y-16387000D01*
X16023500Y-16217000D02*
X15853500Y-16387000D01*
X15917000Y-14312000D02*
X16087000Y-14482000D01*
X16087000Y-14312000D02*
X15917000Y-14482000D01*
X16806000Y-14312000D02*
X16976000Y-14482000D01*
X16976000Y-14312000D02*
X16806000Y-14482000D01*
X16806000Y-18122000D02*
X16976000Y-18292000D01*
X16976000Y-18122000D02*
X16806000Y-18292000D01*
X16869500Y-12407000D02*
X17039500Y-12577000D01*
X17039500Y-12407000D02*
X16869500Y-12577000D01*
X16869500Y-16217000D02*
X17039500Y-16387000D01*
X17039500Y-16217000D02*
X16869500Y-16387000D01*
X17758500Y-12407000D02*
X17928500Y-12577000D01*
X17928500Y-12407000D02*
X17758500Y-12577000D01*
X17758500Y-16217000D02*
X17928500Y-16387000D01*
X17928500Y-16217000D02*
X17758500Y-16387000D01*
X17822000Y-14312000D02*
X17992000Y-14482000D01*
X17992000Y-14312000D02*
X17822000Y-14482000D01*
X17822000Y-18122000D02*
X17992000Y-18292000D01*
X17992000Y-18122000D02*
X17822000Y-18292000D01*
X18711000Y-14312000D02*
X18881000Y-14482000D01*
X18881000Y-14312000D02*
X18711000Y-14482000D01*
X18774500Y-12407000D02*
X18944500Y-12577000D01*
X18944500Y-12407000D02*
X18774500Y-12577000D01*
X18774500Y-16217000D02*
X18944500Y-16387000D01*
X18944500Y-16217000D02*
X18774500Y-16387000D01*
X19663500Y-12407000D02*
X19833500Y-12577000D01*
X19833500Y-12407000D02*
X19663500Y-12577000D01*
X19663500Y-16217000D02*
X19833500Y-16387000D01*
X19833500Y-16217000D02*
X19663500Y-16387000D01*
X19663500Y-18122000D02*
X19833500Y-18292000D01*
X19833500Y-18122000D02*
X19663500Y-18292000D01*
X19727000Y-14312000D02*
X19897000Y-14482000D01*
X19897000Y-14312000D02*
X19727000Y-14482000D01*
X20616000Y-14312000D02*
X20786000Y-14482000D01*
X20786000Y-14312000D02*
X20616000Y-14482000D01*
X20679500Y-12407000D02*
X20849500Y-12577000D01*
X20849500Y-12407000D02*
X20679500Y-12577000D01*
X20679500Y-16217000D02*
X20849500Y-16387000D01*
X20849500Y-16217000D02*
X20679500Y-16387000D01*
X20679500Y-18122000D02*
X20849500Y-18292000D01*
X20849500Y-18122000D02*
X20679500Y-18292000D01*
X21568500Y-12407000D02*
X21738500Y-12577000D01*
X21738500Y-12407000D02*
X21568500Y-12577000D01*
X21568500Y-16217000D02*
X21738500Y-16387000D01*
X21738500Y-16217000D02*
X21568500Y-16387000D01*
X21632000Y-14312000D02*
X21802000Y-14482000D01*
X21802000Y-14312000D02*
X21632000Y-14482000D01*
X22521000Y-14312000D02*
X22691000Y-14482000D01*
X22691000Y-14312000D02*
X22521000Y-14482000D01*
X22521000Y-18122000D02*
X22691000Y-18292000D01*
X22691000Y-18122000D02*
X22521000Y-18292000D01*
X22584500Y-12407000D02*
X22754500Y-12577000D01*
X22754500Y-12407000D02*
X22584500Y-12577000D01*
X22584500Y-16217000D02*
X22754500Y-16387000D01*
X22754500Y-16217000D02*
X22584500Y-16387000D01*
X23473500Y-12407000D02*
X23643500Y-12577000D01*
X23643500Y-12407000D02*
X23473500Y-12577000D01*
X23473500Y-16217000D02*
X23643500Y-16387000D01*
X23643500Y-16217000D02*
X23473500Y-16387000D01*
X23537000Y-14312000D02*
X23707000Y-14482000D01*
X23707000Y-14312000D02*
X23537000Y-14482000D01*
X23537000Y-18122000D02*
X23707000Y-18292000D01*
X23707000Y-18122000D02*
X23537000Y-18292000D01*
X24426000Y-14312000D02*
X24596000Y-14482000D01*
X24596000Y-14312000D02*
X24426000Y-14482000D01*
X24489500Y-12407000D02*
X24659500Y-12577000D01*
X24659500Y-12407000D02*
X24489500Y-12577000D01*
X24489500Y-16217000D02*
X24659500Y-16387000D01*
X24659500Y-16217000D02*
X24489500Y-16387000D01*
X25378500Y-12407000D02*
X25548500Y-12577000D01*
X25548500Y-12407000D02*
X25378500Y-12577000D01*
X25378500Y-16217000D02*
X25548500Y-16387000D01*
X25548500Y-16217000D02*
X25378500Y-16387000D01*
X25378500Y-18122000D02*
X25548500Y-18292000D01*
X25548500Y-18122000D02*
X25378500Y-18292000D01*
X25442000Y-14312000D02*
X25612000Y-14482000D01*
X25612000Y-14312000D02*
X25442000Y-14482000D01*
X26331000Y-14312000D02*
X26501000Y-14482000D01*
X26501000Y-14312000D02*
X26331000Y-14482000D01*
X26394500Y-12407000D02*
X26564500Y-12577000D01*
X26564500Y-12407000D02*
X26394500Y-12577000D01*
X26394500Y-16217000D02*
X26564500Y-16387000D01*
X26564500Y-16217000D02*
X26394500Y-16387000D01*
X26394500Y-18122000D02*
X26564500Y-18292000D01*
X26564500Y-18122000D02*
X26394500Y-18292000D01*
X27283500Y-12407000D02*
X27453500Y-12577000D01*
X27453500Y-12407000D02*
X27283500Y-12577000D01*
X27283500Y-16217000D02*
X27453500Y-16387000D01*
X27453500Y-16217000D02*
X27283500Y-16387000D01*
X27283500Y-18122000D02*
X27453500Y-18292000D01*
X27453500Y-18122000D02*
X27283500Y-18292000D01*
X27347000Y-14312000D02*
X27517000Y-14482000D01*
X27517000Y-14312000D02*
X27347000Y-14482000D01*
X28236000Y-14312000D02*
X28406000Y-14482000D01*
X28406000Y-14312000D02*
X28236000Y-14482000D01*
X28299500Y-12407000D02*
X28469500Y-12577000D01*
X28469500Y-12407000D02*
X28299500Y-12577000D01*
X28299500Y-16217000D02*
X28469500Y-16387000D01*
X28469500Y-16217000D02*
X28299500Y-16387000D01*
X28299500Y-18122000D02*
X28469500Y-18292000D01*
X28469500Y-18122000D02*
X28299500Y-18292000D01*
X29188500Y-12407000D02*
X29358500Y-12577000D01*
X29358500Y-12407000D02*
X29188500Y-12577000D01*
X29188500Y-16217000D02*
X29358500Y-16387000D01*
X29358500Y-16217000D02*
X29188500Y-16387000D01*
X29188500Y-18122000D02*
X29358500Y-18292000D01*
X29358500Y-18122000D02*
X29188500Y-18292000D01*
X29252000Y-14312000D02*
X29422000Y-14482000D01*
X29422000Y-14312000D02*
X29252000Y-14482000D01*
X30204500Y-12407000D02*
X30374500Y-12577000D01*
X30374500Y-12407000D02*
X30204500Y-12577000D01*
X30204500Y-16217000D02*
X30374500Y-16387000D01*
X30374500Y-16217000D02*
X30204500Y-16387000D01*
X30204500Y-18122000D02*
X30374500Y-18292000D01*
X30374500Y-18122000D02*
X30204500Y-18292000D01*
X30617250Y-14312000D02*
X30787250Y-14482000D01*
X30787250Y-14312000D02*
X30617250Y-14482000D01*
X31093500Y-12407000D02*
X31263500Y-12577000D01*
X31263500Y-12407000D02*
X31093500Y-12577000D01*
X31093500Y-16217000D02*
X31263500Y-16387000D01*
X31263500Y-16217000D02*
X31093500Y-16387000D01*
X31093500Y-18122000D02*
X31263500Y-18292000D01*
X31263500Y-18122000D02*
X31093500Y-18292000D01*
X31633250Y-14312000D02*
X31803250Y-14482000D01*
X31803250Y-14312000D02*
X31633250Y-14482000D01*
X32109500Y-12407000D02*
X32279500Y-12577000D01*
X32279500Y-12407000D02*
X32109500Y-12577000D01*
X32109500Y-16217000D02*
X32279500Y-16387000D01*
X32279500Y-16217000D02*
X32109500Y-16387000D01*
X32109500Y-18122000D02*
X32279500Y-18292000D01*
X32279500Y-18122000D02*
X32109500Y-18292000D01*
D13*
X10646500Y-15602000D02*
G75*
G03*
X10646500Y-15602000I-152500J0D01*
G01*
X13026500Y-15602000D02*
G75*
G03*
X13026500Y-15602000I-152500J0D01*
G01*
X16361500Y-17507000D02*
G75*
G03*
X16361500Y-17507000I-152500J0D01*
G01*
X18741500Y-17507000D02*
G75*
G03*
X18741500Y-17507000I-152500J0D01*
G01*
X22076500Y-17507000D02*
G75*
G03*
X22076500Y-17507000I-152500J0D01*
G01*
X24456500Y-17507000D02*
G75*
G03*
X24456500Y-17507000I-152500J0D01*
G01*
D14*
X10109200Y-14089400D02*
X10109200Y-14409400D01*
X9949200Y-14249400D02*
X10269200Y-14249400D01*
X32283400Y-14064000D02*
X32283400Y-14384000D01*
X32123400Y-14224000D02*
X32443400Y-14224000D01*
D15*
X10635423Y-17267423D02*
X10635423Y-16984577D01*
X10352577Y-16984577D01*
X10352577Y-17267423D01*
X10635423Y-17267423D01*
X10872923Y-12633423D02*
X10872923Y-12350577D01*
X10590077Y-12350577D01*
X10590077Y-12633423D01*
X10872923Y-12633423D01*
X10872923Y-18348423D02*
X10872923Y-18065577D01*
X10590077Y-18065577D01*
X10590077Y-18348423D01*
X10872923Y-18348423D01*
X11349173Y-14538423D02*
X11349173Y-14255577D01*
X11066327Y-14255577D01*
X11066327Y-14538423D01*
X11349173Y-14538423D01*
X11825423Y-16443423D02*
X11825423Y-16160577D01*
X11542577Y-16160577D01*
X11542577Y-16443423D01*
X11825423Y-16443423D01*
X12777923Y-12633423D02*
X12777923Y-12350577D01*
X12495077Y-12350577D01*
X12495077Y-12633423D01*
X12777923Y-12633423D01*
X12777923Y-18348423D02*
X12777923Y-18065577D01*
X12495077Y-18065577D01*
X12495077Y-18348423D01*
X12777923Y-18348423D01*
X13015423Y-17267423D02*
X13015423Y-16984577D01*
X12732577Y-16984577D01*
X12732577Y-17267423D01*
X13015423Y-17267423D01*
X13730423Y-14538423D02*
X13730423Y-14255577D01*
X13447577Y-14255577D01*
X13447577Y-14538423D01*
X13730423Y-14538423D01*
X14682923Y-12633423D02*
X14682923Y-12350577D01*
X14400077Y-12350577D01*
X14400077Y-12633423D01*
X14682923Y-12633423D01*
X14682923Y-16443423D02*
X14682923Y-16160577D01*
X14400077Y-16160577D01*
X14400077Y-16443423D01*
X14682923Y-16443423D01*
X14682923Y-18348423D02*
X14682923Y-18065577D01*
X14400077Y-18065577D01*
X14400077Y-18348423D01*
X14682923Y-18348423D01*
X15635423Y-14538423D02*
X15635423Y-14255577D01*
X15352577Y-14255577D01*
X15352577Y-14538423D01*
X15635423Y-14538423D01*
X16350423Y-19172423D02*
X16350423Y-18889577D01*
X16067577Y-18889577D01*
X16067577Y-19172423D01*
X16350423Y-19172423D01*
X16587923Y-12633423D02*
X16587923Y-12350577D01*
X16305077Y-12350577D01*
X16305077Y-12633423D01*
X16587923Y-12633423D01*
X16587923Y-16443423D02*
X16587923Y-16160577D01*
X16305077Y-16160577D01*
X16305077Y-16443423D01*
X16587923Y-16443423D01*
X17540423Y-14538423D02*
X17540423Y-14255577D01*
X17257577Y-14255577D01*
X17257577Y-14538423D01*
X17540423Y-14538423D01*
X17540423Y-18348423D02*
X17540423Y-18065577D01*
X17257577Y-18065577D01*
X17257577Y-18348423D01*
X17540423Y-18348423D01*
X18492923Y-12633423D02*
X18492923Y-12350577D01*
X18210077Y-12350577D01*
X18210077Y-12633423D01*
X18492923Y-12633423D01*
X18492923Y-16443423D02*
X18492923Y-16160577D01*
X18210077Y-16160577D01*
X18210077Y-16443423D01*
X18492923Y-16443423D01*
X18730423Y-19172423D02*
X18730423Y-18889577D01*
X18447577Y-18889577D01*
X18447577Y-19172423D01*
X18730423Y-19172423D01*
X19445423Y-14538423D02*
X19445423Y-14255577D01*
X19162577Y-14255577D01*
X19162577Y-14538423D01*
X19445423Y-14538423D01*
X20397923Y-12633423D02*
X20397923Y-12350577D01*
X20115077Y-12350577D01*
X20115077Y-12633423D01*
X20397923Y-12633423D01*
X20397923Y-16443423D02*
X20397923Y-16160577D01*
X20115077Y-16160577D01*
X20115077Y-16443423D01*
X20397923Y-16443423D01*
X20397923Y-18348423D02*
X20397923Y-18065577D01*
X20115077Y-18065577D01*
X20115077Y-18348423D01*
X20397923Y-18348423D01*
X21350423Y-14538423D02*
X21350423Y-14255577D01*
X21067577Y-14255577D01*
X21067577Y-14538423D01*
X21350423Y-14538423D01*
X22065423Y-19172423D02*
X22065423Y-18889577D01*
X21782577Y-18889577D01*
X21782577Y-19172423D01*
X22065423Y-19172423D01*
X22302923Y-12633423D02*
X22302923Y-12350577D01*
X22020077Y-12350577D01*
X22020077Y-12633423D01*
X22302923Y-12633423D01*
X22302923Y-16443423D02*
X22302923Y-16160577D01*
X22020077Y-16160577D01*
X22020077Y-16443423D01*
X22302923Y-16443423D01*
X23255423Y-14538423D02*
X23255423Y-14255577D01*
X22972577Y-14255577D01*
X22972577Y-14538423D01*
X23255423Y-14538423D01*
X23255423Y-18348423D02*
X23255423Y-18065577D01*
X22972577Y-18065577D01*
X22972577Y-18348423D01*
X23255423Y-18348423D01*
X24207923Y-12633423D02*
X24207923Y-12350577D01*
X23925077Y-12350577D01*
X23925077Y-12633423D01*
X24207923Y-12633423D01*
X24207923Y-16443423D02*
X24207923Y-16160577D01*
X23925077Y-16160577D01*
X23925077Y-16443423D01*
X24207923Y-16443423D01*
X24445423Y-19172423D02*
X24445423Y-18889577D01*
X24162577Y-18889577D01*
X24162577Y-19172423D01*
X24445423Y-19172423D01*
X25160423Y-14538423D02*
X25160423Y-14255577D01*
X24877577Y-14255577D01*
X24877577Y-14538423D01*
X25160423Y-14538423D01*
X26112923Y-12633423D02*
X26112923Y-12350577D01*
X25830077Y-12350577D01*
X25830077Y-12633423D01*
X26112923Y-12633423D01*
X26112923Y-16443423D02*
X26112923Y-16160577D01*
X25830077Y-16160577D01*
X25830077Y-16443423D01*
X26112923Y-16443423D01*
X26112923Y-18348423D02*
X26112923Y-18065577D01*
X25830077Y-18065577D01*
X25830077Y-18348423D01*
X26112923Y-18348423D01*
X27065423Y-14538423D02*
X27065423Y-14255577D01*
X26782577Y-14255577D01*
X26782577Y-14538423D01*
X27065423Y-14538423D01*
X28017923Y-12633423D02*
X28017923Y-12350577D01*
X27735077Y-12350577D01*
X27735077Y-12633423D01*
X28017923Y-12633423D01*
X28017923Y-16443423D02*
X28017923Y-16160577D01*
X27735077Y-16160577D01*
X27735077Y-16443423D01*
X28017923Y-16443423D01*
X28017923Y-18348423D02*
X28017923Y-18065577D01*
X27735077Y-18065577D01*
X27735077Y-18348423D01*
X28017923Y-18348423D01*
X28970423Y-14538423D02*
X28970423Y-14255577D01*
X28687577Y-14255577D01*
X28687577Y-14538423D01*
X28970423Y-14538423D01*
X29922923Y-12633423D02*
X29922923Y-12350577D01*
X29640077Y-12350577D01*
X29640077Y-12633423D01*
X29922923Y-12633423D01*
X29922923Y-16443423D02*
X29922923Y-16160577D01*
X29640077Y-16160577D01*
X29640077Y-16443423D01*
X29922923Y-16443423D01*
X29922923Y-18348423D02*
X29922923Y-18065577D01*
X29640077Y-18065577D01*
X29640077Y-18348423D01*
X29922923Y-18348423D01*
X31351673Y-14538423D02*
X31351673Y-14255577D01*
X31068827Y-14255577D01*
X31068827Y-14538423D01*
X31351673Y-14538423D01*
X31827923Y-12633423D02*
X31827923Y-12350577D01*
X31545077Y-12350577D01*
X31545077Y-12633423D01*
X31827923Y-12633423D01*
X31827923Y-16443423D02*
X31827923Y-16160577D01*
X31545077Y-16160577D01*
X31545077Y-16443423D01*
X31827923Y-16443423D01*
X31827923Y-18348423D02*
X31827923Y-18065577D01*
X31545077Y-18065577D01*
X31545077Y-18348423D01*
X31827923Y-18348423D01*
D11*
X9983319Y-19743976D02*
X9983319Y-19543976D01*
X10030938Y-19543976D01*
X10059510Y-19553500D01*
X10078557Y-19572548D01*
X10088081Y-19591595D01*
X10097605Y-19629690D01*
X10097605Y-19658262D01*
X10088081Y-19696357D01*
X10078557Y-19715405D01*
X10059510Y-19734452D01*
X10030938Y-19743976D01*
X9983319Y-19743976D01*
X10183319Y-19743976D02*
X10183319Y-19610643D01*
X10183319Y-19648738D02*
X10192843Y-19629690D01*
X10202367Y-19620167D01*
X10221414Y-19610643D01*
X10240462Y-19610643D01*
X10307129Y-19743976D02*
X10307129Y-19610643D01*
X10307129Y-19543976D02*
X10297605Y-19553500D01*
X10307129Y-19563024D01*
X10316652Y-19553500D01*
X10307129Y-19543976D01*
X10307129Y-19563024D01*
X10430938Y-19743976D02*
X10411890Y-19734452D01*
X10402367Y-19715405D01*
X10402367Y-19543976D01*
X10535700Y-19743976D02*
X10516652Y-19734452D01*
X10507129Y-19715405D01*
X10507129Y-19543976D01*
X10764271Y-19743976D02*
X10764271Y-19543976D01*
X10830938Y-19686833D01*
X10897605Y-19543976D01*
X10897605Y-19743976D01*
X11078557Y-19743976D02*
X11078557Y-19639214D01*
X11069033Y-19620167D01*
X11049986Y-19610643D01*
X11011890Y-19610643D01*
X10992843Y-19620167D01*
X11078557Y-19734452D02*
X11059510Y-19743976D01*
X11011890Y-19743976D01*
X10992843Y-19734452D01*
X10983319Y-19715405D01*
X10983319Y-19696357D01*
X10992843Y-19677310D01*
X11011890Y-19667786D01*
X11059510Y-19667786D01*
X11078557Y-19658262D01*
X11173795Y-19610643D02*
X11173795Y-19810643D01*
X11173795Y-19620167D02*
X11192843Y-19610643D01*
X11230938Y-19610643D01*
X11249986Y-19620167D01*
X11259509Y-19629690D01*
X11269033Y-19648738D01*
X11269033Y-19705881D01*
X11259509Y-19724929D01*
X11249986Y-19734452D01*
X11230938Y-19743976D01*
X11192843Y-19743976D01*
X11173795Y-19734452D01*
X11354748Y-19724929D02*
X11364271Y-19734452D01*
X11354748Y-19743976D01*
X11345224Y-19734452D01*
X11354748Y-19724929D01*
X11354748Y-19743976D01*
X11354748Y-19620167D02*
X11364271Y-19629690D01*
X11354748Y-19639214D01*
X11345224Y-19629690D01*
X11354748Y-19620167D01*
X11354748Y-19639214D01*
D12*
X9555700Y-19988500D02*
X9725700Y-20158500D01*
X9725700Y-19988500D02*
X9555700Y-20158500D01*
D11*
X10088081Y-20163976D02*
X9973795Y-20163976D01*
X10030938Y-20163976D02*
X10030938Y-19963976D01*
X10011890Y-19992548D01*
X9992843Y-20011595D01*
X9973795Y-20021119D01*
X10173795Y-20144929D02*
X10183319Y-20154452D01*
X10173795Y-20163976D01*
X10164271Y-20154452D01*
X10173795Y-20144929D01*
X10173795Y-20163976D01*
X10249986Y-19963976D02*
X10383319Y-19963976D01*
X10297605Y-20163976D01*
X10497605Y-19963976D02*
X10516652Y-19963976D01*
X10535700Y-19973500D01*
X10545224Y-19983024D01*
X10554748Y-20002071D01*
X10564271Y-20040167D01*
X10564271Y-20087786D01*
X10554748Y-20125881D01*
X10545224Y-20144929D01*
X10535700Y-20154452D01*
X10516652Y-20163976D01*
X10497605Y-20163976D01*
X10478557Y-20154452D01*
X10469033Y-20144929D01*
X10459510Y-20125881D01*
X10449986Y-20087786D01*
X10449986Y-20040167D01*
X10459510Y-20002071D01*
X10469033Y-19983024D01*
X10478557Y-19973500D01*
X10497605Y-19963976D01*
X10688081Y-19963976D02*
X10707129Y-19963976D01*
X10726176Y-19973500D01*
X10735700Y-19983024D01*
X10745224Y-20002071D01*
X10754748Y-20040167D01*
X10754748Y-20087786D01*
X10745224Y-20125881D01*
X10735700Y-20144929D01*
X10726176Y-20154452D01*
X10707129Y-20163976D01*
X10688081Y-20163976D01*
X10669033Y-20154452D01*
X10659510Y-20144929D01*
X10649986Y-20125881D01*
X10640462Y-20087786D01*
X10640462Y-20040167D01*
X10649986Y-20002071D01*
X10659510Y-19983024D01*
X10669033Y-19973500D01*
X10688081Y-19963976D01*
X10840462Y-20163976D02*
X10840462Y-20030643D01*
X10840462Y-20049690D02*
X10849986Y-20040167D01*
X10869033Y-20030643D01*
X10897605Y-20030643D01*
X10916652Y-20040167D01*
X10926176Y-20059214D01*
X10926176Y-20163976D01*
X10926176Y-20059214D02*
X10935700Y-20040167D01*
X10954748Y-20030643D01*
X10983319Y-20030643D01*
X11002367Y-20040167D01*
X11011890Y-20059214D01*
X11011890Y-20163976D01*
X11107129Y-20163976D02*
X11107129Y-20030643D01*
X11107129Y-20049690D02*
X11116652Y-20040167D01*
X11135700Y-20030643D01*
X11164271Y-20030643D01*
X11183319Y-20040167D01*
X11192843Y-20059214D01*
X11192843Y-20163976D01*
X11192843Y-20059214D02*
X11202367Y-20040167D01*
X11221414Y-20030643D01*
X11249986Y-20030643D01*
X11269033Y-20040167D01*
X11278557Y-20059214D01*
X11278557Y-20163976D01*
X11669033Y-19954452D02*
X11497605Y-20211595D01*
X11926176Y-19963976D02*
X11945224Y-19963976D01*
X11964271Y-19973500D01*
X11973795Y-19983024D01*
X11983319Y-20002071D01*
X11992843Y-20040167D01*
X11992843Y-20087786D01*
X11983319Y-20125881D01*
X11973795Y-20144929D01*
X11964271Y-20154452D01*
X11945224Y-20163976D01*
X11926176Y-20163976D01*
X11907128Y-20154452D01*
X11897605Y-20144929D01*
X11888081Y-20125881D01*
X11878557Y-20087786D01*
X11878557Y-20040167D01*
X11888081Y-20002071D01*
X11897605Y-19983024D01*
X11907128Y-19973500D01*
X11926176Y-19963976D01*
X12078557Y-20144929D02*
X12088081Y-20154452D01*
X12078557Y-20163976D01*
X12069033Y-20154452D01*
X12078557Y-20144929D01*
X12078557Y-20163976D01*
X12211890Y-19963976D02*
X12230938Y-19963976D01*
X12249986Y-19973500D01*
X12259509Y-19983024D01*
X12269033Y-20002071D01*
X12278557Y-20040167D01*
X12278557Y-20087786D01*
X12269033Y-20125881D01*
X12259509Y-20144929D01*
X12249986Y-20154452D01*
X12230938Y-20163976D01*
X12211890Y-20163976D01*
X12192843Y-20154452D01*
X12183319Y-20144929D01*
X12173795Y-20125881D01*
X12164271Y-20087786D01*
X12164271Y-20040167D01*
X12173795Y-20002071D01*
X12183319Y-19983024D01*
X12192843Y-19973500D01*
X12211890Y-19963976D01*
X12449986Y-19963976D02*
X12411890Y-19963976D01*
X12392843Y-19973500D01*
X12383319Y-19983024D01*
X12364271Y-20011595D01*
X12354748Y-20049690D01*
X12354748Y-20125881D01*
X12364271Y-20144929D01*
X12373795Y-20154452D01*
X12392843Y-20163976D01*
X12430938Y-20163976D01*
X12449986Y-20154452D01*
X12459509Y-20144929D01*
X12469033Y-20125881D01*
X12469033Y-20078262D01*
X12459509Y-20059214D01*
X12449986Y-20049690D01*
X12430938Y-20040167D01*
X12392843Y-20040167D01*
X12373795Y-20049690D01*
X12364271Y-20059214D01*
X12354748Y-20078262D01*
X12640462Y-19963976D02*
X12602367Y-19963976D01*
X12583319Y-19973500D01*
X12573795Y-19983024D01*
X12554748Y-20011595D01*
X12545224Y-20049690D01*
X12545224Y-20125881D01*
X12554748Y-20144929D01*
X12564271Y-20154452D01*
X12583319Y-20163976D01*
X12621414Y-20163976D01*
X12640462Y-20154452D01*
X12649986Y-20144929D01*
X12659509Y-20125881D01*
X12659509Y-20078262D01*
X12649986Y-20059214D01*
X12640462Y-20049690D01*
X12621414Y-20040167D01*
X12583319Y-20040167D01*
X12564271Y-20049690D01*
X12554748Y-20059214D01*
X12545224Y-20078262D01*
X12754748Y-20163976D02*
X12792843Y-20163976D01*
X12811890Y-20154452D01*
X12821414Y-20144929D01*
X12840462Y-20116357D01*
X12849986Y-20078262D01*
X12849986Y-20002071D01*
X12840462Y-19983024D01*
X12830938Y-19973500D01*
X12811890Y-19963976D01*
X12773795Y-19963976D01*
X12754748Y-19973500D01*
X12745224Y-19983024D01*
X12735700Y-20002071D01*
X12735700Y-20049690D01*
X12745224Y-20068738D01*
X12754748Y-20078262D01*
X12773795Y-20087786D01*
X12811890Y-20087786D01*
X12830938Y-20078262D01*
X12840462Y-20068738D01*
X12849986Y-20049690D01*
X12926176Y-19963976D02*
X12926176Y-20002071D01*
X13002367Y-19963976D02*
X13002367Y-20002071D01*
X13297605Y-20240167D02*
X13288081Y-20230643D01*
X13269033Y-20202071D01*
X13259509Y-20183024D01*
X13249986Y-20154452D01*
X13240462Y-20106833D01*
X13240462Y-20068738D01*
X13249986Y-20021119D01*
X13259509Y-19992548D01*
X13269033Y-19973500D01*
X13288081Y-19944929D01*
X13297605Y-19935405D01*
X13402367Y-20049690D02*
X13383319Y-20040167D01*
X13373795Y-20030643D01*
X13364271Y-20011595D01*
X13364271Y-20002071D01*
X13373795Y-19983024D01*
X13383319Y-19973500D01*
X13402367Y-19963976D01*
X13440462Y-19963976D01*
X13459509Y-19973500D01*
X13469033Y-19983024D01*
X13478557Y-20002071D01*
X13478557Y-20011595D01*
X13469033Y-20030643D01*
X13459509Y-20040167D01*
X13440462Y-20049690D01*
X13402367Y-20049690D01*
X13383319Y-20059214D01*
X13373795Y-20068738D01*
X13364271Y-20087786D01*
X13364271Y-20125881D01*
X13373795Y-20144929D01*
X13383319Y-20154452D01*
X13402367Y-20163976D01*
X13440462Y-20163976D01*
X13459509Y-20154452D01*
X13469033Y-20144929D01*
X13478557Y-20125881D01*
X13478557Y-20087786D01*
X13469033Y-20068738D01*
X13459509Y-20059214D01*
X13440462Y-20049690D01*
X13592843Y-20049690D02*
X13573795Y-20040167D01*
X13564271Y-20030643D01*
X13554748Y-20011595D01*
X13554748Y-20002071D01*
X13564271Y-19983024D01*
X13573795Y-19973500D01*
X13592843Y-19963976D01*
X13630938Y-19963976D01*
X13649986Y-19973500D01*
X13659509Y-19983024D01*
X13669033Y-20002071D01*
X13669033Y-20011595D01*
X13659509Y-20030643D01*
X13649986Y-20040167D01*
X13630938Y-20049690D01*
X13592843Y-20049690D01*
X13573795Y-20059214D01*
X13564271Y-20068738D01*
X13554748Y-20087786D01*
X13554748Y-20125881D01*
X13564271Y-20144929D01*
X13573795Y-20154452D01*
X13592843Y-20163976D01*
X13630938Y-20163976D01*
X13649986Y-20154452D01*
X13659509Y-20144929D01*
X13669033Y-20125881D01*
X13669033Y-20087786D01*
X13659509Y-20068738D01*
X13649986Y-20059214D01*
X13630938Y-20049690D01*
X13907128Y-20163976D02*
X13907128Y-19963976D01*
X13992843Y-20163976D02*
X13992843Y-20059214D01*
X13983319Y-20040167D01*
X13964271Y-20030643D01*
X13935700Y-20030643D01*
X13916652Y-20040167D01*
X13907128Y-20049690D01*
X14116652Y-20163976D02*
X14097605Y-20154452D01*
X14088081Y-20144929D01*
X14078557Y-20125881D01*
X14078557Y-20068738D01*
X14088081Y-20049690D01*
X14097605Y-20040167D01*
X14116652Y-20030643D01*
X14145224Y-20030643D01*
X14164271Y-20040167D01*
X14173795Y-20049690D01*
X14183319Y-20068738D01*
X14183319Y-20125881D01*
X14173795Y-20144929D01*
X14164271Y-20154452D01*
X14145224Y-20163976D01*
X14116652Y-20163976D01*
X14297605Y-20163976D02*
X14278557Y-20154452D01*
X14269033Y-20135405D01*
X14269033Y-19963976D01*
X14449986Y-20154452D02*
X14430938Y-20163976D01*
X14392843Y-20163976D01*
X14373795Y-20154452D01*
X14364271Y-20135405D01*
X14364271Y-20059214D01*
X14373795Y-20040167D01*
X14392843Y-20030643D01*
X14430938Y-20030643D01*
X14449986Y-20040167D01*
X14459509Y-20059214D01*
X14459509Y-20078262D01*
X14364271Y-20097310D01*
X14535700Y-20154452D02*
X14554748Y-20163976D01*
X14592843Y-20163976D01*
X14611890Y-20154452D01*
X14621414Y-20135405D01*
X14621414Y-20125881D01*
X14611890Y-20106833D01*
X14592843Y-20097310D01*
X14564271Y-20097310D01*
X14545224Y-20087786D01*
X14535700Y-20068738D01*
X14535700Y-20059214D01*
X14545224Y-20040167D01*
X14564271Y-20030643D01*
X14592843Y-20030643D01*
X14611890Y-20040167D01*
X14688081Y-20240167D02*
X14697605Y-20230643D01*
X14716652Y-20202071D01*
X14726176Y-20183024D01*
X14735700Y-20154452D01*
X14745224Y-20106833D01*
X14745224Y-20068738D01*
X14735700Y-20021119D01*
X14726176Y-19992548D01*
X14716652Y-19973500D01*
X14697605Y-19944929D01*
X14688081Y-19935405D01*
X15049986Y-20240167D02*
X15040462Y-20230643D01*
X15021414Y-20202071D01*
X15011890Y-20183024D01*
X15002367Y-20154452D01*
X14992843Y-20106833D01*
X14992843Y-20068738D01*
X15002367Y-20021119D01*
X15011890Y-19992548D01*
X15021414Y-19973500D01*
X15040462Y-19944929D01*
X15049986Y-19935405D01*
X15126176Y-20030643D02*
X15126176Y-20163976D01*
X15126176Y-20049690D02*
X15135700Y-20040167D01*
X15154748Y-20030643D01*
X15183319Y-20030643D01*
X15202367Y-20040167D01*
X15211890Y-20059214D01*
X15211890Y-20163976D01*
X15335700Y-20163976D02*
X15316652Y-20154452D01*
X15307128Y-20144929D01*
X15297605Y-20125881D01*
X15297605Y-20068738D01*
X15307128Y-20049690D01*
X15316652Y-20040167D01*
X15335700Y-20030643D01*
X15364271Y-20030643D01*
X15383319Y-20040167D01*
X15392843Y-20049690D01*
X15402367Y-20068738D01*
X15402367Y-20125881D01*
X15392843Y-20144929D01*
X15383319Y-20154452D01*
X15364271Y-20163976D01*
X15335700Y-20163976D01*
X15459509Y-20030643D02*
X15535700Y-20030643D01*
X15488081Y-19963976D02*
X15488081Y-20135405D01*
X15497605Y-20154452D01*
X15516652Y-20163976D01*
X15535700Y-20163976D01*
X15754748Y-20030643D02*
X15754748Y-20230643D01*
X15754748Y-20040167D02*
X15773795Y-20030643D01*
X15811890Y-20030643D01*
X15830938Y-20040167D01*
X15840462Y-20049690D01*
X15849986Y-20068738D01*
X15849986Y-20125881D01*
X15840462Y-20144929D01*
X15830938Y-20154452D01*
X15811890Y-20163976D01*
X15773795Y-20163976D01*
X15754748Y-20154452D01*
X15964271Y-20163976D02*
X15945224Y-20154452D01*
X15935700Y-20135405D01*
X15935700Y-19963976D01*
X16126176Y-20163976D02*
X16126176Y-20059214D01*
X16116652Y-20040167D01*
X16097605Y-20030643D01*
X16059509Y-20030643D01*
X16040462Y-20040167D01*
X16126176Y-20154452D02*
X16107128Y-20163976D01*
X16059509Y-20163976D01*
X16040462Y-20154452D01*
X16030938Y-20135405D01*
X16030938Y-20116357D01*
X16040462Y-20097310D01*
X16059509Y-20087786D01*
X16107128Y-20087786D01*
X16126176Y-20078262D01*
X16192843Y-20030643D02*
X16269033Y-20030643D01*
X16221414Y-19963976D02*
X16221414Y-20135405D01*
X16230938Y-20154452D01*
X16249986Y-20163976D01*
X16269033Y-20163976D01*
X16411890Y-20154452D02*
X16392843Y-20163976D01*
X16354748Y-20163976D01*
X16335700Y-20154452D01*
X16326176Y-20135405D01*
X16326176Y-20059214D01*
X16335700Y-20040167D01*
X16354748Y-20030643D01*
X16392843Y-20030643D01*
X16411890Y-20040167D01*
X16421414Y-20059214D01*
X16421414Y-20078262D01*
X16326176Y-20097310D01*
X16592843Y-20163976D02*
X16592843Y-19963976D01*
X16592843Y-20154452D02*
X16573795Y-20163976D01*
X16535700Y-20163976D01*
X16516652Y-20154452D01*
X16507128Y-20144929D01*
X16497605Y-20125881D01*
X16497605Y-20068738D01*
X16507128Y-20049690D01*
X16516652Y-20040167D01*
X16535700Y-20030643D01*
X16573795Y-20030643D01*
X16592843Y-20040167D01*
X16669033Y-20240167D02*
X16678557Y-20230643D01*
X16697605Y-20202071D01*
X16707128Y-20183024D01*
X16716652Y-20154452D01*
X16726176Y-20106833D01*
X16726176Y-20068738D01*
X16716652Y-20021119D01*
X16707128Y-19992548D01*
X16697605Y-19973500D01*
X16678557Y-19944929D01*
X16669033Y-19935405D01*
X9725700Y-20363500D02*
G75*
G03*
X9725700Y-20363500I-100000J0D01*
G01*
X9964271Y-20253976D02*
X10088081Y-20253976D01*
X10021414Y-20330167D01*
X10049986Y-20330167D01*
X10069033Y-20339690D01*
X10078557Y-20349214D01*
X10088081Y-20368262D01*
X10088081Y-20415881D01*
X10078557Y-20434929D01*
X10069033Y-20444452D01*
X10049986Y-20453976D01*
X9992843Y-20453976D01*
X9973795Y-20444452D01*
X9964271Y-20434929D01*
X10173795Y-20434929D02*
X10183319Y-20444452D01*
X10173795Y-20453976D01*
X10164271Y-20444452D01*
X10173795Y-20434929D01*
X10173795Y-20453976D01*
X10307129Y-20253976D02*
X10326176Y-20253976D01*
X10345224Y-20263500D01*
X10354748Y-20273024D01*
X10364271Y-20292071D01*
X10373795Y-20330167D01*
X10373795Y-20377786D01*
X10364271Y-20415881D01*
X10354748Y-20434929D01*
X10345224Y-20444452D01*
X10326176Y-20453976D01*
X10307129Y-20453976D01*
X10288081Y-20444452D01*
X10278557Y-20434929D01*
X10269033Y-20415881D01*
X10259510Y-20377786D01*
X10259510Y-20330167D01*
X10269033Y-20292071D01*
X10278557Y-20273024D01*
X10288081Y-20263500D01*
X10307129Y-20253976D01*
X10554748Y-20253976D02*
X10459510Y-20253976D01*
X10449986Y-20349214D01*
X10459510Y-20339690D01*
X10478557Y-20330167D01*
X10526176Y-20330167D01*
X10545224Y-20339690D01*
X10554748Y-20349214D01*
X10564271Y-20368262D01*
X10564271Y-20415881D01*
X10554748Y-20434929D01*
X10545224Y-20444452D01*
X10526176Y-20453976D01*
X10478557Y-20453976D01*
X10459510Y-20444452D01*
X10449986Y-20434929D01*
X10688081Y-20253976D02*
X10707129Y-20253976D01*
X10726176Y-20263500D01*
X10735700Y-20273024D01*
X10745224Y-20292071D01*
X10754748Y-20330167D01*
X10754748Y-20377786D01*
X10745224Y-20415881D01*
X10735700Y-20434929D01*
X10726176Y-20444452D01*
X10707129Y-20453976D01*
X10688081Y-20453976D01*
X10669033Y-20444452D01*
X10659510Y-20434929D01*
X10649986Y-20415881D01*
X10640462Y-20377786D01*
X10640462Y-20330167D01*
X10649986Y-20292071D01*
X10659510Y-20273024D01*
X10669033Y-20263500D01*
X10688081Y-20253976D01*
X10840462Y-20453976D02*
X10840462Y-20320643D01*
X10840462Y-20339690D02*
X10849986Y-20330167D01*
X10869033Y-20320643D01*
X10897605Y-20320643D01*
X10916652Y-20330167D01*
X10926176Y-20349214D01*
X10926176Y-20453976D01*
X10926176Y-20349214D02*
X10935700Y-20330167D01*
X10954748Y-20320643D01*
X10983319Y-20320643D01*
X11002367Y-20330167D01*
X11011890Y-20349214D01*
X11011890Y-20453976D01*
X11107129Y-20453976D02*
X11107129Y-20320643D01*
X11107129Y-20339690D02*
X11116652Y-20330167D01*
X11135700Y-20320643D01*
X11164271Y-20320643D01*
X11183319Y-20330167D01*
X11192843Y-20349214D01*
X11192843Y-20453976D01*
X11192843Y-20349214D02*
X11202367Y-20330167D01*
X11221414Y-20320643D01*
X11249986Y-20320643D01*
X11269033Y-20330167D01*
X11278557Y-20349214D01*
X11278557Y-20453976D01*
X11669033Y-20244452D02*
X11497605Y-20501595D01*
X11926176Y-20253976D02*
X11945224Y-20253976D01*
X11964271Y-20263500D01*
X11973795Y-20273024D01*
X11983319Y-20292071D01*
X11992843Y-20330167D01*
X11992843Y-20377786D01*
X11983319Y-20415881D01*
X11973795Y-20434929D01*
X11964271Y-20444452D01*
X11945224Y-20453976D01*
X11926176Y-20453976D01*
X11907128Y-20444452D01*
X11897605Y-20434929D01*
X11888081Y-20415881D01*
X11878557Y-20377786D01*
X11878557Y-20330167D01*
X11888081Y-20292071D01*
X11897605Y-20273024D01*
X11907128Y-20263500D01*
X11926176Y-20253976D01*
X12078557Y-20434929D02*
X12088081Y-20444452D01*
X12078557Y-20453976D01*
X12069033Y-20444452D01*
X12078557Y-20434929D01*
X12078557Y-20453976D01*
X12278557Y-20453976D02*
X12164271Y-20453976D01*
X12221414Y-20453976D02*
X12221414Y-20253976D01*
X12202367Y-20282548D01*
X12183319Y-20301595D01*
X12164271Y-20311119D01*
X12354748Y-20273024D02*
X12364271Y-20263500D01*
X12383319Y-20253976D01*
X12430938Y-20253976D01*
X12449986Y-20263500D01*
X12459509Y-20273024D01*
X12469033Y-20292071D01*
X12469033Y-20311119D01*
X12459509Y-20339690D01*
X12345224Y-20453976D01*
X12469033Y-20453976D01*
X12592843Y-20253976D02*
X12611890Y-20253976D01*
X12630938Y-20263500D01*
X12640462Y-20273024D01*
X12649986Y-20292071D01*
X12659509Y-20330167D01*
X12659509Y-20377786D01*
X12649986Y-20415881D01*
X12640462Y-20434929D01*
X12630938Y-20444452D01*
X12611890Y-20453976D01*
X12592843Y-20453976D01*
X12573795Y-20444452D01*
X12564271Y-20434929D01*
X12554748Y-20415881D01*
X12545224Y-20377786D01*
X12545224Y-20330167D01*
X12554748Y-20292071D01*
X12564271Y-20273024D01*
X12573795Y-20263500D01*
X12592843Y-20253976D01*
X12849986Y-20453976D02*
X12735700Y-20453976D01*
X12792843Y-20453976D02*
X12792843Y-20253976D01*
X12773795Y-20282548D01*
X12754748Y-20301595D01*
X12735700Y-20311119D01*
X12926176Y-20253976D02*
X12926176Y-20292071D01*
X13002367Y-20253976D02*
X13002367Y-20292071D01*
X13297605Y-20530167D02*
X13288081Y-20520643D01*
X13269033Y-20492071D01*
X13259509Y-20473024D01*
X13249986Y-20444452D01*
X13240462Y-20396833D01*
X13240462Y-20358738D01*
X13249986Y-20311119D01*
X13259509Y-20282548D01*
X13269033Y-20263500D01*
X13288081Y-20234929D01*
X13297605Y-20225405D01*
X13459509Y-20253976D02*
X13421414Y-20253976D01*
X13402367Y-20263500D01*
X13392843Y-20273024D01*
X13373795Y-20301595D01*
X13364271Y-20339690D01*
X13364271Y-20415881D01*
X13373795Y-20434929D01*
X13383319Y-20444452D01*
X13402367Y-20453976D01*
X13440462Y-20453976D01*
X13459509Y-20444452D01*
X13469033Y-20434929D01*
X13478557Y-20415881D01*
X13478557Y-20368262D01*
X13469033Y-20349214D01*
X13459509Y-20339690D01*
X13440462Y-20330167D01*
X13402367Y-20330167D01*
X13383319Y-20339690D01*
X13373795Y-20349214D01*
X13364271Y-20368262D01*
X13716652Y-20453976D02*
X13716652Y-20253976D01*
X13802367Y-20453976D02*
X13802367Y-20349214D01*
X13792843Y-20330167D01*
X13773795Y-20320643D01*
X13745224Y-20320643D01*
X13726176Y-20330167D01*
X13716652Y-20339690D01*
X13926176Y-20453976D02*
X13907128Y-20444452D01*
X13897605Y-20434929D01*
X13888081Y-20415881D01*
X13888081Y-20358738D01*
X13897605Y-20339690D01*
X13907128Y-20330167D01*
X13926176Y-20320643D01*
X13954748Y-20320643D01*
X13973795Y-20330167D01*
X13983319Y-20339690D01*
X13992843Y-20358738D01*
X13992843Y-20415881D01*
X13983319Y-20434929D01*
X13973795Y-20444452D01*
X13954748Y-20453976D01*
X13926176Y-20453976D01*
X14107128Y-20453976D02*
X14088081Y-20444452D01*
X14078557Y-20425405D01*
X14078557Y-20253976D01*
X14259509Y-20444452D02*
X14240462Y-20453976D01*
X14202367Y-20453976D01*
X14183319Y-20444452D01*
X14173795Y-20425405D01*
X14173795Y-20349214D01*
X14183319Y-20330167D01*
X14202367Y-20320643D01*
X14240462Y-20320643D01*
X14259509Y-20330167D01*
X14269033Y-20349214D01*
X14269033Y-20368262D01*
X14173795Y-20387310D01*
X14345224Y-20444452D02*
X14364271Y-20453976D01*
X14402367Y-20453976D01*
X14421414Y-20444452D01*
X14430938Y-20425405D01*
X14430938Y-20415881D01*
X14421414Y-20396833D01*
X14402367Y-20387310D01*
X14373795Y-20387310D01*
X14354748Y-20377786D01*
X14345224Y-20358738D01*
X14345224Y-20349214D01*
X14354748Y-20330167D01*
X14373795Y-20320643D01*
X14402367Y-20320643D01*
X14421414Y-20330167D01*
X14497605Y-20530167D02*
X14507128Y-20520643D01*
X14526176Y-20492071D01*
X14535700Y-20473024D01*
X14545224Y-20444452D01*
X14554748Y-20396833D01*
X14554748Y-20358738D01*
X14545224Y-20311119D01*
X14535700Y-20282548D01*
X14526176Y-20263500D01*
X14507128Y-20234929D01*
X14497605Y-20225405D01*
X14859509Y-20530167D02*
X14849986Y-20520643D01*
X14830938Y-20492071D01*
X14821414Y-20473024D01*
X14811890Y-20444452D01*
X14802367Y-20396833D01*
X14802367Y-20358738D01*
X14811890Y-20311119D01*
X14821414Y-20282548D01*
X14830938Y-20263500D01*
X14849986Y-20234929D01*
X14859509Y-20225405D01*
X14935700Y-20320643D02*
X14935700Y-20453976D01*
X14935700Y-20339690D02*
X14945224Y-20330167D01*
X14964271Y-20320643D01*
X14992843Y-20320643D01*
X15011890Y-20330167D01*
X15021414Y-20349214D01*
X15021414Y-20453976D01*
X15145224Y-20453976D02*
X15126176Y-20444452D01*
X15116652Y-20434929D01*
X15107128Y-20415881D01*
X15107128Y-20358738D01*
X15116652Y-20339690D01*
X15126176Y-20330167D01*
X15145224Y-20320643D01*
X15173795Y-20320643D01*
X15192843Y-20330167D01*
X15202367Y-20339690D01*
X15211890Y-20358738D01*
X15211890Y-20415881D01*
X15202367Y-20434929D01*
X15192843Y-20444452D01*
X15173795Y-20453976D01*
X15145224Y-20453976D01*
X15269033Y-20320643D02*
X15345224Y-20320643D01*
X15297605Y-20253976D02*
X15297605Y-20425405D01*
X15307128Y-20444452D01*
X15326176Y-20453976D01*
X15345224Y-20453976D01*
X15564271Y-20320643D02*
X15564271Y-20520643D01*
X15564271Y-20330167D02*
X15583319Y-20320643D01*
X15621414Y-20320643D01*
X15640462Y-20330167D01*
X15649986Y-20339690D01*
X15659509Y-20358738D01*
X15659509Y-20415881D01*
X15649986Y-20434929D01*
X15640462Y-20444452D01*
X15621414Y-20453976D01*
X15583319Y-20453976D01*
X15564271Y-20444452D01*
X15773795Y-20453976D02*
X15754748Y-20444452D01*
X15745224Y-20425405D01*
X15745224Y-20253976D01*
X15935700Y-20453976D02*
X15935700Y-20349214D01*
X15926176Y-20330167D01*
X15907128Y-20320643D01*
X15869033Y-20320643D01*
X15849986Y-20330167D01*
X15935700Y-20444452D02*
X15916652Y-20453976D01*
X15869033Y-20453976D01*
X15849986Y-20444452D01*
X15840462Y-20425405D01*
X15840462Y-20406357D01*
X15849986Y-20387310D01*
X15869033Y-20377786D01*
X15916652Y-20377786D01*
X15935700Y-20368262D01*
X16002367Y-20320643D02*
X16078557Y-20320643D01*
X16030938Y-20253976D02*
X16030938Y-20425405D01*
X16040462Y-20444452D01*
X16059509Y-20453976D01*
X16078557Y-20453976D01*
X16221414Y-20444452D02*
X16202367Y-20453976D01*
X16164271Y-20453976D01*
X16145224Y-20444452D01*
X16135700Y-20425405D01*
X16135700Y-20349214D01*
X16145224Y-20330167D01*
X16164271Y-20320643D01*
X16202367Y-20320643D01*
X16221414Y-20330167D01*
X16230938Y-20349214D01*
X16230938Y-20368262D01*
X16135700Y-20387310D01*
X16402367Y-20453976D02*
X16402367Y-20253976D01*
X16402367Y-20444452D02*
X16383319Y-20453976D01*
X16345224Y-20453976D01*
X16326176Y-20444452D01*
X16316652Y-20434929D01*
X16307128Y-20415881D01*
X16307128Y-20358738D01*
X16316652Y-20339690D01*
X16326176Y-20330167D01*
X16345224Y-20320643D01*
X16383319Y-20320643D01*
X16402367Y-20330167D01*
X16478557Y-20530167D02*
X16488081Y-20520643D01*
X16507128Y-20492071D01*
X16516652Y-20473024D01*
X16526176Y-20444452D01*
X16535700Y-20396833D01*
X16535700Y-20358738D01*
X16526176Y-20311119D01*
X16516652Y-20282548D01*
X16507128Y-20263500D01*
X16488081Y-20234929D01*
X16478557Y-20225405D01*
X9625700Y-20583500D02*
X9625700Y-20783500D01*
X9525700Y-20683500D02*
X9725700Y-20683500D01*
X9964271Y-20573976D02*
X10088081Y-20573976D01*
X10021414Y-20650167D01*
X10049986Y-20650167D01*
X10069033Y-20659690D01*
X10078557Y-20669214D01*
X10088081Y-20688262D01*
X10088081Y-20735881D01*
X10078557Y-20754929D01*
X10069033Y-20764452D01*
X10049986Y-20773976D01*
X9992843Y-20773976D01*
X9973795Y-20764452D01*
X9964271Y-20754929D01*
X10173795Y-20754929D02*
X10183319Y-20764452D01*
X10173795Y-20773976D01*
X10164271Y-20764452D01*
X10173795Y-20754929D01*
X10173795Y-20773976D01*
X10259510Y-20593024D02*
X10269033Y-20583500D01*
X10288081Y-20573976D01*
X10335700Y-20573976D01*
X10354748Y-20583500D01*
X10364271Y-20593024D01*
X10373795Y-20612071D01*
X10373795Y-20631119D01*
X10364271Y-20659690D01*
X10249986Y-20773976D01*
X10373795Y-20773976D01*
X10497605Y-20573976D02*
X10516652Y-20573976D01*
X10535700Y-20583500D01*
X10545224Y-20593024D01*
X10554748Y-20612071D01*
X10564271Y-20650167D01*
X10564271Y-20697786D01*
X10554748Y-20735881D01*
X10545224Y-20754929D01*
X10535700Y-20764452D01*
X10516652Y-20773976D01*
X10497605Y-20773976D01*
X10478557Y-20764452D01*
X10469033Y-20754929D01*
X10459510Y-20735881D01*
X10449986Y-20697786D01*
X10449986Y-20650167D01*
X10459510Y-20612071D01*
X10469033Y-20593024D01*
X10478557Y-20583500D01*
X10497605Y-20573976D01*
X10688081Y-20573976D02*
X10707129Y-20573976D01*
X10726176Y-20583500D01*
X10735700Y-20593024D01*
X10745224Y-20612071D01*
X10754748Y-20650167D01*
X10754748Y-20697786D01*
X10745224Y-20735881D01*
X10735700Y-20754929D01*
X10726176Y-20764452D01*
X10707129Y-20773976D01*
X10688081Y-20773976D01*
X10669033Y-20764452D01*
X10659510Y-20754929D01*
X10649986Y-20735881D01*
X10640462Y-20697786D01*
X10640462Y-20650167D01*
X10649986Y-20612071D01*
X10659510Y-20593024D01*
X10669033Y-20583500D01*
X10688081Y-20573976D01*
X10840462Y-20773976D02*
X10840462Y-20640643D01*
X10840462Y-20659690D02*
X10849986Y-20650167D01*
X10869033Y-20640643D01*
X10897605Y-20640643D01*
X10916652Y-20650167D01*
X10926176Y-20669214D01*
X10926176Y-20773976D01*
X10926176Y-20669214D02*
X10935700Y-20650167D01*
X10954748Y-20640643D01*
X10983319Y-20640643D01*
X11002367Y-20650167D01*
X11011890Y-20669214D01*
X11011890Y-20773976D01*
X11107129Y-20773976D02*
X11107129Y-20640643D01*
X11107129Y-20659690D02*
X11116652Y-20650167D01*
X11135700Y-20640643D01*
X11164271Y-20640643D01*
X11183319Y-20650167D01*
X11192843Y-20669214D01*
X11192843Y-20773976D01*
X11192843Y-20669214D02*
X11202367Y-20650167D01*
X11221414Y-20640643D01*
X11249986Y-20640643D01*
X11269033Y-20650167D01*
X11278557Y-20669214D01*
X11278557Y-20773976D01*
X11669033Y-20564452D02*
X11497605Y-20821595D01*
X11926176Y-20573976D02*
X11945224Y-20573976D01*
X11964271Y-20583500D01*
X11973795Y-20593024D01*
X11983319Y-20612071D01*
X11992843Y-20650167D01*
X11992843Y-20697786D01*
X11983319Y-20735881D01*
X11973795Y-20754929D01*
X11964271Y-20764452D01*
X11945224Y-20773976D01*
X11926176Y-20773976D01*
X11907128Y-20764452D01*
X11897605Y-20754929D01*
X11888081Y-20735881D01*
X11878557Y-20697786D01*
X11878557Y-20650167D01*
X11888081Y-20612071D01*
X11897605Y-20593024D01*
X11907128Y-20583500D01*
X11926176Y-20573976D01*
X12078557Y-20754929D02*
X12088081Y-20764452D01*
X12078557Y-20773976D01*
X12069033Y-20764452D01*
X12078557Y-20754929D01*
X12078557Y-20773976D01*
X12278557Y-20773976D02*
X12164271Y-20773976D01*
X12221414Y-20773976D02*
X12221414Y-20573976D01*
X12202367Y-20602548D01*
X12183319Y-20621595D01*
X12164271Y-20631119D01*
X12354748Y-20593024D02*
X12364271Y-20583500D01*
X12383319Y-20573976D01*
X12430938Y-20573976D01*
X12449986Y-20583500D01*
X12459509Y-20593024D01*
X12469033Y-20612071D01*
X12469033Y-20631119D01*
X12459509Y-20659690D01*
X12345224Y-20773976D01*
X12469033Y-20773976D01*
X12640462Y-20573976D02*
X12602367Y-20573976D01*
X12583319Y-20583500D01*
X12573795Y-20593024D01*
X12554748Y-20621595D01*
X12545224Y-20659690D01*
X12545224Y-20735881D01*
X12554748Y-20754929D01*
X12564271Y-20764452D01*
X12583319Y-20773976D01*
X12621414Y-20773976D01*
X12640462Y-20764452D01*
X12649986Y-20754929D01*
X12659509Y-20735881D01*
X12659509Y-20688262D01*
X12649986Y-20669214D01*
X12640462Y-20659690D01*
X12621414Y-20650167D01*
X12583319Y-20650167D01*
X12564271Y-20659690D01*
X12554748Y-20669214D01*
X12545224Y-20688262D01*
X12783319Y-20573976D02*
X12802367Y-20573976D01*
X12821414Y-20583500D01*
X12830938Y-20593024D01*
X12840462Y-20612071D01*
X12849986Y-20650167D01*
X12849986Y-20697786D01*
X12840462Y-20735881D01*
X12830938Y-20754929D01*
X12821414Y-20764452D01*
X12802367Y-20773976D01*
X12783319Y-20773976D01*
X12764271Y-20764452D01*
X12754748Y-20754929D01*
X12745224Y-20735881D01*
X12735700Y-20697786D01*
X12735700Y-20650167D01*
X12745224Y-20612071D01*
X12754748Y-20593024D01*
X12764271Y-20583500D01*
X12783319Y-20573976D01*
X12926176Y-20573976D02*
X12926176Y-20612071D01*
X13002367Y-20573976D02*
X13002367Y-20612071D01*
X13297605Y-20850167D02*
X13288081Y-20840643D01*
X13269033Y-20812071D01*
X13259509Y-20793024D01*
X13249986Y-20764452D01*
X13240462Y-20716833D01*
X13240462Y-20678738D01*
X13249986Y-20631119D01*
X13259509Y-20602548D01*
X13269033Y-20583500D01*
X13288081Y-20554929D01*
X13297605Y-20545405D01*
X13364271Y-20593024D02*
X13373795Y-20583500D01*
X13392843Y-20573976D01*
X13440462Y-20573976D01*
X13459509Y-20583500D01*
X13469033Y-20593024D01*
X13478557Y-20612071D01*
X13478557Y-20631119D01*
X13469033Y-20659690D01*
X13354748Y-20773976D01*
X13478557Y-20773976D01*
X13716652Y-20773976D02*
X13716652Y-20573976D01*
X13802367Y-20773976D02*
X13802367Y-20669214D01*
X13792843Y-20650167D01*
X13773795Y-20640643D01*
X13745224Y-20640643D01*
X13726176Y-20650167D01*
X13716652Y-20659690D01*
X13926176Y-20773976D02*
X13907128Y-20764452D01*
X13897605Y-20754929D01*
X13888081Y-20735881D01*
X13888081Y-20678738D01*
X13897605Y-20659690D01*
X13907128Y-20650167D01*
X13926176Y-20640643D01*
X13954748Y-20640643D01*
X13973795Y-20650167D01*
X13983319Y-20659690D01*
X13992843Y-20678738D01*
X13992843Y-20735881D01*
X13983319Y-20754929D01*
X13973795Y-20764452D01*
X13954748Y-20773976D01*
X13926176Y-20773976D01*
X14107128Y-20773976D02*
X14088081Y-20764452D01*
X14078557Y-20745405D01*
X14078557Y-20573976D01*
X14259509Y-20764452D02*
X14240462Y-20773976D01*
X14202367Y-20773976D01*
X14183319Y-20764452D01*
X14173795Y-20745405D01*
X14173795Y-20669214D01*
X14183319Y-20650167D01*
X14202367Y-20640643D01*
X14240462Y-20640643D01*
X14259509Y-20650167D01*
X14269033Y-20669214D01*
X14269033Y-20688262D01*
X14173795Y-20707310D01*
X14345224Y-20764452D02*
X14364271Y-20773976D01*
X14402367Y-20773976D01*
X14421414Y-20764452D01*
X14430938Y-20745405D01*
X14430938Y-20735881D01*
X14421414Y-20716833D01*
X14402367Y-20707310D01*
X14373795Y-20707310D01*
X14354748Y-20697786D01*
X14345224Y-20678738D01*
X14345224Y-20669214D01*
X14354748Y-20650167D01*
X14373795Y-20640643D01*
X14402367Y-20640643D01*
X14421414Y-20650167D01*
X14497605Y-20850167D02*
X14507128Y-20840643D01*
X14526176Y-20812071D01*
X14535700Y-20793024D01*
X14545224Y-20764452D01*
X14554748Y-20716833D01*
X14554748Y-20678738D01*
X14545224Y-20631119D01*
X14535700Y-20602548D01*
X14526176Y-20583500D01*
X14507128Y-20554929D01*
X14497605Y-20545405D01*
X14859509Y-20850167D02*
X14849986Y-20840643D01*
X14830938Y-20812071D01*
X14821414Y-20793024D01*
X14811890Y-20764452D01*
X14802367Y-20716833D01*
X14802367Y-20678738D01*
X14811890Y-20631119D01*
X14821414Y-20602548D01*
X14830938Y-20583500D01*
X14849986Y-20554929D01*
X14859509Y-20545405D01*
X14935700Y-20640643D02*
X14935700Y-20773976D01*
X14935700Y-20659690D02*
X14945224Y-20650167D01*
X14964271Y-20640643D01*
X14992843Y-20640643D01*
X15011890Y-20650167D01*
X15021414Y-20669214D01*
X15021414Y-20773976D01*
X15145224Y-20773976D02*
X15126176Y-20764452D01*
X15116652Y-20754929D01*
X15107128Y-20735881D01*
X15107128Y-20678738D01*
X15116652Y-20659690D01*
X15126176Y-20650167D01*
X15145224Y-20640643D01*
X15173795Y-20640643D01*
X15192843Y-20650167D01*
X15202367Y-20659690D01*
X15211890Y-20678738D01*
X15211890Y-20735881D01*
X15202367Y-20754929D01*
X15192843Y-20764452D01*
X15173795Y-20773976D01*
X15145224Y-20773976D01*
X15269033Y-20640643D02*
X15345224Y-20640643D01*
X15297605Y-20573976D02*
X15297605Y-20745405D01*
X15307128Y-20764452D01*
X15326176Y-20773976D01*
X15345224Y-20773976D01*
X15564271Y-20640643D02*
X15564271Y-20840643D01*
X15564271Y-20650167D02*
X15583319Y-20640643D01*
X15621414Y-20640643D01*
X15640462Y-20650167D01*
X15649986Y-20659690D01*
X15659509Y-20678738D01*
X15659509Y-20735881D01*
X15649986Y-20754929D01*
X15640462Y-20764452D01*
X15621414Y-20773976D01*
X15583319Y-20773976D01*
X15564271Y-20764452D01*
X15773795Y-20773976D02*
X15754748Y-20764452D01*
X15745224Y-20745405D01*
X15745224Y-20573976D01*
X15935700Y-20773976D02*
X15935700Y-20669214D01*
X15926176Y-20650167D01*
X15907128Y-20640643D01*
X15869033Y-20640643D01*
X15849986Y-20650167D01*
X15935700Y-20764452D02*
X15916652Y-20773976D01*
X15869033Y-20773976D01*
X15849986Y-20764452D01*
X15840462Y-20745405D01*
X15840462Y-20726357D01*
X15849986Y-20707310D01*
X15869033Y-20697786D01*
X15916652Y-20697786D01*
X15935700Y-20688262D01*
X16002367Y-20640643D02*
X16078557Y-20640643D01*
X16030938Y-20573976D02*
X16030938Y-20745405D01*
X16040462Y-20764452D01*
X16059509Y-20773976D01*
X16078557Y-20773976D01*
X16221414Y-20764452D02*
X16202367Y-20773976D01*
X16164271Y-20773976D01*
X16145224Y-20764452D01*
X16135700Y-20745405D01*
X16135700Y-20669214D01*
X16145224Y-20650167D01*
X16164271Y-20640643D01*
X16202367Y-20640643D01*
X16221414Y-20650167D01*
X16230938Y-20669214D01*
X16230938Y-20688262D01*
X16135700Y-20707310D01*
X16402367Y-20773976D02*
X16402367Y-20573976D01*
X16402367Y-20764452D02*
X16383319Y-20773976D01*
X16345224Y-20773976D01*
X16326176Y-20764452D01*
X16316652Y-20754929D01*
X16307128Y-20735881D01*
X16307128Y-20678738D01*
X16316652Y-20659690D01*
X16326176Y-20650167D01*
X16345224Y-20640643D01*
X16383319Y-20640643D01*
X16402367Y-20650167D01*
X16478557Y-20850167D02*
X16488081Y-20840643D01*
X16507128Y-20812071D01*
X16516652Y-20793024D01*
X16526176Y-20764452D01*
X16535700Y-20716833D01*
X16535700Y-20678738D01*
X16526176Y-20631119D01*
X16516652Y-20602548D01*
X16507128Y-20583500D01*
X16488081Y-20554929D01*
X16478557Y-20545405D01*
X9696411Y-21074211D02*
X9696411Y-20932789D01*
X9554989Y-20932789D01*
X9554989Y-21074211D01*
X9696411Y-21074211D01*
X10069033Y-20960643D02*
X10069033Y-21093976D01*
X10021414Y-20884452D02*
X9973795Y-21027310D01*
X10097605Y-21027310D01*
X10173795Y-21074929D02*
X10183319Y-21084452D01*
X10173795Y-21093976D01*
X10164271Y-21084452D01*
X10173795Y-21074929D01*
X10173795Y-21093976D01*
X10307129Y-20893976D02*
X10326176Y-20893976D01*
X10345224Y-20903500D01*
X10354748Y-20913024D01*
X10364271Y-20932071D01*
X10373795Y-20970167D01*
X10373795Y-21017786D01*
X10364271Y-21055881D01*
X10354748Y-21074929D01*
X10345224Y-21084452D01*
X10326176Y-21093976D01*
X10307129Y-21093976D01*
X10288081Y-21084452D01*
X10278557Y-21074929D01*
X10269033Y-21055881D01*
X10259510Y-21017786D01*
X10259510Y-20970167D01*
X10269033Y-20932071D01*
X10278557Y-20913024D01*
X10288081Y-20903500D01*
X10307129Y-20893976D01*
X10497605Y-20893976D02*
X10516652Y-20893976D01*
X10535700Y-20903500D01*
X10545224Y-20913024D01*
X10554748Y-20932071D01*
X10564271Y-20970167D01*
X10564271Y-21017786D01*
X10554748Y-21055881D01*
X10545224Y-21074929D01*
X10535700Y-21084452D01*
X10516652Y-21093976D01*
X10497605Y-21093976D01*
X10478557Y-21084452D01*
X10469033Y-21074929D01*
X10459510Y-21055881D01*
X10449986Y-21017786D01*
X10449986Y-20970167D01*
X10459510Y-20932071D01*
X10469033Y-20913024D01*
X10478557Y-20903500D01*
X10497605Y-20893976D01*
X10688081Y-20893976D02*
X10707129Y-20893976D01*
X10726176Y-20903500D01*
X10735700Y-20913024D01*
X10745224Y-20932071D01*
X10754748Y-20970167D01*
X10754748Y-21017786D01*
X10745224Y-21055881D01*
X10735700Y-21074929D01*
X10726176Y-21084452D01*
X10707129Y-21093976D01*
X10688081Y-21093976D01*
X10669033Y-21084452D01*
X10659510Y-21074929D01*
X10649986Y-21055881D01*
X10640462Y-21017786D01*
X10640462Y-20970167D01*
X10649986Y-20932071D01*
X10659510Y-20913024D01*
X10669033Y-20903500D01*
X10688081Y-20893976D01*
X10840462Y-21093976D02*
X10840462Y-20960643D01*
X10840462Y-20979690D02*
X10849986Y-20970167D01*
X10869033Y-20960643D01*
X10897605Y-20960643D01*
X10916652Y-20970167D01*
X10926176Y-20989214D01*
X10926176Y-21093976D01*
X10926176Y-20989214D02*
X10935700Y-20970167D01*
X10954748Y-20960643D01*
X10983319Y-20960643D01*
X11002367Y-20970167D01*
X11011890Y-20989214D01*
X11011890Y-21093976D01*
X11107129Y-21093976D02*
X11107129Y-20960643D01*
X11107129Y-20979690D02*
X11116652Y-20970167D01*
X11135700Y-20960643D01*
X11164271Y-20960643D01*
X11183319Y-20970167D01*
X11192843Y-20989214D01*
X11192843Y-21093976D01*
X11192843Y-20989214D02*
X11202367Y-20970167D01*
X11221414Y-20960643D01*
X11249986Y-20960643D01*
X11269033Y-20970167D01*
X11278557Y-20989214D01*
X11278557Y-21093976D01*
X11669033Y-20884452D02*
X11497605Y-21141595D01*
X11926176Y-20893976D02*
X11945224Y-20893976D01*
X11964271Y-20903500D01*
X11973795Y-20913024D01*
X11983319Y-20932071D01*
X11992843Y-20970167D01*
X11992843Y-21017786D01*
X11983319Y-21055881D01*
X11973795Y-21074929D01*
X11964271Y-21084452D01*
X11945224Y-21093976D01*
X11926176Y-21093976D01*
X11907128Y-21084452D01*
X11897605Y-21074929D01*
X11888081Y-21055881D01*
X11878557Y-21017786D01*
X11878557Y-20970167D01*
X11888081Y-20932071D01*
X11897605Y-20913024D01*
X11907128Y-20903500D01*
X11926176Y-20893976D01*
X12078557Y-21074929D02*
X12088081Y-21084452D01*
X12078557Y-21093976D01*
X12069033Y-21084452D01*
X12078557Y-21074929D01*
X12078557Y-21093976D01*
X12278557Y-21093976D02*
X12164271Y-21093976D01*
X12221414Y-21093976D02*
X12221414Y-20893976D01*
X12202367Y-20922548D01*
X12183319Y-20941595D01*
X12164271Y-20951119D01*
X12459509Y-20893976D02*
X12364271Y-20893976D01*
X12354748Y-20989214D01*
X12364271Y-20979690D01*
X12383319Y-20970167D01*
X12430938Y-20970167D01*
X12449986Y-20979690D01*
X12459509Y-20989214D01*
X12469033Y-21008262D01*
X12469033Y-21055881D01*
X12459509Y-21074929D01*
X12449986Y-21084452D01*
X12430938Y-21093976D01*
X12383319Y-21093976D01*
X12364271Y-21084452D01*
X12354748Y-21074929D01*
X12535700Y-20893976D02*
X12669033Y-20893976D01*
X12583319Y-21093976D01*
X12840462Y-20893976D02*
X12745224Y-20893976D01*
X12735700Y-20989214D01*
X12745224Y-20979690D01*
X12764271Y-20970167D01*
X12811890Y-20970167D01*
X12830938Y-20979690D01*
X12840462Y-20989214D01*
X12849986Y-21008262D01*
X12849986Y-21055881D01*
X12840462Y-21074929D01*
X12830938Y-21084452D01*
X12811890Y-21093976D01*
X12764271Y-21093976D01*
X12745224Y-21084452D01*
X12735700Y-21074929D01*
X12926176Y-20893976D02*
X12926176Y-20932071D01*
X13002367Y-20893976D02*
X13002367Y-20932071D01*
X13297605Y-21170167D02*
X13288081Y-21160643D01*
X13269033Y-21132071D01*
X13259509Y-21113024D01*
X13249986Y-21084452D01*
X13240462Y-21036833D01*
X13240462Y-20998738D01*
X13249986Y-20951119D01*
X13259509Y-20922548D01*
X13269033Y-20903500D01*
X13288081Y-20874929D01*
X13297605Y-20865405D01*
X13469033Y-20893976D02*
X13373795Y-20893976D01*
X13364271Y-20989214D01*
X13373795Y-20979690D01*
X13392843Y-20970167D01*
X13440462Y-20970167D01*
X13459509Y-20979690D01*
X13469033Y-20989214D01*
X13478557Y-21008262D01*
X13478557Y-21055881D01*
X13469033Y-21074929D01*
X13459509Y-21084452D01*
X13440462Y-21093976D01*
X13392843Y-21093976D01*
X13373795Y-21084452D01*
X13364271Y-21074929D01*
X13602367Y-20893976D02*
X13621414Y-20893976D01*
X13640462Y-20903500D01*
X13649986Y-20913024D01*
X13659509Y-20932071D01*
X13669033Y-20970167D01*
X13669033Y-21017786D01*
X13659509Y-21055881D01*
X13649986Y-21074929D01*
X13640462Y-21084452D01*
X13621414Y-21093976D01*
X13602367Y-21093976D01*
X13583319Y-21084452D01*
X13573795Y-21074929D01*
X13564271Y-21055881D01*
X13554748Y-21017786D01*
X13554748Y-20970167D01*
X13564271Y-20932071D01*
X13573795Y-20913024D01*
X13583319Y-20903500D01*
X13602367Y-20893976D01*
X13907128Y-21093976D02*
X13907128Y-20893976D01*
X13992843Y-21093976D02*
X13992843Y-20989214D01*
X13983319Y-20970167D01*
X13964271Y-20960643D01*
X13935700Y-20960643D01*
X13916652Y-20970167D01*
X13907128Y-20979690D01*
X14116652Y-21093976D02*
X14097605Y-21084452D01*
X14088081Y-21074929D01*
X14078557Y-21055881D01*
X14078557Y-20998738D01*
X14088081Y-20979690D01*
X14097605Y-20970167D01*
X14116652Y-20960643D01*
X14145224Y-20960643D01*
X14164271Y-20970167D01*
X14173795Y-20979690D01*
X14183319Y-20998738D01*
X14183319Y-21055881D01*
X14173795Y-21074929D01*
X14164271Y-21084452D01*
X14145224Y-21093976D01*
X14116652Y-21093976D01*
X14297605Y-21093976D02*
X14278557Y-21084452D01*
X14269033Y-21065405D01*
X14269033Y-20893976D01*
X14449986Y-21084452D02*
X14430938Y-21093976D01*
X14392843Y-21093976D01*
X14373795Y-21084452D01*
X14364271Y-21065405D01*
X14364271Y-20989214D01*
X14373795Y-20970167D01*
X14392843Y-20960643D01*
X14430938Y-20960643D01*
X14449986Y-20970167D01*
X14459509Y-20989214D01*
X14459509Y-21008262D01*
X14364271Y-21027310D01*
X14535700Y-21084452D02*
X14554748Y-21093976D01*
X14592843Y-21093976D01*
X14611890Y-21084452D01*
X14621414Y-21065405D01*
X14621414Y-21055881D01*
X14611890Y-21036833D01*
X14592843Y-21027310D01*
X14564271Y-21027310D01*
X14545224Y-21017786D01*
X14535700Y-20998738D01*
X14535700Y-20989214D01*
X14545224Y-20970167D01*
X14564271Y-20960643D01*
X14592843Y-20960643D01*
X14611890Y-20970167D01*
X14688081Y-21170167D02*
X14697605Y-21160643D01*
X14716652Y-21132071D01*
X14726176Y-21113024D01*
X14735700Y-21084452D01*
X14745224Y-21036833D01*
X14745224Y-20998738D01*
X14735700Y-20951119D01*
X14726176Y-20922548D01*
X14716652Y-20903500D01*
X14697605Y-20874929D01*
X14688081Y-20865405D01*
X15049986Y-21170167D02*
X15040462Y-21160643D01*
X15021414Y-21132071D01*
X15011890Y-21113024D01*
X15002367Y-21084452D01*
X14992843Y-21036833D01*
X14992843Y-20998738D01*
X15002367Y-20951119D01*
X15011890Y-20922548D01*
X15021414Y-20903500D01*
X15040462Y-20874929D01*
X15049986Y-20865405D01*
X15126176Y-20960643D02*
X15126176Y-21093976D01*
X15126176Y-20979690D02*
X15135700Y-20970167D01*
X15154748Y-20960643D01*
X15183319Y-20960643D01*
X15202367Y-20970167D01*
X15211890Y-20989214D01*
X15211890Y-21093976D01*
X15335700Y-21093976D02*
X15316652Y-21084452D01*
X15307128Y-21074929D01*
X15297605Y-21055881D01*
X15297605Y-20998738D01*
X15307128Y-20979690D01*
X15316652Y-20970167D01*
X15335700Y-20960643D01*
X15364271Y-20960643D01*
X15383319Y-20970167D01*
X15392843Y-20979690D01*
X15402367Y-20998738D01*
X15402367Y-21055881D01*
X15392843Y-21074929D01*
X15383319Y-21084452D01*
X15364271Y-21093976D01*
X15335700Y-21093976D01*
X15459509Y-20960643D02*
X15535700Y-20960643D01*
X15488081Y-20893976D02*
X15488081Y-21065405D01*
X15497605Y-21084452D01*
X15516652Y-21093976D01*
X15535700Y-21093976D01*
X15754748Y-20960643D02*
X15754748Y-21160643D01*
X15754748Y-20970167D02*
X15773795Y-20960643D01*
X15811890Y-20960643D01*
X15830938Y-20970167D01*
X15840462Y-20979690D01*
X15849986Y-20998738D01*
X15849986Y-21055881D01*
X15840462Y-21074929D01*
X15830938Y-21084452D01*
X15811890Y-21093976D01*
X15773795Y-21093976D01*
X15754748Y-21084452D01*
X15964271Y-21093976D02*
X15945224Y-21084452D01*
X15935700Y-21065405D01*
X15935700Y-20893976D01*
X16126176Y-21093976D02*
X16126176Y-20989214D01*
X16116652Y-20970167D01*
X16097605Y-20960643D01*
X16059509Y-20960643D01*
X16040462Y-20970167D01*
X16126176Y-21084452D02*
X16107128Y-21093976D01*
X16059509Y-21093976D01*
X16040462Y-21084452D01*
X16030938Y-21065405D01*
X16030938Y-21046357D01*
X16040462Y-21027310D01*
X16059509Y-21017786D01*
X16107128Y-21017786D01*
X16126176Y-21008262D01*
X16192843Y-20960643D02*
X16269033Y-20960643D01*
X16221414Y-20893976D02*
X16221414Y-21065405D01*
X16230938Y-21084452D01*
X16249986Y-21093976D01*
X16269033Y-21093976D01*
X16411890Y-21084452D02*
X16392843Y-21093976D01*
X16354748Y-21093976D01*
X16335700Y-21084452D01*
X16326176Y-21065405D01*
X16326176Y-20989214D01*
X16335700Y-20970167D01*
X16354748Y-20960643D01*
X16392843Y-20960643D01*
X16411890Y-20970167D01*
X16421414Y-20989214D01*
X16421414Y-21008262D01*
X16326176Y-21027310D01*
X16592843Y-21093976D02*
X16592843Y-20893976D01*
X16592843Y-21084452D02*
X16573795Y-21093976D01*
X16535700Y-21093976D01*
X16516652Y-21084452D01*
X16507128Y-21074929D01*
X16497605Y-21055881D01*
X16497605Y-20998738D01*
X16507128Y-20979690D01*
X16516652Y-20970167D01*
X16535700Y-20960643D01*
X16573795Y-20960643D01*
X16592843Y-20970167D01*
X16669033Y-21170167D02*
X16678557Y-21160643D01*
X16697605Y-21132071D01*
X16707128Y-21113024D01*
X16716652Y-21084452D01*
X16726176Y-21036833D01*
X16726176Y-20998738D01*
X16716652Y-20951119D01*
X16707128Y-20922548D01*
X16697605Y-20903500D01*
X16678557Y-20874929D01*
X16669033Y-20865405D01*
M02*
