G04 #@! TF.GenerationSoftware,KiCad,Pcbnew,(6.0.2-0)*
G04 #@! TF.CreationDate,2022-06-21T21:38:27+10:00*
G04 #@! TF.ProjectId,keyboard-with-attached-pico,6b657962-6f61-4726-942d-776974682d61,1.01*
G04 #@! TF.SameCoordinates,Original*
G04 #@! TF.FileFunction,Copper,L2,Bot*
G04 #@! TF.FilePolarity,Positive*
%FSLAX46Y46*%
G04 Gerber Fmt 4.6, Leading zero omitted, Abs format (unit mm)*
G04 Created by KiCad (PCBNEW (6.0.2-0)) date 2022-06-21 21:38:27*
%MOMM*%
%LPD*%
G01*
G04 APERTURE LIST*
G04 #@! TA.AperFunction,ComponentPad*
%ADD10C,2.200000*%
G04 #@! TD*
G04 #@! TA.AperFunction,ComponentPad*
%ADD11R,1.700000X1.700000*%
G04 #@! TD*
G04 #@! TA.AperFunction,ComponentPad*
%ADD12O,1.700000X1.700000*%
G04 #@! TD*
G04 #@! TA.AperFunction,SMDPad,CuDef*
%ADD13R,1.000000X1.000000*%
G04 #@! TD*
G04 #@! TA.AperFunction,Conductor*
%ADD14C,0.250000*%
G04 #@! TD*
G04 #@! TA.AperFunction,Conductor*
%ADD15C,0.200000*%
G04 #@! TD*
G04 APERTURE END LIST*
D10*
X109855000Y-119840000D03*
X103505000Y-122380000D03*
X128905000Y-119840000D03*
X122555000Y-122380000D03*
D11*
X144780000Y-115824000D03*
D12*
X147320000Y-115824000D03*
D10*
X319405000Y-119840000D03*
X313055000Y-122380000D03*
X195580000Y-138890000D03*
X189230000Y-141430000D03*
X252730000Y-138890000D03*
X246380000Y-141430000D03*
X300355000Y-157940000D03*
X294005000Y-160480000D03*
X300355000Y-119840000D03*
X294005000Y-122380000D03*
X186055000Y-119840000D03*
X179705000Y-122380000D03*
X262255000Y-157940000D03*
X255905000Y-160480000D03*
X205105000Y-157940000D03*
X198755000Y-160480000D03*
X271780000Y-138890000D03*
X265430000Y-141430000D03*
X233680000Y-176990000D03*
X227330000Y-179530000D03*
X281305000Y-119840000D03*
X274955000Y-122380000D03*
X233680000Y-138890000D03*
X227330000Y-141430000D03*
X176530000Y-138890000D03*
X170180000Y-141430000D03*
X138430000Y-138890000D03*
X132080000Y-141430000D03*
D11*
X132080000Y-115824000D03*
D12*
X134620000Y-115824000D03*
X137160000Y-115824000D03*
X139700000Y-115824000D03*
D10*
X114617500Y-138890000D03*
X108267500Y-141430000D03*
X186055000Y-157940000D03*
X179705000Y-160480000D03*
X281305000Y-176990000D03*
X274955000Y-179530000D03*
X147955000Y-119840000D03*
X141605000Y-122380000D03*
X167005000Y-119840000D03*
X160655000Y-122380000D03*
X214630000Y-138890000D03*
X208280000Y-141430000D03*
X147955000Y-157940000D03*
X141605000Y-160480000D03*
X290830000Y-138890000D03*
X284480000Y-141430000D03*
X157480000Y-138890000D03*
X151130000Y-141430000D03*
X119380000Y-157940000D03*
X113030000Y-160480000D03*
D11*
X139700000Y-133604000D03*
D12*
X137160000Y-133604000D03*
X134620000Y-133604000D03*
D10*
X243205000Y-119840000D03*
X236855000Y-122380000D03*
X224155000Y-157940000D03*
X217805000Y-160480000D03*
X319405000Y-176990000D03*
X313055000Y-179530000D03*
X262255000Y-119840000D03*
X255905000Y-122380000D03*
X319405000Y-157940000D03*
X313055000Y-160480000D03*
X205105000Y-119840000D03*
X198755000Y-122380000D03*
D11*
X147320000Y-133604000D03*
D12*
X144780000Y-133604000D03*
D10*
X167005000Y-157940000D03*
X160655000Y-160480000D03*
X147955000Y-176990000D03*
X141605000Y-179530000D03*
X314642500Y-138890000D03*
X308292500Y-141430000D03*
X243205000Y-157940000D03*
X236855000Y-160480000D03*
X281305000Y-157940000D03*
X274955000Y-160480000D03*
X205105000Y-176990000D03*
X198755000Y-179530000D03*
X262255000Y-176990000D03*
X255905000Y-179530000D03*
X300355000Y-176990000D03*
X294005000Y-179530000D03*
X109855000Y-176990000D03*
X103505000Y-179530000D03*
X176530000Y-176990000D03*
X170180000Y-179530000D03*
X128905000Y-176990000D03*
X122555000Y-179530000D03*
X224155000Y-119840000D03*
X217805000Y-122380000D03*
D13*
X103505000Y-129980000D03*
X103505000Y-127480000D03*
X208280000Y-149030000D03*
X208280000Y-146530000D03*
X141605000Y-129980000D03*
X141605000Y-127480000D03*
X103505000Y-187130000D03*
X103505000Y-184630000D03*
X274955000Y-168080000D03*
X274955000Y-165580000D03*
X274955000Y-187130000D03*
X274955000Y-184630000D03*
X227330000Y-187130000D03*
X227330000Y-184630000D03*
X236855000Y-129980000D03*
X236855000Y-127480000D03*
X122555000Y-187130000D03*
X122555000Y-184630000D03*
X198755000Y-168080000D03*
X198755000Y-165580000D03*
X284480000Y-149030000D03*
X284480000Y-146530000D03*
X227330000Y-149030000D03*
X227330000Y-146530000D03*
X255905000Y-187130000D03*
X255905000Y-184630000D03*
X313055000Y-168080000D03*
X313055000Y-165580000D03*
X170180000Y-187130000D03*
X170180000Y-184630000D03*
X294005000Y-168080000D03*
X294005000Y-165580000D03*
X198755000Y-129980000D03*
X198755000Y-127480000D03*
X217805000Y-129980000D03*
X217805000Y-127480000D03*
X236855000Y-168080000D03*
X236855000Y-165580000D03*
X255905000Y-129980000D03*
X255905000Y-127480000D03*
X294005000Y-129980000D03*
X294005000Y-127480000D03*
X160655000Y-168080000D03*
X160655000Y-165580000D03*
D11*
X106680000Y-133604000D03*
D12*
X109220000Y-133604000D03*
X111760000Y-133604000D03*
X114300000Y-133604000D03*
D13*
X179705000Y-129980000D03*
X179705000Y-127480000D03*
X294005000Y-187130000D03*
X294005000Y-184630000D03*
X308292500Y-149030000D03*
X308292500Y-146530000D03*
X108267500Y-149030000D03*
X108267500Y-146530000D03*
X217805000Y-168080000D03*
X217805000Y-165580000D03*
X160655000Y-129980000D03*
X160655000Y-127480000D03*
X151130000Y-149030000D03*
X151130000Y-146530000D03*
X274955000Y-129980000D03*
X274955000Y-127480000D03*
X170180000Y-149030000D03*
X170180000Y-146530000D03*
X132080000Y-149030000D03*
X132080000Y-146530000D03*
X255905000Y-168080000D03*
X255905000Y-165580000D03*
X179705000Y-168080000D03*
X179705000Y-165580000D03*
X113030000Y-168080000D03*
X113030000Y-165580000D03*
X265430000Y-149030000D03*
X265430000Y-146530000D03*
X246380000Y-149030000D03*
X246380000Y-146530000D03*
X313055000Y-129980000D03*
X313055000Y-127480000D03*
X313055000Y-187130000D03*
X313055000Y-184630000D03*
X189230000Y-149030000D03*
X189230000Y-146530000D03*
X141605000Y-168080000D03*
X141605000Y-165580000D03*
X122555000Y-129980000D03*
X122555000Y-127480000D03*
X141605000Y-187130000D03*
X141605000Y-184630000D03*
X198755000Y-187130000D03*
X198755000Y-184630000D03*
D14*
X160655000Y-129980000D02*
X141605000Y-129980000D01*
X236855000Y-129980000D02*
X217805000Y-129980000D01*
X198755000Y-129980000D02*
X179705000Y-129980000D01*
X217805000Y-129980000D02*
X198755000Y-129980000D01*
X255905000Y-129980000D02*
X236855000Y-129980000D01*
X111760000Y-133604000D02*
X111760000Y-130048000D01*
X111692000Y-129980000D02*
X103505000Y-129980000D01*
X294005000Y-129980000D02*
X274955000Y-129980000D01*
X179705000Y-129980000D02*
X160655000Y-129980000D01*
X122555000Y-129980000D02*
X111692000Y-129980000D01*
X141605000Y-129980000D02*
X122555000Y-129980000D01*
X111760000Y-130048000D02*
X111692000Y-129980000D01*
X274955000Y-129980000D02*
X255905000Y-129980000D01*
X114300000Y-133604000D02*
X124460000Y-133604000D01*
X284480000Y-149030000D02*
X265430000Y-149030000D01*
X132080000Y-149030000D02*
X124782000Y-149030000D01*
X124460000Y-133604000D02*
X124714000Y-133858000D01*
X170180000Y-149030000D02*
X151130000Y-149030000D01*
X151130000Y-149030000D02*
X132080000Y-149030000D01*
X208280000Y-149030000D02*
X189230000Y-149030000D01*
X124714000Y-148962000D02*
X124782000Y-149030000D01*
X227330000Y-149030000D02*
X208280000Y-149030000D01*
X189230000Y-149030000D02*
X170180000Y-149030000D01*
X265430000Y-149030000D02*
X246380000Y-149030000D01*
X124714000Y-133858000D02*
X124714000Y-148962000D01*
X124782000Y-149030000D02*
X108267500Y-149030000D01*
X246380000Y-149030000D02*
X227330000Y-149030000D01*
X308292500Y-149030000D02*
X284480000Y-149030000D01*
X274955000Y-168080000D02*
X255905000Y-168080000D01*
X105410000Y-153416000D02*
X105410000Y-136144000D01*
X313055000Y-168080000D02*
X294005000Y-168080000D01*
X125154000Y-168080000D02*
X125154000Y-153602000D01*
X294005000Y-168080000D02*
X274955000Y-168080000D01*
X125154000Y-168080000D02*
X113030000Y-168080000D01*
X217805000Y-168080000D02*
X198755000Y-168080000D01*
X141605000Y-168080000D02*
X125154000Y-168080000D01*
X236855000Y-168080000D02*
X217805000Y-168080000D01*
X179705000Y-168080000D02*
X160655000Y-168080000D01*
X198755000Y-168080000D02*
X179705000Y-168080000D01*
X125154000Y-153602000D02*
X124968000Y-153416000D01*
X255905000Y-168080000D02*
X236855000Y-168080000D01*
X160655000Y-168080000D02*
X141605000Y-168080000D01*
X109220000Y-136144000D02*
X109220000Y-133604000D01*
X124968000Y-153416000D02*
X105410000Y-153416000D01*
X105410000Y-136144000D02*
X109220000Y-136144000D01*
D15*
X294005000Y-187130000D02*
X313055000Y-187130000D01*
X100008000Y-187130000D02*
X103505000Y-187130000D01*
X323850000Y-157226000D02*
X318897000Y-152273000D01*
D14*
X318897000Y-136017000D02*
X318897000Y-152247958D01*
D15*
X104648000Y-133604000D02*
X106680000Y-133604000D01*
X323156000Y-187130000D02*
X323850000Y-186436000D01*
X103505000Y-187130000D02*
X122555000Y-187130000D01*
X313055000Y-187130000D02*
X323156000Y-187130000D01*
X99822000Y-147828000D02*
X99822000Y-186944000D01*
X198755000Y-187130000D02*
X227330000Y-187130000D01*
X104648000Y-147828000D02*
X99822000Y-147828000D01*
X99822000Y-186944000D02*
X100008000Y-187130000D01*
X274955000Y-187130000D02*
X294005000Y-187130000D01*
X323850000Y-186436000D02*
X323850000Y-157226000D01*
X227330000Y-187130000D02*
X255905000Y-187130000D01*
X141605000Y-187130000D02*
X170180000Y-187130000D01*
D14*
X313055000Y-129980000D02*
X313055000Y-130175000D01*
D15*
X255905000Y-187130000D02*
X274955000Y-187130000D01*
X318897000Y-152273000D02*
X318897000Y-152247958D01*
X122555000Y-187130000D02*
X141605000Y-187130000D01*
D14*
X313055000Y-130175000D02*
X318897000Y-136017000D01*
D15*
X104648000Y-133604000D02*
X104648000Y-147828000D01*
X170180000Y-187130000D02*
X198755000Y-187130000D01*
D14*
X290830000Y-138890000D02*
X290878000Y-138890000D01*
X103475000Y-122380000D02*
X103475000Y-127610000D01*
X122525000Y-122380000D02*
X122525000Y-127610000D01*
X141575000Y-122380000D02*
X141575000Y-127610000D01*
X160625000Y-122380000D02*
X160625000Y-127610000D01*
X179675000Y-122380000D02*
X179675000Y-127610000D01*
X198725000Y-122380000D02*
X198725000Y-127610000D01*
X217775000Y-122380000D02*
X217775000Y-127610000D01*
X236825000Y-122380000D02*
X236825000Y-127610000D01*
X255875000Y-122380000D02*
X255875000Y-127610000D01*
X274925000Y-122380000D02*
X274925000Y-127610000D01*
X293975000Y-122380000D02*
X293975000Y-127610000D01*
X313025000Y-122380000D02*
X313025000Y-127610000D01*
X108237500Y-141430000D02*
X108237500Y-146660000D01*
X132050000Y-141430000D02*
X132050000Y-146660000D01*
X151100000Y-141430000D02*
X151100000Y-146660000D01*
X170150000Y-141430000D02*
X170150000Y-146660000D01*
X189200000Y-141430000D02*
X189200000Y-146660000D01*
X208250000Y-141430000D02*
X208250000Y-146660000D01*
X227300000Y-141430000D02*
X227300000Y-146660000D01*
X246350000Y-141430000D02*
X246350000Y-146660000D01*
X265400000Y-141430000D02*
X265400000Y-146660000D01*
X284450000Y-141430000D02*
X284450000Y-146660000D01*
X308262500Y-141430000D02*
X308262500Y-146660000D01*
X113000000Y-160480000D02*
X113000000Y-165710000D01*
X141575000Y-160480000D02*
X141575000Y-165710000D01*
X160625000Y-160480000D02*
X160625000Y-165710000D01*
X179675000Y-160480000D02*
X179675000Y-165710000D01*
X198725000Y-160480000D02*
X198725000Y-165710000D01*
X217775000Y-160480000D02*
X217775000Y-165710000D01*
X236825000Y-160480000D02*
X236825000Y-165710000D01*
X255875000Y-160480000D02*
X255875000Y-165710000D01*
X274925000Y-160480000D02*
X274925000Y-165710000D01*
X293975000Y-160480000D02*
X293975000Y-165710000D01*
X313025000Y-160480000D02*
X313025000Y-165710000D01*
X103475000Y-179530000D02*
X103475000Y-184760000D01*
X122525000Y-179530000D02*
X122525000Y-184760000D01*
X141575000Y-179530000D02*
X141575000Y-184760000D01*
X170150000Y-179530000D02*
X170150000Y-184760000D01*
X198725000Y-179530000D02*
X198725000Y-184760000D01*
X227300000Y-179530000D02*
X227300000Y-184760000D01*
X255875000Y-179530000D02*
X255875000Y-184760000D01*
X274925000Y-179530000D02*
X274925000Y-184760000D01*
X293975000Y-179530000D02*
X293975000Y-184760000D01*
X313025000Y-179530000D02*
X313025000Y-184760000D01*
M02*
