G04 #@! TF.GenerationSoftware,KiCad,Pcbnew,(6.0.2-0)*
G04 #@! TF.CreationDate,2022-06-21T21:38:27+10:00*
G04 #@! TF.ProjectId,keyboard-with-attached-pico,6b657962-6f61-4726-942d-776974682d61,1.01*
G04 #@! TF.SameCoordinates,Original*
G04 #@! TF.FileFunction,Copper,L1,Top*
G04 #@! TF.FilePolarity,Positive*
%FSLAX46Y46*%
G04 Gerber Fmt 4.6, Leading zero omitted, Abs format (unit mm)*
G04 Created by KiCad (PCBNEW (6.0.2-0)) date 2022-06-21 21:38:27*
%MOMM*%
%LPD*%
G01*
G04 APERTURE LIST*
G04 #@! TA.AperFunction,ComponentPad*
%ADD10C,2.200000*%
G04 #@! TD*
G04 #@! TA.AperFunction,ComponentPad*
%ADD11R,1.700000X1.700000*%
G04 #@! TD*
G04 #@! TA.AperFunction,ComponentPad*
%ADD12O,1.700000X1.700000*%
G04 #@! TD*
G04 #@! TA.AperFunction,Conductor*
%ADD13C,0.250000*%
G04 #@! TD*
G04 APERTURE END LIST*
D10*
X109855000Y-119840000D03*
X103505000Y-122380000D03*
X128905000Y-119840000D03*
X122555000Y-122380000D03*
D11*
X144780000Y-115824000D03*
D12*
X147320000Y-115824000D03*
D10*
X319405000Y-119840000D03*
X313055000Y-122380000D03*
X195580000Y-138890000D03*
X189230000Y-141430000D03*
X252730000Y-138890000D03*
X246380000Y-141430000D03*
X300355000Y-157940000D03*
X294005000Y-160480000D03*
X300355000Y-119840000D03*
X294005000Y-122380000D03*
X186055000Y-119840000D03*
X179705000Y-122380000D03*
X262255000Y-157940000D03*
X255905000Y-160480000D03*
X205105000Y-157940000D03*
X198755000Y-160480000D03*
X271780000Y-138890000D03*
X265430000Y-141430000D03*
X233680000Y-176990000D03*
X227330000Y-179530000D03*
X281305000Y-119840000D03*
X274955000Y-122380000D03*
X233680000Y-138890000D03*
X227330000Y-141430000D03*
X176530000Y-138890000D03*
X170180000Y-141430000D03*
X138430000Y-138890000D03*
X132080000Y-141430000D03*
D11*
X132080000Y-115824000D03*
D12*
X134620000Y-115824000D03*
X137160000Y-115824000D03*
X139700000Y-115824000D03*
D10*
X114617500Y-138890000D03*
X108267500Y-141430000D03*
X186055000Y-157940000D03*
X179705000Y-160480000D03*
X281305000Y-176990000D03*
X274955000Y-179530000D03*
X147955000Y-119840000D03*
X141605000Y-122380000D03*
X167005000Y-119840000D03*
X160655000Y-122380000D03*
X214630000Y-138890000D03*
X208280000Y-141430000D03*
X147955000Y-157940000D03*
X141605000Y-160480000D03*
X290830000Y-138890000D03*
X284480000Y-141430000D03*
X157480000Y-138890000D03*
X151130000Y-141430000D03*
X119380000Y-157940000D03*
X113030000Y-160480000D03*
D11*
X139700000Y-133604000D03*
D12*
X137160000Y-133604000D03*
X134620000Y-133604000D03*
D10*
X243205000Y-119840000D03*
X236855000Y-122380000D03*
X224155000Y-157940000D03*
X217805000Y-160480000D03*
X319405000Y-176990000D03*
X313055000Y-179530000D03*
X262255000Y-119840000D03*
X255905000Y-122380000D03*
X319405000Y-157940000D03*
X313055000Y-160480000D03*
X205105000Y-119840000D03*
X198755000Y-122380000D03*
D11*
X147320000Y-133604000D03*
D12*
X144780000Y-133604000D03*
D10*
X167005000Y-157940000D03*
X160655000Y-160480000D03*
X147955000Y-176990000D03*
X141605000Y-179530000D03*
X314642500Y-138890000D03*
X308292500Y-141430000D03*
X243205000Y-157940000D03*
X236855000Y-160480000D03*
X281305000Y-157940000D03*
X274955000Y-160480000D03*
X205105000Y-176990000D03*
X198755000Y-179530000D03*
X262255000Y-176990000D03*
X255905000Y-179530000D03*
X300355000Y-176990000D03*
X294005000Y-179530000D03*
X109855000Y-176990000D03*
X103505000Y-179530000D03*
X176530000Y-176990000D03*
X170180000Y-179530000D03*
X128905000Y-176990000D03*
X122555000Y-179530000D03*
X224155000Y-119840000D03*
X217805000Y-122380000D03*
D11*
X106680000Y-133604000D03*
D12*
X109220000Y-133604000D03*
X111760000Y-133604000D03*
X114300000Y-133604000D03*
D13*
X109855000Y-116205000D02*
X109855000Y-119840000D01*
X132080000Y-115824000D02*
X110236000Y-115824000D01*
X114617500Y-138890000D02*
X104092000Y-138890000D01*
X114617500Y-138890000D02*
X114617500Y-153177500D01*
X104092000Y-138890000D02*
X103632000Y-138430000D01*
X114617500Y-153177500D02*
X119380000Y-157940000D01*
X99568000Y-119888000D02*
X99616000Y-119840000D01*
X119380000Y-167465000D02*
X109855000Y-176990000D01*
X119380000Y-157940000D02*
X119380000Y-167465000D01*
X99568000Y-129032000D02*
X99568000Y-119888000D01*
X99616000Y-119840000D02*
X109855000Y-119840000D01*
X103632000Y-138430000D02*
X103632000Y-129286000D01*
X99822000Y-129286000D02*
X99568000Y-129032000D01*
X103632000Y-129286000D02*
X99822000Y-129286000D01*
X110236000Y-115824000D02*
X109855000Y-116205000D01*
X147955000Y-157940000D02*
X147955000Y-163957000D01*
X128905000Y-119840000D02*
X130604000Y-119840000D01*
X147955000Y-163957000D02*
X134922000Y-176990000D01*
X118158000Y-119840000D02*
X118110000Y-119888000D01*
X128905000Y-119840000D02*
X118158000Y-119840000D01*
X130604000Y-119840000D02*
X134620000Y-115824000D01*
X118364000Y-138938000D02*
X118412000Y-138890000D01*
X118110000Y-119888000D02*
X118110000Y-138684000D01*
X134922000Y-176990000D02*
X128905000Y-176990000D01*
X138430000Y-138890000D02*
X138430000Y-148415000D01*
X118110000Y-138684000D02*
X118364000Y-138938000D01*
X138430000Y-148415000D02*
X147955000Y-157940000D01*
X118412000Y-138890000D02*
X138430000Y-138890000D01*
X167005000Y-157940000D02*
X167005000Y-163838081D01*
X129286000Y-131572000D02*
X141018000Y-119840000D01*
X131064000Y-136398000D02*
X129286000Y-134620000D01*
X141684000Y-138890000D02*
X139192000Y-136398000D01*
X134620000Y-133604000D02*
X129286000Y-133604000D01*
X157480000Y-148415000D02*
X167005000Y-157940000D01*
X157480000Y-138890000D02*
X141684000Y-138890000D01*
X153853081Y-176990000D02*
X147955000Y-176990000D01*
X157480000Y-138890000D02*
X157480000Y-148415000D01*
X129286000Y-133604000D02*
X129286000Y-131572000D01*
X141018000Y-119840000D02*
X147955000Y-119840000D01*
X139192000Y-136398000D02*
X131064000Y-136398000D01*
X167005000Y-163838081D02*
X153853081Y-176990000D01*
X129286000Y-134620000D02*
X129286000Y-133604000D01*
X176530000Y-148415000D02*
X186055000Y-157940000D01*
X186055000Y-167465000D02*
X176530000Y-176990000D01*
X167005000Y-119840000D02*
X167005000Y-129365000D01*
X167005000Y-129365000D02*
X171347000Y-133707000D01*
X186055000Y-157940000D02*
X186055000Y-167465000D01*
X147320000Y-133604000D02*
X171244000Y-133604000D01*
X171347000Y-133707000D02*
X176530000Y-138890000D01*
X171244000Y-133604000D02*
X171347000Y-133707000D01*
X176530000Y-138890000D02*
X176530000Y-148415000D01*
X186055000Y-119840000D02*
X186055000Y-129365000D01*
X187754000Y-176990000D02*
X205105000Y-176990000D01*
X176530000Y-152654000D02*
X176530000Y-168910000D01*
X168148000Y-184912000D02*
X179832000Y-184912000D01*
X166370000Y-145034000D02*
X167894000Y-146558000D01*
X186055000Y-129365000D02*
X195580000Y-138890000D01*
X166878000Y-178562000D02*
X166878000Y-183642000D01*
X176530000Y-168910000D02*
X166878000Y-178562000D01*
X144780000Y-133604000D02*
X144780000Y-135636000D01*
X166878000Y-183642000D02*
X168148000Y-184912000D01*
X166370000Y-135636000D02*
X166370000Y-145034000D01*
X144780000Y-135636000D02*
X166370000Y-135636000D01*
X195580000Y-148415000D02*
X205105000Y-157940000D01*
X167894000Y-146558000D02*
X170434000Y-146558000D01*
X170434000Y-146558000D02*
X176530000Y-152654000D01*
X205105000Y-157940000D02*
X205105000Y-176990000D01*
X179832000Y-184912000D02*
X187754000Y-176990000D01*
X195580000Y-138890000D02*
X195580000Y-148415000D01*
X224155000Y-157940000D02*
X224155000Y-167465000D01*
X214630000Y-138890000D02*
X214630000Y-148415000D01*
X222298000Y-176990000D02*
X233680000Y-176990000D01*
X140462000Y-133604000D02*
X143256000Y-136398000D01*
X165608000Y-184150000D02*
X167640000Y-186182000D01*
X175260000Y-152908000D02*
X175260000Y-168656000D01*
X170180000Y-147828000D02*
X175260000Y-152908000D01*
X213106000Y-186182000D02*
X222298000Y-176990000D01*
X175260000Y-168656000D02*
X165608000Y-178308000D01*
X165354000Y-145542000D02*
X167640000Y-147828000D01*
X167640000Y-147828000D02*
X170180000Y-147828000D01*
X165354000Y-136398000D02*
X165354000Y-145542000D01*
X167640000Y-186182000D02*
X213106000Y-186182000D01*
X139700000Y-133604000D02*
X140462000Y-133604000D01*
X165608000Y-178308000D02*
X165608000Y-184150000D01*
X143256000Y-136398000D02*
X165354000Y-136398000D01*
X205105000Y-129365000D02*
X214630000Y-138890000D01*
X205105000Y-119840000D02*
X205105000Y-129365000D01*
X214630000Y-148415000D02*
X224155000Y-157940000D01*
X224155000Y-167465000D02*
X233680000Y-176990000D01*
X141986000Y-137160000D02*
X140208000Y-135382000D01*
X255876800Y-176990000D02*
X244904000Y-176990000D01*
X169926000Y-149352000D02*
X167894000Y-149352000D01*
X224155000Y-119840000D02*
X224155000Y-129365000D01*
X243205000Y-157940000D02*
X243205000Y-164318200D01*
X167894000Y-149352000D02*
X164084000Y-145542000D01*
X174244000Y-167640000D02*
X174244000Y-153670000D01*
X164084000Y-137668000D02*
X163576000Y-137160000D01*
X140208000Y-135382000D02*
X137160000Y-135382000D01*
X164592000Y-177292000D02*
X174244000Y-167640000D01*
X174244000Y-153670000D02*
X169926000Y-149352000D01*
X164592000Y-184912000D02*
X164592000Y-177292000D01*
X167132000Y-187452000D02*
X164592000Y-184912000D01*
X233680000Y-148415000D02*
X243205000Y-157940000D01*
X164084000Y-145542000D02*
X164084000Y-137668000D01*
X137160000Y-135382000D02*
X137160000Y-133604000D01*
X224155000Y-129365000D02*
X233680000Y-138890000D01*
X255876800Y-176990000D02*
X262255000Y-176990000D01*
X252549400Y-173662600D02*
X255876800Y-176990000D01*
X244904000Y-176990000D02*
X234442000Y-187452000D01*
X233680000Y-138890000D02*
X233680000Y-148415000D01*
X163576000Y-137160000D02*
X141986000Y-137160000D01*
X234442000Y-187452000D02*
X167132000Y-187452000D01*
X243205000Y-164318200D02*
X252549400Y-173662600D01*
X252730000Y-138890000D02*
X252730000Y-148415000D01*
X252730000Y-148415000D02*
X262255000Y-157940000D01*
X262255000Y-157940000D02*
X262255000Y-162211735D01*
X137160000Y-117856000D02*
X137160000Y-115824000D01*
X243205000Y-119840000D02*
X230584000Y-119840000D01*
X228600000Y-117856000D02*
X137160000Y-117856000D01*
X243205000Y-129365000D02*
X252730000Y-138890000D01*
X262255000Y-162211735D02*
X274303632Y-174260368D01*
X243205000Y-119840000D02*
X243205000Y-129365000D01*
X230584000Y-119840000D02*
X228600000Y-117856000D01*
X277033265Y-176990000D02*
X281305000Y-176990000D01*
X274303632Y-174260368D02*
X277033265Y-176990000D01*
X147320000Y-115824000D02*
X258239000Y-115824000D01*
X294287200Y-176990000D02*
X300355000Y-176990000D01*
X262255000Y-129365000D02*
X271780000Y-138890000D01*
X271780000Y-138890000D02*
X271780000Y-148415000D01*
X281305000Y-164007800D02*
X291820600Y-174523400D01*
X262255000Y-119840000D02*
X262255000Y-129365000D01*
X258239000Y-115824000D02*
X262255000Y-119840000D01*
X271780000Y-148415000D02*
X281305000Y-157940000D01*
X281305000Y-157940000D02*
X281305000Y-164007800D01*
X291820600Y-174523400D02*
X294287200Y-176990000D01*
X300355000Y-157940000D02*
X300355000Y-163703000D01*
X300355000Y-157940000D02*
X300355000Y-145775000D01*
X300355000Y-163703000D02*
X313642000Y-176990000D01*
X313642000Y-176990000D02*
X319405000Y-176990000D01*
X144780000Y-114300000D02*
X275765000Y-114300000D01*
X275765000Y-114300000D02*
X281305000Y-119840000D01*
X281305000Y-129365000D02*
X290830000Y-138890000D01*
X300355000Y-145775000D02*
X293470000Y-138890000D01*
X293470000Y-138890000D02*
X290830000Y-138890000D01*
X281305000Y-119840000D02*
X281305000Y-129365000D01*
X144780000Y-115824000D02*
X144780000Y-114300000D01*
X314642500Y-138890000D02*
X314642500Y-153177500D01*
X300355000Y-119840000D02*
X319405000Y-119840000D01*
X293545000Y-113030000D02*
X139954000Y-113030000D01*
X139954000Y-113030000D02*
X139700000Y-113284000D01*
X139700000Y-113284000D02*
X139700000Y-115824000D01*
X294854500Y-114339500D02*
X294092500Y-113577500D01*
X300355000Y-119840000D02*
X300355000Y-124602500D01*
X300355000Y-124602500D02*
X314642500Y-138890000D01*
X300355000Y-119840000D02*
X294854500Y-114339500D01*
X294854500Y-114339500D02*
X293545000Y-113030000D01*
X294092500Y-113577500D02*
X293878000Y-113363000D01*
X314642500Y-153177500D02*
X319405000Y-157940000D01*
M02*
