G04 #@! TF.GenerationSoftware,KiCad,Pcbnew,(6.0.2-0)*
G04 #@! TF.CreationDate,2022-07-23T12:51:23+10:00*
G04 #@! TF.ProjectId,keyboard-with-attached-pico,6b657962-6f61-4726-942d-776974682d61,1.01*
G04 #@! TF.SameCoordinates,Original*
G04 #@! TF.FileFunction,Copper,L2,Bot*
G04 #@! TF.FilePolarity,Positive*
%FSLAX46Y46*%
G04 Gerber Fmt 4.6, Leading zero omitted, Abs format (unit mm)*
G04 Created by KiCad (PCBNEW (6.0.2-0)) date 2022-07-23 12:51:23*
%MOMM*%
%LPD*%
G01*
G04 APERTURE LIST*
G04 #@! TA.AperFunction,SMDPad,CuDef*
%ADD10R,1.800000X3.500000*%
G04 #@! TD*
G04 #@! TA.AperFunction,SMDPad,CuDef*
%ADD11R,3.500000X1.800000*%
G04 #@! TD*
G04 #@! TA.AperFunction,ComponentPad*
%ADD12C,2.200000*%
G04 #@! TD*
G04 #@! TA.AperFunction,ComponentPad*
%ADD13R,1.700000X1.700000*%
G04 #@! TD*
G04 #@! TA.AperFunction,ComponentPad*
%ADD14O,1.700000X1.700000*%
G04 #@! TD*
G04 #@! TA.AperFunction,Conductor*
%ADD15C,0.250000*%
G04 #@! TD*
G04 #@! TA.AperFunction,Conductor*
%ADD16C,0.200000*%
G04 #@! TD*
G04 APERTURE END LIST*
D10*
X103485999Y-133444060D03*
X103485999Y-128444060D03*
X208280000Y-152765052D03*
X208280000Y-147765052D03*
D11*
X136587092Y-129355560D03*
X141587092Y-129355560D03*
D10*
X103635770Y-190559831D03*
X103635770Y-185559831D03*
X274955000Y-171557650D03*
X274955000Y-166557650D03*
X274955000Y-190559831D03*
X274955000Y-185559831D03*
X227330000Y-190559831D03*
X227330000Y-185559831D03*
X236855000Y-133444060D03*
X236855000Y-128444060D03*
X122555000Y-190559831D03*
X122555000Y-185559831D03*
X198755000Y-171557650D03*
X198755000Y-166557650D03*
X284480000Y-152765052D03*
X284480000Y-147765052D03*
X227330000Y-152765052D03*
X227330000Y-147765052D03*
X255905000Y-190559831D03*
X255905000Y-185559831D03*
X313144667Y-171557650D03*
X313144667Y-166557650D03*
X170180000Y-190559831D03*
X170180000Y-185559831D03*
X294005000Y-171557650D03*
X294005000Y-166557650D03*
X198755000Y-133444060D03*
X198755000Y-128444060D03*
X217805000Y-133444060D03*
X217805000Y-128444060D03*
X236855000Y-171557650D03*
X236855000Y-166557650D03*
X255905000Y-133444060D03*
X255905000Y-128444060D03*
X294005000Y-133444060D03*
X294005000Y-128444060D03*
X160655000Y-171557650D03*
X160655000Y-166557650D03*
X179705000Y-133444060D03*
X179705000Y-128444060D03*
X294005000Y-190559831D03*
X294005000Y-185559831D03*
X308292500Y-152765052D03*
X308292500Y-147765052D03*
X108253648Y-152765052D03*
X108253648Y-147765052D03*
X217805000Y-171557650D03*
X217805000Y-166557650D03*
X160655000Y-133444060D03*
X160655000Y-128444060D03*
X151130000Y-152765052D03*
X151130000Y-147765052D03*
X274955000Y-133444060D03*
X274955000Y-128444060D03*
X170180000Y-152765052D03*
X170180000Y-147765052D03*
X132080000Y-152765052D03*
X132080000Y-147765052D03*
X255905000Y-171557650D03*
X255905000Y-166557650D03*
X179705000Y-171557650D03*
X179705000Y-166557650D03*
X113030000Y-171557650D03*
X113030000Y-166557650D03*
X265430000Y-152765052D03*
X265430000Y-147765052D03*
X246380000Y-152765052D03*
X246380000Y-147765052D03*
X313055000Y-133444060D03*
X313055000Y-128444060D03*
X313055000Y-190559831D03*
X313055000Y-185559831D03*
X189230000Y-152765052D03*
X189230000Y-147765052D03*
X141605000Y-171557650D03*
X141605000Y-166557650D03*
X122555000Y-133444060D03*
X122555000Y-128444060D03*
X141605000Y-190559831D03*
X141605000Y-185559831D03*
X198755000Y-190559831D03*
X198755000Y-185559831D03*
D12*
X109855000Y-119840000D03*
X103505000Y-122380000D03*
X128905000Y-119840000D03*
X122555000Y-122380000D03*
D13*
X144780000Y-133604000D03*
D14*
X147320000Y-133604000D03*
D12*
X319405000Y-119840000D03*
X313055000Y-122380000D03*
X195580000Y-138890000D03*
X189230000Y-141430000D03*
X252730000Y-138890000D03*
X246380000Y-141430000D03*
X300355000Y-157940000D03*
X294005000Y-160480000D03*
X300355000Y-119840000D03*
X294005000Y-122380000D03*
X186055000Y-119840000D03*
X179705000Y-122380000D03*
X262255000Y-157940000D03*
X255905000Y-160480000D03*
X205105000Y-157940000D03*
X198755000Y-160480000D03*
X271780000Y-138890000D03*
X265430000Y-141430000D03*
X233680000Y-176990000D03*
X227330000Y-179530000D03*
X281305000Y-119840000D03*
X274955000Y-122380000D03*
X233680000Y-138890000D03*
X227330000Y-141430000D03*
X176530000Y-138890000D03*
X170180000Y-141430000D03*
X138430000Y-138890000D03*
X132080000Y-141430000D03*
D13*
X132080000Y-133604000D03*
D14*
X134620000Y-133604000D03*
X137160000Y-133604000D03*
X139700000Y-133604000D03*
D12*
X114617500Y-138890000D03*
X108267500Y-141430000D03*
X186055000Y-157940000D03*
X179705000Y-160480000D03*
X281305000Y-176990000D03*
X274955000Y-179530000D03*
X147955000Y-119840000D03*
X141605000Y-122380000D03*
X167005000Y-119840000D03*
X160655000Y-122380000D03*
X214630000Y-138890000D03*
X208280000Y-141430000D03*
X147955000Y-157940000D03*
X141605000Y-160480000D03*
X290830000Y-138890000D03*
X284480000Y-141430000D03*
X157480000Y-138890000D03*
X151130000Y-141430000D03*
X119380000Y-157940000D03*
X113030000Y-160480000D03*
D13*
X139700000Y-115824000D03*
D14*
X137160000Y-115824000D03*
X134620000Y-115824000D03*
D12*
X243205000Y-119840000D03*
X236855000Y-122380000D03*
X224155000Y-157940000D03*
X217805000Y-160480000D03*
X319405000Y-176990000D03*
X313055000Y-179530000D03*
X262255000Y-119840000D03*
X255905000Y-122380000D03*
X319405000Y-157940000D03*
X313055000Y-160480000D03*
X205105000Y-119840000D03*
X198755000Y-122380000D03*
D13*
X147320000Y-115824000D03*
D14*
X144780000Y-115824000D03*
D12*
X167005000Y-157940000D03*
X160655000Y-160480000D03*
X147955000Y-176990000D03*
X141605000Y-179530000D03*
X314642500Y-138890000D03*
X308292500Y-141430000D03*
X243205000Y-157940000D03*
X236855000Y-160480000D03*
X281305000Y-157940000D03*
X274955000Y-160480000D03*
X205105000Y-176990000D03*
X198755000Y-179530000D03*
X262255000Y-176990000D03*
X255905000Y-179530000D03*
X300355000Y-176990000D03*
X294005000Y-179530000D03*
X109855000Y-176990000D03*
X103505000Y-179530000D03*
X176530000Y-176990000D03*
X170180000Y-179530000D03*
X128905000Y-176990000D03*
X122555000Y-179530000D03*
X224155000Y-119840000D03*
X217805000Y-122380000D03*
D13*
X106680000Y-115824000D03*
D14*
X109220000Y-115824000D03*
X111760000Y-115824000D03*
X114300000Y-115824000D03*
D15*
X122555000Y-190559831D02*
X103635770Y-190559831D01*
X99822000Y-182884955D02*
X99817408Y-182889547D01*
X99817408Y-189501861D02*
X100875378Y-190559831D01*
X100875378Y-190559831D02*
X103635770Y-190559831D01*
X99817408Y-182889547D02*
X99817408Y-189501861D01*
D16*
X99822000Y-171893366D02*
X99822000Y-182884955D01*
D15*
X160655000Y-133444060D02*
X156226801Y-133444060D01*
X156226801Y-133444060D02*
X153851390Y-131068648D01*
X153851390Y-131068648D02*
X136564769Y-131068648D01*
X136564769Y-131068648D02*
X136587092Y-131046325D01*
X136587092Y-131046325D02*
X136587092Y-129355560D01*
X179705000Y-133444060D02*
X160655000Y-133444060D01*
X160655000Y-122380000D02*
X160655000Y-128444060D01*
X179705000Y-122380000D02*
X179705000Y-128444060D01*
X198755000Y-133444060D02*
X179705000Y-133444060D01*
X198755000Y-122380000D02*
X198755000Y-128444060D01*
X217805000Y-133444060D02*
X198755000Y-133444060D01*
X236855000Y-133444060D02*
X217805000Y-133444060D01*
X217805000Y-122380000D02*
X217805000Y-128444060D01*
X236855000Y-122380000D02*
X236855000Y-128444060D01*
X255905000Y-133444060D02*
X236855000Y-133444060D01*
X255905000Y-122380000D02*
X255905000Y-128444060D01*
X274955000Y-133444060D02*
X255905000Y-133444060D01*
X274955000Y-122380000D02*
X274955000Y-128444060D01*
X294005000Y-133444060D02*
X274955000Y-133444060D01*
X294005000Y-122380000D02*
X294005000Y-128444060D01*
X313055000Y-122380000D02*
X313055000Y-128444060D01*
X316053724Y-133444060D02*
X318897000Y-136287336D01*
X318897000Y-136287336D02*
X318897000Y-152247958D01*
X313055000Y-133444060D02*
X316053724Y-133444060D01*
X141605000Y-122380000D02*
X141605000Y-129337652D01*
X141605000Y-129337652D02*
X141587092Y-129355560D01*
X136587092Y-129355560D02*
X129867561Y-129355560D01*
X129867561Y-129355560D02*
X125779061Y-133444060D01*
X125779061Y-133444060D02*
X122555000Y-133444060D01*
X117493943Y-133444060D02*
X103485999Y-133444060D01*
X117416000Y-133366117D02*
X117493943Y-133444060D01*
X122555000Y-133444060D02*
X117493943Y-133444060D01*
X114300000Y-115824000D02*
X117094000Y-115824000D01*
X117094000Y-115824000D02*
X117416000Y-116146000D01*
X117416000Y-116146000D02*
X117416000Y-133366117D01*
X122555000Y-122380000D02*
X122555000Y-128444060D01*
X103505000Y-122380000D02*
X103505000Y-128425059D01*
X103505000Y-128425059D02*
X103485999Y-128444060D01*
X124714000Y-146775924D02*
X124714000Y-149584300D01*
X124714000Y-149584300D02*
X124714000Y-152676277D01*
X111760000Y-115824000D02*
X111760000Y-117856000D01*
X111760000Y-117856000D02*
X103886000Y-117856000D01*
X103886000Y-117856000D02*
X100584000Y-121158000D01*
X100584000Y-121158000D02*
X100584000Y-136794386D01*
X100584000Y-136794386D02*
X100713910Y-136924296D01*
X100713910Y-136924296D02*
X124728296Y-136924296D01*
X124728296Y-149570004D02*
X124714000Y-149584300D01*
X124728296Y-136924296D02*
X124728296Y-149570004D01*
X99312293Y-137765267D02*
X99312293Y-129511295D01*
X105410000Y-149475930D02*
X105410000Y-139392031D01*
X99314000Y-129509588D02*
X99314000Y-118618000D01*
X105410000Y-139392031D02*
X103907824Y-137889855D01*
X103907824Y-137889855D02*
X99436881Y-137889855D01*
X99436881Y-137889855D02*
X99312293Y-137765267D01*
X99312293Y-129511295D02*
X99314000Y-129509588D01*
D16*
X104648000Y-139998296D02*
X104648000Y-148561267D01*
D15*
X109220000Y-115824000D02*
X109220000Y-113284000D01*
X109220000Y-113284000D02*
X99314000Y-113284000D01*
X98044000Y-138566354D02*
X98035263Y-138575091D01*
X99314000Y-113284000D02*
X98044000Y-114554000D01*
X98044000Y-114554000D02*
X98044000Y-138566354D01*
X98035263Y-138575091D02*
X98222145Y-138761973D01*
X98222145Y-138761973D02*
X103411677Y-138761973D01*
X103411677Y-138761973D02*
X104648000Y-139998296D01*
X124714000Y-146775924D02*
X124714000Y-148962000D01*
X124802775Y-152765052D02*
X132080000Y-152765052D01*
X108253648Y-152765052D02*
X124802775Y-152765052D01*
X124714000Y-152676277D02*
X124802775Y-152765052D01*
X132080000Y-152765052D02*
X151130000Y-152765052D01*
X108267500Y-141430000D02*
X108267500Y-147751200D01*
X108267500Y-147751200D02*
X108253648Y-147765052D01*
X132080000Y-141430000D02*
X132080000Y-147765052D01*
X151130000Y-141430000D02*
X151130000Y-147765052D01*
X170180000Y-152765052D02*
X151130000Y-152765052D01*
X170180000Y-141430000D02*
X170180000Y-147765052D01*
X189230000Y-152765052D02*
X170180000Y-152765052D01*
X189230000Y-141430000D02*
X189230000Y-147765052D01*
X208280000Y-152765052D02*
X189230000Y-152765052D01*
X227330000Y-152765052D02*
X208280000Y-152765052D01*
X208280000Y-141430000D02*
X208280000Y-147765052D01*
X227330000Y-141430000D02*
X227330000Y-147765052D01*
X246380000Y-152765052D02*
X227330000Y-152765052D01*
X246380000Y-141430000D02*
X246380000Y-147765052D01*
X265430000Y-152765052D02*
X246380000Y-152765052D01*
X265430000Y-141430000D02*
X265430000Y-147765052D01*
X284480000Y-152765052D02*
X265430000Y-152765052D01*
X284480000Y-141430000D02*
X284480000Y-147765052D01*
X308292500Y-141430000D02*
X308292500Y-147765052D01*
X308292500Y-152765052D02*
X284480000Y-152765052D01*
D16*
X99822000Y-153387267D02*
X99822000Y-171893366D01*
X104648000Y-148561267D02*
X99822000Y-153387267D01*
D15*
X101896301Y-152989629D02*
X101896301Y-160423951D01*
X105410000Y-149475930D02*
X101896301Y-152989629D01*
X101896301Y-160423951D02*
X113030000Y-171557650D01*
X313055000Y-160480000D02*
X313055000Y-166467983D01*
X313055000Y-166467983D02*
X313144667Y-166557650D01*
X294005000Y-160480000D02*
X294005000Y-166557650D01*
X274955000Y-160480000D02*
X274955000Y-166557650D01*
X255905000Y-160480000D02*
X255905000Y-166557650D01*
X236855000Y-160480000D02*
X236855000Y-166557650D01*
X217805000Y-160480000D02*
X217805000Y-166557650D01*
X198755000Y-160480000D02*
X198755000Y-166557650D01*
X179705000Y-160480000D02*
X179705000Y-166557650D01*
X160655000Y-160480000D02*
X160655000Y-166557650D01*
X141605000Y-160480000D02*
X141605000Y-166557650D01*
X113030000Y-160480000D02*
X113030000Y-166557650D01*
X294005000Y-171557650D02*
X313144667Y-171557650D01*
X274955000Y-171557650D02*
X294005000Y-171557650D01*
X255905000Y-171557650D02*
X274955000Y-171557650D01*
X236855000Y-171557650D02*
X255905000Y-171557650D01*
X217805000Y-171557650D02*
X236855000Y-171557650D01*
X198755000Y-171557650D02*
X217805000Y-171557650D01*
X179705000Y-171557650D02*
X198755000Y-171557650D01*
X160655000Y-171557650D02*
X179705000Y-171557650D01*
X141605000Y-171557650D02*
X160655000Y-171557650D01*
X125154000Y-167934698D02*
X135972095Y-167934698D01*
X135972095Y-167934698D02*
X139595047Y-171557650D01*
X139595047Y-171557650D02*
X141605000Y-171557650D01*
X113030000Y-171557650D02*
X121531048Y-171557650D01*
X121531048Y-171557650D02*
X125154000Y-167934698D01*
X182993698Y-186592751D02*
X188961869Y-186592751D01*
X170180000Y-190559831D02*
X178886896Y-190559831D01*
X182993698Y-186592751D02*
X179026618Y-190559831D01*
X179026618Y-190559831D02*
X178886896Y-190559831D01*
X192928949Y-190559831D02*
X198755000Y-190559831D01*
X188961869Y-186592751D02*
X192928949Y-190559831D01*
X216387237Y-186662612D02*
X221696670Y-186662612D01*
X198755000Y-190559831D02*
X211861269Y-190559831D01*
X212490018Y-190559831D02*
X211861269Y-190559831D01*
X216387237Y-186662612D02*
X212490018Y-190559831D01*
X225593889Y-190559831D02*
X221696670Y-186662612D01*
X226182767Y-190559831D02*
X227330000Y-190559831D01*
X226182767Y-190559831D02*
X225593889Y-190559831D01*
X227330000Y-190559831D02*
X234985247Y-190559831D01*
X235963301Y-190559831D02*
X234985247Y-190559831D01*
X234985247Y-190559831D02*
X236103023Y-190559831D01*
X255905000Y-190559831D02*
X249513723Y-190559831D01*
X249513723Y-190559831D02*
X246035670Y-187081778D01*
X246035670Y-187081778D02*
X239441354Y-187081778D01*
X239441354Y-187081778D02*
X235963301Y-190559831D01*
D16*
X323850000Y-186715867D02*
X323850000Y-157226000D01*
D15*
X313055000Y-190559831D02*
X320006036Y-190559831D01*
X320006036Y-190559831D02*
X323850000Y-186715867D01*
X294005000Y-190559831D02*
X313055000Y-190559831D01*
X274955000Y-190559831D02*
X294005000Y-190559831D01*
X255905000Y-190559831D02*
X274955000Y-190559831D01*
X165206539Y-189596772D02*
X166184593Y-190574826D01*
X158919052Y-186802334D02*
X165276400Y-186802334D01*
X165276400Y-186802334D02*
X165276400Y-189526911D01*
X166813341Y-190574826D02*
X166828336Y-190559831D01*
X157995865Y-190559831D02*
X158010860Y-190574826D01*
X166828336Y-190559831D02*
X170180000Y-190559831D01*
X141605000Y-190559831D02*
X157995865Y-190559831D01*
X166184593Y-190574826D02*
X166813341Y-190574826D01*
X158919052Y-189666634D02*
X158919052Y-186802334D01*
X165276400Y-189526911D02*
X165206539Y-189596772D01*
X158010860Y-190574826D02*
X158919052Y-189666634D01*
X122555000Y-190559831D02*
X141605000Y-190559831D01*
X103505000Y-179530000D02*
X103505000Y-185429061D01*
X103505000Y-185429061D02*
X103635770Y-185559831D01*
D16*
X323850000Y-157226000D02*
X318897000Y-152273000D01*
X318897000Y-152273000D02*
X318897000Y-152247958D01*
D15*
X99314000Y-118618000D02*
X102108000Y-115824000D01*
X102108000Y-115824000D02*
X106680000Y-115824000D01*
X122525000Y-179530000D02*
X122525000Y-184760000D01*
X141575000Y-179530000D02*
X141575000Y-184760000D01*
X170150000Y-179530000D02*
X170150000Y-184760000D01*
X198725000Y-179530000D02*
X198725000Y-184760000D01*
X227300000Y-179530000D02*
X227300000Y-184760000D01*
X255875000Y-179530000D02*
X255875000Y-184760000D01*
X274925000Y-179530000D02*
X274925000Y-184760000D01*
X293975000Y-179530000D02*
X293975000Y-184760000D01*
X313025000Y-179530000D02*
X313025000Y-184760000D01*
M02*
