G04 #@! TF.GenerationSoftware,KiCad,Pcbnew,(6.0.2-0)*
G04 #@! TF.CreationDate,2022-07-23T12:51:23+10:00*
G04 #@! TF.ProjectId,keyboard-with-attached-pico,6b657962-6f61-4726-942d-776974682d61,1.01*
G04 #@! TF.SameCoordinates,Original*
G04 #@! TF.FileFunction,Soldermask,Bot*
G04 #@! TF.FilePolarity,Negative*
%FSLAX46Y46*%
G04 Gerber Fmt 4.6, Leading zero omitted, Abs format (unit mm)*
G04 Created by KiCad (PCBNEW (6.0.2-0)) date 2022-07-23 12:51:23*
%MOMM*%
%LPD*%
G01*
G04 APERTURE LIST*
%ADD10R,1.800000X3.500000*%
%ADD11R,3.500000X1.800000*%
%ADD12C,1.700000*%
%ADD13C,4.000000*%
%ADD14C,2.200000*%
%ADD15C,3.200000*%
%ADD16R,1.700000X1.700000*%
%ADD17O,1.700000X1.700000*%
%ADD18C,3.050000*%
G04 APERTURE END LIST*
D10*
X103485999Y-133444060D03*
X103485999Y-128444060D03*
X208280000Y-152765052D03*
X208280000Y-147765052D03*
D11*
X136587092Y-129355560D03*
X141587092Y-129355560D03*
D10*
X103635770Y-190559831D03*
X103635770Y-185559831D03*
X274955000Y-171557650D03*
X274955000Y-166557650D03*
X274955000Y-190559831D03*
X274955000Y-185559831D03*
X227330000Y-190559831D03*
X227330000Y-185559831D03*
X236855000Y-133444060D03*
X236855000Y-128444060D03*
X122555000Y-190559831D03*
X122555000Y-185559831D03*
X198755000Y-171557650D03*
X198755000Y-166557650D03*
X284480000Y-152765052D03*
X284480000Y-147765052D03*
X227330000Y-152765052D03*
X227330000Y-147765052D03*
X255905000Y-190559831D03*
X255905000Y-185559831D03*
X313144667Y-171557650D03*
X313144667Y-166557650D03*
X170180000Y-190559831D03*
X170180000Y-185559831D03*
X294005000Y-171557650D03*
X294005000Y-166557650D03*
X198755000Y-133444060D03*
X198755000Y-128444060D03*
X217805000Y-133444060D03*
X217805000Y-128444060D03*
X236855000Y-171557650D03*
X236855000Y-166557650D03*
X255905000Y-133444060D03*
X255905000Y-128444060D03*
X294005000Y-133444060D03*
X294005000Y-128444060D03*
X160655000Y-171557650D03*
X160655000Y-166557650D03*
X179705000Y-133444060D03*
X179705000Y-128444060D03*
X294005000Y-190559831D03*
X294005000Y-185559831D03*
X308292500Y-152765052D03*
X308292500Y-147765052D03*
X108253648Y-152765052D03*
X108253648Y-147765052D03*
X217805000Y-171557650D03*
X217805000Y-166557650D03*
X160655000Y-133444060D03*
X160655000Y-128444060D03*
X151130000Y-152765052D03*
X151130000Y-147765052D03*
X274955000Y-133444060D03*
X274955000Y-128444060D03*
X170180000Y-152765052D03*
X170180000Y-147765052D03*
X132080000Y-152765052D03*
X132080000Y-147765052D03*
X255905000Y-171557650D03*
X255905000Y-166557650D03*
X179705000Y-171557650D03*
X179705000Y-166557650D03*
X113030000Y-171557650D03*
X113030000Y-166557650D03*
X265430000Y-152765052D03*
X265430000Y-147765052D03*
X246380000Y-152765052D03*
X246380000Y-147765052D03*
X313055000Y-133444060D03*
X313055000Y-128444060D03*
X313055000Y-190559831D03*
X313055000Y-185559831D03*
X189230000Y-152765052D03*
X189230000Y-147765052D03*
X141605000Y-171557650D03*
X141605000Y-166557650D03*
X122555000Y-133444060D03*
X122555000Y-128444060D03*
X141605000Y-190559831D03*
X141605000Y-185559831D03*
X198755000Y-190559831D03*
X198755000Y-185559831D03*
D12*
X102235000Y-124920000D03*
D13*
X107315000Y-124920000D03*
D12*
X112395000Y-124920000D03*
D14*
X109855000Y-119840000D03*
X103505000Y-122380000D03*
D15*
X101092000Y-142494000D03*
X322834000Y-142240000D03*
D12*
X131445000Y-124920000D03*
D13*
X126365000Y-124920000D03*
D12*
X121285000Y-124920000D03*
D14*
X128905000Y-119840000D03*
X122555000Y-122380000D03*
D16*
X144780000Y-133604000D03*
D17*
X147320000Y-133604000D03*
D12*
X311785000Y-124920000D03*
X321945000Y-124920000D03*
D13*
X316865000Y-124920000D03*
D14*
X319405000Y-119840000D03*
X313055000Y-122380000D03*
D12*
X187960000Y-143970000D03*
D13*
X193040000Y-143970000D03*
D12*
X198120000Y-143970000D03*
D14*
X195580000Y-138890000D03*
X189230000Y-141430000D03*
D12*
X255270000Y-143970000D03*
X245110000Y-143970000D03*
D13*
X250190000Y-143970000D03*
D14*
X252730000Y-138890000D03*
X246380000Y-141430000D03*
D12*
X292735000Y-163020000D03*
D13*
X297815000Y-163020000D03*
D12*
X302895000Y-163020000D03*
D14*
X300355000Y-157940000D03*
X294005000Y-160480000D03*
D13*
X297815000Y-124920000D03*
D12*
X292735000Y-124920000D03*
X302895000Y-124920000D03*
D14*
X300355000Y-119840000D03*
X294005000Y-122380000D03*
D12*
X178435000Y-124920000D03*
X188595000Y-124920000D03*
D13*
X183515000Y-124920000D03*
D14*
X186055000Y-119840000D03*
X179705000Y-122380000D03*
D12*
X254635000Y-163020000D03*
X264795000Y-163020000D03*
D13*
X259715000Y-163020000D03*
D14*
X262255000Y-157940000D03*
X255905000Y-160480000D03*
D12*
X197485000Y-163020000D03*
X207645000Y-163020000D03*
D13*
X202565000Y-163020000D03*
D14*
X205105000Y-157940000D03*
X198755000Y-160480000D03*
D12*
X274320000Y-143970000D03*
X264160000Y-143970000D03*
D13*
X269240000Y-143970000D03*
D14*
X271780000Y-138890000D03*
X265430000Y-141430000D03*
D12*
X226060000Y-182070000D03*
D13*
X243040000Y-190310000D03*
D18*
X243040000Y-175070000D03*
D13*
X231140000Y-182070000D03*
D12*
X236220000Y-182070000D03*
D18*
X219240000Y-175070000D03*
D13*
X219240000Y-190310000D03*
D14*
X233680000Y-176990000D03*
X227330000Y-179530000D03*
D12*
X283845000Y-124920000D03*
X273685000Y-124920000D03*
D13*
X278765000Y-124920000D03*
D14*
X281305000Y-119840000D03*
X274955000Y-122380000D03*
D13*
X231140000Y-143970000D03*
D12*
X236220000Y-143970000D03*
X226060000Y-143970000D03*
D14*
X233680000Y-138890000D03*
X227330000Y-141430000D03*
D12*
X179070000Y-143970000D03*
X168910000Y-143970000D03*
D13*
X173990000Y-143970000D03*
D14*
X176530000Y-138890000D03*
X170180000Y-141430000D03*
D13*
X135890000Y-143970000D03*
D12*
X130810000Y-143970000D03*
X140970000Y-143970000D03*
D14*
X138430000Y-138890000D03*
X132080000Y-141430000D03*
D16*
X132080000Y-133604000D03*
D17*
X134620000Y-133604000D03*
X137160000Y-133604000D03*
X139700000Y-133604000D03*
D13*
X112077500Y-143970000D03*
D12*
X106997500Y-143970000D03*
X117157500Y-143970000D03*
D14*
X114617500Y-138890000D03*
X108267500Y-141430000D03*
D13*
X183515000Y-163020000D03*
D12*
X188595000Y-163020000D03*
X178435000Y-163020000D03*
D14*
X186055000Y-157940000D03*
X179705000Y-160480000D03*
D13*
X278765000Y-182070000D03*
D12*
X273685000Y-182070000D03*
X283845000Y-182070000D03*
D14*
X281305000Y-176990000D03*
X274955000Y-179530000D03*
D12*
X150495000Y-124920000D03*
D13*
X145415000Y-124920000D03*
D12*
X140335000Y-124920000D03*
D14*
X147955000Y-119840000D03*
X141605000Y-122380000D03*
D12*
X169545000Y-124920000D03*
D13*
X164465000Y-124920000D03*
D12*
X159385000Y-124920000D03*
D14*
X167005000Y-119840000D03*
X160655000Y-122380000D03*
D13*
X212090000Y-143970000D03*
D12*
X217170000Y-143970000D03*
X207010000Y-143970000D03*
D14*
X214630000Y-138890000D03*
X208280000Y-141430000D03*
D12*
X150495000Y-163020000D03*
X140335000Y-163020000D03*
D13*
X145415000Y-163020000D03*
D14*
X147955000Y-157940000D03*
X141605000Y-160480000D03*
D12*
X283210000Y-143970000D03*
X293370000Y-143970000D03*
D13*
X288290000Y-143970000D03*
D14*
X290830000Y-138890000D03*
X284480000Y-141430000D03*
D12*
X149860000Y-143970000D03*
X160020000Y-143970000D03*
D13*
X154940000Y-143970000D03*
D14*
X157480000Y-138890000D03*
X151130000Y-141430000D03*
D12*
X121920000Y-163020000D03*
D13*
X116840000Y-163020000D03*
D18*
X128740000Y-156020000D03*
X104940000Y-156020000D03*
D13*
X104940000Y-171260000D03*
X128740000Y-171260000D03*
D12*
X111760000Y-163020000D03*
D14*
X119380000Y-157940000D03*
X113030000Y-160480000D03*
D16*
X139700000Y-115824000D03*
D17*
X137160000Y-115824000D03*
X134620000Y-115824000D03*
D13*
X240665000Y-124920000D03*
D12*
X235585000Y-124920000D03*
X245745000Y-124920000D03*
D14*
X243205000Y-119840000D03*
X236855000Y-122380000D03*
D12*
X216535000Y-163020000D03*
X226695000Y-163020000D03*
D13*
X221615000Y-163020000D03*
D14*
X224155000Y-157940000D03*
X217805000Y-160480000D03*
D13*
X316865000Y-182070000D03*
D12*
X311785000Y-182070000D03*
X321945000Y-182070000D03*
D14*
X319405000Y-176990000D03*
X313055000Y-179530000D03*
D13*
X259715000Y-124920000D03*
D12*
X254635000Y-124920000D03*
X264795000Y-124920000D03*
D14*
X262255000Y-119840000D03*
X255905000Y-122380000D03*
D12*
X321945000Y-163020000D03*
X311785000Y-163020000D03*
D13*
X316865000Y-163020000D03*
D14*
X319405000Y-157940000D03*
X313055000Y-160480000D03*
D12*
X197485000Y-124920000D03*
D13*
X202565000Y-124920000D03*
D12*
X207645000Y-124920000D03*
D14*
X205105000Y-119840000D03*
X198755000Y-122380000D03*
D16*
X147320000Y-115824000D03*
D17*
X144780000Y-115824000D03*
D12*
X159385000Y-163020000D03*
X169545000Y-163020000D03*
D13*
X164465000Y-163020000D03*
D14*
X167005000Y-157940000D03*
X160655000Y-160480000D03*
D12*
X150495000Y-182070000D03*
D13*
X145415000Y-182070000D03*
D12*
X140335000Y-182070000D03*
D14*
X147955000Y-176990000D03*
X141605000Y-179530000D03*
D12*
X317182500Y-143970000D03*
D13*
X312102500Y-143970000D03*
D12*
X307022500Y-143970000D03*
D14*
X314642500Y-138890000D03*
X308292500Y-141430000D03*
D12*
X235585000Y-163020000D03*
X245745000Y-163020000D03*
D13*
X240665000Y-163020000D03*
D14*
X243205000Y-157940000D03*
X236855000Y-160480000D03*
D12*
X283845000Y-163020000D03*
D13*
X278765000Y-163020000D03*
D12*
X273685000Y-163020000D03*
D14*
X281305000Y-157940000D03*
X274955000Y-160480000D03*
D13*
X202565000Y-182070000D03*
D12*
X197485000Y-182070000D03*
X207645000Y-182070000D03*
D14*
X205105000Y-176990000D03*
X198755000Y-179530000D03*
D12*
X254635000Y-182070000D03*
X264795000Y-182070000D03*
D13*
X259715000Y-182070000D03*
D14*
X262255000Y-176990000D03*
X255905000Y-179530000D03*
D12*
X302895000Y-182070000D03*
D13*
X297815000Y-182070000D03*
D12*
X292735000Y-182070000D03*
D14*
X300355000Y-176990000D03*
X294005000Y-179530000D03*
D12*
X112395000Y-182070000D03*
X102235000Y-182070000D03*
D13*
X107315000Y-182070000D03*
D14*
X109855000Y-176990000D03*
X103505000Y-179530000D03*
D13*
X173990000Y-182070000D03*
D18*
X185890000Y-175070000D03*
X162090000Y-175070000D03*
D12*
X168910000Y-182070000D03*
D13*
X162090000Y-190310000D03*
X185890000Y-190310000D03*
D12*
X179070000Y-182070000D03*
D14*
X176530000Y-176990000D03*
X170180000Y-179530000D03*
D13*
X126365000Y-182070000D03*
D12*
X131445000Y-182070000D03*
X121285000Y-182070000D03*
D14*
X128905000Y-176990000D03*
X122555000Y-179530000D03*
D13*
X221615000Y-124920000D03*
D12*
X216535000Y-124920000D03*
X226695000Y-124920000D03*
D14*
X224155000Y-119840000D03*
X217805000Y-122380000D03*
D16*
X106680000Y-115824000D03*
D17*
X109220000Y-115824000D03*
X111760000Y-115824000D03*
X114300000Y-115824000D03*
M02*
