G04 #@! TF.GenerationSoftware,KiCad,Pcbnew,(6.0.2-0)*
G04 #@! TF.CreationDate,2022-03-17T22:57:47+11:00*
G04 #@! TF.ProjectId,keyboard,6b657962-6f61-4726-942e-6b696361645f,rev?*
G04 #@! TF.SameCoordinates,Original*
G04 #@! TF.FileFunction,Copper,L1,Top*
G04 #@! TF.FilePolarity,Positive*
%FSLAX46Y46*%
G04 Gerber Fmt 4.6, Leading zero omitted, Abs format (unit mm)*
G04 Created by KiCad (PCBNEW (6.0.2-0)) date 2022-03-17 22:57:47*
%MOMM*%
%LPD*%
G01*
G04 APERTURE LIST*
G04 #@! TA.AperFunction,ComponentPad*
%ADD10C,2.200000*%
G04 #@! TD*
G04 #@! TA.AperFunction,ComponentPad*
%ADD11R,1.700000X1.700000*%
G04 #@! TD*
G04 #@! TA.AperFunction,ComponentPad*
%ADD12O,1.700000X1.700000*%
G04 #@! TD*
G04 #@! TA.AperFunction,ViaPad*
%ADD13C,0.800000*%
G04 #@! TD*
G04 #@! TA.AperFunction,Conductor*
%ADD14C,0.250000*%
G04 #@! TD*
G04 APERTURE END LIST*
D10*
X109855000Y-119840000D03*
X103505000Y-122380000D03*
X128905000Y-119840000D03*
X122555000Y-122380000D03*
X319405000Y-119840000D03*
X313055000Y-122380000D03*
X195580000Y-138890000D03*
X189230000Y-141430000D03*
X252730000Y-138890000D03*
X246380000Y-141430000D03*
X300355000Y-157940000D03*
X294005000Y-160480000D03*
X300355000Y-119840000D03*
X294005000Y-122380000D03*
X186055000Y-119840000D03*
X179705000Y-122380000D03*
X262255000Y-157940000D03*
X255905000Y-160480000D03*
X205105000Y-157940000D03*
X198755000Y-160480000D03*
X271780000Y-138890000D03*
X265430000Y-141430000D03*
X233680000Y-176990000D03*
X227330000Y-179530000D03*
X281305000Y-119840000D03*
X274955000Y-122380000D03*
X233680000Y-138890000D03*
X227330000Y-141430000D03*
X176530000Y-138890000D03*
X170180000Y-141430000D03*
X138430000Y-138890000D03*
X132080000Y-141430000D03*
X114617500Y-138890000D03*
X108267500Y-141430000D03*
X186055000Y-157940000D03*
X179705000Y-160480000D03*
X281305000Y-176990000D03*
X274955000Y-179530000D03*
X147955000Y-119840000D03*
X141605000Y-122380000D03*
X167005000Y-119840000D03*
X160655000Y-122380000D03*
X214630000Y-138890000D03*
X208280000Y-141430000D03*
X147955000Y-157940000D03*
X141605000Y-160480000D03*
X290830000Y-138890000D03*
X284480000Y-141430000D03*
X157480000Y-138890000D03*
X151130000Y-141430000D03*
X119380000Y-157940000D03*
X113030000Y-160480000D03*
X243205000Y-119840000D03*
X236855000Y-122380000D03*
X224155000Y-157940000D03*
X217805000Y-160480000D03*
X319405000Y-176990000D03*
X313055000Y-179530000D03*
X262255000Y-119840000D03*
X255905000Y-122380000D03*
X319405000Y-157940000D03*
X313055000Y-160480000D03*
X205105000Y-119840000D03*
X198755000Y-122380000D03*
X167005000Y-157940000D03*
X160655000Y-160480000D03*
X147955000Y-176990000D03*
X141605000Y-179530000D03*
X314642500Y-138890000D03*
X308292500Y-141430000D03*
X243205000Y-157940000D03*
X236855000Y-160480000D03*
X281305000Y-157940000D03*
X274955000Y-160480000D03*
X205105000Y-176990000D03*
X198755000Y-179530000D03*
X262255000Y-176990000D03*
X255905000Y-179530000D03*
X300355000Y-176990000D03*
X294005000Y-179530000D03*
X109855000Y-176990000D03*
X103505000Y-179530000D03*
X176530000Y-176990000D03*
X170180000Y-179530000D03*
X128905000Y-176990000D03*
X122555000Y-179530000D03*
X224155000Y-119840000D03*
X217805000Y-122380000D03*
D11*
X198384000Y-193802000D03*
D12*
X200924000Y-193802000D03*
X203464000Y-193802000D03*
X206004000Y-193802000D03*
D11*
X189230000Y-113284000D03*
D12*
X191770000Y-113284000D03*
X194310000Y-113284000D03*
X196850000Y-113284000D03*
X199390000Y-113284000D03*
X201930000Y-113284000D03*
X204470000Y-113284000D03*
X207010000Y-113284000D03*
X209550000Y-113284000D03*
X212090000Y-113284000D03*
X214630000Y-113284000D03*
D13*
X126785000Y-167855000D03*
D14*
X109855000Y-134127500D02*
X114617500Y-138890000D01*
X114617500Y-138890000D02*
X114617500Y-153177500D01*
X114617500Y-153177500D02*
X119380000Y-157940000D01*
X189230000Y-113284000D02*
X116586000Y-113284000D01*
X116332000Y-113538000D02*
X116157000Y-113538000D01*
X116157000Y-113538000D02*
X109855000Y-119840000D01*
X119380000Y-167465000D02*
X109855000Y-176990000D01*
X119380000Y-157940000D02*
X119380000Y-167465000D01*
X109855000Y-119840000D02*
X109855000Y-134127500D01*
X116586000Y-113284000D02*
X116332000Y-113538000D01*
X147955000Y-157940000D02*
X147955000Y-163957000D01*
X128905000Y-119840000D02*
X128905000Y-129365000D01*
X147955000Y-163957000D02*
X134922000Y-176990000D01*
X133937000Y-114808000D02*
X128905000Y-119840000D01*
X128550000Y-119840000D02*
X128905000Y-119840000D01*
X190246000Y-114808000D02*
X133937000Y-114808000D01*
X128905000Y-129365000D02*
X138430000Y-138890000D01*
X191770000Y-113284000D02*
X190246000Y-114808000D01*
X134922000Y-176990000D02*
X128905000Y-176990000D01*
X138430000Y-138890000D02*
X138430000Y-148415000D01*
X138430000Y-148415000D02*
X147955000Y-157940000D01*
X167005000Y-157940000D02*
X167005000Y-163838081D01*
X191516000Y-116078000D02*
X151717000Y-116078000D01*
X157480000Y-148415000D02*
X167005000Y-157940000D01*
X151717000Y-116078000D02*
X147955000Y-119840000D01*
X153853081Y-176990000D02*
X147955000Y-176990000D01*
X157480000Y-138890000D02*
X157480000Y-148415000D01*
X147955000Y-119840000D02*
X147955000Y-129365000D01*
X194310000Y-113284000D02*
X191516000Y-116078000D01*
X147955000Y-129365000D02*
X157480000Y-138890000D01*
X167005000Y-163838081D02*
X153853081Y-176990000D01*
X176530000Y-148415000D02*
X186055000Y-157940000D01*
X186055000Y-167465000D02*
X176530000Y-176990000D01*
X167005000Y-119840000D02*
X167005000Y-129365000D01*
X169497000Y-117348000D02*
X167005000Y-119840000D01*
X186055000Y-157940000D02*
X186055000Y-167465000D01*
X176530000Y-138890000D02*
X176530000Y-148415000D01*
X167005000Y-129365000D02*
X176530000Y-138890000D01*
X192786000Y-117348000D02*
X169497000Y-117348000D01*
X196850000Y-113284000D02*
X192786000Y-117348000D01*
X194056000Y-118618000D02*
X187277000Y-118618000D01*
X186055000Y-119840000D02*
X186055000Y-129365000D01*
X199390000Y-113284000D02*
X194056000Y-118618000D01*
X186055000Y-129365000D02*
X195580000Y-138890000D01*
X195580000Y-148415000D02*
X205105000Y-157940000D01*
X205105000Y-157940000D02*
X205105000Y-176990000D01*
X187277000Y-118618000D02*
X186055000Y-119840000D01*
X195580000Y-138890000D02*
X195580000Y-148415000D01*
X224155000Y-157940000D02*
X224155000Y-167465000D01*
X214630000Y-138890000D02*
X214630000Y-148415000D01*
X204978000Y-116332000D02*
X204978000Y-116586000D01*
X204978000Y-116586000D02*
X205105000Y-116713000D01*
X205105000Y-116713000D02*
X205105000Y-119840000D01*
X201930000Y-113284000D02*
X204978000Y-116332000D01*
X205105000Y-129365000D02*
X214630000Y-138890000D01*
X205105000Y-119840000D02*
X205105000Y-129365000D01*
X214630000Y-148415000D02*
X224155000Y-157940000D01*
X224155000Y-167465000D02*
X233680000Y-176990000D01*
X204470000Y-113284000D02*
X209550000Y-118364000D01*
X224155000Y-119840000D02*
X224155000Y-129365000D01*
X243205000Y-157940000D02*
X243205000Y-164318200D01*
X233680000Y-148415000D02*
X243205000Y-157940000D01*
X243205000Y-164318200D02*
X255876800Y-176990000D01*
X209550000Y-118364000D02*
X222679000Y-118364000D01*
X224155000Y-129365000D02*
X233680000Y-138890000D01*
X255876800Y-176990000D02*
X262255000Y-176990000D01*
X222679000Y-118364000D02*
X224155000Y-119840000D01*
X233680000Y-138890000D02*
X233680000Y-148415000D01*
X240459000Y-117094000D02*
X243205000Y-119840000D01*
X252730000Y-138890000D02*
X252730000Y-148415000D01*
X252730000Y-148415000D02*
X262255000Y-157940000D01*
X262255000Y-157940000D02*
X262255000Y-162211735D01*
X243205000Y-129365000D02*
X252730000Y-138890000D01*
X243205000Y-119840000D02*
X243205000Y-129365000D01*
X262255000Y-162211735D02*
X277033265Y-176990000D01*
X210820000Y-117094000D02*
X240459000Y-117094000D01*
X277033265Y-176990000D02*
X281305000Y-176990000D01*
X207010000Y-113284000D02*
X210820000Y-117094000D01*
X258239000Y-115824000D02*
X262255000Y-119840000D01*
X294287200Y-176990000D02*
X300355000Y-176990000D01*
X212090000Y-115824000D02*
X258239000Y-115824000D01*
X262255000Y-129365000D02*
X271780000Y-138890000D01*
X271780000Y-138890000D02*
X271780000Y-148415000D01*
X209550000Y-113284000D02*
X212090000Y-115824000D01*
X262255000Y-119840000D02*
X262255000Y-129365000D01*
X271780000Y-148415000D02*
X281305000Y-157940000D01*
X281305000Y-157940000D02*
X281305000Y-164007800D01*
X281305000Y-164007800D02*
X294287200Y-176990000D01*
X300355000Y-157940000D02*
X300355000Y-163703000D01*
X276273000Y-114808000D02*
X276098000Y-114808000D01*
X212090000Y-113284000D02*
X213614000Y-114808000D01*
X300355000Y-157940000D02*
X300355000Y-145775000D01*
X300355000Y-163703000D02*
X313642000Y-176990000D01*
X313642000Y-176990000D02*
X319405000Y-176990000D01*
X213614000Y-114808000D02*
X276098000Y-114808000D01*
X281305000Y-119840000D02*
X276273000Y-114808000D01*
X281305000Y-129365000D02*
X290830000Y-138890000D01*
X300355000Y-145775000D02*
X293470000Y-138890000D01*
X293470000Y-138890000D02*
X290830000Y-138890000D01*
X276098000Y-114808000D02*
X276352000Y-114808000D01*
X281305000Y-119840000D02*
X281305000Y-129365000D01*
X314642500Y-138890000D02*
X314642500Y-153177500D01*
X300355000Y-119840000D02*
X319405000Y-119840000D01*
X300355000Y-119840000D02*
X300355000Y-124602500D01*
X293799000Y-113284000D02*
X300355000Y-119840000D01*
X300355000Y-124602500D02*
X314642500Y-138890000D01*
X214630000Y-113284000D02*
X293799000Y-113284000D01*
X314642500Y-153177500D02*
X319405000Y-157940000D01*
M02*
