%FSLAX45Y45*%
G04 Gerber Fmt 4.5, Leading zero omitted, Abs format (unit mm)*
G04 Created by KiCad (PCBNEW (6.0.2-0)) date 2022-03-14 11:49:52*
%MOMM*%
%LPD*%
G01*
G04 APERTURE LIST*
%TA.AperFunction,Profile*%
%ADD10C,0.050000*%
%TD*%
%ADD11C,0.200000*%
%ADD12C,0.170000*%
%ADD13C,0.305000*%
%ADD14C,0.320000*%
%ADD15C,0.400000*%
G04 APERTURE END LIST*
D10*
X9522000Y-11089000D02*
X32830000Y-11089000D01*
X32830000Y-11089000D02*
X32830000Y-19397000D01*
X32830000Y-19397000D02*
X9522000Y-19397000D01*
X9522000Y-19397000D02*
X9522000Y-11089000D01*
D11*
D12*
X10138500Y-12407000D02*
X10308500Y-12577000D01*
X10308500Y-12407000D02*
X10138500Y-12577000D01*
X10138500Y-18122000D02*
X10308500Y-18292000D01*
X10308500Y-18122000D02*
X10138500Y-18292000D01*
X10614750Y-14312000D02*
X10784750Y-14482000D01*
X10784750Y-14312000D02*
X10614750Y-14482000D01*
X11091000Y-16217000D02*
X11261000Y-16387000D01*
X11261000Y-16217000D02*
X11091000Y-16387000D01*
X11154500Y-12407000D02*
X11324500Y-12577000D01*
X11324500Y-12407000D02*
X11154500Y-12577000D01*
X11154500Y-18122000D02*
X11324500Y-18292000D01*
X11324500Y-18122000D02*
X11154500Y-18292000D01*
X11630750Y-14312000D02*
X11800750Y-14482000D01*
X11800750Y-14312000D02*
X11630750Y-14482000D01*
X12043500Y-12407000D02*
X12213500Y-12577000D01*
X12213500Y-12407000D02*
X12043500Y-12577000D01*
X12043500Y-18122000D02*
X12213500Y-18292000D01*
X12213500Y-18122000D02*
X12043500Y-18292000D01*
X12107000Y-16217000D02*
X12277000Y-16387000D01*
X12277000Y-16217000D02*
X12107000Y-16387000D01*
X12996000Y-14312000D02*
X13166000Y-14482000D01*
X13166000Y-14312000D02*
X12996000Y-14482000D01*
X13059500Y-12407000D02*
X13229500Y-12577000D01*
X13229500Y-12407000D02*
X13059500Y-12577000D01*
X13059500Y-18122000D02*
X13229500Y-18292000D01*
X13229500Y-18122000D02*
X13059500Y-18292000D01*
X13948500Y-12407000D02*
X14118500Y-12577000D01*
X14118500Y-12407000D02*
X13948500Y-12577000D01*
X13948500Y-16217000D02*
X14118500Y-16387000D01*
X14118500Y-16217000D02*
X13948500Y-16387000D01*
X13948500Y-18122000D02*
X14118500Y-18292000D01*
X14118500Y-18122000D02*
X13948500Y-18292000D01*
X14012000Y-14312000D02*
X14182000Y-14482000D01*
X14182000Y-14312000D02*
X14012000Y-14482000D01*
X14901000Y-14312000D02*
X15071000Y-14482000D01*
X15071000Y-14312000D02*
X14901000Y-14482000D01*
X14964500Y-12407000D02*
X15134500Y-12577000D01*
X15134500Y-12407000D02*
X14964500Y-12577000D01*
X14964500Y-16217000D02*
X15134500Y-16387000D01*
X15134500Y-16217000D02*
X14964500Y-16387000D01*
X14964500Y-18122000D02*
X15134500Y-18292000D01*
X15134500Y-18122000D02*
X14964500Y-18292000D01*
X15853500Y-12407000D02*
X16023500Y-12577000D01*
X16023500Y-12407000D02*
X15853500Y-12577000D01*
X15853500Y-16217000D02*
X16023500Y-16387000D01*
X16023500Y-16217000D02*
X15853500Y-16387000D01*
X15917000Y-14312000D02*
X16087000Y-14482000D01*
X16087000Y-14312000D02*
X15917000Y-14482000D01*
X16806000Y-14312000D02*
X16976000Y-14482000D01*
X16976000Y-14312000D02*
X16806000Y-14482000D01*
X16806000Y-18122000D02*
X16976000Y-18292000D01*
X16976000Y-18122000D02*
X16806000Y-18292000D01*
X16869500Y-12407000D02*
X17039500Y-12577000D01*
X17039500Y-12407000D02*
X16869500Y-12577000D01*
X16869500Y-16217000D02*
X17039500Y-16387000D01*
X17039500Y-16217000D02*
X16869500Y-16387000D01*
X17758500Y-12407000D02*
X17928500Y-12577000D01*
X17928500Y-12407000D02*
X17758500Y-12577000D01*
X17758500Y-16217000D02*
X17928500Y-16387000D01*
X17928500Y-16217000D02*
X17758500Y-16387000D01*
X17822000Y-14312000D02*
X17992000Y-14482000D01*
X17992000Y-14312000D02*
X17822000Y-14482000D01*
X17822000Y-18122000D02*
X17992000Y-18292000D01*
X17992000Y-18122000D02*
X17822000Y-18292000D01*
X18711000Y-14312000D02*
X18881000Y-14482000D01*
X18881000Y-14312000D02*
X18711000Y-14482000D01*
X18774500Y-12407000D02*
X18944500Y-12577000D01*
X18944500Y-12407000D02*
X18774500Y-12577000D01*
X18774500Y-16217000D02*
X18944500Y-16387000D01*
X18944500Y-16217000D02*
X18774500Y-16387000D01*
X19663500Y-12407000D02*
X19833500Y-12577000D01*
X19833500Y-12407000D02*
X19663500Y-12577000D01*
X19663500Y-16217000D02*
X19833500Y-16387000D01*
X19833500Y-16217000D02*
X19663500Y-16387000D01*
X19663500Y-18122000D02*
X19833500Y-18292000D01*
X19833500Y-18122000D02*
X19663500Y-18292000D01*
X19727000Y-14312000D02*
X19897000Y-14482000D01*
X19897000Y-14312000D02*
X19727000Y-14482000D01*
X20616000Y-14312000D02*
X20786000Y-14482000D01*
X20786000Y-14312000D02*
X20616000Y-14482000D01*
X20679500Y-12407000D02*
X20849500Y-12577000D01*
X20849500Y-12407000D02*
X20679500Y-12577000D01*
X20679500Y-16217000D02*
X20849500Y-16387000D01*
X20849500Y-16217000D02*
X20679500Y-16387000D01*
X20679500Y-18122000D02*
X20849500Y-18292000D01*
X20849500Y-18122000D02*
X20679500Y-18292000D01*
X21568500Y-12407000D02*
X21738500Y-12577000D01*
X21738500Y-12407000D02*
X21568500Y-12577000D01*
X21568500Y-16217000D02*
X21738500Y-16387000D01*
X21738500Y-16217000D02*
X21568500Y-16387000D01*
X21632000Y-14312000D02*
X21802000Y-14482000D01*
X21802000Y-14312000D02*
X21632000Y-14482000D01*
X22521000Y-14312000D02*
X22691000Y-14482000D01*
X22691000Y-14312000D02*
X22521000Y-14482000D01*
X22521000Y-18122000D02*
X22691000Y-18292000D01*
X22691000Y-18122000D02*
X22521000Y-18292000D01*
X22584500Y-12407000D02*
X22754500Y-12577000D01*
X22754500Y-12407000D02*
X22584500Y-12577000D01*
X22584500Y-16217000D02*
X22754500Y-16387000D01*
X22754500Y-16217000D02*
X22584500Y-16387000D01*
X23473500Y-12407000D02*
X23643500Y-12577000D01*
X23643500Y-12407000D02*
X23473500Y-12577000D01*
X23473500Y-16217000D02*
X23643500Y-16387000D01*
X23643500Y-16217000D02*
X23473500Y-16387000D01*
X23537000Y-14312000D02*
X23707000Y-14482000D01*
X23707000Y-14312000D02*
X23537000Y-14482000D01*
X23537000Y-18122000D02*
X23707000Y-18292000D01*
X23707000Y-18122000D02*
X23537000Y-18292000D01*
X24426000Y-14312000D02*
X24596000Y-14482000D01*
X24596000Y-14312000D02*
X24426000Y-14482000D01*
X24489500Y-12407000D02*
X24659500Y-12577000D01*
X24659500Y-12407000D02*
X24489500Y-12577000D01*
X24489500Y-16217000D02*
X24659500Y-16387000D01*
X24659500Y-16217000D02*
X24489500Y-16387000D01*
X25378500Y-12407000D02*
X25548500Y-12577000D01*
X25548500Y-12407000D02*
X25378500Y-12577000D01*
X25378500Y-16217000D02*
X25548500Y-16387000D01*
X25548500Y-16217000D02*
X25378500Y-16387000D01*
X25378500Y-18122000D02*
X25548500Y-18292000D01*
X25548500Y-18122000D02*
X25378500Y-18292000D01*
X25442000Y-14312000D02*
X25612000Y-14482000D01*
X25612000Y-14312000D02*
X25442000Y-14482000D01*
X26331000Y-14312000D02*
X26501000Y-14482000D01*
X26501000Y-14312000D02*
X26331000Y-14482000D01*
X26394500Y-12407000D02*
X26564500Y-12577000D01*
X26564500Y-12407000D02*
X26394500Y-12577000D01*
X26394500Y-16217000D02*
X26564500Y-16387000D01*
X26564500Y-16217000D02*
X26394500Y-16387000D01*
X26394500Y-18122000D02*
X26564500Y-18292000D01*
X26564500Y-18122000D02*
X26394500Y-18292000D01*
X27283500Y-12407000D02*
X27453500Y-12577000D01*
X27453500Y-12407000D02*
X27283500Y-12577000D01*
X27283500Y-16217000D02*
X27453500Y-16387000D01*
X27453500Y-16217000D02*
X27283500Y-16387000D01*
X27283500Y-18122000D02*
X27453500Y-18292000D01*
X27453500Y-18122000D02*
X27283500Y-18292000D01*
X27347000Y-14312000D02*
X27517000Y-14482000D01*
X27517000Y-14312000D02*
X27347000Y-14482000D01*
X28236000Y-14312000D02*
X28406000Y-14482000D01*
X28406000Y-14312000D02*
X28236000Y-14482000D01*
X28299500Y-12407000D02*
X28469500Y-12577000D01*
X28469500Y-12407000D02*
X28299500Y-12577000D01*
X28299500Y-16217000D02*
X28469500Y-16387000D01*
X28469500Y-16217000D02*
X28299500Y-16387000D01*
X28299500Y-18122000D02*
X28469500Y-18292000D01*
X28469500Y-18122000D02*
X28299500Y-18292000D01*
X29188500Y-12407000D02*
X29358500Y-12577000D01*
X29358500Y-12407000D02*
X29188500Y-12577000D01*
X29188500Y-16217000D02*
X29358500Y-16387000D01*
X29358500Y-16217000D02*
X29188500Y-16387000D01*
X29188500Y-18122000D02*
X29358500Y-18292000D01*
X29358500Y-18122000D02*
X29188500Y-18292000D01*
X29252000Y-14312000D02*
X29422000Y-14482000D01*
X29422000Y-14312000D02*
X29252000Y-14482000D01*
X30204500Y-12407000D02*
X30374500Y-12577000D01*
X30374500Y-12407000D02*
X30204500Y-12577000D01*
X30204500Y-16217000D02*
X30374500Y-16387000D01*
X30374500Y-16217000D02*
X30204500Y-16387000D01*
X30204500Y-18122000D02*
X30374500Y-18292000D01*
X30374500Y-18122000D02*
X30204500Y-18292000D01*
X30617250Y-14312000D02*
X30787250Y-14482000D01*
X30787250Y-14312000D02*
X30617250Y-14482000D01*
X31093500Y-12407000D02*
X31263500Y-12577000D01*
X31263500Y-12407000D02*
X31093500Y-12577000D01*
X31093500Y-16217000D02*
X31263500Y-16387000D01*
X31263500Y-16217000D02*
X31093500Y-16387000D01*
X31093500Y-18122000D02*
X31263500Y-18292000D01*
X31263500Y-18122000D02*
X31093500Y-18292000D01*
X31633250Y-14312000D02*
X31803250Y-14482000D01*
X31803250Y-14312000D02*
X31633250Y-14482000D01*
X32109500Y-12407000D02*
X32279500Y-12577000D01*
X32279500Y-12407000D02*
X32109500Y-12577000D01*
X32109500Y-16217000D02*
X32279500Y-16387000D01*
X32279500Y-16217000D02*
X32109500Y-16387000D01*
X32109500Y-18122000D02*
X32279500Y-18292000D01*
X32279500Y-18122000D02*
X32109500Y-18292000D01*
D13*
X10646500Y-15602000D02*
G75*
G03*
X10646500Y-15602000I-152500J0D01*
G01*
X13026500Y-15602000D02*
G75*
G03*
X13026500Y-15602000I-152500J0D01*
G01*
X16361500Y-17507000D02*
G75*
G03*
X16361500Y-17507000I-152500J0D01*
G01*
X18741500Y-17507000D02*
G75*
G03*
X18741500Y-17507000I-152500J0D01*
G01*
X22076500Y-17507000D02*
G75*
G03*
X22076500Y-17507000I-152500J0D01*
G01*
X24456500Y-17507000D02*
G75*
G03*
X24456500Y-17507000I-152500J0D01*
G01*
D14*
X9907000Y-14153000D02*
X9907000Y-14473000D01*
X9747000Y-14313000D02*
X10067000Y-14313000D01*
X32395000Y-14268000D02*
X32395000Y-14588000D01*
X32235000Y-14428000D02*
X32555000Y-14428000D01*
D15*
X10635423Y-17267423D02*
X10635423Y-16984577D01*
X10352577Y-16984577D01*
X10352577Y-17267423D01*
X10635423Y-17267423D01*
X10872923Y-12633423D02*
X10872923Y-12350577D01*
X10590077Y-12350577D01*
X10590077Y-12633423D01*
X10872923Y-12633423D01*
X10872923Y-18348423D02*
X10872923Y-18065577D01*
X10590077Y-18065577D01*
X10590077Y-18348423D01*
X10872923Y-18348423D01*
X11349173Y-14538423D02*
X11349173Y-14255577D01*
X11066327Y-14255577D01*
X11066327Y-14538423D01*
X11349173Y-14538423D01*
X11825423Y-16443423D02*
X11825423Y-16160577D01*
X11542577Y-16160577D01*
X11542577Y-16443423D01*
X11825423Y-16443423D01*
X12777923Y-12633423D02*
X12777923Y-12350577D01*
X12495077Y-12350577D01*
X12495077Y-12633423D01*
X12777923Y-12633423D01*
X12777923Y-18348423D02*
X12777923Y-18065577D01*
X12495077Y-18065577D01*
X12495077Y-18348423D01*
X12777923Y-18348423D01*
X13015423Y-17267423D02*
X13015423Y-16984577D01*
X12732577Y-16984577D01*
X12732577Y-17267423D01*
X13015423Y-17267423D01*
X13730423Y-14538423D02*
X13730423Y-14255577D01*
X13447577Y-14255577D01*
X13447577Y-14538423D01*
X13730423Y-14538423D01*
X14682923Y-12633423D02*
X14682923Y-12350577D01*
X14400077Y-12350577D01*
X14400077Y-12633423D01*
X14682923Y-12633423D01*
X14682923Y-16443423D02*
X14682923Y-16160577D01*
X14400077Y-16160577D01*
X14400077Y-16443423D01*
X14682923Y-16443423D01*
X14682923Y-18348423D02*
X14682923Y-18065577D01*
X14400077Y-18065577D01*
X14400077Y-18348423D01*
X14682923Y-18348423D01*
X15635423Y-14538423D02*
X15635423Y-14255577D01*
X15352577Y-14255577D01*
X15352577Y-14538423D01*
X15635423Y-14538423D01*
X16350423Y-19172423D02*
X16350423Y-18889577D01*
X16067577Y-18889577D01*
X16067577Y-19172423D01*
X16350423Y-19172423D01*
X16587923Y-12633423D02*
X16587923Y-12350577D01*
X16305077Y-12350577D01*
X16305077Y-12633423D01*
X16587923Y-12633423D01*
X16587923Y-16443423D02*
X16587923Y-16160577D01*
X16305077Y-16160577D01*
X16305077Y-16443423D01*
X16587923Y-16443423D01*
X17540423Y-14538423D02*
X17540423Y-14255577D01*
X17257577Y-14255577D01*
X17257577Y-14538423D01*
X17540423Y-14538423D01*
X17540423Y-18348423D02*
X17540423Y-18065577D01*
X17257577Y-18065577D01*
X17257577Y-18348423D01*
X17540423Y-18348423D01*
X18492923Y-12633423D02*
X18492923Y-12350577D01*
X18210077Y-12350577D01*
X18210077Y-12633423D01*
X18492923Y-12633423D01*
X18492923Y-16443423D02*
X18492923Y-16160577D01*
X18210077Y-16160577D01*
X18210077Y-16443423D01*
X18492923Y-16443423D01*
X18730423Y-19172423D02*
X18730423Y-18889577D01*
X18447577Y-18889577D01*
X18447577Y-19172423D01*
X18730423Y-19172423D01*
X19445423Y-14538423D02*
X19445423Y-14255577D01*
X19162577Y-14255577D01*
X19162577Y-14538423D01*
X19445423Y-14538423D01*
X20397923Y-12633423D02*
X20397923Y-12350577D01*
X20115077Y-12350577D01*
X20115077Y-12633423D01*
X20397923Y-12633423D01*
X20397923Y-16443423D02*
X20397923Y-16160577D01*
X20115077Y-16160577D01*
X20115077Y-16443423D01*
X20397923Y-16443423D01*
X20397923Y-18348423D02*
X20397923Y-18065577D01*
X20115077Y-18065577D01*
X20115077Y-18348423D01*
X20397923Y-18348423D01*
X21350423Y-14538423D02*
X21350423Y-14255577D01*
X21067577Y-14255577D01*
X21067577Y-14538423D01*
X21350423Y-14538423D01*
X22065423Y-19172423D02*
X22065423Y-18889577D01*
X21782577Y-18889577D01*
X21782577Y-19172423D01*
X22065423Y-19172423D01*
X22302923Y-12633423D02*
X22302923Y-12350577D01*
X22020077Y-12350577D01*
X22020077Y-12633423D01*
X22302923Y-12633423D01*
X22302923Y-16443423D02*
X22302923Y-16160577D01*
X22020077Y-16160577D01*
X22020077Y-16443423D01*
X22302923Y-16443423D01*
X23255423Y-14538423D02*
X23255423Y-14255577D01*
X22972577Y-14255577D01*
X22972577Y-14538423D01*
X23255423Y-14538423D01*
X23255423Y-18348423D02*
X23255423Y-18065577D01*
X22972577Y-18065577D01*
X22972577Y-18348423D01*
X23255423Y-18348423D01*
X24207923Y-12633423D02*
X24207923Y-12350577D01*
X23925077Y-12350577D01*
X23925077Y-12633423D01*
X24207923Y-12633423D01*
X24207923Y-16443423D02*
X24207923Y-16160577D01*
X23925077Y-16160577D01*
X23925077Y-16443423D01*
X24207923Y-16443423D01*
X24445423Y-19172423D02*
X24445423Y-18889577D01*
X24162577Y-18889577D01*
X24162577Y-19172423D01*
X24445423Y-19172423D01*
X25160423Y-14538423D02*
X25160423Y-14255577D01*
X24877577Y-14255577D01*
X24877577Y-14538423D01*
X25160423Y-14538423D01*
X26112923Y-12633423D02*
X26112923Y-12350577D01*
X25830077Y-12350577D01*
X25830077Y-12633423D01*
X26112923Y-12633423D01*
X26112923Y-16443423D02*
X26112923Y-16160577D01*
X25830077Y-16160577D01*
X25830077Y-16443423D01*
X26112923Y-16443423D01*
X26112923Y-18348423D02*
X26112923Y-18065577D01*
X25830077Y-18065577D01*
X25830077Y-18348423D01*
X26112923Y-18348423D01*
X27065423Y-14538423D02*
X27065423Y-14255577D01*
X26782577Y-14255577D01*
X26782577Y-14538423D01*
X27065423Y-14538423D01*
X28017923Y-12633423D02*
X28017923Y-12350577D01*
X27735077Y-12350577D01*
X27735077Y-12633423D01*
X28017923Y-12633423D01*
X28017923Y-16443423D02*
X28017923Y-16160577D01*
X27735077Y-16160577D01*
X27735077Y-16443423D01*
X28017923Y-16443423D01*
X28017923Y-18348423D02*
X28017923Y-18065577D01*
X27735077Y-18065577D01*
X27735077Y-18348423D01*
X28017923Y-18348423D01*
X28970423Y-14538423D02*
X28970423Y-14255577D01*
X28687577Y-14255577D01*
X28687577Y-14538423D01*
X28970423Y-14538423D01*
X29922923Y-12633423D02*
X29922923Y-12350577D01*
X29640077Y-12350577D01*
X29640077Y-12633423D01*
X29922923Y-12633423D01*
X29922923Y-16443423D02*
X29922923Y-16160577D01*
X29640077Y-16160577D01*
X29640077Y-16443423D01*
X29922923Y-16443423D01*
X29922923Y-18348423D02*
X29922923Y-18065577D01*
X29640077Y-18065577D01*
X29640077Y-18348423D01*
X29922923Y-18348423D01*
X31351673Y-14538423D02*
X31351673Y-14255577D01*
X31068827Y-14255577D01*
X31068827Y-14538423D01*
X31351673Y-14538423D01*
X31827923Y-12633423D02*
X31827923Y-12350577D01*
X31545077Y-12350577D01*
X31545077Y-12633423D01*
X31827923Y-12633423D01*
X31827923Y-16443423D02*
X31827923Y-16160577D01*
X31545077Y-16160577D01*
X31545077Y-16443423D01*
X31827923Y-16443423D01*
X31827923Y-18348423D02*
X31827923Y-18065577D01*
X31545077Y-18065577D01*
X31545077Y-18348423D01*
X31827923Y-18348423D01*
D11*
X9777119Y-19709976D02*
X9777119Y-19509976D01*
X9824738Y-19509976D01*
X9853310Y-19519500D01*
X9872357Y-19538548D01*
X9881881Y-19557595D01*
X9891405Y-19595690D01*
X9891405Y-19624262D01*
X9881881Y-19662357D01*
X9872357Y-19681405D01*
X9853310Y-19700452D01*
X9824738Y-19709976D01*
X9777119Y-19709976D01*
X9977119Y-19709976D02*
X9977119Y-19576643D01*
X9977119Y-19614738D02*
X9986643Y-19595690D01*
X9996167Y-19586167D01*
X10015214Y-19576643D01*
X10034262Y-19576643D01*
X10100929Y-19709976D02*
X10100929Y-19576643D01*
X10100929Y-19509976D02*
X10091405Y-19519500D01*
X10100929Y-19529024D01*
X10110452Y-19519500D01*
X10100929Y-19509976D01*
X10100929Y-19529024D01*
X10224738Y-19709976D02*
X10205690Y-19700452D01*
X10196167Y-19681405D01*
X10196167Y-19509976D01*
X10329500Y-19709976D02*
X10310452Y-19700452D01*
X10300929Y-19681405D01*
X10300929Y-19509976D01*
X10558071Y-19709976D02*
X10558071Y-19509976D01*
X10624738Y-19652833D01*
X10691405Y-19509976D01*
X10691405Y-19709976D01*
X10872357Y-19709976D02*
X10872357Y-19605214D01*
X10862833Y-19586167D01*
X10843786Y-19576643D01*
X10805690Y-19576643D01*
X10786643Y-19586167D01*
X10872357Y-19700452D02*
X10853310Y-19709976D01*
X10805690Y-19709976D01*
X10786643Y-19700452D01*
X10777119Y-19681405D01*
X10777119Y-19662357D01*
X10786643Y-19643310D01*
X10805690Y-19633786D01*
X10853310Y-19633786D01*
X10872357Y-19624262D01*
X10967595Y-19576643D02*
X10967595Y-19776643D01*
X10967595Y-19586167D02*
X10986643Y-19576643D01*
X11024738Y-19576643D01*
X11043786Y-19586167D01*
X11053310Y-19595690D01*
X11062833Y-19614738D01*
X11062833Y-19671881D01*
X11053310Y-19690929D01*
X11043786Y-19700452D01*
X11024738Y-19709976D01*
X10986643Y-19709976D01*
X10967595Y-19700452D01*
X11148548Y-19690929D02*
X11158071Y-19700452D01*
X11148548Y-19709976D01*
X11139024Y-19700452D01*
X11148548Y-19690929D01*
X11148548Y-19709976D01*
X11148548Y-19586167D02*
X11158071Y-19595690D01*
X11148548Y-19605214D01*
X11139024Y-19595690D01*
X11148548Y-19586167D01*
X11148548Y-19605214D01*
D12*
X9349500Y-19954500D02*
X9519500Y-20124500D01*
X9519500Y-19954500D02*
X9349500Y-20124500D01*
D11*
X9881881Y-20129976D02*
X9767595Y-20129976D01*
X9824738Y-20129976D02*
X9824738Y-19929976D01*
X9805690Y-19958548D01*
X9786643Y-19977595D01*
X9767595Y-19987119D01*
X9967595Y-20110929D02*
X9977119Y-20120452D01*
X9967595Y-20129976D01*
X9958071Y-20120452D01*
X9967595Y-20110929D01*
X9967595Y-20129976D01*
X10043786Y-19929976D02*
X10177119Y-19929976D01*
X10091405Y-20129976D01*
X10291405Y-19929976D02*
X10310452Y-19929976D01*
X10329500Y-19939500D01*
X10339024Y-19949024D01*
X10348548Y-19968071D01*
X10358071Y-20006167D01*
X10358071Y-20053786D01*
X10348548Y-20091881D01*
X10339024Y-20110929D01*
X10329500Y-20120452D01*
X10310452Y-20129976D01*
X10291405Y-20129976D01*
X10272357Y-20120452D01*
X10262833Y-20110929D01*
X10253310Y-20091881D01*
X10243786Y-20053786D01*
X10243786Y-20006167D01*
X10253310Y-19968071D01*
X10262833Y-19949024D01*
X10272357Y-19939500D01*
X10291405Y-19929976D01*
X10481881Y-19929976D02*
X10500929Y-19929976D01*
X10519976Y-19939500D01*
X10529500Y-19949024D01*
X10539024Y-19968071D01*
X10548548Y-20006167D01*
X10548548Y-20053786D01*
X10539024Y-20091881D01*
X10529500Y-20110929D01*
X10519976Y-20120452D01*
X10500929Y-20129976D01*
X10481881Y-20129976D01*
X10462833Y-20120452D01*
X10453310Y-20110929D01*
X10443786Y-20091881D01*
X10434262Y-20053786D01*
X10434262Y-20006167D01*
X10443786Y-19968071D01*
X10453310Y-19949024D01*
X10462833Y-19939500D01*
X10481881Y-19929976D01*
X10634262Y-20129976D02*
X10634262Y-19996643D01*
X10634262Y-20015690D02*
X10643786Y-20006167D01*
X10662833Y-19996643D01*
X10691405Y-19996643D01*
X10710452Y-20006167D01*
X10719976Y-20025214D01*
X10719976Y-20129976D01*
X10719976Y-20025214D02*
X10729500Y-20006167D01*
X10748548Y-19996643D01*
X10777119Y-19996643D01*
X10796167Y-20006167D01*
X10805690Y-20025214D01*
X10805690Y-20129976D01*
X10900929Y-20129976D02*
X10900929Y-19996643D01*
X10900929Y-20015690D02*
X10910452Y-20006167D01*
X10929500Y-19996643D01*
X10958071Y-19996643D01*
X10977119Y-20006167D01*
X10986643Y-20025214D01*
X10986643Y-20129976D01*
X10986643Y-20025214D02*
X10996167Y-20006167D01*
X11015214Y-19996643D01*
X11043786Y-19996643D01*
X11062833Y-20006167D01*
X11072357Y-20025214D01*
X11072357Y-20129976D01*
X11462833Y-19920452D02*
X11291405Y-20177595D01*
X11719976Y-19929976D02*
X11739024Y-19929976D01*
X11758071Y-19939500D01*
X11767595Y-19949024D01*
X11777119Y-19968071D01*
X11786643Y-20006167D01*
X11786643Y-20053786D01*
X11777119Y-20091881D01*
X11767595Y-20110929D01*
X11758071Y-20120452D01*
X11739024Y-20129976D01*
X11719976Y-20129976D01*
X11700928Y-20120452D01*
X11691405Y-20110929D01*
X11681881Y-20091881D01*
X11672357Y-20053786D01*
X11672357Y-20006167D01*
X11681881Y-19968071D01*
X11691405Y-19949024D01*
X11700928Y-19939500D01*
X11719976Y-19929976D01*
X11872357Y-20110929D02*
X11881881Y-20120452D01*
X11872357Y-20129976D01*
X11862833Y-20120452D01*
X11872357Y-20110929D01*
X11872357Y-20129976D01*
X12005690Y-19929976D02*
X12024738Y-19929976D01*
X12043786Y-19939500D01*
X12053309Y-19949024D01*
X12062833Y-19968071D01*
X12072357Y-20006167D01*
X12072357Y-20053786D01*
X12062833Y-20091881D01*
X12053309Y-20110929D01*
X12043786Y-20120452D01*
X12024738Y-20129976D01*
X12005690Y-20129976D01*
X11986643Y-20120452D01*
X11977119Y-20110929D01*
X11967595Y-20091881D01*
X11958071Y-20053786D01*
X11958071Y-20006167D01*
X11967595Y-19968071D01*
X11977119Y-19949024D01*
X11986643Y-19939500D01*
X12005690Y-19929976D01*
X12243786Y-19929976D02*
X12205690Y-19929976D01*
X12186643Y-19939500D01*
X12177119Y-19949024D01*
X12158071Y-19977595D01*
X12148548Y-20015690D01*
X12148548Y-20091881D01*
X12158071Y-20110929D01*
X12167595Y-20120452D01*
X12186643Y-20129976D01*
X12224738Y-20129976D01*
X12243786Y-20120452D01*
X12253309Y-20110929D01*
X12262833Y-20091881D01*
X12262833Y-20044262D01*
X12253309Y-20025214D01*
X12243786Y-20015690D01*
X12224738Y-20006167D01*
X12186643Y-20006167D01*
X12167595Y-20015690D01*
X12158071Y-20025214D01*
X12148548Y-20044262D01*
X12434262Y-19929976D02*
X12396167Y-19929976D01*
X12377119Y-19939500D01*
X12367595Y-19949024D01*
X12348548Y-19977595D01*
X12339024Y-20015690D01*
X12339024Y-20091881D01*
X12348548Y-20110929D01*
X12358071Y-20120452D01*
X12377119Y-20129976D01*
X12415214Y-20129976D01*
X12434262Y-20120452D01*
X12443786Y-20110929D01*
X12453309Y-20091881D01*
X12453309Y-20044262D01*
X12443786Y-20025214D01*
X12434262Y-20015690D01*
X12415214Y-20006167D01*
X12377119Y-20006167D01*
X12358071Y-20015690D01*
X12348548Y-20025214D01*
X12339024Y-20044262D01*
X12548548Y-20129976D02*
X12586643Y-20129976D01*
X12605690Y-20120452D01*
X12615214Y-20110929D01*
X12634262Y-20082357D01*
X12643786Y-20044262D01*
X12643786Y-19968071D01*
X12634262Y-19949024D01*
X12624738Y-19939500D01*
X12605690Y-19929976D01*
X12567595Y-19929976D01*
X12548548Y-19939500D01*
X12539024Y-19949024D01*
X12529500Y-19968071D01*
X12529500Y-20015690D01*
X12539024Y-20034738D01*
X12548548Y-20044262D01*
X12567595Y-20053786D01*
X12605690Y-20053786D01*
X12624738Y-20044262D01*
X12634262Y-20034738D01*
X12643786Y-20015690D01*
X12719976Y-19929976D02*
X12719976Y-19968071D01*
X12796167Y-19929976D02*
X12796167Y-19968071D01*
X13091405Y-20206167D02*
X13081881Y-20196643D01*
X13062833Y-20168071D01*
X13053309Y-20149024D01*
X13043786Y-20120452D01*
X13034262Y-20072833D01*
X13034262Y-20034738D01*
X13043786Y-19987119D01*
X13053309Y-19958548D01*
X13062833Y-19939500D01*
X13081881Y-19910929D01*
X13091405Y-19901405D01*
X13196167Y-20015690D02*
X13177119Y-20006167D01*
X13167595Y-19996643D01*
X13158071Y-19977595D01*
X13158071Y-19968071D01*
X13167595Y-19949024D01*
X13177119Y-19939500D01*
X13196167Y-19929976D01*
X13234262Y-19929976D01*
X13253309Y-19939500D01*
X13262833Y-19949024D01*
X13272357Y-19968071D01*
X13272357Y-19977595D01*
X13262833Y-19996643D01*
X13253309Y-20006167D01*
X13234262Y-20015690D01*
X13196167Y-20015690D01*
X13177119Y-20025214D01*
X13167595Y-20034738D01*
X13158071Y-20053786D01*
X13158071Y-20091881D01*
X13167595Y-20110929D01*
X13177119Y-20120452D01*
X13196167Y-20129976D01*
X13234262Y-20129976D01*
X13253309Y-20120452D01*
X13262833Y-20110929D01*
X13272357Y-20091881D01*
X13272357Y-20053786D01*
X13262833Y-20034738D01*
X13253309Y-20025214D01*
X13234262Y-20015690D01*
X13386643Y-20015690D02*
X13367595Y-20006167D01*
X13358071Y-19996643D01*
X13348548Y-19977595D01*
X13348548Y-19968071D01*
X13358071Y-19949024D01*
X13367595Y-19939500D01*
X13386643Y-19929976D01*
X13424738Y-19929976D01*
X13443786Y-19939500D01*
X13453309Y-19949024D01*
X13462833Y-19968071D01*
X13462833Y-19977595D01*
X13453309Y-19996643D01*
X13443786Y-20006167D01*
X13424738Y-20015690D01*
X13386643Y-20015690D01*
X13367595Y-20025214D01*
X13358071Y-20034738D01*
X13348548Y-20053786D01*
X13348548Y-20091881D01*
X13358071Y-20110929D01*
X13367595Y-20120452D01*
X13386643Y-20129976D01*
X13424738Y-20129976D01*
X13443786Y-20120452D01*
X13453309Y-20110929D01*
X13462833Y-20091881D01*
X13462833Y-20053786D01*
X13453309Y-20034738D01*
X13443786Y-20025214D01*
X13424738Y-20015690D01*
X13700928Y-20129976D02*
X13700928Y-19929976D01*
X13786643Y-20129976D02*
X13786643Y-20025214D01*
X13777119Y-20006167D01*
X13758071Y-19996643D01*
X13729500Y-19996643D01*
X13710452Y-20006167D01*
X13700928Y-20015690D01*
X13910452Y-20129976D02*
X13891405Y-20120452D01*
X13881881Y-20110929D01*
X13872357Y-20091881D01*
X13872357Y-20034738D01*
X13881881Y-20015690D01*
X13891405Y-20006167D01*
X13910452Y-19996643D01*
X13939024Y-19996643D01*
X13958071Y-20006167D01*
X13967595Y-20015690D01*
X13977119Y-20034738D01*
X13977119Y-20091881D01*
X13967595Y-20110929D01*
X13958071Y-20120452D01*
X13939024Y-20129976D01*
X13910452Y-20129976D01*
X14091405Y-20129976D02*
X14072357Y-20120452D01*
X14062833Y-20101405D01*
X14062833Y-19929976D01*
X14243786Y-20120452D02*
X14224738Y-20129976D01*
X14186643Y-20129976D01*
X14167595Y-20120452D01*
X14158071Y-20101405D01*
X14158071Y-20025214D01*
X14167595Y-20006167D01*
X14186643Y-19996643D01*
X14224738Y-19996643D01*
X14243786Y-20006167D01*
X14253309Y-20025214D01*
X14253309Y-20044262D01*
X14158071Y-20063310D01*
X14329500Y-20120452D02*
X14348548Y-20129976D01*
X14386643Y-20129976D01*
X14405690Y-20120452D01*
X14415214Y-20101405D01*
X14415214Y-20091881D01*
X14405690Y-20072833D01*
X14386643Y-20063310D01*
X14358071Y-20063310D01*
X14339024Y-20053786D01*
X14329500Y-20034738D01*
X14329500Y-20025214D01*
X14339024Y-20006167D01*
X14358071Y-19996643D01*
X14386643Y-19996643D01*
X14405690Y-20006167D01*
X14481881Y-20206167D02*
X14491405Y-20196643D01*
X14510452Y-20168071D01*
X14519976Y-20149024D01*
X14529500Y-20120452D01*
X14539024Y-20072833D01*
X14539024Y-20034738D01*
X14529500Y-19987119D01*
X14519976Y-19958548D01*
X14510452Y-19939500D01*
X14491405Y-19910929D01*
X14481881Y-19901405D01*
X14843786Y-20206167D02*
X14834262Y-20196643D01*
X14815214Y-20168071D01*
X14805690Y-20149024D01*
X14796167Y-20120452D01*
X14786643Y-20072833D01*
X14786643Y-20034738D01*
X14796167Y-19987119D01*
X14805690Y-19958548D01*
X14815214Y-19939500D01*
X14834262Y-19910929D01*
X14843786Y-19901405D01*
X14919976Y-19996643D02*
X14919976Y-20129976D01*
X14919976Y-20015690D02*
X14929500Y-20006167D01*
X14948548Y-19996643D01*
X14977119Y-19996643D01*
X14996167Y-20006167D01*
X15005690Y-20025214D01*
X15005690Y-20129976D01*
X15129500Y-20129976D02*
X15110452Y-20120452D01*
X15100928Y-20110929D01*
X15091405Y-20091881D01*
X15091405Y-20034738D01*
X15100928Y-20015690D01*
X15110452Y-20006167D01*
X15129500Y-19996643D01*
X15158071Y-19996643D01*
X15177119Y-20006167D01*
X15186643Y-20015690D01*
X15196167Y-20034738D01*
X15196167Y-20091881D01*
X15186643Y-20110929D01*
X15177119Y-20120452D01*
X15158071Y-20129976D01*
X15129500Y-20129976D01*
X15253309Y-19996643D02*
X15329500Y-19996643D01*
X15281881Y-19929976D02*
X15281881Y-20101405D01*
X15291405Y-20120452D01*
X15310452Y-20129976D01*
X15329500Y-20129976D01*
X15548548Y-19996643D02*
X15548548Y-20196643D01*
X15548548Y-20006167D02*
X15567595Y-19996643D01*
X15605690Y-19996643D01*
X15624738Y-20006167D01*
X15634262Y-20015690D01*
X15643786Y-20034738D01*
X15643786Y-20091881D01*
X15634262Y-20110929D01*
X15624738Y-20120452D01*
X15605690Y-20129976D01*
X15567595Y-20129976D01*
X15548548Y-20120452D01*
X15758071Y-20129976D02*
X15739024Y-20120452D01*
X15729500Y-20101405D01*
X15729500Y-19929976D01*
X15919976Y-20129976D02*
X15919976Y-20025214D01*
X15910452Y-20006167D01*
X15891405Y-19996643D01*
X15853309Y-19996643D01*
X15834262Y-20006167D01*
X15919976Y-20120452D02*
X15900928Y-20129976D01*
X15853309Y-20129976D01*
X15834262Y-20120452D01*
X15824738Y-20101405D01*
X15824738Y-20082357D01*
X15834262Y-20063310D01*
X15853309Y-20053786D01*
X15900928Y-20053786D01*
X15919976Y-20044262D01*
X15986643Y-19996643D02*
X16062833Y-19996643D01*
X16015214Y-19929976D02*
X16015214Y-20101405D01*
X16024738Y-20120452D01*
X16043786Y-20129976D01*
X16062833Y-20129976D01*
X16205690Y-20120452D02*
X16186643Y-20129976D01*
X16148548Y-20129976D01*
X16129500Y-20120452D01*
X16119976Y-20101405D01*
X16119976Y-20025214D01*
X16129500Y-20006167D01*
X16148548Y-19996643D01*
X16186643Y-19996643D01*
X16205690Y-20006167D01*
X16215214Y-20025214D01*
X16215214Y-20044262D01*
X16119976Y-20063310D01*
X16386643Y-20129976D02*
X16386643Y-19929976D01*
X16386643Y-20120452D02*
X16367595Y-20129976D01*
X16329500Y-20129976D01*
X16310452Y-20120452D01*
X16300928Y-20110929D01*
X16291405Y-20091881D01*
X16291405Y-20034738D01*
X16300928Y-20015690D01*
X16310452Y-20006167D01*
X16329500Y-19996643D01*
X16367595Y-19996643D01*
X16386643Y-20006167D01*
X16462833Y-20206167D02*
X16472357Y-20196643D01*
X16491405Y-20168071D01*
X16500928Y-20149024D01*
X16510452Y-20120452D01*
X16519976Y-20072833D01*
X16519976Y-20034738D01*
X16510452Y-19987119D01*
X16500928Y-19958548D01*
X16491405Y-19939500D01*
X16472357Y-19910929D01*
X16462833Y-19901405D01*
X9519500Y-20329500D02*
G75*
G03*
X9519500Y-20329500I-100000J0D01*
G01*
X9758071Y-20219976D02*
X9881881Y-20219976D01*
X9815214Y-20296167D01*
X9843786Y-20296167D01*
X9862833Y-20305690D01*
X9872357Y-20315214D01*
X9881881Y-20334262D01*
X9881881Y-20381881D01*
X9872357Y-20400929D01*
X9862833Y-20410452D01*
X9843786Y-20419976D01*
X9786643Y-20419976D01*
X9767595Y-20410452D01*
X9758071Y-20400929D01*
X9967595Y-20400929D02*
X9977119Y-20410452D01*
X9967595Y-20419976D01*
X9958071Y-20410452D01*
X9967595Y-20400929D01*
X9967595Y-20419976D01*
X10100929Y-20219976D02*
X10119976Y-20219976D01*
X10139024Y-20229500D01*
X10148548Y-20239024D01*
X10158071Y-20258071D01*
X10167595Y-20296167D01*
X10167595Y-20343786D01*
X10158071Y-20381881D01*
X10148548Y-20400929D01*
X10139024Y-20410452D01*
X10119976Y-20419976D01*
X10100929Y-20419976D01*
X10081881Y-20410452D01*
X10072357Y-20400929D01*
X10062833Y-20381881D01*
X10053310Y-20343786D01*
X10053310Y-20296167D01*
X10062833Y-20258071D01*
X10072357Y-20239024D01*
X10081881Y-20229500D01*
X10100929Y-20219976D01*
X10348548Y-20219976D02*
X10253310Y-20219976D01*
X10243786Y-20315214D01*
X10253310Y-20305690D01*
X10272357Y-20296167D01*
X10319976Y-20296167D01*
X10339024Y-20305690D01*
X10348548Y-20315214D01*
X10358071Y-20334262D01*
X10358071Y-20381881D01*
X10348548Y-20400929D01*
X10339024Y-20410452D01*
X10319976Y-20419976D01*
X10272357Y-20419976D01*
X10253310Y-20410452D01*
X10243786Y-20400929D01*
X10481881Y-20219976D02*
X10500929Y-20219976D01*
X10519976Y-20229500D01*
X10529500Y-20239024D01*
X10539024Y-20258071D01*
X10548548Y-20296167D01*
X10548548Y-20343786D01*
X10539024Y-20381881D01*
X10529500Y-20400929D01*
X10519976Y-20410452D01*
X10500929Y-20419976D01*
X10481881Y-20419976D01*
X10462833Y-20410452D01*
X10453310Y-20400929D01*
X10443786Y-20381881D01*
X10434262Y-20343786D01*
X10434262Y-20296167D01*
X10443786Y-20258071D01*
X10453310Y-20239024D01*
X10462833Y-20229500D01*
X10481881Y-20219976D01*
X10634262Y-20419976D02*
X10634262Y-20286643D01*
X10634262Y-20305690D02*
X10643786Y-20296167D01*
X10662833Y-20286643D01*
X10691405Y-20286643D01*
X10710452Y-20296167D01*
X10719976Y-20315214D01*
X10719976Y-20419976D01*
X10719976Y-20315214D02*
X10729500Y-20296167D01*
X10748548Y-20286643D01*
X10777119Y-20286643D01*
X10796167Y-20296167D01*
X10805690Y-20315214D01*
X10805690Y-20419976D01*
X10900929Y-20419976D02*
X10900929Y-20286643D01*
X10900929Y-20305690D02*
X10910452Y-20296167D01*
X10929500Y-20286643D01*
X10958071Y-20286643D01*
X10977119Y-20296167D01*
X10986643Y-20315214D01*
X10986643Y-20419976D01*
X10986643Y-20315214D02*
X10996167Y-20296167D01*
X11015214Y-20286643D01*
X11043786Y-20286643D01*
X11062833Y-20296167D01*
X11072357Y-20315214D01*
X11072357Y-20419976D01*
X11462833Y-20210452D02*
X11291405Y-20467595D01*
X11719976Y-20219976D02*
X11739024Y-20219976D01*
X11758071Y-20229500D01*
X11767595Y-20239024D01*
X11777119Y-20258071D01*
X11786643Y-20296167D01*
X11786643Y-20343786D01*
X11777119Y-20381881D01*
X11767595Y-20400929D01*
X11758071Y-20410452D01*
X11739024Y-20419976D01*
X11719976Y-20419976D01*
X11700928Y-20410452D01*
X11691405Y-20400929D01*
X11681881Y-20381881D01*
X11672357Y-20343786D01*
X11672357Y-20296167D01*
X11681881Y-20258071D01*
X11691405Y-20239024D01*
X11700928Y-20229500D01*
X11719976Y-20219976D01*
X11872357Y-20400929D02*
X11881881Y-20410452D01*
X11872357Y-20419976D01*
X11862833Y-20410452D01*
X11872357Y-20400929D01*
X11872357Y-20419976D01*
X12072357Y-20419976D02*
X11958071Y-20419976D01*
X12015214Y-20419976D02*
X12015214Y-20219976D01*
X11996167Y-20248548D01*
X11977119Y-20267595D01*
X11958071Y-20277119D01*
X12148548Y-20239024D02*
X12158071Y-20229500D01*
X12177119Y-20219976D01*
X12224738Y-20219976D01*
X12243786Y-20229500D01*
X12253309Y-20239024D01*
X12262833Y-20258071D01*
X12262833Y-20277119D01*
X12253309Y-20305690D01*
X12139024Y-20419976D01*
X12262833Y-20419976D01*
X12386643Y-20219976D02*
X12405690Y-20219976D01*
X12424738Y-20229500D01*
X12434262Y-20239024D01*
X12443786Y-20258071D01*
X12453309Y-20296167D01*
X12453309Y-20343786D01*
X12443786Y-20381881D01*
X12434262Y-20400929D01*
X12424738Y-20410452D01*
X12405690Y-20419976D01*
X12386643Y-20419976D01*
X12367595Y-20410452D01*
X12358071Y-20400929D01*
X12348548Y-20381881D01*
X12339024Y-20343786D01*
X12339024Y-20296167D01*
X12348548Y-20258071D01*
X12358071Y-20239024D01*
X12367595Y-20229500D01*
X12386643Y-20219976D01*
X12643786Y-20419976D02*
X12529500Y-20419976D01*
X12586643Y-20419976D02*
X12586643Y-20219976D01*
X12567595Y-20248548D01*
X12548548Y-20267595D01*
X12529500Y-20277119D01*
X12719976Y-20219976D02*
X12719976Y-20258071D01*
X12796167Y-20219976D02*
X12796167Y-20258071D01*
X13091405Y-20496167D02*
X13081881Y-20486643D01*
X13062833Y-20458071D01*
X13053309Y-20439024D01*
X13043786Y-20410452D01*
X13034262Y-20362833D01*
X13034262Y-20324738D01*
X13043786Y-20277119D01*
X13053309Y-20248548D01*
X13062833Y-20229500D01*
X13081881Y-20200929D01*
X13091405Y-20191405D01*
X13253309Y-20219976D02*
X13215214Y-20219976D01*
X13196167Y-20229500D01*
X13186643Y-20239024D01*
X13167595Y-20267595D01*
X13158071Y-20305690D01*
X13158071Y-20381881D01*
X13167595Y-20400929D01*
X13177119Y-20410452D01*
X13196167Y-20419976D01*
X13234262Y-20419976D01*
X13253309Y-20410452D01*
X13262833Y-20400929D01*
X13272357Y-20381881D01*
X13272357Y-20334262D01*
X13262833Y-20315214D01*
X13253309Y-20305690D01*
X13234262Y-20296167D01*
X13196167Y-20296167D01*
X13177119Y-20305690D01*
X13167595Y-20315214D01*
X13158071Y-20334262D01*
X13510452Y-20419976D02*
X13510452Y-20219976D01*
X13596167Y-20419976D02*
X13596167Y-20315214D01*
X13586643Y-20296167D01*
X13567595Y-20286643D01*
X13539024Y-20286643D01*
X13519976Y-20296167D01*
X13510452Y-20305690D01*
X13719976Y-20419976D02*
X13700928Y-20410452D01*
X13691405Y-20400929D01*
X13681881Y-20381881D01*
X13681881Y-20324738D01*
X13691405Y-20305690D01*
X13700928Y-20296167D01*
X13719976Y-20286643D01*
X13748548Y-20286643D01*
X13767595Y-20296167D01*
X13777119Y-20305690D01*
X13786643Y-20324738D01*
X13786643Y-20381881D01*
X13777119Y-20400929D01*
X13767595Y-20410452D01*
X13748548Y-20419976D01*
X13719976Y-20419976D01*
X13900928Y-20419976D02*
X13881881Y-20410452D01*
X13872357Y-20391405D01*
X13872357Y-20219976D01*
X14053309Y-20410452D02*
X14034262Y-20419976D01*
X13996167Y-20419976D01*
X13977119Y-20410452D01*
X13967595Y-20391405D01*
X13967595Y-20315214D01*
X13977119Y-20296167D01*
X13996167Y-20286643D01*
X14034262Y-20286643D01*
X14053309Y-20296167D01*
X14062833Y-20315214D01*
X14062833Y-20334262D01*
X13967595Y-20353310D01*
X14139024Y-20410452D02*
X14158071Y-20419976D01*
X14196167Y-20419976D01*
X14215214Y-20410452D01*
X14224738Y-20391405D01*
X14224738Y-20381881D01*
X14215214Y-20362833D01*
X14196167Y-20353310D01*
X14167595Y-20353310D01*
X14148548Y-20343786D01*
X14139024Y-20324738D01*
X14139024Y-20315214D01*
X14148548Y-20296167D01*
X14167595Y-20286643D01*
X14196167Y-20286643D01*
X14215214Y-20296167D01*
X14291405Y-20496167D02*
X14300928Y-20486643D01*
X14319976Y-20458071D01*
X14329500Y-20439024D01*
X14339024Y-20410452D01*
X14348548Y-20362833D01*
X14348548Y-20324738D01*
X14339024Y-20277119D01*
X14329500Y-20248548D01*
X14319976Y-20229500D01*
X14300928Y-20200929D01*
X14291405Y-20191405D01*
X14653309Y-20496167D02*
X14643786Y-20486643D01*
X14624738Y-20458071D01*
X14615214Y-20439024D01*
X14605690Y-20410452D01*
X14596167Y-20362833D01*
X14596167Y-20324738D01*
X14605690Y-20277119D01*
X14615214Y-20248548D01*
X14624738Y-20229500D01*
X14643786Y-20200929D01*
X14653309Y-20191405D01*
X14729500Y-20286643D02*
X14729500Y-20419976D01*
X14729500Y-20305690D02*
X14739024Y-20296167D01*
X14758071Y-20286643D01*
X14786643Y-20286643D01*
X14805690Y-20296167D01*
X14815214Y-20315214D01*
X14815214Y-20419976D01*
X14939024Y-20419976D02*
X14919976Y-20410452D01*
X14910452Y-20400929D01*
X14900928Y-20381881D01*
X14900928Y-20324738D01*
X14910452Y-20305690D01*
X14919976Y-20296167D01*
X14939024Y-20286643D01*
X14967595Y-20286643D01*
X14986643Y-20296167D01*
X14996167Y-20305690D01*
X15005690Y-20324738D01*
X15005690Y-20381881D01*
X14996167Y-20400929D01*
X14986643Y-20410452D01*
X14967595Y-20419976D01*
X14939024Y-20419976D01*
X15062833Y-20286643D02*
X15139024Y-20286643D01*
X15091405Y-20219976D02*
X15091405Y-20391405D01*
X15100928Y-20410452D01*
X15119976Y-20419976D01*
X15139024Y-20419976D01*
X15358071Y-20286643D02*
X15358071Y-20486643D01*
X15358071Y-20296167D02*
X15377119Y-20286643D01*
X15415214Y-20286643D01*
X15434262Y-20296167D01*
X15443786Y-20305690D01*
X15453309Y-20324738D01*
X15453309Y-20381881D01*
X15443786Y-20400929D01*
X15434262Y-20410452D01*
X15415214Y-20419976D01*
X15377119Y-20419976D01*
X15358071Y-20410452D01*
X15567595Y-20419976D02*
X15548548Y-20410452D01*
X15539024Y-20391405D01*
X15539024Y-20219976D01*
X15729500Y-20419976D02*
X15729500Y-20315214D01*
X15719976Y-20296167D01*
X15700928Y-20286643D01*
X15662833Y-20286643D01*
X15643786Y-20296167D01*
X15729500Y-20410452D02*
X15710452Y-20419976D01*
X15662833Y-20419976D01*
X15643786Y-20410452D01*
X15634262Y-20391405D01*
X15634262Y-20372357D01*
X15643786Y-20353310D01*
X15662833Y-20343786D01*
X15710452Y-20343786D01*
X15729500Y-20334262D01*
X15796167Y-20286643D02*
X15872357Y-20286643D01*
X15824738Y-20219976D02*
X15824738Y-20391405D01*
X15834262Y-20410452D01*
X15853309Y-20419976D01*
X15872357Y-20419976D01*
X16015214Y-20410452D02*
X15996167Y-20419976D01*
X15958071Y-20419976D01*
X15939024Y-20410452D01*
X15929500Y-20391405D01*
X15929500Y-20315214D01*
X15939024Y-20296167D01*
X15958071Y-20286643D01*
X15996167Y-20286643D01*
X16015214Y-20296167D01*
X16024738Y-20315214D01*
X16024738Y-20334262D01*
X15929500Y-20353310D01*
X16196167Y-20419976D02*
X16196167Y-20219976D01*
X16196167Y-20410452D02*
X16177119Y-20419976D01*
X16139024Y-20419976D01*
X16119976Y-20410452D01*
X16110452Y-20400929D01*
X16100928Y-20381881D01*
X16100928Y-20324738D01*
X16110452Y-20305690D01*
X16119976Y-20296167D01*
X16139024Y-20286643D01*
X16177119Y-20286643D01*
X16196167Y-20296167D01*
X16272357Y-20496167D02*
X16281881Y-20486643D01*
X16300928Y-20458071D01*
X16310452Y-20439024D01*
X16319976Y-20410452D01*
X16329500Y-20362833D01*
X16329500Y-20324738D01*
X16319976Y-20277119D01*
X16310452Y-20248548D01*
X16300928Y-20229500D01*
X16281881Y-20200929D01*
X16272357Y-20191405D01*
X9419500Y-20549500D02*
X9419500Y-20749500D01*
X9319500Y-20649500D02*
X9519500Y-20649500D01*
X9758071Y-20539976D02*
X9881881Y-20539976D01*
X9815214Y-20616167D01*
X9843786Y-20616167D01*
X9862833Y-20625690D01*
X9872357Y-20635214D01*
X9881881Y-20654262D01*
X9881881Y-20701881D01*
X9872357Y-20720929D01*
X9862833Y-20730452D01*
X9843786Y-20739976D01*
X9786643Y-20739976D01*
X9767595Y-20730452D01*
X9758071Y-20720929D01*
X9967595Y-20720929D02*
X9977119Y-20730452D01*
X9967595Y-20739976D01*
X9958071Y-20730452D01*
X9967595Y-20720929D01*
X9967595Y-20739976D01*
X10053310Y-20559024D02*
X10062833Y-20549500D01*
X10081881Y-20539976D01*
X10129500Y-20539976D01*
X10148548Y-20549500D01*
X10158071Y-20559024D01*
X10167595Y-20578071D01*
X10167595Y-20597119D01*
X10158071Y-20625690D01*
X10043786Y-20739976D01*
X10167595Y-20739976D01*
X10291405Y-20539976D02*
X10310452Y-20539976D01*
X10329500Y-20549500D01*
X10339024Y-20559024D01*
X10348548Y-20578071D01*
X10358071Y-20616167D01*
X10358071Y-20663786D01*
X10348548Y-20701881D01*
X10339024Y-20720929D01*
X10329500Y-20730452D01*
X10310452Y-20739976D01*
X10291405Y-20739976D01*
X10272357Y-20730452D01*
X10262833Y-20720929D01*
X10253310Y-20701881D01*
X10243786Y-20663786D01*
X10243786Y-20616167D01*
X10253310Y-20578071D01*
X10262833Y-20559024D01*
X10272357Y-20549500D01*
X10291405Y-20539976D01*
X10481881Y-20539976D02*
X10500929Y-20539976D01*
X10519976Y-20549500D01*
X10529500Y-20559024D01*
X10539024Y-20578071D01*
X10548548Y-20616167D01*
X10548548Y-20663786D01*
X10539024Y-20701881D01*
X10529500Y-20720929D01*
X10519976Y-20730452D01*
X10500929Y-20739976D01*
X10481881Y-20739976D01*
X10462833Y-20730452D01*
X10453310Y-20720929D01*
X10443786Y-20701881D01*
X10434262Y-20663786D01*
X10434262Y-20616167D01*
X10443786Y-20578071D01*
X10453310Y-20559024D01*
X10462833Y-20549500D01*
X10481881Y-20539976D01*
X10634262Y-20739976D02*
X10634262Y-20606643D01*
X10634262Y-20625690D02*
X10643786Y-20616167D01*
X10662833Y-20606643D01*
X10691405Y-20606643D01*
X10710452Y-20616167D01*
X10719976Y-20635214D01*
X10719976Y-20739976D01*
X10719976Y-20635214D02*
X10729500Y-20616167D01*
X10748548Y-20606643D01*
X10777119Y-20606643D01*
X10796167Y-20616167D01*
X10805690Y-20635214D01*
X10805690Y-20739976D01*
X10900929Y-20739976D02*
X10900929Y-20606643D01*
X10900929Y-20625690D02*
X10910452Y-20616167D01*
X10929500Y-20606643D01*
X10958071Y-20606643D01*
X10977119Y-20616167D01*
X10986643Y-20635214D01*
X10986643Y-20739976D01*
X10986643Y-20635214D02*
X10996167Y-20616167D01*
X11015214Y-20606643D01*
X11043786Y-20606643D01*
X11062833Y-20616167D01*
X11072357Y-20635214D01*
X11072357Y-20739976D01*
X11462833Y-20530452D02*
X11291405Y-20787595D01*
X11719976Y-20539976D02*
X11739024Y-20539976D01*
X11758071Y-20549500D01*
X11767595Y-20559024D01*
X11777119Y-20578071D01*
X11786643Y-20616167D01*
X11786643Y-20663786D01*
X11777119Y-20701881D01*
X11767595Y-20720929D01*
X11758071Y-20730452D01*
X11739024Y-20739976D01*
X11719976Y-20739976D01*
X11700928Y-20730452D01*
X11691405Y-20720929D01*
X11681881Y-20701881D01*
X11672357Y-20663786D01*
X11672357Y-20616167D01*
X11681881Y-20578071D01*
X11691405Y-20559024D01*
X11700928Y-20549500D01*
X11719976Y-20539976D01*
X11872357Y-20720929D02*
X11881881Y-20730452D01*
X11872357Y-20739976D01*
X11862833Y-20730452D01*
X11872357Y-20720929D01*
X11872357Y-20739976D01*
X12072357Y-20739976D02*
X11958071Y-20739976D01*
X12015214Y-20739976D02*
X12015214Y-20539976D01*
X11996167Y-20568548D01*
X11977119Y-20587595D01*
X11958071Y-20597119D01*
X12148548Y-20559024D02*
X12158071Y-20549500D01*
X12177119Y-20539976D01*
X12224738Y-20539976D01*
X12243786Y-20549500D01*
X12253309Y-20559024D01*
X12262833Y-20578071D01*
X12262833Y-20597119D01*
X12253309Y-20625690D01*
X12139024Y-20739976D01*
X12262833Y-20739976D01*
X12434262Y-20539976D02*
X12396167Y-20539976D01*
X12377119Y-20549500D01*
X12367595Y-20559024D01*
X12348548Y-20587595D01*
X12339024Y-20625690D01*
X12339024Y-20701881D01*
X12348548Y-20720929D01*
X12358071Y-20730452D01*
X12377119Y-20739976D01*
X12415214Y-20739976D01*
X12434262Y-20730452D01*
X12443786Y-20720929D01*
X12453309Y-20701881D01*
X12453309Y-20654262D01*
X12443786Y-20635214D01*
X12434262Y-20625690D01*
X12415214Y-20616167D01*
X12377119Y-20616167D01*
X12358071Y-20625690D01*
X12348548Y-20635214D01*
X12339024Y-20654262D01*
X12577119Y-20539976D02*
X12596167Y-20539976D01*
X12615214Y-20549500D01*
X12624738Y-20559024D01*
X12634262Y-20578071D01*
X12643786Y-20616167D01*
X12643786Y-20663786D01*
X12634262Y-20701881D01*
X12624738Y-20720929D01*
X12615214Y-20730452D01*
X12596167Y-20739976D01*
X12577119Y-20739976D01*
X12558071Y-20730452D01*
X12548548Y-20720929D01*
X12539024Y-20701881D01*
X12529500Y-20663786D01*
X12529500Y-20616167D01*
X12539024Y-20578071D01*
X12548548Y-20559024D01*
X12558071Y-20549500D01*
X12577119Y-20539976D01*
X12719976Y-20539976D02*
X12719976Y-20578071D01*
X12796167Y-20539976D02*
X12796167Y-20578071D01*
X13091405Y-20816167D02*
X13081881Y-20806643D01*
X13062833Y-20778071D01*
X13053309Y-20759024D01*
X13043786Y-20730452D01*
X13034262Y-20682833D01*
X13034262Y-20644738D01*
X13043786Y-20597119D01*
X13053309Y-20568548D01*
X13062833Y-20549500D01*
X13081881Y-20520929D01*
X13091405Y-20511405D01*
X13158071Y-20559024D02*
X13167595Y-20549500D01*
X13186643Y-20539976D01*
X13234262Y-20539976D01*
X13253309Y-20549500D01*
X13262833Y-20559024D01*
X13272357Y-20578071D01*
X13272357Y-20597119D01*
X13262833Y-20625690D01*
X13148548Y-20739976D01*
X13272357Y-20739976D01*
X13510452Y-20739976D02*
X13510452Y-20539976D01*
X13596167Y-20739976D02*
X13596167Y-20635214D01*
X13586643Y-20616167D01*
X13567595Y-20606643D01*
X13539024Y-20606643D01*
X13519976Y-20616167D01*
X13510452Y-20625690D01*
X13719976Y-20739976D02*
X13700928Y-20730452D01*
X13691405Y-20720929D01*
X13681881Y-20701881D01*
X13681881Y-20644738D01*
X13691405Y-20625690D01*
X13700928Y-20616167D01*
X13719976Y-20606643D01*
X13748548Y-20606643D01*
X13767595Y-20616167D01*
X13777119Y-20625690D01*
X13786643Y-20644738D01*
X13786643Y-20701881D01*
X13777119Y-20720929D01*
X13767595Y-20730452D01*
X13748548Y-20739976D01*
X13719976Y-20739976D01*
X13900928Y-20739976D02*
X13881881Y-20730452D01*
X13872357Y-20711405D01*
X13872357Y-20539976D01*
X14053309Y-20730452D02*
X14034262Y-20739976D01*
X13996167Y-20739976D01*
X13977119Y-20730452D01*
X13967595Y-20711405D01*
X13967595Y-20635214D01*
X13977119Y-20616167D01*
X13996167Y-20606643D01*
X14034262Y-20606643D01*
X14053309Y-20616167D01*
X14062833Y-20635214D01*
X14062833Y-20654262D01*
X13967595Y-20673310D01*
X14139024Y-20730452D02*
X14158071Y-20739976D01*
X14196167Y-20739976D01*
X14215214Y-20730452D01*
X14224738Y-20711405D01*
X14224738Y-20701881D01*
X14215214Y-20682833D01*
X14196167Y-20673310D01*
X14167595Y-20673310D01*
X14148548Y-20663786D01*
X14139024Y-20644738D01*
X14139024Y-20635214D01*
X14148548Y-20616167D01*
X14167595Y-20606643D01*
X14196167Y-20606643D01*
X14215214Y-20616167D01*
X14291405Y-20816167D02*
X14300928Y-20806643D01*
X14319976Y-20778071D01*
X14329500Y-20759024D01*
X14339024Y-20730452D01*
X14348548Y-20682833D01*
X14348548Y-20644738D01*
X14339024Y-20597119D01*
X14329500Y-20568548D01*
X14319976Y-20549500D01*
X14300928Y-20520929D01*
X14291405Y-20511405D01*
X14653309Y-20816167D02*
X14643786Y-20806643D01*
X14624738Y-20778071D01*
X14615214Y-20759024D01*
X14605690Y-20730452D01*
X14596167Y-20682833D01*
X14596167Y-20644738D01*
X14605690Y-20597119D01*
X14615214Y-20568548D01*
X14624738Y-20549500D01*
X14643786Y-20520929D01*
X14653309Y-20511405D01*
X14729500Y-20606643D02*
X14729500Y-20739976D01*
X14729500Y-20625690D02*
X14739024Y-20616167D01*
X14758071Y-20606643D01*
X14786643Y-20606643D01*
X14805690Y-20616167D01*
X14815214Y-20635214D01*
X14815214Y-20739976D01*
X14939024Y-20739976D02*
X14919976Y-20730452D01*
X14910452Y-20720929D01*
X14900928Y-20701881D01*
X14900928Y-20644738D01*
X14910452Y-20625690D01*
X14919976Y-20616167D01*
X14939024Y-20606643D01*
X14967595Y-20606643D01*
X14986643Y-20616167D01*
X14996167Y-20625690D01*
X15005690Y-20644738D01*
X15005690Y-20701881D01*
X14996167Y-20720929D01*
X14986643Y-20730452D01*
X14967595Y-20739976D01*
X14939024Y-20739976D01*
X15062833Y-20606643D02*
X15139024Y-20606643D01*
X15091405Y-20539976D02*
X15091405Y-20711405D01*
X15100928Y-20730452D01*
X15119976Y-20739976D01*
X15139024Y-20739976D01*
X15358071Y-20606643D02*
X15358071Y-20806643D01*
X15358071Y-20616167D02*
X15377119Y-20606643D01*
X15415214Y-20606643D01*
X15434262Y-20616167D01*
X15443786Y-20625690D01*
X15453309Y-20644738D01*
X15453309Y-20701881D01*
X15443786Y-20720929D01*
X15434262Y-20730452D01*
X15415214Y-20739976D01*
X15377119Y-20739976D01*
X15358071Y-20730452D01*
X15567595Y-20739976D02*
X15548548Y-20730452D01*
X15539024Y-20711405D01*
X15539024Y-20539976D01*
X15729500Y-20739976D02*
X15729500Y-20635214D01*
X15719976Y-20616167D01*
X15700928Y-20606643D01*
X15662833Y-20606643D01*
X15643786Y-20616167D01*
X15729500Y-20730452D02*
X15710452Y-20739976D01*
X15662833Y-20739976D01*
X15643786Y-20730452D01*
X15634262Y-20711405D01*
X15634262Y-20692357D01*
X15643786Y-20673310D01*
X15662833Y-20663786D01*
X15710452Y-20663786D01*
X15729500Y-20654262D01*
X15796167Y-20606643D02*
X15872357Y-20606643D01*
X15824738Y-20539976D02*
X15824738Y-20711405D01*
X15834262Y-20730452D01*
X15853309Y-20739976D01*
X15872357Y-20739976D01*
X16015214Y-20730452D02*
X15996167Y-20739976D01*
X15958071Y-20739976D01*
X15939024Y-20730452D01*
X15929500Y-20711405D01*
X15929500Y-20635214D01*
X15939024Y-20616167D01*
X15958071Y-20606643D01*
X15996167Y-20606643D01*
X16015214Y-20616167D01*
X16024738Y-20635214D01*
X16024738Y-20654262D01*
X15929500Y-20673310D01*
X16196167Y-20739976D02*
X16196167Y-20539976D01*
X16196167Y-20730452D02*
X16177119Y-20739976D01*
X16139024Y-20739976D01*
X16119976Y-20730452D01*
X16110452Y-20720929D01*
X16100928Y-20701881D01*
X16100928Y-20644738D01*
X16110452Y-20625690D01*
X16119976Y-20616167D01*
X16139024Y-20606643D01*
X16177119Y-20606643D01*
X16196167Y-20616167D01*
X16272357Y-20816167D02*
X16281881Y-20806643D01*
X16300928Y-20778071D01*
X16310452Y-20759024D01*
X16319976Y-20730452D01*
X16329500Y-20682833D01*
X16329500Y-20644738D01*
X16319976Y-20597119D01*
X16310452Y-20568548D01*
X16300928Y-20549500D01*
X16281881Y-20520929D01*
X16272357Y-20511405D01*
X9490211Y-21040211D02*
X9490211Y-20898789D01*
X9348789Y-20898789D01*
X9348789Y-21040211D01*
X9490211Y-21040211D01*
X9862833Y-20926643D02*
X9862833Y-21059976D01*
X9815214Y-20850452D02*
X9767595Y-20993310D01*
X9891405Y-20993310D01*
X9967595Y-21040929D02*
X9977119Y-21050452D01*
X9967595Y-21059976D01*
X9958071Y-21050452D01*
X9967595Y-21040929D01*
X9967595Y-21059976D01*
X10100929Y-20859976D02*
X10119976Y-20859976D01*
X10139024Y-20869500D01*
X10148548Y-20879024D01*
X10158071Y-20898071D01*
X10167595Y-20936167D01*
X10167595Y-20983786D01*
X10158071Y-21021881D01*
X10148548Y-21040929D01*
X10139024Y-21050452D01*
X10119976Y-21059976D01*
X10100929Y-21059976D01*
X10081881Y-21050452D01*
X10072357Y-21040929D01*
X10062833Y-21021881D01*
X10053310Y-20983786D01*
X10053310Y-20936167D01*
X10062833Y-20898071D01*
X10072357Y-20879024D01*
X10081881Y-20869500D01*
X10100929Y-20859976D01*
X10291405Y-20859976D02*
X10310452Y-20859976D01*
X10329500Y-20869500D01*
X10339024Y-20879024D01*
X10348548Y-20898071D01*
X10358071Y-20936167D01*
X10358071Y-20983786D01*
X10348548Y-21021881D01*
X10339024Y-21040929D01*
X10329500Y-21050452D01*
X10310452Y-21059976D01*
X10291405Y-21059976D01*
X10272357Y-21050452D01*
X10262833Y-21040929D01*
X10253310Y-21021881D01*
X10243786Y-20983786D01*
X10243786Y-20936167D01*
X10253310Y-20898071D01*
X10262833Y-20879024D01*
X10272357Y-20869500D01*
X10291405Y-20859976D01*
X10481881Y-20859976D02*
X10500929Y-20859976D01*
X10519976Y-20869500D01*
X10529500Y-20879024D01*
X10539024Y-20898071D01*
X10548548Y-20936167D01*
X10548548Y-20983786D01*
X10539024Y-21021881D01*
X10529500Y-21040929D01*
X10519976Y-21050452D01*
X10500929Y-21059976D01*
X10481881Y-21059976D01*
X10462833Y-21050452D01*
X10453310Y-21040929D01*
X10443786Y-21021881D01*
X10434262Y-20983786D01*
X10434262Y-20936167D01*
X10443786Y-20898071D01*
X10453310Y-20879024D01*
X10462833Y-20869500D01*
X10481881Y-20859976D01*
X10634262Y-21059976D02*
X10634262Y-20926643D01*
X10634262Y-20945690D02*
X10643786Y-20936167D01*
X10662833Y-20926643D01*
X10691405Y-20926643D01*
X10710452Y-20936167D01*
X10719976Y-20955214D01*
X10719976Y-21059976D01*
X10719976Y-20955214D02*
X10729500Y-20936167D01*
X10748548Y-20926643D01*
X10777119Y-20926643D01*
X10796167Y-20936167D01*
X10805690Y-20955214D01*
X10805690Y-21059976D01*
X10900929Y-21059976D02*
X10900929Y-20926643D01*
X10900929Y-20945690D02*
X10910452Y-20936167D01*
X10929500Y-20926643D01*
X10958071Y-20926643D01*
X10977119Y-20936167D01*
X10986643Y-20955214D01*
X10986643Y-21059976D01*
X10986643Y-20955214D02*
X10996167Y-20936167D01*
X11015214Y-20926643D01*
X11043786Y-20926643D01*
X11062833Y-20936167D01*
X11072357Y-20955214D01*
X11072357Y-21059976D01*
X11462833Y-20850452D02*
X11291405Y-21107595D01*
X11719976Y-20859976D02*
X11739024Y-20859976D01*
X11758071Y-20869500D01*
X11767595Y-20879024D01*
X11777119Y-20898071D01*
X11786643Y-20936167D01*
X11786643Y-20983786D01*
X11777119Y-21021881D01*
X11767595Y-21040929D01*
X11758071Y-21050452D01*
X11739024Y-21059976D01*
X11719976Y-21059976D01*
X11700928Y-21050452D01*
X11691405Y-21040929D01*
X11681881Y-21021881D01*
X11672357Y-20983786D01*
X11672357Y-20936167D01*
X11681881Y-20898071D01*
X11691405Y-20879024D01*
X11700928Y-20869500D01*
X11719976Y-20859976D01*
X11872357Y-21040929D02*
X11881881Y-21050452D01*
X11872357Y-21059976D01*
X11862833Y-21050452D01*
X11872357Y-21040929D01*
X11872357Y-21059976D01*
X12072357Y-21059976D02*
X11958071Y-21059976D01*
X12015214Y-21059976D02*
X12015214Y-20859976D01*
X11996167Y-20888548D01*
X11977119Y-20907595D01*
X11958071Y-20917119D01*
X12253309Y-20859976D02*
X12158071Y-20859976D01*
X12148548Y-20955214D01*
X12158071Y-20945690D01*
X12177119Y-20936167D01*
X12224738Y-20936167D01*
X12243786Y-20945690D01*
X12253309Y-20955214D01*
X12262833Y-20974262D01*
X12262833Y-21021881D01*
X12253309Y-21040929D01*
X12243786Y-21050452D01*
X12224738Y-21059976D01*
X12177119Y-21059976D01*
X12158071Y-21050452D01*
X12148548Y-21040929D01*
X12329500Y-20859976D02*
X12462833Y-20859976D01*
X12377119Y-21059976D01*
X12634262Y-20859976D02*
X12539024Y-20859976D01*
X12529500Y-20955214D01*
X12539024Y-20945690D01*
X12558071Y-20936167D01*
X12605690Y-20936167D01*
X12624738Y-20945690D01*
X12634262Y-20955214D01*
X12643786Y-20974262D01*
X12643786Y-21021881D01*
X12634262Y-21040929D01*
X12624738Y-21050452D01*
X12605690Y-21059976D01*
X12558071Y-21059976D01*
X12539024Y-21050452D01*
X12529500Y-21040929D01*
X12719976Y-20859976D02*
X12719976Y-20898071D01*
X12796167Y-20859976D02*
X12796167Y-20898071D01*
X13091405Y-21136167D02*
X13081881Y-21126643D01*
X13062833Y-21098071D01*
X13053309Y-21079024D01*
X13043786Y-21050452D01*
X13034262Y-21002833D01*
X13034262Y-20964738D01*
X13043786Y-20917119D01*
X13053309Y-20888548D01*
X13062833Y-20869500D01*
X13081881Y-20840929D01*
X13091405Y-20831405D01*
X13262833Y-20859976D02*
X13167595Y-20859976D01*
X13158071Y-20955214D01*
X13167595Y-20945690D01*
X13186643Y-20936167D01*
X13234262Y-20936167D01*
X13253309Y-20945690D01*
X13262833Y-20955214D01*
X13272357Y-20974262D01*
X13272357Y-21021881D01*
X13262833Y-21040929D01*
X13253309Y-21050452D01*
X13234262Y-21059976D01*
X13186643Y-21059976D01*
X13167595Y-21050452D01*
X13158071Y-21040929D01*
X13396167Y-20859976D02*
X13415214Y-20859976D01*
X13434262Y-20869500D01*
X13443786Y-20879024D01*
X13453309Y-20898071D01*
X13462833Y-20936167D01*
X13462833Y-20983786D01*
X13453309Y-21021881D01*
X13443786Y-21040929D01*
X13434262Y-21050452D01*
X13415214Y-21059976D01*
X13396167Y-21059976D01*
X13377119Y-21050452D01*
X13367595Y-21040929D01*
X13358071Y-21021881D01*
X13348548Y-20983786D01*
X13348548Y-20936167D01*
X13358071Y-20898071D01*
X13367595Y-20879024D01*
X13377119Y-20869500D01*
X13396167Y-20859976D01*
X13700928Y-21059976D02*
X13700928Y-20859976D01*
X13786643Y-21059976D02*
X13786643Y-20955214D01*
X13777119Y-20936167D01*
X13758071Y-20926643D01*
X13729500Y-20926643D01*
X13710452Y-20936167D01*
X13700928Y-20945690D01*
X13910452Y-21059976D02*
X13891405Y-21050452D01*
X13881881Y-21040929D01*
X13872357Y-21021881D01*
X13872357Y-20964738D01*
X13881881Y-20945690D01*
X13891405Y-20936167D01*
X13910452Y-20926643D01*
X13939024Y-20926643D01*
X13958071Y-20936167D01*
X13967595Y-20945690D01*
X13977119Y-20964738D01*
X13977119Y-21021881D01*
X13967595Y-21040929D01*
X13958071Y-21050452D01*
X13939024Y-21059976D01*
X13910452Y-21059976D01*
X14091405Y-21059976D02*
X14072357Y-21050452D01*
X14062833Y-21031405D01*
X14062833Y-20859976D01*
X14243786Y-21050452D02*
X14224738Y-21059976D01*
X14186643Y-21059976D01*
X14167595Y-21050452D01*
X14158071Y-21031405D01*
X14158071Y-20955214D01*
X14167595Y-20936167D01*
X14186643Y-20926643D01*
X14224738Y-20926643D01*
X14243786Y-20936167D01*
X14253309Y-20955214D01*
X14253309Y-20974262D01*
X14158071Y-20993310D01*
X14329500Y-21050452D02*
X14348548Y-21059976D01*
X14386643Y-21059976D01*
X14405690Y-21050452D01*
X14415214Y-21031405D01*
X14415214Y-21021881D01*
X14405690Y-21002833D01*
X14386643Y-20993310D01*
X14358071Y-20993310D01*
X14339024Y-20983786D01*
X14329500Y-20964738D01*
X14329500Y-20955214D01*
X14339024Y-20936167D01*
X14358071Y-20926643D01*
X14386643Y-20926643D01*
X14405690Y-20936167D01*
X14481881Y-21136167D02*
X14491405Y-21126643D01*
X14510452Y-21098071D01*
X14519976Y-21079024D01*
X14529500Y-21050452D01*
X14539024Y-21002833D01*
X14539024Y-20964738D01*
X14529500Y-20917119D01*
X14519976Y-20888548D01*
X14510452Y-20869500D01*
X14491405Y-20840929D01*
X14481881Y-20831405D01*
X14843786Y-21136167D02*
X14834262Y-21126643D01*
X14815214Y-21098071D01*
X14805690Y-21079024D01*
X14796167Y-21050452D01*
X14786643Y-21002833D01*
X14786643Y-20964738D01*
X14796167Y-20917119D01*
X14805690Y-20888548D01*
X14815214Y-20869500D01*
X14834262Y-20840929D01*
X14843786Y-20831405D01*
X14919976Y-20926643D02*
X14919976Y-21059976D01*
X14919976Y-20945690D02*
X14929500Y-20936167D01*
X14948548Y-20926643D01*
X14977119Y-20926643D01*
X14996167Y-20936167D01*
X15005690Y-20955214D01*
X15005690Y-21059976D01*
X15129500Y-21059976D02*
X15110452Y-21050452D01*
X15100928Y-21040929D01*
X15091405Y-21021881D01*
X15091405Y-20964738D01*
X15100928Y-20945690D01*
X15110452Y-20936167D01*
X15129500Y-20926643D01*
X15158071Y-20926643D01*
X15177119Y-20936167D01*
X15186643Y-20945690D01*
X15196167Y-20964738D01*
X15196167Y-21021881D01*
X15186643Y-21040929D01*
X15177119Y-21050452D01*
X15158071Y-21059976D01*
X15129500Y-21059976D01*
X15253309Y-20926643D02*
X15329500Y-20926643D01*
X15281881Y-20859976D02*
X15281881Y-21031405D01*
X15291405Y-21050452D01*
X15310452Y-21059976D01*
X15329500Y-21059976D01*
X15548548Y-20926643D02*
X15548548Y-21126643D01*
X15548548Y-20936167D02*
X15567595Y-20926643D01*
X15605690Y-20926643D01*
X15624738Y-20936167D01*
X15634262Y-20945690D01*
X15643786Y-20964738D01*
X15643786Y-21021881D01*
X15634262Y-21040929D01*
X15624738Y-21050452D01*
X15605690Y-21059976D01*
X15567595Y-21059976D01*
X15548548Y-21050452D01*
X15758071Y-21059976D02*
X15739024Y-21050452D01*
X15729500Y-21031405D01*
X15729500Y-20859976D01*
X15919976Y-21059976D02*
X15919976Y-20955214D01*
X15910452Y-20936167D01*
X15891405Y-20926643D01*
X15853309Y-20926643D01*
X15834262Y-20936167D01*
X15919976Y-21050452D02*
X15900928Y-21059976D01*
X15853309Y-21059976D01*
X15834262Y-21050452D01*
X15824738Y-21031405D01*
X15824738Y-21012357D01*
X15834262Y-20993310D01*
X15853309Y-20983786D01*
X15900928Y-20983786D01*
X15919976Y-20974262D01*
X15986643Y-20926643D02*
X16062833Y-20926643D01*
X16015214Y-20859976D02*
X16015214Y-21031405D01*
X16024738Y-21050452D01*
X16043786Y-21059976D01*
X16062833Y-21059976D01*
X16205690Y-21050452D02*
X16186643Y-21059976D01*
X16148548Y-21059976D01*
X16129500Y-21050452D01*
X16119976Y-21031405D01*
X16119976Y-20955214D01*
X16129500Y-20936167D01*
X16148548Y-20926643D01*
X16186643Y-20926643D01*
X16205690Y-20936167D01*
X16215214Y-20955214D01*
X16215214Y-20974262D01*
X16119976Y-20993310D01*
X16386643Y-21059976D02*
X16386643Y-20859976D01*
X16386643Y-21050452D02*
X16367595Y-21059976D01*
X16329500Y-21059976D01*
X16310452Y-21050452D01*
X16300928Y-21040929D01*
X16291405Y-21021881D01*
X16291405Y-20964738D01*
X16300928Y-20945690D01*
X16310452Y-20936167D01*
X16329500Y-20926643D01*
X16367595Y-20926643D01*
X16386643Y-20936167D01*
X16462833Y-21136167D02*
X16472357Y-21126643D01*
X16491405Y-21098071D01*
X16500928Y-21079024D01*
X16510452Y-21050452D01*
X16519976Y-21002833D01*
X16519976Y-20964738D01*
X16510452Y-20917119D01*
X16500928Y-20888548D01*
X16491405Y-20869500D01*
X16472357Y-20840929D01*
X16462833Y-20831405D01*
M02*
