%FSLAX45Y45*%
G04 Gerber Fmt 4.5, Leading zero omitted, Abs format (unit mm)*
G04 Created by KiCad (PCBNEW (6.0.2-0)) date 2022-03-17 22:58:47*
%MOMM*%
%LPD*%
G01*
G04 APERTURE LIST*
%TA.AperFunction,Profile*%
%ADD10C,0.050000*%
%TD*%
%ADD11C,0.200000*%
%ADD12C,0.040000*%
%ADD13C,0.100000*%
%ADD14C,0.150000*%
G04 APERTURE END LIST*
D10*
X9522000Y-11089000D02*
X32830000Y-11089000D01*
X32830000Y-11089000D02*
X32830000Y-19651000D01*
X32830000Y-19651000D02*
X9522000Y-19651000D01*
X9522000Y-19651000D02*
X9522000Y-11089000D01*
D11*
D12*
X12658500Y-16765500D02*
X12698500Y-16805500D01*
X12698500Y-16765500D02*
X12658500Y-16805500D01*
D13*
X18973000Y-11328400D02*
G75*
G03*
X18973000Y-11328400I-50000J0D01*
G01*
X19227000Y-11328400D02*
G75*
G03*
X19227000Y-11328400I-50000J0D01*
G01*
X19481000Y-11328400D02*
G75*
G03*
X19481000Y-11328400I-50000J0D01*
G01*
X19735000Y-11328400D02*
G75*
G03*
X19735000Y-11328400I-50000J0D01*
G01*
X19888400Y-19380200D02*
G75*
G03*
X19888400Y-19380200I-50000J0D01*
G01*
X19989000Y-11328400D02*
G75*
G03*
X19989000Y-11328400I-50000J0D01*
G01*
X20142400Y-19380200D02*
G75*
G03*
X20142400Y-19380200I-50000J0D01*
G01*
X20243000Y-11328400D02*
G75*
G03*
X20243000Y-11328400I-50000J0D01*
G01*
X20396400Y-19380200D02*
G75*
G03*
X20396400Y-19380200I-50000J0D01*
G01*
X20497000Y-11328400D02*
G75*
G03*
X20497000Y-11328400I-50000J0D01*
G01*
X20650400Y-19380200D02*
G75*
G03*
X20650400Y-19380200I-50000J0D01*
G01*
X20751000Y-11328400D02*
G75*
G03*
X20751000Y-11328400I-50000J0D01*
G01*
X21005000Y-11328400D02*
G75*
G03*
X21005000Y-11328400I-50000J0D01*
G01*
X21259000Y-11328400D02*
G75*
G03*
X21259000Y-11328400I-50000J0D01*
G01*
X21513000Y-11328400D02*
G75*
G03*
X21513000Y-11328400I-50000J0D01*
G01*
D14*
X10350500Y-12163000D02*
X10350500Y-12313000D01*
X10275500Y-12238000D02*
X10425500Y-12238000D01*
X10350500Y-17878000D02*
X10350500Y-18028000D01*
X10275500Y-17953000D02*
X10425500Y-17953000D01*
X10826750Y-14068000D02*
X10826750Y-14218000D01*
X10751750Y-14143000D02*
X10901750Y-14143000D01*
X10985500Y-11909000D02*
X10985500Y-12059000D01*
X10910500Y-11984000D02*
X11060500Y-11984000D01*
X10985500Y-17624000D02*
X10985500Y-17774000D01*
X10910500Y-17699000D02*
X11060500Y-17699000D01*
X11303000Y-15973000D02*
X11303000Y-16123000D01*
X11228000Y-16048000D02*
X11378000Y-16048000D01*
X11461750Y-13814000D02*
X11461750Y-13964000D01*
X11386750Y-13889000D02*
X11536750Y-13889000D01*
X11938000Y-15719000D02*
X11938000Y-15869000D01*
X11863000Y-15794000D02*
X12013000Y-15794000D01*
X12255500Y-12163000D02*
X12255500Y-12313000D01*
X12180500Y-12238000D02*
X12330500Y-12238000D01*
X12255500Y-17878000D02*
X12255500Y-18028000D01*
X12180500Y-17953000D02*
X12330500Y-17953000D01*
X12890500Y-11909000D02*
X12890500Y-12059000D01*
X12815500Y-11984000D02*
X12965500Y-11984000D01*
X12890500Y-17624000D02*
X12890500Y-17774000D01*
X12815500Y-17699000D02*
X12965500Y-17699000D01*
X13208000Y-14068000D02*
X13208000Y-14218000D01*
X13133000Y-14143000D02*
X13283000Y-14143000D01*
X13843000Y-13814000D02*
X13843000Y-13964000D01*
X13768000Y-13889000D02*
X13918000Y-13889000D01*
X14160500Y-12163000D02*
X14160500Y-12313000D01*
X14085500Y-12238000D02*
X14235500Y-12238000D01*
X14160500Y-15973000D02*
X14160500Y-16123000D01*
X14085500Y-16048000D02*
X14235500Y-16048000D01*
X14160500Y-17878000D02*
X14160500Y-18028000D01*
X14085500Y-17953000D02*
X14235500Y-17953000D01*
X14795500Y-11909000D02*
X14795500Y-12059000D01*
X14720500Y-11984000D02*
X14870500Y-11984000D01*
X14795500Y-15719000D02*
X14795500Y-15869000D01*
X14720500Y-15794000D02*
X14870500Y-15794000D01*
X14795500Y-17624000D02*
X14795500Y-17774000D01*
X14720500Y-17699000D02*
X14870500Y-17699000D01*
X15113000Y-14068000D02*
X15113000Y-14218000D01*
X15038000Y-14143000D02*
X15188000Y-14143000D01*
X15748000Y-13814000D02*
X15748000Y-13964000D01*
X15673000Y-13889000D02*
X15823000Y-13889000D01*
X16065500Y-12163000D02*
X16065500Y-12313000D01*
X15990500Y-12238000D02*
X16140500Y-12238000D01*
X16065500Y-15973000D02*
X16065500Y-16123000D01*
X15990500Y-16048000D02*
X16140500Y-16048000D01*
X16700500Y-11909000D02*
X16700500Y-12059000D01*
X16625500Y-11984000D02*
X16775500Y-11984000D01*
X16700500Y-15719000D02*
X16700500Y-15869000D01*
X16625500Y-15794000D02*
X16775500Y-15794000D01*
X17018000Y-14068000D02*
X17018000Y-14218000D01*
X16943000Y-14143000D02*
X17093000Y-14143000D01*
X17018000Y-17878000D02*
X17018000Y-18028000D01*
X16943000Y-17953000D02*
X17093000Y-17953000D01*
X17653000Y-13814000D02*
X17653000Y-13964000D01*
X17578000Y-13889000D02*
X17728000Y-13889000D01*
X17653000Y-17624000D02*
X17653000Y-17774000D01*
X17578000Y-17699000D02*
X17728000Y-17699000D01*
X17970500Y-12163000D02*
X17970500Y-12313000D01*
X17895500Y-12238000D02*
X18045500Y-12238000D01*
X17970500Y-15973000D02*
X17970500Y-16123000D01*
X17895500Y-16048000D02*
X18045500Y-16048000D01*
X18605500Y-11909000D02*
X18605500Y-12059000D01*
X18530500Y-11984000D02*
X18680500Y-11984000D01*
X18605500Y-15719000D02*
X18605500Y-15869000D01*
X18530500Y-15794000D02*
X18680500Y-15794000D01*
X18923000Y-14068000D02*
X18923000Y-14218000D01*
X18848000Y-14143000D02*
X18998000Y-14143000D01*
X19558000Y-13814000D02*
X19558000Y-13964000D01*
X19483000Y-13889000D02*
X19633000Y-13889000D01*
X19875500Y-12163000D02*
X19875500Y-12313000D01*
X19800500Y-12238000D02*
X19950500Y-12238000D01*
X19875500Y-15973000D02*
X19875500Y-16123000D01*
X19800500Y-16048000D02*
X19950500Y-16048000D01*
X19875500Y-17878000D02*
X19875500Y-18028000D01*
X19800500Y-17953000D02*
X19950500Y-17953000D01*
X20510500Y-11909000D02*
X20510500Y-12059000D01*
X20435500Y-11984000D02*
X20585500Y-11984000D01*
X20510500Y-15719000D02*
X20510500Y-15869000D01*
X20435500Y-15794000D02*
X20585500Y-15794000D01*
X20510500Y-17624000D02*
X20510500Y-17774000D01*
X20435500Y-17699000D02*
X20585500Y-17699000D01*
X20828000Y-14068000D02*
X20828000Y-14218000D01*
X20753000Y-14143000D02*
X20903000Y-14143000D01*
X21463000Y-13814000D02*
X21463000Y-13964000D01*
X21388000Y-13889000D02*
X21538000Y-13889000D01*
X21780500Y-12163000D02*
X21780500Y-12313000D01*
X21705500Y-12238000D02*
X21855500Y-12238000D01*
X21780500Y-15973000D02*
X21780500Y-16123000D01*
X21705500Y-16048000D02*
X21855500Y-16048000D01*
X22415500Y-11909000D02*
X22415500Y-12059000D01*
X22340500Y-11984000D02*
X22490500Y-11984000D01*
X22415500Y-15719000D02*
X22415500Y-15869000D01*
X22340500Y-15794000D02*
X22490500Y-15794000D01*
X22733000Y-14068000D02*
X22733000Y-14218000D01*
X22658000Y-14143000D02*
X22808000Y-14143000D01*
X22733000Y-17878000D02*
X22733000Y-18028000D01*
X22658000Y-17953000D02*
X22808000Y-17953000D01*
X23368000Y-13814000D02*
X23368000Y-13964000D01*
X23293000Y-13889000D02*
X23443000Y-13889000D01*
X23368000Y-17624000D02*
X23368000Y-17774000D01*
X23293000Y-17699000D02*
X23443000Y-17699000D01*
X23685500Y-12163000D02*
X23685500Y-12313000D01*
X23610500Y-12238000D02*
X23760500Y-12238000D01*
X23685500Y-15973000D02*
X23685500Y-16123000D01*
X23610500Y-16048000D02*
X23760500Y-16048000D01*
X24320500Y-11909000D02*
X24320500Y-12059000D01*
X24245500Y-11984000D02*
X24395500Y-11984000D01*
X24320500Y-15719000D02*
X24320500Y-15869000D01*
X24245500Y-15794000D02*
X24395500Y-15794000D01*
X24638000Y-14068000D02*
X24638000Y-14218000D01*
X24563000Y-14143000D02*
X24713000Y-14143000D01*
X25273000Y-13814000D02*
X25273000Y-13964000D01*
X25198000Y-13889000D02*
X25348000Y-13889000D01*
X25590500Y-12163000D02*
X25590500Y-12313000D01*
X25515500Y-12238000D02*
X25665500Y-12238000D01*
X25590500Y-15973000D02*
X25590500Y-16123000D01*
X25515500Y-16048000D02*
X25665500Y-16048000D01*
X25590500Y-17878000D02*
X25590500Y-18028000D01*
X25515500Y-17953000D02*
X25665500Y-17953000D01*
X26225500Y-11909000D02*
X26225500Y-12059000D01*
X26150500Y-11984000D02*
X26300500Y-11984000D01*
X26225500Y-15719000D02*
X26225500Y-15869000D01*
X26150500Y-15794000D02*
X26300500Y-15794000D01*
X26225500Y-17624000D02*
X26225500Y-17774000D01*
X26150500Y-17699000D02*
X26300500Y-17699000D01*
X26543000Y-14068000D02*
X26543000Y-14218000D01*
X26468000Y-14143000D02*
X26618000Y-14143000D01*
X27178000Y-13814000D02*
X27178000Y-13964000D01*
X27103000Y-13889000D02*
X27253000Y-13889000D01*
X27495500Y-12163000D02*
X27495500Y-12313000D01*
X27420500Y-12238000D02*
X27570500Y-12238000D01*
X27495500Y-15973000D02*
X27495500Y-16123000D01*
X27420500Y-16048000D02*
X27570500Y-16048000D01*
X27495500Y-17878000D02*
X27495500Y-18028000D01*
X27420500Y-17953000D02*
X27570500Y-17953000D01*
X28130500Y-11909000D02*
X28130500Y-12059000D01*
X28055500Y-11984000D02*
X28205500Y-11984000D01*
X28130500Y-15719000D02*
X28130500Y-15869000D01*
X28055500Y-15794000D02*
X28205500Y-15794000D01*
X28130500Y-17624000D02*
X28130500Y-17774000D01*
X28055500Y-17699000D02*
X28205500Y-17699000D01*
X28448000Y-14068000D02*
X28448000Y-14218000D01*
X28373000Y-14143000D02*
X28523000Y-14143000D01*
X29083000Y-13814000D02*
X29083000Y-13964000D01*
X29008000Y-13889000D02*
X29158000Y-13889000D01*
X29400500Y-12163000D02*
X29400500Y-12313000D01*
X29325500Y-12238000D02*
X29475500Y-12238000D01*
X29400500Y-15973000D02*
X29400500Y-16123000D01*
X29325500Y-16048000D02*
X29475500Y-16048000D01*
X29400500Y-17878000D02*
X29400500Y-18028000D01*
X29325500Y-17953000D02*
X29475500Y-17953000D01*
X30035500Y-11909000D02*
X30035500Y-12059000D01*
X29960500Y-11984000D02*
X30110500Y-11984000D01*
X30035500Y-15719000D02*
X30035500Y-15869000D01*
X29960500Y-15794000D02*
X30110500Y-15794000D01*
X30035500Y-17624000D02*
X30035500Y-17774000D01*
X29960500Y-17699000D02*
X30110500Y-17699000D01*
X30829250Y-14068000D02*
X30829250Y-14218000D01*
X30754250Y-14143000D02*
X30904250Y-14143000D01*
X31305500Y-12163000D02*
X31305500Y-12313000D01*
X31230500Y-12238000D02*
X31380500Y-12238000D01*
X31305500Y-15973000D02*
X31305500Y-16123000D01*
X31230500Y-16048000D02*
X31380500Y-16048000D01*
X31305500Y-17878000D02*
X31305500Y-18028000D01*
X31230500Y-17953000D02*
X31380500Y-17953000D01*
X31464250Y-13814000D02*
X31464250Y-13964000D01*
X31389250Y-13889000D02*
X31539250Y-13889000D01*
X31940500Y-11909000D02*
X31940500Y-12059000D01*
X31865500Y-11984000D02*
X32015500Y-11984000D01*
X31940500Y-15719000D02*
X31940500Y-15869000D01*
X31865500Y-15794000D02*
X32015500Y-15794000D01*
X31940500Y-17624000D02*
X31940500Y-17774000D01*
X31865500Y-17699000D02*
X32015500Y-17699000D01*
D11*
X9777119Y-19963976D02*
X9777119Y-19763976D01*
X9824738Y-19763976D01*
X9853310Y-19773500D01*
X9872357Y-19792548D01*
X9881881Y-19811595D01*
X9891405Y-19849690D01*
X9891405Y-19878262D01*
X9881881Y-19916357D01*
X9872357Y-19935405D01*
X9853310Y-19954452D01*
X9824738Y-19963976D01*
X9777119Y-19963976D01*
X9977119Y-19963976D02*
X9977119Y-19830643D01*
X9977119Y-19868738D02*
X9986643Y-19849690D01*
X9996167Y-19840167D01*
X10015214Y-19830643D01*
X10034262Y-19830643D01*
X10100929Y-19963976D02*
X10100929Y-19830643D01*
X10100929Y-19763976D02*
X10091405Y-19773500D01*
X10100929Y-19783024D01*
X10110452Y-19773500D01*
X10100929Y-19763976D01*
X10100929Y-19783024D01*
X10224738Y-19963976D02*
X10205690Y-19954452D01*
X10196167Y-19935405D01*
X10196167Y-19763976D01*
X10329500Y-19963976D02*
X10310452Y-19954452D01*
X10300929Y-19935405D01*
X10300929Y-19763976D01*
X10558071Y-19963976D02*
X10558071Y-19763976D01*
X10624738Y-19906833D01*
X10691405Y-19763976D01*
X10691405Y-19963976D01*
X10872357Y-19963976D02*
X10872357Y-19859214D01*
X10862833Y-19840167D01*
X10843786Y-19830643D01*
X10805690Y-19830643D01*
X10786643Y-19840167D01*
X10872357Y-19954452D02*
X10853310Y-19963976D01*
X10805690Y-19963976D01*
X10786643Y-19954452D01*
X10777119Y-19935405D01*
X10777119Y-19916357D01*
X10786643Y-19897310D01*
X10805690Y-19887786D01*
X10853310Y-19887786D01*
X10872357Y-19878262D01*
X10967595Y-19830643D02*
X10967595Y-20030643D01*
X10967595Y-19840167D02*
X10986643Y-19830643D01*
X11024738Y-19830643D01*
X11043786Y-19840167D01*
X11053310Y-19849690D01*
X11062833Y-19868738D01*
X11062833Y-19925881D01*
X11053310Y-19944929D01*
X11043786Y-19954452D01*
X11024738Y-19963976D01*
X10986643Y-19963976D01*
X10967595Y-19954452D01*
X11148548Y-19944929D02*
X11158071Y-19954452D01*
X11148548Y-19963976D01*
X11139024Y-19954452D01*
X11148548Y-19944929D01*
X11148548Y-19963976D01*
X11148548Y-19840167D02*
X11158071Y-19849690D01*
X11148548Y-19859214D01*
X11139024Y-19849690D01*
X11148548Y-19840167D01*
X11148548Y-19859214D01*
D12*
X9479500Y-20273500D02*
X9519500Y-20313500D01*
X9519500Y-20273500D02*
X9479500Y-20313500D01*
D11*
X9815214Y-20183976D02*
X9834262Y-20183976D01*
X9853310Y-20193500D01*
X9862833Y-20203024D01*
X9872357Y-20222071D01*
X9881881Y-20260167D01*
X9881881Y-20307786D01*
X9872357Y-20345881D01*
X9862833Y-20364929D01*
X9853310Y-20374452D01*
X9834262Y-20383976D01*
X9815214Y-20383976D01*
X9796167Y-20374452D01*
X9786643Y-20364929D01*
X9777119Y-20345881D01*
X9767595Y-20307786D01*
X9767595Y-20260167D01*
X9777119Y-20222071D01*
X9786643Y-20203024D01*
X9796167Y-20193500D01*
X9815214Y-20183976D01*
X9967595Y-20364929D02*
X9977119Y-20374452D01*
X9967595Y-20383976D01*
X9958071Y-20374452D01*
X9967595Y-20364929D01*
X9967595Y-20383976D01*
X10148548Y-20250643D02*
X10148548Y-20383976D01*
X10100929Y-20174452D02*
X10053310Y-20317310D01*
X10177119Y-20317310D01*
X10291405Y-20183976D02*
X10310452Y-20183976D01*
X10329500Y-20193500D01*
X10339024Y-20203024D01*
X10348548Y-20222071D01*
X10358071Y-20260167D01*
X10358071Y-20307786D01*
X10348548Y-20345881D01*
X10339024Y-20364929D01*
X10329500Y-20374452D01*
X10310452Y-20383976D01*
X10291405Y-20383976D01*
X10272357Y-20374452D01*
X10262833Y-20364929D01*
X10253310Y-20345881D01*
X10243786Y-20307786D01*
X10243786Y-20260167D01*
X10253310Y-20222071D01*
X10262833Y-20203024D01*
X10272357Y-20193500D01*
X10291405Y-20183976D01*
X10481881Y-20183976D02*
X10500929Y-20183976D01*
X10519976Y-20193500D01*
X10529500Y-20203024D01*
X10539024Y-20222071D01*
X10548548Y-20260167D01*
X10548548Y-20307786D01*
X10539024Y-20345881D01*
X10529500Y-20364929D01*
X10519976Y-20374452D01*
X10500929Y-20383976D01*
X10481881Y-20383976D01*
X10462833Y-20374452D01*
X10453310Y-20364929D01*
X10443786Y-20345881D01*
X10434262Y-20307786D01*
X10434262Y-20260167D01*
X10443786Y-20222071D01*
X10453310Y-20203024D01*
X10462833Y-20193500D01*
X10481881Y-20183976D01*
X10634262Y-20383976D02*
X10634262Y-20250643D01*
X10634262Y-20269690D02*
X10643786Y-20260167D01*
X10662833Y-20250643D01*
X10691405Y-20250643D01*
X10710452Y-20260167D01*
X10719976Y-20279214D01*
X10719976Y-20383976D01*
X10719976Y-20279214D02*
X10729500Y-20260167D01*
X10748548Y-20250643D01*
X10777119Y-20250643D01*
X10796167Y-20260167D01*
X10805690Y-20279214D01*
X10805690Y-20383976D01*
X10900929Y-20383976D02*
X10900929Y-20250643D01*
X10900929Y-20269690D02*
X10910452Y-20260167D01*
X10929500Y-20250643D01*
X10958071Y-20250643D01*
X10977119Y-20260167D01*
X10986643Y-20279214D01*
X10986643Y-20383976D01*
X10986643Y-20279214D02*
X10996167Y-20260167D01*
X11015214Y-20250643D01*
X11043786Y-20250643D01*
X11062833Y-20260167D01*
X11072357Y-20279214D01*
X11072357Y-20383976D01*
X11462833Y-20174452D02*
X11291405Y-20431595D01*
X11719976Y-20183976D02*
X11739024Y-20183976D01*
X11758071Y-20193500D01*
X11767595Y-20203024D01*
X11777119Y-20222071D01*
X11786643Y-20260167D01*
X11786643Y-20307786D01*
X11777119Y-20345881D01*
X11767595Y-20364929D01*
X11758071Y-20374452D01*
X11739024Y-20383976D01*
X11719976Y-20383976D01*
X11700928Y-20374452D01*
X11691405Y-20364929D01*
X11681881Y-20345881D01*
X11672357Y-20307786D01*
X11672357Y-20260167D01*
X11681881Y-20222071D01*
X11691405Y-20203024D01*
X11700928Y-20193500D01*
X11719976Y-20183976D01*
X11872357Y-20364929D02*
X11881881Y-20374452D01*
X11872357Y-20383976D01*
X11862833Y-20374452D01*
X11872357Y-20364929D01*
X11872357Y-20383976D01*
X12005690Y-20183976D02*
X12024738Y-20183976D01*
X12043786Y-20193500D01*
X12053309Y-20203024D01*
X12062833Y-20222071D01*
X12072357Y-20260167D01*
X12072357Y-20307786D01*
X12062833Y-20345881D01*
X12053309Y-20364929D01*
X12043786Y-20374452D01*
X12024738Y-20383976D01*
X12005690Y-20383976D01*
X11986643Y-20374452D01*
X11977119Y-20364929D01*
X11967595Y-20345881D01*
X11958071Y-20307786D01*
X11958071Y-20260167D01*
X11967595Y-20222071D01*
X11977119Y-20203024D01*
X11986643Y-20193500D01*
X12005690Y-20183976D01*
X12262833Y-20383976D02*
X12148548Y-20383976D01*
X12205690Y-20383976D02*
X12205690Y-20183976D01*
X12186643Y-20212548D01*
X12167595Y-20231595D01*
X12148548Y-20241119D01*
X12443786Y-20183976D02*
X12348548Y-20183976D01*
X12339024Y-20279214D01*
X12348548Y-20269690D01*
X12367595Y-20260167D01*
X12415214Y-20260167D01*
X12434262Y-20269690D01*
X12443786Y-20279214D01*
X12453309Y-20298262D01*
X12453309Y-20345881D01*
X12443786Y-20364929D01*
X12434262Y-20374452D01*
X12415214Y-20383976D01*
X12367595Y-20383976D01*
X12348548Y-20374452D01*
X12339024Y-20364929D01*
X12519976Y-20183976D02*
X12653309Y-20183976D01*
X12567595Y-20383976D01*
X12719976Y-20183976D02*
X12719976Y-20222071D01*
X12796167Y-20183976D02*
X12796167Y-20222071D01*
X13091405Y-20460167D02*
X13081881Y-20450643D01*
X13062833Y-20422071D01*
X13053309Y-20403024D01*
X13043786Y-20374452D01*
X13034262Y-20326833D01*
X13034262Y-20288738D01*
X13043786Y-20241119D01*
X13053309Y-20212548D01*
X13062833Y-20193500D01*
X13081881Y-20164929D01*
X13091405Y-20155405D01*
X13272357Y-20383976D02*
X13158071Y-20383976D01*
X13215214Y-20383976D02*
X13215214Y-20183976D01*
X13196167Y-20212548D01*
X13177119Y-20231595D01*
X13158071Y-20241119D01*
X13510452Y-20383976D02*
X13510452Y-20183976D01*
X13596167Y-20383976D02*
X13596167Y-20279214D01*
X13586643Y-20260167D01*
X13567595Y-20250643D01*
X13539024Y-20250643D01*
X13519976Y-20260167D01*
X13510452Y-20269690D01*
X13719976Y-20383976D02*
X13700928Y-20374452D01*
X13691405Y-20364929D01*
X13681881Y-20345881D01*
X13681881Y-20288738D01*
X13691405Y-20269690D01*
X13700928Y-20260167D01*
X13719976Y-20250643D01*
X13748548Y-20250643D01*
X13767595Y-20260167D01*
X13777119Y-20269690D01*
X13786643Y-20288738D01*
X13786643Y-20345881D01*
X13777119Y-20364929D01*
X13767595Y-20374452D01*
X13748548Y-20383976D01*
X13719976Y-20383976D01*
X13900928Y-20383976D02*
X13881881Y-20374452D01*
X13872357Y-20355405D01*
X13872357Y-20183976D01*
X14053309Y-20374452D02*
X14034262Y-20383976D01*
X13996167Y-20383976D01*
X13977119Y-20374452D01*
X13967595Y-20355405D01*
X13967595Y-20279214D01*
X13977119Y-20260167D01*
X13996167Y-20250643D01*
X14034262Y-20250643D01*
X14053309Y-20260167D01*
X14062833Y-20279214D01*
X14062833Y-20298262D01*
X13967595Y-20317310D01*
X14129500Y-20460167D02*
X14139024Y-20450643D01*
X14158071Y-20422071D01*
X14167595Y-20403024D01*
X14177119Y-20374452D01*
X14186643Y-20326833D01*
X14186643Y-20288738D01*
X14177119Y-20241119D01*
X14167595Y-20212548D01*
X14158071Y-20193500D01*
X14139024Y-20164929D01*
X14129500Y-20155405D01*
D13*
X9519500Y-20557500D02*
G75*
G03*
X9519500Y-20557500I-50000J0D01*
G01*
D11*
X9881881Y-20647976D02*
X9767595Y-20647976D01*
X9824738Y-20647976D02*
X9824738Y-20447976D01*
X9805690Y-20476548D01*
X9786643Y-20495595D01*
X9767595Y-20505119D01*
X9967595Y-20628929D02*
X9977119Y-20638452D01*
X9967595Y-20647976D01*
X9958071Y-20638452D01*
X9967595Y-20628929D01*
X9967595Y-20647976D01*
X10100929Y-20447976D02*
X10119976Y-20447976D01*
X10139024Y-20457500D01*
X10148548Y-20467024D01*
X10158071Y-20486071D01*
X10167595Y-20524167D01*
X10167595Y-20571786D01*
X10158071Y-20609881D01*
X10148548Y-20628929D01*
X10139024Y-20638452D01*
X10119976Y-20647976D01*
X10100929Y-20647976D01*
X10081881Y-20638452D01*
X10072357Y-20628929D01*
X10062833Y-20609881D01*
X10053310Y-20571786D01*
X10053310Y-20524167D01*
X10062833Y-20486071D01*
X10072357Y-20467024D01*
X10081881Y-20457500D01*
X10100929Y-20447976D01*
X10291405Y-20447976D02*
X10310452Y-20447976D01*
X10329500Y-20457500D01*
X10339024Y-20467024D01*
X10348548Y-20486071D01*
X10358071Y-20524167D01*
X10358071Y-20571786D01*
X10348548Y-20609881D01*
X10339024Y-20628929D01*
X10329500Y-20638452D01*
X10310452Y-20647976D01*
X10291405Y-20647976D01*
X10272357Y-20638452D01*
X10262833Y-20628929D01*
X10253310Y-20609881D01*
X10243786Y-20571786D01*
X10243786Y-20524167D01*
X10253310Y-20486071D01*
X10262833Y-20467024D01*
X10272357Y-20457500D01*
X10291405Y-20447976D01*
X10481881Y-20447976D02*
X10500929Y-20447976D01*
X10519976Y-20457500D01*
X10529500Y-20467024D01*
X10539024Y-20486071D01*
X10548548Y-20524167D01*
X10548548Y-20571786D01*
X10539024Y-20609881D01*
X10529500Y-20628929D01*
X10519976Y-20638452D01*
X10500929Y-20647976D01*
X10481881Y-20647976D01*
X10462833Y-20638452D01*
X10453310Y-20628929D01*
X10443786Y-20609881D01*
X10434262Y-20571786D01*
X10434262Y-20524167D01*
X10443786Y-20486071D01*
X10453310Y-20467024D01*
X10462833Y-20457500D01*
X10481881Y-20447976D01*
X10634262Y-20647976D02*
X10634262Y-20514643D01*
X10634262Y-20533690D02*
X10643786Y-20524167D01*
X10662833Y-20514643D01*
X10691405Y-20514643D01*
X10710452Y-20524167D01*
X10719976Y-20543214D01*
X10719976Y-20647976D01*
X10719976Y-20543214D02*
X10729500Y-20524167D01*
X10748548Y-20514643D01*
X10777119Y-20514643D01*
X10796167Y-20524167D01*
X10805690Y-20543214D01*
X10805690Y-20647976D01*
X10900929Y-20647976D02*
X10900929Y-20514643D01*
X10900929Y-20533690D02*
X10910452Y-20524167D01*
X10929500Y-20514643D01*
X10958071Y-20514643D01*
X10977119Y-20524167D01*
X10986643Y-20543214D01*
X10986643Y-20647976D01*
X10986643Y-20543214D02*
X10996167Y-20524167D01*
X11015214Y-20514643D01*
X11043786Y-20514643D01*
X11062833Y-20524167D01*
X11072357Y-20543214D01*
X11072357Y-20647976D01*
X11462833Y-20438452D02*
X11291405Y-20695595D01*
X11719976Y-20447976D02*
X11739024Y-20447976D01*
X11758071Y-20457500D01*
X11767595Y-20467024D01*
X11777119Y-20486071D01*
X11786643Y-20524167D01*
X11786643Y-20571786D01*
X11777119Y-20609881D01*
X11767595Y-20628929D01*
X11758071Y-20638452D01*
X11739024Y-20647976D01*
X11719976Y-20647976D01*
X11700928Y-20638452D01*
X11691405Y-20628929D01*
X11681881Y-20609881D01*
X11672357Y-20571786D01*
X11672357Y-20524167D01*
X11681881Y-20486071D01*
X11691405Y-20467024D01*
X11700928Y-20457500D01*
X11719976Y-20447976D01*
X11872357Y-20628929D02*
X11881881Y-20638452D01*
X11872357Y-20647976D01*
X11862833Y-20638452D01*
X11872357Y-20628929D01*
X11872357Y-20647976D01*
X12005690Y-20447976D02*
X12024738Y-20447976D01*
X12043786Y-20457500D01*
X12053309Y-20467024D01*
X12062833Y-20486071D01*
X12072357Y-20524167D01*
X12072357Y-20571786D01*
X12062833Y-20609881D01*
X12053309Y-20628929D01*
X12043786Y-20638452D01*
X12024738Y-20647976D01*
X12005690Y-20647976D01*
X11986643Y-20638452D01*
X11977119Y-20628929D01*
X11967595Y-20609881D01*
X11958071Y-20571786D01*
X11958071Y-20524167D01*
X11967595Y-20486071D01*
X11977119Y-20467024D01*
X11986643Y-20457500D01*
X12005690Y-20447976D01*
X12139024Y-20447976D02*
X12262833Y-20447976D01*
X12196167Y-20524167D01*
X12224738Y-20524167D01*
X12243786Y-20533690D01*
X12253309Y-20543214D01*
X12262833Y-20562262D01*
X12262833Y-20609881D01*
X12253309Y-20628929D01*
X12243786Y-20638452D01*
X12224738Y-20647976D01*
X12167595Y-20647976D01*
X12148548Y-20638452D01*
X12139024Y-20628929D01*
X12358071Y-20647976D02*
X12396167Y-20647976D01*
X12415214Y-20638452D01*
X12424738Y-20628929D01*
X12443786Y-20600357D01*
X12453309Y-20562262D01*
X12453309Y-20486071D01*
X12443786Y-20467024D01*
X12434262Y-20457500D01*
X12415214Y-20447976D01*
X12377119Y-20447976D01*
X12358071Y-20457500D01*
X12348548Y-20467024D01*
X12339024Y-20486071D01*
X12339024Y-20533690D01*
X12348548Y-20552738D01*
X12358071Y-20562262D01*
X12377119Y-20571786D01*
X12415214Y-20571786D01*
X12434262Y-20562262D01*
X12443786Y-20552738D01*
X12453309Y-20533690D01*
X12624738Y-20514643D02*
X12624738Y-20647976D01*
X12577119Y-20438452D02*
X12529500Y-20581310D01*
X12653309Y-20581310D01*
X12719976Y-20447976D02*
X12719976Y-20486071D01*
X12796167Y-20447976D02*
X12796167Y-20486071D01*
X13091405Y-20724167D02*
X13081881Y-20714643D01*
X13062833Y-20686071D01*
X13053309Y-20667024D01*
X13043786Y-20638452D01*
X13034262Y-20590833D01*
X13034262Y-20552738D01*
X13043786Y-20505119D01*
X13053309Y-20476548D01*
X13062833Y-20457500D01*
X13081881Y-20428929D01*
X13091405Y-20419405D01*
X13272357Y-20647976D02*
X13158071Y-20647976D01*
X13215214Y-20647976D02*
X13215214Y-20447976D01*
X13196167Y-20476548D01*
X13177119Y-20495595D01*
X13158071Y-20505119D01*
X13453309Y-20447976D02*
X13358071Y-20447976D01*
X13348548Y-20543214D01*
X13358071Y-20533690D01*
X13377119Y-20524167D01*
X13424738Y-20524167D01*
X13443786Y-20533690D01*
X13453309Y-20543214D01*
X13462833Y-20562262D01*
X13462833Y-20609881D01*
X13453309Y-20628929D01*
X13443786Y-20638452D01*
X13424738Y-20647976D01*
X13377119Y-20647976D01*
X13358071Y-20638452D01*
X13348548Y-20628929D01*
X13700928Y-20647976D02*
X13700928Y-20447976D01*
X13786643Y-20647976D02*
X13786643Y-20543214D01*
X13777119Y-20524167D01*
X13758071Y-20514643D01*
X13729500Y-20514643D01*
X13710452Y-20524167D01*
X13700928Y-20533690D01*
X13910452Y-20647976D02*
X13891405Y-20638452D01*
X13881881Y-20628929D01*
X13872357Y-20609881D01*
X13872357Y-20552738D01*
X13881881Y-20533690D01*
X13891405Y-20524167D01*
X13910452Y-20514643D01*
X13939024Y-20514643D01*
X13958071Y-20524167D01*
X13967595Y-20533690D01*
X13977119Y-20552738D01*
X13977119Y-20609881D01*
X13967595Y-20628929D01*
X13958071Y-20638452D01*
X13939024Y-20647976D01*
X13910452Y-20647976D01*
X14091405Y-20647976D02*
X14072357Y-20638452D01*
X14062833Y-20619405D01*
X14062833Y-20447976D01*
X14243786Y-20638452D02*
X14224738Y-20647976D01*
X14186643Y-20647976D01*
X14167595Y-20638452D01*
X14158071Y-20619405D01*
X14158071Y-20543214D01*
X14167595Y-20524167D01*
X14186643Y-20514643D01*
X14224738Y-20514643D01*
X14243786Y-20524167D01*
X14253309Y-20543214D01*
X14253309Y-20562262D01*
X14158071Y-20581310D01*
X14329500Y-20638452D02*
X14348548Y-20647976D01*
X14386643Y-20647976D01*
X14405690Y-20638452D01*
X14415214Y-20619405D01*
X14415214Y-20609881D01*
X14405690Y-20590833D01*
X14386643Y-20581310D01*
X14358071Y-20581310D01*
X14339024Y-20571786D01*
X14329500Y-20552738D01*
X14329500Y-20543214D01*
X14339024Y-20524167D01*
X14358071Y-20514643D01*
X14386643Y-20514643D01*
X14405690Y-20524167D01*
X14481881Y-20724167D02*
X14491405Y-20714643D01*
X14510452Y-20686071D01*
X14519976Y-20667024D01*
X14529500Y-20638452D01*
X14539024Y-20590833D01*
X14539024Y-20552738D01*
X14529500Y-20505119D01*
X14519976Y-20476548D01*
X14510452Y-20457500D01*
X14491405Y-20428929D01*
X14481881Y-20419405D01*
D14*
X9444500Y-20746500D02*
X9444500Y-20896500D01*
X9369500Y-20821500D02*
X9519500Y-20821500D01*
D11*
X9881881Y-20911976D02*
X9767595Y-20911976D01*
X9824738Y-20911976D02*
X9824738Y-20711976D01*
X9805690Y-20740548D01*
X9786643Y-20759595D01*
X9767595Y-20769119D01*
X9967595Y-20892929D02*
X9977119Y-20902452D01*
X9967595Y-20911976D01*
X9958071Y-20902452D01*
X9967595Y-20892929D01*
X9967595Y-20911976D01*
X10158071Y-20711976D02*
X10062833Y-20711976D01*
X10053310Y-20807214D01*
X10062833Y-20797690D01*
X10081881Y-20788167D01*
X10129500Y-20788167D01*
X10148548Y-20797690D01*
X10158071Y-20807214D01*
X10167595Y-20826262D01*
X10167595Y-20873881D01*
X10158071Y-20892929D01*
X10148548Y-20902452D01*
X10129500Y-20911976D01*
X10081881Y-20911976D01*
X10062833Y-20902452D01*
X10053310Y-20892929D01*
X10291405Y-20711976D02*
X10310452Y-20711976D01*
X10329500Y-20721500D01*
X10339024Y-20731024D01*
X10348548Y-20750071D01*
X10358071Y-20788167D01*
X10358071Y-20835786D01*
X10348548Y-20873881D01*
X10339024Y-20892929D01*
X10329500Y-20902452D01*
X10310452Y-20911976D01*
X10291405Y-20911976D01*
X10272357Y-20902452D01*
X10262833Y-20892929D01*
X10253310Y-20873881D01*
X10243786Y-20835786D01*
X10243786Y-20788167D01*
X10253310Y-20750071D01*
X10262833Y-20731024D01*
X10272357Y-20721500D01*
X10291405Y-20711976D01*
X10481881Y-20711976D02*
X10500929Y-20711976D01*
X10519976Y-20721500D01*
X10529500Y-20731024D01*
X10539024Y-20750071D01*
X10548548Y-20788167D01*
X10548548Y-20835786D01*
X10539024Y-20873881D01*
X10529500Y-20892929D01*
X10519976Y-20902452D01*
X10500929Y-20911976D01*
X10481881Y-20911976D01*
X10462833Y-20902452D01*
X10453310Y-20892929D01*
X10443786Y-20873881D01*
X10434262Y-20835786D01*
X10434262Y-20788167D01*
X10443786Y-20750071D01*
X10453310Y-20731024D01*
X10462833Y-20721500D01*
X10481881Y-20711976D01*
X10634262Y-20911976D02*
X10634262Y-20778643D01*
X10634262Y-20797690D02*
X10643786Y-20788167D01*
X10662833Y-20778643D01*
X10691405Y-20778643D01*
X10710452Y-20788167D01*
X10719976Y-20807214D01*
X10719976Y-20911976D01*
X10719976Y-20807214D02*
X10729500Y-20788167D01*
X10748548Y-20778643D01*
X10777119Y-20778643D01*
X10796167Y-20788167D01*
X10805690Y-20807214D01*
X10805690Y-20911976D01*
X10900929Y-20911976D02*
X10900929Y-20778643D01*
X10900929Y-20797690D02*
X10910452Y-20788167D01*
X10929500Y-20778643D01*
X10958071Y-20778643D01*
X10977119Y-20788167D01*
X10986643Y-20807214D01*
X10986643Y-20911976D01*
X10986643Y-20807214D02*
X10996167Y-20788167D01*
X11015214Y-20778643D01*
X11043786Y-20778643D01*
X11062833Y-20788167D01*
X11072357Y-20807214D01*
X11072357Y-20911976D01*
X11462833Y-20702452D02*
X11291405Y-20959595D01*
X11719976Y-20711976D02*
X11739024Y-20711976D01*
X11758071Y-20721500D01*
X11767595Y-20731024D01*
X11777119Y-20750071D01*
X11786643Y-20788167D01*
X11786643Y-20835786D01*
X11777119Y-20873881D01*
X11767595Y-20892929D01*
X11758071Y-20902452D01*
X11739024Y-20911976D01*
X11719976Y-20911976D01*
X11700928Y-20902452D01*
X11691405Y-20892929D01*
X11681881Y-20873881D01*
X11672357Y-20835786D01*
X11672357Y-20788167D01*
X11681881Y-20750071D01*
X11691405Y-20731024D01*
X11700928Y-20721500D01*
X11719976Y-20711976D01*
X11872357Y-20892929D02*
X11881881Y-20902452D01*
X11872357Y-20911976D01*
X11862833Y-20902452D01*
X11872357Y-20892929D01*
X11872357Y-20911976D01*
X12005690Y-20711976D02*
X12024738Y-20711976D01*
X12043786Y-20721500D01*
X12053309Y-20731024D01*
X12062833Y-20750071D01*
X12072357Y-20788167D01*
X12072357Y-20835786D01*
X12062833Y-20873881D01*
X12053309Y-20892929D01*
X12043786Y-20902452D01*
X12024738Y-20911976D01*
X12005690Y-20911976D01*
X11986643Y-20902452D01*
X11977119Y-20892929D01*
X11967595Y-20873881D01*
X11958071Y-20835786D01*
X11958071Y-20788167D01*
X11967595Y-20750071D01*
X11977119Y-20731024D01*
X11986643Y-20721500D01*
X12005690Y-20711976D01*
X12253309Y-20711976D02*
X12158071Y-20711976D01*
X12148548Y-20807214D01*
X12158071Y-20797690D01*
X12177119Y-20788167D01*
X12224738Y-20788167D01*
X12243786Y-20797690D01*
X12253309Y-20807214D01*
X12262833Y-20826262D01*
X12262833Y-20873881D01*
X12253309Y-20892929D01*
X12243786Y-20902452D01*
X12224738Y-20911976D01*
X12177119Y-20911976D01*
X12158071Y-20902452D01*
X12148548Y-20892929D01*
X12358071Y-20911976D02*
X12396167Y-20911976D01*
X12415214Y-20902452D01*
X12424738Y-20892929D01*
X12443786Y-20864357D01*
X12453309Y-20826262D01*
X12453309Y-20750071D01*
X12443786Y-20731024D01*
X12434262Y-20721500D01*
X12415214Y-20711976D01*
X12377119Y-20711976D01*
X12358071Y-20721500D01*
X12348548Y-20731024D01*
X12339024Y-20750071D01*
X12339024Y-20797690D01*
X12348548Y-20816738D01*
X12358071Y-20826262D01*
X12377119Y-20835786D01*
X12415214Y-20835786D01*
X12434262Y-20826262D01*
X12443786Y-20816738D01*
X12453309Y-20797690D01*
X12643786Y-20911976D02*
X12529500Y-20911976D01*
X12586643Y-20911976D02*
X12586643Y-20711976D01*
X12567595Y-20740548D01*
X12548548Y-20759595D01*
X12529500Y-20769119D01*
X12719976Y-20711976D02*
X12719976Y-20750071D01*
X12796167Y-20711976D02*
X12796167Y-20750071D01*
X13091405Y-20988167D02*
X13081881Y-20978643D01*
X13062833Y-20950071D01*
X13053309Y-20931024D01*
X13043786Y-20902452D01*
X13034262Y-20854833D01*
X13034262Y-20816738D01*
X13043786Y-20769119D01*
X13053309Y-20740548D01*
X13062833Y-20721500D01*
X13081881Y-20692929D01*
X13091405Y-20683405D01*
X13196167Y-20797690D02*
X13177119Y-20788167D01*
X13167595Y-20778643D01*
X13158071Y-20759595D01*
X13158071Y-20750071D01*
X13167595Y-20731024D01*
X13177119Y-20721500D01*
X13196167Y-20711976D01*
X13234262Y-20711976D01*
X13253309Y-20721500D01*
X13262833Y-20731024D01*
X13272357Y-20750071D01*
X13272357Y-20759595D01*
X13262833Y-20778643D01*
X13253309Y-20788167D01*
X13234262Y-20797690D01*
X13196167Y-20797690D01*
X13177119Y-20807214D01*
X13167595Y-20816738D01*
X13158071Y-20835786D01*
X13158071Y-20873881D01*
X13167595Y-20892929D01*
X13177119Y-20902452D01*
X13196167Y-20911976D01*
X13234262Y-20911976D01*
X13253309Y-20902452D01*
X13262833Y-20892929D01*
X13272357Y-20873881D01*
X13272357Y-20835786D01*
X13262833Y-20816738D01*
X13253309Y-20807214D01*
X13234262Y-20797690D01*
X13386643Y-20797690D02*
X13367595Y-20788167D01*
X13358071Y-20778643D01*
X13348548Y-20759595D01*
X13348548Y-20750071D01*
X13358071Y-20731024D01*
X13367595Y-20721500D01*
X13386643Y-20711976D01*
X13424738Y-20711976D01*
X13443786Y-20721500D01*
X13453309Y-20731024D01*
X13462833Y-20750071D01*
X13462833Y-20759595D01*
X13453309Y-20778643D01*
X13443786Y-20788167D01*
X13424738Y-20797690D01*
X13386643Y-20797690D01*
X13367595Y-20807214D01*
X13358071Y-20816738D01*
X13348548Y-20835786D01*
X13348548Y-20873881D01*
X13358071Y-20892929D01*
X13367595Y-20902452D01*
X13386643Y-20911976D01*
X13424738Y-20911976D01*
X13443786Y-20902452D01*
X13453309Y-20892929D01*
X13462833Y-20873881D01*
X13462833Y-20835786D01*
X13453309Y-20816738D01*
X13443786Y-20807214D01*
X13424738Y-20797690D01*
X13700928Y-20911976D02*
X13700928Y-20711976D01*
X13786643Y-20911976D02*
X13786643Y-20807214D01*
X13777119Y-20788167D01*
X13758071Y-20778643D01*
X13729500Y-20778643D01*
X13710452Y-20788167D01*
X13700928Y-20797690D01*
X13910452Y-20911976D02*
X13891405Y-20902452D01*
X13881881Y-20892929D01*
X13872357Y-20873881D01*
X13872357Y-20816738D01*
X13881881Y-20797690D01*
X13891405Y-20788167D01*
X13910452Y-20778643D01*
X13939024Y-20778643D01*
X13958071Y-20788167D01*
X13967595Y-20797690D01*
X13977119Y-20816738D01*
X13977119Y-20873881D01*
X13967595Y-20892929D01*
X13958071Y-20902452D01*
X13939024Y-20911976D01*
X13910452Y-20911976D01*
X14091405Y-20911976D02*
X14072357Y-20902452D01*
X14062833Y-20883405D01*
X14062833Y-20711976D01*
X14243786Y-20902452D02*
X14224738Y-20911976D01*
X14186643Y-20911976D01*
X14167595Y-20902452D01*
X14158071Y-20883405D01*
X14158071Y-20807214D01*
X14167595Y-20788167D01*
X14186643Y-20778643D01*
X14224738Y-20778643D01*
X14243786Y-20788167D01*
X14253309Y-20807214D01*
X14253309Y-20826262D01*
X14158071Y-20845310D01*
X14329500Y-20902452D02*
X14348548Y-20911976D01*
X14386643Y-20911976D01*
X14405690Y-20902452D01*
X14415214Y-20883405D01*
X14415214Y-20873881D01*
X14405690Y-20854833D01*
X14386643Y-20845310D01*
X14358071Y-20845310D01*
X14339024Y-20835786D01*
X14329500Y-20816738D01*
X14329500Y-20807214D01*
X14339024Y-20788167D01*
X14358071Y-20778643D01*
X14386643Y-20778643D01*
X14405690Y-20788167D01*
X14481881Y-20988167D02*
X14491405Y-20978643D01*
X14510452Y-20950071D01*
X14519976Y-20931024D01*
X14529500Y-20902452D01*
X14539024Y-20854833D01*
X14539024Y-20816738D01*
X14529500Y-20769119D01*
X14519976Y-20740548D01*
X14510452Y-20721500D01*
X14491405Y-20692929D01*
X14481881Y-20683405D01*
M02*
