%FSLAX45Y45*%
G04 Gerber Fmt 4.5, Leading zero omitted, Abs format (unit mm)*
G04 Created by KiCad (PCBNEW (6.0.2-0)) date 2022-03-14 11:49:52*
%MOMM*%
%LPD*%
G01*
G04 APERTURE LIST*
%TA.AperFunction,Profile*%
%ADD10C,0.050000*%
%TD*%
%ADD11C,0.200000*%
%ADD12C,0.040000*%
%ADD13C,0.100000*%
%ADD14C,0.150000*%
G04 APERTURE END LIST*
D10*
X9522000Y-11089000D02*
X32830000Y-11089000D01*
X32830000Y-11089000D02*
X32830000Y-19397000D01*
X32830000Y-19397000D02*
X9522000Y-19397000D01*
X9522000Y-19397000D02*
X9522000Y-11089000D01*
D11*
D12*
X12658500Y-16765500D02*
X12698500Y-16805500D01*
X12698500Y-16765500D02*
X12658500Y-16805500D01*
D13*
X10403000Y-11310000D02*
G75*
G03*
X10403000Y-11310000I-50000J0D01*
G01*
X10657000Y-11310000D02*
G75*
G03*
X10657000Y-11310000I-50000J0D01*
G01*
X10911000Y-11310000D02*
G75*
G03*
X10911000Y-11310000I-50000J0D01*
G01*
X11165000Y-11310000D02*
G75*
G03*
X11165000Y-11310000I-50000J0D01*
G01*
X11981000Y-11314000D02*
G75*
G03*
X11981000Y-11314000I-50000J0D01*
G01*
X12235000Y-11314000D02*
G75*
G03*
X12235000Y-11314000I-50000J0D01*
G01*
X12489000Y-11314000D02*
G75*
G03*
X12489000Y-11314000I-50000J0D01*
G01*
X12743000Y-11314000D02*
G75*
G03*
X12743000Y-11314000I-50000J0D01*
G01*
X12997000Y-11314000D02*
G75*
G03*
X12997000Y-11314000I-50000J0D01*
G01*
X13251000Y-11314000D02*
G75*
G03*
X13251000Y-11314000I-50000J0D01*
G01*
X13505000Y-11314000D02*
G75*
G03*
X13505000Y-11314000I-50000J0D01*
G01*
X13759000Y-11314000D02*
G75*
G03*
X13759000Y-11314000I-50000J0D01*
G01*
X14013000Y-11314000D02*
G75*
G03*
X14013000Y-11314000I-50000J0D01*
G01*
X14267000Y-11314000D02*
G75*
G03*
X14267000Y-11314000I-50000J0D01*
G01*
X14521000Y-11314000D02*
G75*
G03*
X14521000Y-11314000I-50000J0D01*
G01*
D14*
X10350500Y-12163000D02*
X10350500Y-12313000D01*
X10275500Y-12238000D02*
X10425500Y-12238000D01*
X10350500Y-17878000D02*
X10350500Y-18028000D01*
X10275500Y-17953000D02*
X10425500Y-17953000D01*
X10826750Y-14068000D02*
X10826750Y-14218000D01*
X10751750Y-14143000D02*
X10901750Y-14143000D01*
X10985500Y-11909000D02*
X10985500Y-12059000D01*
X10910500Y-11984000D02*
X11060500Y-11984000D01*
X10985500Y-17624000D02*
X10985500Y-17774000D01*
X10910500Y-17699000D02*
X11060500Y-17699000D01*
X11303000Y-15973000D02*
X11303000Y-16123000D01*
X11228000Y-16048000D02*
X11378000Y-16048000D01*
X11461750Y-13814000D02*
X11461750Y-13964000D01*
X11386750Y-13889000D02*
X11536750Y-13889000D01*
X11938000Y-15719000D02*
X11938000Y-15869000D01*
X11863000Y-15794000D02*
X12013000Y-15794000D01*
X12255500Y-12163000D02*
X12255500Y-12313000D01*
X12180500Y-12238000D02*
X12330500Y-12238000D01*
X12255500Y-17878000D02*
X12255500Y-18028000D01*
X12180500Y-17953000D02*
X12330500Y-17953000D01*
X12890500Y-11909000D02*
X12890500Y-12059000D01*
X12815500Y-11984000D02*
X12965500Y-11984000D01*
X12890500Y-17624000D02*
X12890500Y-17774000D01*
X12815500Y-17699000D02*
X12965500Y-17699000D01*
X13208000Y-14068000D02*
X13208000Y-14218000D01*
X13133000Y-14143000D02*
X13283000Y-14143000D01*
X13843000Y-13814000D02*
X13843000Y-13964000D01*
X13768000Y-13889000D02*
X13918000Y-13889000D01*
X14160500Y-12163000D02*
X14160500Y-12313000D01*
X14085500Y-12238000D02*
X14235500Y-12238000D01*
X14160500Y-15973000D02*
X14160500Y-16123000D01*
X14085500Y-16048000D02*
X14235500Y-16048000D01*
X14160500Y-17878000D02*
X14160500Y-18028000D01*
X14085500Y-17953000D02*
X14235500Y-17953000D01*
X14795500Y-11909000D02*
X14795500Y-12059000D01*
X14720500Y-11984000D02*
X14870500Y-11984000D01*
X14795500Y-15719000D02*
X14795500Y-15869000D01*
X14720500Y-15794000D02*
X14870500Y-15794000D01*
X14795500Y-17624000D02*
X14795500Y-17774000D01*
X14720500Y-17699000D02*
X14870500Y-17699000D01*
X15113000Y-14068000D02*
X15113000Y-14218000D01*
X15038000Y-14143000D02*
X15188000Y-14143000D01*
X15748000Y-13814000D02*
X15748000Y-13964000D01*
X15673000Y-13889000D02*
X15823000Y-13889000D01*
X16065500Y-12163000D02*
X16065500Y-12313000D01*
X15990500Y-12238000D02*
X16140500Y-12238000D01*
X16065500Y-15973000D02*
X16065500Y-16123000D01*
X15990500Y-16048000D02*
X16140500Y-16048000D01*
X16700500Y-11909000D02*
X16700500Y-12059000D01*
X16625500Y-11984000D02*
X16775500Y-11984000D01*
X16700500Y-15719000D02*
X16700500Y-15869000D01*
X16625500Y-15794000D02*
X16775500Y-15794000D01*
X17018000Y-14068000D02*
X17018000Y-14218000D01*
X16943000Y-14143000D02*
X17093000Y-14143000D01*
X17018000Y-17878000D02*
X17018000Y-18028000D01*
X16943000Y-17953000D02*
X17093000Y-17953000D01*
X17653000Y-13814000D02*
X17653000Y-13964000D01*
X17578000Y-13889000D02*
X17728000Y-13889000D01*
X17653000Y-17624000D02*
X17653000Y-17774000D01*
X17578000Y-17699000D02*
X17728000Y-17699000D01*
X17970500Y-12163000D02*
X17970500Y-12313000D01*
X17895500Y-12238000D02*
X18045500Y-12238000D01*
X17970500Y-15973000D02*
X17970500Y-16123000D01*
X17895500Y-16048000D02*
X18045500Y-16048000D01*
X18605500Y-11909000D02*
X18605500Y-12059000D01*
X18530500Y-11984000D02*
X18680500Y-11984000D01*
X18605500Y-15719000D02*
X18605500Y-15869000D01*
X18530500Y-15794000D02*
X18680500Y-15794000D01*
X18923000Y-14068000D02*
X18923000Y-14218000D01*
X18848000Y-14143000D02*
X18998000Y-14143000D01*
X19558000Y-13814000D02*
X19558000Y-13964000D01*
X19483000Y-13889000D02*
X19633000Y-13889000D01*
X19875500Y-12163000D02*
X19875500Y-12313000D01*
X19800500Y-12238000D02*
X19950500Y-12238000D01*
X19875500Y-15973000D02*
X19875500Y-16123000D01*
X19800500Y-16048000D02*
X19950500Y-16048000D01*
X19875500Y-17878000D02*
X19875500Y-18028000D01*
X19800500Y-17953000D02*
X19950500Y-17953000D01*
X20510500Y-11909000D02*
X20510500Y-12059000D01*
X20435500Y-11984000D02*
X20585500Y-11984000D01*
X20510500Y-15719000D02*
X20510500Y-15869000D01*
X20435500Y-15794000D02*
X20585500Y-15794000D01*
X20510500Y-17624000D02*
X20510500Y-17774000D01*
X20435500Y-17699000D02*
X20585500Y-17699000D01*
X20828000Y-14068000D02*
X20828000Y-14218000D01*
X20753000Y-14143000D02*
X20903000Y-14143000D01*
X21463000Y-13814000D02*
X21463000Y-13964000D01*
X21388000Y-13889000D02*
X21538000Y-13889000D01*
X21780500Y-12163000D02*
X21780500Y-12313000D01*
X21705500Y-12238000D02*
X21855500Y-12238000D01*
X21780500Y-15973000D02*
X21780500Y-16123000D01*
X21705500Y-16048000D02*
X21855500Y-16048000D01*
X22415500Y-11909000D02*
X22415500Y-12059000D01*
X22340500Y-11984000D02*
X22490500Y-11984000D01*
X22415500Y-15719000D02*
X22415500Y-15869000D01*
X22340500Y-15794000D02*
X22490500Y-15794000D01*
X22733000Y-14068000D02*
X22733000Y-14218000D01*
X22658000Y-14143000D02*
X22808000Y-14143000D01*
X22733000Y-17878000D02*
X22733000Y-18028000D01*
X22658000Y-17953000D02*
X22808000Y-17953000D01*
X23368000Y-13814000D02*
X23368000Y-13964000D01*
X23293000Y-13889000D02*
X23443000Y-13889000D01*
X23368000Y-17624000D02*
X23368000Y-17774000D01*
X23293000Y-17699000D02*
X23443000Y-17699000D01*
X23685500Y-12163000D02*
X23685500Y-12313000D01*
X23610500Y-12238000D02*
X23760500Y-12238000D01*
X23685500Y-15973000D02*
X23685500Y-16123000D01*
X23610500Y-16048000D02*
X23760500Y-16048000D01*
X24320500Y-11909000D02*
X24320500Y-12059000D01*
X24245500Y-11984000D02*
X24395500Y-11984000D01*
X24320500Y-15719000D02*
X24320500Y-15869000D01*
X24245500Y-15794000D02*
X24395500Y-15794000D01*
X24638000Y-14068000D02*
X24638000Y-14218000D01*
X24563000Y-14143000D02*
X24713000Y-14143000D01*
X25273000Y-13814000D02*
X25273000Y-13964000D01*
X25198000Y-13889000D02*
X25348000Y-13889000D01*
X25590500Y-12163000D02*
X25590500Y-12313000D01*
X25515500Y-12238000D02*
X25665500Y-12238000D01*
X25590500Y-15973000D02*
X25590500Y-16123000D01*
X25515500Y-16048000D02*
X25665500Y-16048000D01*
X25590500Y-17878000D02*
X25590500Y-18028000D01*
X25515500Y-17953000D02*
X25665500Y-17953000D01*
X26225500Y-11909000D02*
X26225500Y-12059000D01*
X26150500Y-11984000D02*
X26300500Y-11984000D01*
X26225500Y-15719000D02*
X26225500Y-15869000D01*
X26150500Y-15794000D02*
X26300500Y-15794000D01*
X26225500Y-17624000D02*
X26225500Y-17774000D01*
X26150500Y-17699000D02*
X26300500Y-17699000D01*
X26543000Y-14068000D02*
X26543000Y-14218000D01*
X26468000Y-14143000D02*
X26618000Y-14143000D01*
X27178000Y-13814000D02*
X27178000Y-13964000D01*
X27103000Y-13889000D02*
X27253000Y-13889000D01*
X27495500Y-12163000D02*
X27495500Y-12313000D01*
X27420500Y-12238000D02*
X27570500Y-12238000D01*
X27495500Y-15973000D02*
X27495500Y-16123000D01*
X27420500Y-16048000D02*
X27570500Y-16048000D01*
X27495500Y-17878000D02*
X27495500Y-18028000D01*
X27420500Y-17953000D02*
X27570500Y-17953000D01*
X28130500Y-11909000D02*
X28130500Y-12059000D01*
X28055500Y-11984000D02*
X28205500Y-11984000D01*
X28130500Y-15719000D02*
X28130500Y-15869000D01*
X28055500Y-15794000D02*
X28205500Y-15794000D01*
X28130500Y-17624000D02*
X28130500Y-17774000D01*
X28055500Y-17699000D02*
X28205500Y-17699000D01*
X28448000Y-14068000D02*
X28448000Y-14218000D01*
X28373000Y-14143000D02*
X28523000Y-14143000D01*
X29083000Y-13814000D02*
X29083000Y-13964000D01*
X29008000Y-13889000D02*
X29158000Y-13889000D01*
X29400500Y-12163000D02*
X29400500Y-12313000D01*
X29325500Y-12238000D02*
X29475500Y-12238000D01*
X29400500Y-15973000D02*
X29400500Y-16123000D01*
X29325500Y-16048000D02*
X29475500Y-16048000D01*
X29400500Y-17878000D02*
X29400500Y-18028000D01*
X29325500Y-17953000D02*
X29475500Y-17953000D01*
X30035500Y-11909000D02*
X30035500Y-12059000D01*
X29960500Y-11984000D02*
X30110500Y-11984000D01*
X30035500Y-15719000D02*
X30035500Y-15869000D01*
X29960500Y-15794000D02*
X30110500Y-15794000D01*
X30035500Y-17624000D02*
X30035500Y-17774000D01*
X29960500Y-17699000D02*
X30110500Y-17699000D01*
X30829250Y-14068000D02*
X30829250Y-14218000D01*
X30754250Y-14143000D02*
X30904250Y-14143000D01*
X31305500Y-12163000D02*
X31305500Y-12313000D01*
X31230500Y-12238000D02*
X31380500Y-12238000D01*
X31305500Y-15973000D02*
X31305500Y-16123000D01*
X31230500Y-16048000D02*
X31380500Y-16048000D01*
X31305500Y-17878000D02*
X31305500Y-18028000D01*
X31230500Y-17953000D02*
X31380500Y-17953000D01*
X31464250Y-13814000D02*
X31464250Y-13964000D01*
X31389250Y-13889000D02*
X31539250Y-13889000D01*
X31940500Y-11909000D02*
X31940500Y-12059000D01*
X31865500Y-11984000D02*
X32015500Y-11984000D01*
X31940500Y-15719000D02*
X31940500Y-15869000D01*
X31865500Y-15794000D02*
X32015500Y-15794000D01*
X31940500Y-17624000D02*
X31940500Y-17774000D01*
X31865500Y-17699000D02*
X32015500Y-17699000D01*
D11*
X9777119Y-19709976D02*
X9777119Y-19509976D01*
X9824738Y-19509976D01*
X9853310Y-19519500D01*
X9872357Y-19538548D01*
X9881881Y-19557595D01*
X9891405Y-19595690D01*
X9891405Y-19624262D01*
X9881881Y-19662357D01*
X9872357Y-19681405D01*
X9853310Y-19700452D01*
X9824738Y-19709976D01*
X9777119Y-19709976D01*
X9977119Y-19709976D02*
X9977119Y-19576643D01*
X9977119Y-19614738D02*
X9986643Y-19595690D01*
X9996167Y-19586167D01*
X10015214Y-19576643D01*
X10034262Y-19576643D01*
X10100929Y-19709976D02*
X10100929Y-19576643D01*
X10100929Y-19509976D02*
X10091405Y-19519500D01*
X10100929Y-19529024D01*
X10110452Y-19519500D01*
X10100929Y-19509976D01*
X10100929Y-19529024D01*
X10224738Y-19709976D02*
X10205690Y-19700452D01*
X10196167Y-19681405D01*
X10196167Y-19509976D01*
X10329500Y-19709976D02*
X10310452Y-19700452D01*
X10300929Y-19681405D01*
X10300929Y-19509976D01*
X10558071Y-19709976D02*
X10558071Y-19509976D01*
X10624738Y-19652833D01*
X10691405Y-19509976D01*
X10691405Y-19709976D01*
X10872357Y-19709976D02*
X10872357Y-19605214D01*
X10862833Y-19586167D01*
X10843786Y-19576643D01*
X10805690Y-19576643D01*
X10786643Y-19586167D01*
X10872357Y-19700452D02*
X10853310Y-19709976D01*
X10805690Y-19709976D01*
X10786643Y-19700452D01*
X10777119Y-19681405D01*
X10777119Y-19662357D01*
X10786643Y-19643310D01*
X10805690Y-19633786D01*
X10853310Y-19633786D01*
X10872357Y-19624262D01*
X10967595Y-19576643D02*
X10967595Y-19776643D01*
X10967595Y-19586167D02*
X10986643Y-19576643D01*
X11024738Y-19576643D01*
X11043786Y-19586167D01*
X11053310Y-19595690D01*
X11062833Y-19614738D01*
X11062833Y-19671881D01*
X11053310Y-19690929D01*
X11043786Y-19700452D01*
X11024738Y-19709976D01*
X10986643Y-19709976D01*
X10967595Y-19700452D01*
X11148548Y-19690929D02*
X11158071Y-19700452D01*
X11148548Y-19709976D01*
X11139024Y-19700452D01*
X11148548Y-19690929D01*
X11148548Y-19709976D01*
X11148548Y-19586167D02*
X11158071Y-19595690D01*
X11148548Y-19605214D01*
X11139024Y-19595690D01*
X11148548Y-19586167D01*
X11148548Y-19605214D01*
D12*
X9479500Y-20019500D02*
X9519500Y-20059500D01*
X9519500Y-20019500D02*
X9479500Y-20059500D01*
D11*
X9815214Y-19929976D02*
X9834262Y-19929976D01*
X9853310Y-19939500D01*
X9862833Y-19949024D01*
X9872357Y-19968071D01*
X9881881Y-20006167D01*
X9881881Y-20053786D01*
X9872357Y-20091881D01*
X9862833Y-20110929D01*
X9853310Y-20120452D01*
X9834262Y-20129976D01*
X9815214Y-20129976D01*
X9796167Y-20120452D01*
X9786643Y-20110929D01*
X9777119Y-20091881D01*
X9767595Y-20053786D01*
X9767595Y-20006167D01*
X9777119Y-19968071D01*
X9786643Y-19949024D01*
X9796167Y-19939500D01*
X9815214Y-19929976D01*
X9967595Y-20110929D02*
X9977119Y-20120452D01*
X9967595Y-20129976D01*
X9958071Y-20120452D01*
X9967595Y-20110929D01*
X9967595Y-20129976D01*
X10148548Y-19996643D02*
X10148548Y-20129976D01*
X10100929Y-19920452D02*
X10053310Y-20063310D01*
X10177119Y-20063310D01*
X10291405Y-19929976D02*
X10310452Y-19929976D01*
X10329500Y-19939500D01*
X10339024Y-19949024D01*
X10348548Y-19968071D01*
X10358071Y-20006167D01*
X10358071Y-20053786D01*
X10348548Y-20091881D01*
X10339024Y-20110929D01*
X10329500Y-20120452D01*
X10310452Y-20129976D01*
X10291405Y-20129976D01*
X10272357Y-20120452D01*
X10262833Y-20110929D01*
X10253310Y-20091881D01*
X10243786Y-20053786D01*
X10243786Y-20006167D01*
X10253310Y-19968071D01*
X10262833Y-19949024D01*
X10272357Y-19939500D01*
X10291405Y-19929976D01*
X10481881Y-19929976D02*
X10500929Y-19929976D01*
X10519976Y-19939500D01*
X10529500Y-19949024D01*
X10539024Y-19968071D01*
X10548548Y-20006167D01*
X10548548Y-20053786D01*
X10539024Y-20091881D01*
X10529500Y-20110929D01*
X10519976Y-20120452D01*
X10500929Y-20129976D01*
X10481881Y-20129976D01*
X10462833Y-20120452D01*
X10453310Y-20110929D01*
X10443786Y-20091881D01*
X10434262Y-20053786D01*
X10434262Y-20006167D01*
X10443786Y-19968071D01*
X10453310Y-19949024D01*
X10462833Y-19939500D01*
X10481881Y-19929976D01*
X10634262Y-20129976D02*
X10634262Y-19996643D01*
X10634262Y-20015690D02*
X10643786Y-20006167D01*
X10662833Y-19996643D01*
X10691405Y-19996643D01*
X10710452Y-20006167D01*
X10719976Y-20025214D01*
X10719976Y-20129976D01*
X10719976Y-20025214D02*
X10729500Y-20006167D01*
X10748548Y-19996643D01*
X10777119Y-19996643D01*
X10796167Y-20006167D01*
X10805690Y-20025214D01*
X10805690Y-20129976D01*
X10900929Y-20129976D02*
X10900929Y-19996643D01*
X10900929Y-20015690D02*
X10910452Y-20006167D01*
X10929500Y-19996643D01*
X10958071Y-19996643D01*
X10977119Y-20006167D01*
X10986643Y-20025214D01*
X10986643Y-20129976D01*
X10986643Y-20025214D02*
X10996167Y-20006167D01*
X11015214Y-19996643D01*
X11043786Y-19996643D01*
X11062833Y-20006167D01*
X11072357Y-20025214D01*
X11072357Y-20129976D01*
X11462833Y-19920452D02*
X11291405Y-20177595D01*
X11719976Y-19929976D02*
X11739024Y-19929976D01*
X11758071Y-19939500D01*
X11767595Y-19949024D01*
X11777119Y-19968071D01*
X11786643Y-20006167D01*
X11786643Y-20053786D01*
X11777119Y-20091881D01*
X11767595Y-20110929D01*
X11758071Y-20120452D01*
X11739024Y-20129976D01*
X11719976Y-20129976D01*
X11700928Y-20120452D01*
X11691405Y-20110929D01*
X11681881Y-20091881D01*
X11672357Y-20053786D01*
X11672357Y-20006167D01*
X11681881Y-19968071D01*
X11691405Y-19949024D01*
X11700928Y-19939500D01*
X11719976Y-19929976D01*
X11872357Y-20110929D02*
X11881881Y-20120452D01*
X11872357Y-20129976D01*
X11862833Y-20120452D01*
X11872357Y-20110929D01*
X11872357Y-20129976D01*
X12005690Y-19929976D02*
X12024738Y-19929976D01*
X12043786Y-19939500D01*
X12053309Y-19949024D01*
X12062833Y-19968071D01*
X12072357Y-20006167D01*
X12072357Y-20053786D01*
X12062833Y-20091881D01*
X12053309Y-20110929D01*
X12043786Y-20120452D01*
X12024738Y-20129976D01*
X12005690Y-20129976D01*
X11986643Y-20120452D01*
X11977119Y-20110929D01*
X11967595Y-20091881D01*
X11958071Y-20053786D01*
X11958071Y-20006167D01*
X11967595Y-19968071D01*
X11977119Y-19949024D01*
X11986643Y-19939500D01*
X12005690Y-19929976D01*
X12262833Y-20129976D02*
X12148548Y-20129976D01*
X12205690Y-20129976D02*
X12205690Y-19929976D01*
X12186643Y-19958548D01*
X12167595Y-19977595D01*
X12148548Y-19987119D01*
X12443786Y-19929976D02*
X12348548Y-19929976D01*
X12339024Y-20025214D01*
X12348548Y-20015690D01*
X12367595Y-20006167D01*
X12415214Y-20006167D01*
X12434262Y-20015690D01*
X12443786Y-20025214D01*
X12453309Y-20044262D01*
X12453309Y-20091881D01*
X12443786Y-20110929D01*
X12434262Y-20120452D01*
X12415214Y-20129976D01*
X12367595Y-20129976D01*
X12348548Y-20120452D01*
X12339024Y-20110929D01*
X12519976Y-19929976D02*
X12653309Y-19929976D01*
X12567595Y-20129976D01*
X12719976Y-19929976D02*
X12719976Y-19968071D01*
X12796167Y-19929976D02*
X12796167Y-19968071D01*
X13091405Y-20206167D02*
X13081881Y-20196643D01*
X13062833Y-20168071D01*
X13053309Y-20149024D01*
X13043786Y-20120452D01*
X13034262Y-20072833D01*
X13034262Y-20034738D01*
X13043786Y-19987119D01*
X13053309Y-19958548D01*
X13062833Y-19939500D01*
X13081881Y-19910929D01*
X13091405Y-19901405D01*
X13272357Y-20129976D02*
X13158071Y-20129976D01*
X13215214Y-20129976D02*
X13215214Y-19929976D01*
X13196167Y-19958548D01*
X13177119Y-19977595D01*
X13158071Y-19987119D01*
X13510452Y-20129976D02*
X13510452Y-19929976D01*
X13596167Y-20129976D02*
X13596167Y-20025214D01*
X13586643Y-20006167D01*
X13567595Y-19996643D01*
X13539024Y-19996643D01*
X13519976Y-20006167D01*
X13510452Y-20015690D01*
X13719976Y-20129976D02*
X13700928Y-20120452D01*
X13691405Y-20110929D01*
X13681881Y-20091881D01*
X13681881Y-20034738D01*
X13691405Y-20015690D01*
X13700928Y-20006167D01*
X13719976Y-19996643D01*
X13748548Y-19996643D01*
X13767595Y-20006167D01*
X13777119Y-20015690D01*
X13786643Y-20034738D01*
X13786643Y-20091881D01*
X13777119Y-20110929D01*
X13767595Y-20120452D01*
X13748548Y-20129976D01*
X13719976Y-20129976D01*
X13900928Y-20129976D02*
X13881881Y-20120452D01*
X13872357Y-20101405D01*
X13872357Y-19929976D01*
X14053309Y-20120452D02*
X14034262Y-20129976D01*
X13996167Y-20129976D01*
X13977119Y-20120452D01*
X13967595Y-20101405D01*
X13967595Y-20025214D01*
X13977119Y-20006167D01*
X13996167Y-19996643D01*
X14034262Y-19996643D01*
X14053309Y-20006167D01*
X14062833Y-20025214D01*
X14062833Y-20044262D01*
X13967595Y-20063310D01*
X14129500Y-20206167D02*
X14139024Y-20196643D01*
X14158071Y-20168071D01*
X14167595Y-20149024D01*
X14177119Y-20120452D01*
X14186643Y-20072833D01*
X14186643Y-20034738D01*
X14177119Y-19987119D01*
X14167595Y-19958548D01*
X14158071Y-19939500D01*
X14139024Y-19910929D01*
X14129500Y-19901405D01*
D13*
X9519500Y-20303500D02*
G75*
G03*
X9519500Y-20303500I-50000J0D01*
G01*
D11*
X9881881Y-20393976D02*
X9767595Y-20393976D01*
X9824738Y-20393976D02*
X9824738Y-20193976D01*
X9805690Y-20222548D01*
X9786643Y-20241595D01*
X9767595Y-20251119D01*
X9967595Y-20374929D02*
X9977119Y-20384452D01*
X9967595Y-20393976D01*
X9958071Y-20384452D01*
X9967595Y-20374929D01*
X9967595Y-20393976D01*
X10100929Y-20193976D02*
X10119976Y-20193976D01*
X10139024Y-20203500D01*
X10148548Y-20213024D01*
X10158071Y-20232071D01*
X10167595Y-20270167D01*
X10167595Y-20317786D01*
X10158071Y-20355881D01*
X10148548Y-20374929D01*
X10139024Y-20384452D01*
X10119976Y-20393976D01*
X10100929Y-20393976D01*
X10081881Y-20384452D01*
X10072357Y-20374929D01*
X10062833Y-20355881D01*
X10053310Y-20317786D01*
X10053310Y-20270167D01*
X10062833Y-20232071D01*
X10072357Y-20213024D01*
X10081881Y-20203500D01*
X10100929Y-20193976D01*
X10291405Y-20193976D02*
X10310452Y-20193976D01*
X10329500Y-20203500D01*
X10339024Y-20213024D01*
X10348548Y-20232071D01*
X10358071Y-20270167D01*
X10358071Y-20317786D01*
X10348548Y-20355881D01*
X10339024Y-20374929D01*
X10329500Y-20384452D01*
X10310452Y-20393976D01*
X10291405Y-20393976D01*
X10272357Y-20384452D01*
X10262833Y-20374929D01*
X10253310Y-20355881D01*
X10243786Y-20317786D01*
X10243786Y-20270167D01*
X10253310Y-20232071D01*
X10262833Y-20213024D01*
X10272357Y-20203500D01*
X10291405Y-20193976D01*
X10481881Y-20193976D02*
X10500929Y-20193976D01*
X10519976Y-20203500D01*
X10529500Y-20213024D01*
X10539024Y-20232071D01*
X10548548Y-20270167D01*
X10548548Y-20317786D01*
X10539024Y-20355881D01*
X10529500Y-20374929D01*
X10519976Y-20384452D01*
X10500929Y-20393976D01*
X10481881Y-20393976D01*
X10462833Y-20384452D01*
X10453310Y-20374929D01*
X10443786Y-20355881D01*
X10434262Y-20317786D01*
X10434262Y-20270167D01*
X10443786Y-20232071D01*
X10453310Y-20213024D01*
X10462833Y-20203500D01*
X10481881Y-20193976D01*
X10634262Y-20393976D02*
X10634262Y-20260643D01*
X10634262Y-20279690D02*
X10643786Y-20270167D01*
X10662833Y-20260643D01*
X10691405Y-20260643D01*
X10710452Y-20270167D01*
X10719976Y-20289214D01*
X10719976Y-20393976D01*
X10719976Y-20289214D02*
X10729500Y-20270167D01*
X10748548Y-20260643D01*
X10777119Y-20260643D01*
X10796167Y-20270167D01*
X10805690Y-20289214D01*
X10805690Y-20393976D01*
X10900929Y-20393976D02*
X10900929Y-20260643D01*
X10900929Y-20279690D02*
X10910452Y-20270167D01*
X10929500Y-20260643D01*
X10958071Y-20260643D01*
X10977119Y-20270167D01*
X10986643Y-20289214D01*
X10986643Y-20393976D01*
X10986643Y-20289214D02*
X10996167Y-20270167D01*
X11015214Y-20260643D01*
X11043786Y-20260643D01*
X11062833Y-20270167D01*
X11072357Y-20289214D01*
X11072357Y-20393976D01*
X11462833Y-20184452D02*
X11291405Y-20441595D01*
X11719976Y-20193976D02*
X11739024Y-20193976D01*
X11758071Y-20203500D01*
X11767595Y-20213024D01*
X11777119Y-20232071D01*
X11786643Y-20270167D01*
X11786643Y-20317786D01*
X11777119Y-20355881D01*
X11767595Y-20374929D01*
X11758071Y-20384452D01*
X11739024Y-20393976D01*
X11719976Y-20393976D01*
X11700928Y-20384452D01*
X11691405Y-20374929D01*
X11681881Y-20355881D01*
X11672357Y-20317786D01*
X11672357Y-20270167D01*
X11681881Y-20232071D01*
X11691405Y-20213024D01*
X11700928Y-20203500D01*
X11719976Y-20193976D01*
X11872357Y-20374929D02*
X11881881Y-20384452D01*
X11872357Y-20393976D01*
X11862833Y-20384452D01*
X11872357Y-20374929D01*
X11872357Y-20393976D01*
X12005690Y-20193976D02*
X12024738Y-20193976D01*
X12043786Y-20203500D01*
X12053309Y-20213024D01*
X12062833Y-20232071D01*
X12072357Y-20270167D01*
X12072357Y-20317786D01*
X12062833Y-20355881D01*
X12053309Y-20374929D01*
X12043786Y-20384452D01*
X12024738Y-20393976D01*
X12005690Y-20393976D01*
X11986643Y-20384452D01*
X11977119Y-20374929D01*
X11967595Y-20355881D01*
X11958071Y-20317786D01*
X11958071Y-20270167D01*
X11967595Y-20232071D01*
X11977119Y-20213024D01*
X11986643Y-20203500D01*
X12005690Y-20193976D01*
X12139024Y-20193976D02*
X12262833Y-20193976D01*
X12196167Y-20270167D01*
X12224738Y-20270167D01*
X12243786Y-20279690D01*
X12253309Y-20289214D01*
X12262833Y-20308262D01*
X12262833Y-20355881D01*
X12253309Y-20374929D01*
X12243786Y-20384452D01*
X12224738Y-20393976D01*
X12167595Y-20393976D01*
X12148548Y-20384452D01*
X12139024Y-20374929D01*
X12358071Y-20393976D02*
X12396167Y-20393976D01*
X12415214Y-20384452D01*
X12424738Y-20374929D01*
X12443786Y-20346357D01*
X12453309Y-20308262D01*
X12453309Y-20232071D01*
X12443786Y-20213024D01*
X12434262Y-20203500D01*
X12415214Y-20193976D01*
X12377119Y-20193976D01*
X12358071Y-20203500D01*
X12348548Y-20213024D01*
X12339024Y-20232071D01*
X12339024Y-20279690D01*
X12348548Y-20298738D01*
X12358071Y-20308262D01*
X12377119Y-20317786D01*
X12415214Y-20317786D01*
X12434262Y-20308262D01*
X12443786Y-20298738D01*
X12453309Y-20279690D01*
X12624738Y-20260643D02*
X12624738Y-20393976D01*
X12577119Y-20184452D02*
X12529500Y-20327310D01*
X12653309Y-20327310D01*
X12719976Y-20193976D02*
X12719976Y-20232071D01*
X12796167Y-20193976D02*
X12796167Y-20232071D01*
X13091405Y-20470167D02*
X13081881Y-20460643D01*
X13062833Y-20432071D01*
X13053309Y-20413024D01*
X13043786Y-20384452D01*
X13034262Y-20336833D01*
X13034262Y-20298738D01*
X13043786Y-20251119D01*
X13053309Y-20222548D01*
X13062833Y-20203500D01*
X13081881Y-20174929D01*
X13091405Y-20165405D01*
X13272357Y-20393976D02*
X13158071Y-20393976D01*
X13215214Y-20393976D02*
X13215214Y-20193976D01*
X13196167Y-20222548D01*
X13177119Y-20241595D01*
X13158071Y-20251119D01*
X13453309Y-20193976D02*
X13358071Y-20193976D01*
X13348548Y-20289214D01*
X13358071Y-20279690D01*
X13377119Y-20270167D01*
X13424738Y-20270167D01*
X13443786Y-20279690D01*
X13453309Y-20289214D01*
X13462833Y-20308262D01*
X13462833Y-20355881D01*
X13453309Y-20374929D01*
X13443786Y-20384452D01*
X13424738Y-20393976D01*
X13377119Y-20393976D01*
X13358071Y-20384452D01*
X13348548Y-20374929D01*
X13700928Y-20393976D02*
X13700928Y-20193976D01*
X13786643Y-20393976D02*
X13786643Y-20289214D01*
X13777119Y-20270167D01*
X13758071Y-20260643D01*
X13729500Y-20260643D01*
X13710452Y-20270167D01*
X13700928Y-20279690D01*
X13910452Y-20393976D02*
X13891405Y-20384452D01*
X13881881Y-20374929D01*
X13872357Y-20355881D01*
X13872357Y-20298738D01*
X13881881Y-20279690D01*
X13891405Y-20270167D01*
X13910452Y-20260643D01*
X13939024Y-20260643D01*
X13958071Y-20270167D01*
X13967595Y-20279690D01*
X13977119Y-20298738D01*
X13977119Y-20355881D01*
X13967595Y-20374929D01*
X13958071Y-20384452D01*
X13939024Y-20393976D01*
X13910452Y-20393976D01*
X14091405Y-20393976D02*
X14072357Y-20384452D01*
X14062833Y-20365405D01*
X14062833Y-20193976D01*
X14243786Y-20384452D02*
X14224738Y-20393976D01*
X14186643Y-20393976D01*
X14167595Y-20384452D01*
X14158071Y-20365405D01*
X14158071Y-20289214D01*
X14167595Y-20270167D01*
X14186643Y-20260643D01*
X14224738Y-20260643D01*
X14243786Y-20270167D01*
X14253309Y-20289214D01*
X14253309Y-20308262D01*
X14158071Y-20327310D01*
X14329500Y-20384452D02*
X14348548Y-20393976D01*
X14386643Y-20393976D01*
X14405690Y-20384452D01*
X14415214Y-20365405D01*
X14415214Y-20355881D01*
X14405690Y-20336833D01*
X14386643Y-20327310D01*
X14358071Y-20327310D01*
X14339024Y-20317786D01*
X14329500Y-20298738D01*
X14329500Y-20289214D01*
X14339024Y-20270167D01*
X14358071Y-20260643D01*
X14386643Y-20260643D01*
X14405690Y-20270167D01*
X14481881Y-20470167D02*
X14491405Y-20460643D01*
X14510452Y-20432071D01*
X14519976Y-20413024D01*
X14529500Y-20384452D01*
X14539024Y-20336833D01*
X14539024Y-20298738D01*
X14529500Y-20251119D01*
X14519976Y-20222548D01*
X14510452Y-20203500D01*
X14491405Y-20174929D01*
X14481881Y-20165405D01*
D14*
X9444500Y-20492500D02*
X9444500Y-20642500D01*
X9369500Y-20567500D02*
X9519500Y-20567500D01*
D11*
X9881881Y-20657976D02*
X9767595Y-20657976D01*
X9824738Y-20657976D02*
X9824738Y-20457976D01*
X9805690Y-20486548D01*
X9786643Y-20505595D01*
X9767595Y-20515119D01*
X9967595Y-20638929D02*
X9977119Y-20648452D01*
X9967595Y-20657976D01*
X9958071Y-20648452D01*
X9967595Y-20638929D01*
X9967595Y-20657976D01*
X10158071Y-20457976D02*
X10062833Y-20457976D01*
X10053310Y-20553214D01*
X10062833Y-20543690D01*
X10081881Y-20534167D01*
X10129500Y-20534167D01*
X10148548Y-20543690D01*
X10158071Y-20553214D01*
X10167595Y-20572262D01*
X10167595Y-20619881D01*
X10158071Y-20638929D01*
X10148548Y-20648452D01*
X10129500Y-20657976D01*
X10081881Y-20657976D01*
X10062833Y-20648452D01*
X10053310Y-20638929D01*
X10291405Y-20457976D02*
X10310452Y-20457976D01*
X10329500Y-20467500D01*
X10339024Y-20477024D01*
X10348548Y-20496071D01*
X10358071Y-20534167D01*
X10358071Y-20581786D01*
X10348548Y-20619881D01*
X10339024Y-20638929D01*
X10329500Y-20648452D01*
X10310452Y-20657976D01*
X10291405Y-20657976D01*
X10272357Y-20648452D01*
X10262833Y-20638929D01*
X10253310Y-20619881D01*
X10243786Y-20581786D01*
X10243786Y-20534167D01*
X10253310Y-20496071D01*
X10262833Y-20477024D01*
X10272357Y-20467500D01*
X10291405Y-20457976D01*
X10481881Y-20457976D02*
X10500929Y-20457976D01*
X10519976Y-20467500D01*
X10529500Y-20477024D01*
X10539024Y-20496071D01*
X10548548Y-20534167D01*
X10548548Y-20581786D01*
X10539024Y-20619881D01*
X10529500Y-20638929D01*
X10519976Y-20648452D01*
X10500929Y-20657976D01*
X10481881Y-20657976D01*
X10462833Y-20648452D01*
X10453310Y-20638929D01*
X10443786Y-20619881D01*
X10434262Y-20581786D01*
X10434262Y-20534167D01*
X10443786Y-20496071D01*
X10453310Y-20477024D01*
X10462833Y-20467500D01*
X10481881Y-20457976D01*
X10634262Y-20657976D02*
X10634262Y-20524643D01*
X10634262Y-20543690D02*
X10643786Y-20534167D01*
X10662833Y-20524643D01*
X10691405Y-20524643D01*
X10710452Y-20534167D01*
X10719976Y-20553214D01*
X10719976Y-20657976D01*
X10719976Y-20553214D02*
X10729500Y-20534167D01*
X10748548Y-20524643D01*
X10777119Y-20524643D01*
X10796167Y-20534167D01*
X10805690Y-20553214D01*
X10805690Y-20657976D01*
X10900929Y-20657976D02*
X10900929Y-20524643D01*
X10900929Y-20543690D02*
X10910452Y-20534167D01*
X10929500Y-20524643D01*
X10958071Y-20524643D01*
X10977119Y-20534167D01*
X10986643Y-20553214D01*
X10986643Y-20657976D01*
X10986643Y-20553214D02*
X10996167Y-20534167D01*
X11015214Y-20524643D01*
X11043786Y-20524643D01*
X11062833Y-20534167D01*
X11072357Y-20553214D01*
X11072357Y-20657976D01*
X11462833Y-20448452D02*
X11291405Y-20705595D01*
X11719976Y-20457976D02*
X11739024Y-20457976D01*
X11758071Y-20467500D01*
X11767595Y-20477024D01*
X11777119Y-20496071D01*
X11786643Y-20534167D01*
X11786643Y-20581786D01*
X11777119Y-20619881D01*
X11767595Y-20638929D01*
X11758071Y-20648452D01*
X11739024Y-20657976D01*
X11719976Y-20657976D01*
X11700928Y-20648452D01*
X11691405Y-20638929D01*
X11681881Y-20619881D01*
X11672357Y-20581786D01*
X11672357Y-20534167D01*
X11681881Y-20496071D01*
X11691405Y-20477024D01*
X11700928Y-20467500D01*
X11719976Y-20457976D01*
X11872357Y-20638929D02*
X11881881Y-20648452D01*
X11872357Y-20657976D01*
X11862833Y-20648452D01*
X11872357Y-20638929D01*
X11872357Y-20657976D01*
X12005690Y-20457976D02*
X12024738Y-20457976D01*
X12043786Y-20467500D01*
X12053309Y-20477024D01*
X12062833Y-20496071D01*
X12072357Y-20534167D01*
X12072357Y-20581786D01*
X12062833Y-20619881D01*
X12053309Y-20638929D01*
X12043786Y-20648452D01*
X12024738Y-20657976D01*
X12005690Y-20657976D01*
X11986643Y-20648452D01*
X11977119Y-20638929D01*
X11967595Y-20619881D01*
X11958071Y-20581786D01*
X11958071Y-20534167D01*
X11967595Y-20496071D01*
X11977119Y-20477024D01*
X11986643Y-20467500D01*
X12005690Y-20457976D01*
X12253309Y-20457976D02*
X12158071Y-20457976D01*
X12148548Y-20553214D01*
X12158071Y-20543690D01*
X12177119Y-20534167D01*
X12224738Y-20534167D01*
X12243786Y-20543690D01*
X12253309Y-20553214D01*
X12262833Y-20572262D01*
X12262833Y-20619881D01*
X12253309Y-20638929D01*
X12243786Y-20648452D01*
X12224738Y-20657976D01*
X12177119Y-20657976D01*
X12158071Y-20648452D01*
X12148548Y-20638929D01*
X12358071Y-20657976D02*
X12396167Y-20657976D01*
X12415214Y-20648452D01*
X12424738Y-20638929D01*
X12443786Y-20610357D01*
X12453309Y-20572262D01*
X12453309Y-20496071D01*
X12443786Y-20477024D01*
X12434262Y-20467500D01*
X12415214Y-20457976D01*
X12377119Y-20457976D01*
X12358071Y-20467500D01*
X12348548Y-20477024D01*
X12339024Y-20496071D01*
X12339024Y-20543690D01*
X12348548Y-20562738D01*
X12358071Y-20572262D01*
X12377119Y-20581786D01*
X12415214Y-20581786D01*
X12434262Y-20572262D01*
X12443786Y-20562738D01*
X12453309Y-20543690D01*
X12643786Y-20657976D02*
X12529500Y-20657976D01*
X12586643Y-20657976D02*
X12586643Y-20457976D01*
X12567595Y-20486548D01*
X12548548Y-20505595D01*
X12529500Y-20515119D01*
X12719976Y-20457976D02*
X12719976Y-20496071D01*
X12796167Y-20457976D02*
X12796167Y-20496071D01*
X13091405Y-20734167D02*
X13081881Y-20724643D01*
X13062833Y-20696071D01*
X13053309Y-20677024D01*
X13043786Y-20648452D01*
X13034262Y-20600833D01*
X13034262Y-20562738D01*
X13043786Y-20515119D01*
X13053309Y-20486548D01*
X13062833Y-20467500D01*
X13081881Y-20438929D01*
X13091405Y-20429405D01*
X13196167Y-20543690D02*
X13177119Y-20534167D01*
X13167595Y-20524643D01*
X13158071Y-20505595D01*
X13158071Y-20496071D01*
X13167595Y-20477024D01*
X13177119Y-20467500D01*
X13196167Y-20457976D01*
X13234262Y-20457976D01*
X13253309Y-20467500D01*
X13262833Y-20477024D01*
X13272357Y-20496071D01*
X13272357Y-20505595D01*
X13262833Y-20524643D01*
X13253309Y-20534167D01*
X13234262Y-20543690D01*
X13196167Y-20543690D01*
X13177119Y-20553214D01*
X13167595Y-20562738D01*
X13158071Y-20581786D01*
X13158071Y-20619881D01*
X13167595Y-20638929D01*
X13177119Y-20648452D01*
X13196167Y-20657976D01*
X13234262Y-20657976D01*
X13253309Y-20648452D01*
X13262833Y-20638929D01*
X13272357Y-20619881D01*
X13272357Y-20581786D01*
X13262833Y-20562738D01*
X13253309Y-20553214D01*
X13234262Y-20543690D01*
X13386643Y-20543690D02*
X13367595Y-20534167D01*
X13358071Y-20524643D01*
X13348548Y-20505595D01*
X13348548Y-20496071D01*
X13358071Y-20477024D01*
X13367595Y-20467500D01*
X13386643Y-20457976D01*
X13424738Y-20457976D01*
X13443786Y-20467500D01*
X13453309Y-20477024D01*
X13462833Y-20496071D01*
X13462833Y-20505595D01*
X13453309Y-20524643D01*
X13443786Y-20534167D01*
X13424738Y-20543690D01*
X13386643Y-20543690D01*
X13367595Y-20553214D01*
X13358071Y-20562738D01*
X13348548Y-20581786D01*
X13348548Y-20619881D01*
X13358071Y-20638929D01*
X13367595Y-20648452D01*
X13386643Y-20657976D01*
X13424738Y-20657976D01*
X13443786Y-20648452D01*
X13453309Y-20638929D01*
X13462833Y-20619881D01*
X13462833Y-20581786D01*
X13453309Y-20562738D01*
X13443786Y-20553214D01*
X13424738Y-20543690D01*
X13700928Y-20657976D02*
X13700928Y-20457976D01*
X13786643Y-20657976D02*
X13786643Y-20553214D01*
X13777119Y-20534167D01*
X13758071Y-20524643D01*
X13729500Y-20524643D01*
X13710452Y-20534167D01*
X13700928Y-20543690D01*
X13910452Y-20657976D02*
X13891405Y-20648452D01*
X13881881Y-20638929D01*
X13872357Y-20619881D01*
X13872357Y-20562738D01*
X13881881Y-20543690D01*
X13891405Y-20534167D01*
X13910452Y-20524643D01*
X13939024Y-20524643D01*
X13958071Y-20534167D01*
X13967595Y-20543690D01*
X13977119Y-20562738D01*
X13977119Y-20619881D01*
X13967595Y-20638929D01*
X13958071Y-20648452D01*
X13939024Y-20657976D01*
X13910452Y-20657976D01*
X14091405Y-20657976D02*
X14072357Y-20648452D01*
X14062833Y-20629405D01*
X14062833Y-20457976D01*
X14243786Y-20648452D02*
X14224738Y-20657976D01*
X14186643Y-20657976D01*
X14167595Y-20648452D01*
X14158071Y-20629405D01*
X14158071Y-20553214D01*
X14167595Y-20534167D01*
X14186643Y-20524643D01*
X14224738Y-20524643D01*
X14243786Y-20534167D01*
X14253309Y-20553214D01*
X14253309Y-20572262D01*
X14158071Y-20591310D01*
X14329500Y-20648452D02*
X14348548Y-20657976D01*
X14386643Y-20657976D01*
X14405690Y-20648452D01*
X14415214Y-20629405D01*
X14415214Y-20619881D01*
X14405690Y-20600833D01*
X14386643Y-20591310D01*
X14358071Y-20591310D01*
X14339024Y-20581786D01*
X14329500Y-20562738D01*
X14329500Y-20553214D01*
X14339024Y-20534167D01*
X14358071Y-20524643D01*
X14386643Y-20524643D01*
X14405690Y-20534167D01*
X14481881Y-20734167D02*
X14491405Y-20724643D01*
X14510452Y-20696071D01*
X14519976Y-20677024D01*
X14529500Y-20648452D01*
X14539024Y-20600833D01*
X14539024Y-20562738D01*
X14529500Y-20515119D01*
X14519976Y-20486548D01*
X14510452Y-20467500D01*
X14491405Y-20438929D01*
X14481881Y-20429405D01*
M02*
