G04 #@! TF.GenerationSoftware,KiCad,Pcbnew,(6.0.2-0)*
G04 #@! TF.CreationDate,2022-03-14T11:48:13+11:00*
G04 #@! TF.ProjectId,keyboard,6b657962-6f61-4726-942e-6b696361645f,rev?*
G04 #@! TF.SameCoordinates,Original*
G04 #@! TF.FileFunction,Legend,Bot*
G04 #@! TF.FilePolarity,Positive*
%FSLAX46Y46*%
G04 Gerber Fmt 4.6, Leading zero omitted, Abs format (unit mm)*
G04 Created by KiCad (PCBNEW (6.0.2-0)) date 2022-03-14 11:48:13*
%MOMM*%
%LPD*%
G01*
G04 APERTURE LIST*
G04 Aperture macros list*
%AMRoundRect*
0 Rectangle with rounded corners*
0 $1 Rounding radius*
0 $2 $3 $4 $5 $6 $7 $8 $9 X,Y pos of 4 corners*
0 Add a 4 corners polygon primitive as box body*
4,1,4,$2,$3,$4,$5,$6,$7,$8,$9,$2,$3,0*
0 Add four circle primitives for the rounded corners*
1,1,$1+$1,$2,$3*
1,1,$1+$1,$4,$5*
1,1,$1+$1,$6,$7*
1,1,$1+$1,$8,$9*
0 Add four rect primitives between the rounded corners*
20,1,$1+$1,$2,$3,$4,$5,0*
20,1,$1+$1,$4,$5,$6,$7,0*
20,1,$1+$1,$6,$7,$8,$9,0*
20,1,$1+$1,$8,$9,$2,$3,0*%
G04 Aperture macros list end*
%ADD10C,0.150000*%
%ADD11C,0.120000*%
%ADD12C,1.802000*%
%ADD13C,4.102000*%
%ADD14C,2.302000*%
%ADD15C,3.302000*%
%ADD16C,3.152000*%
%ADD17RoundRect,0.051000X0.225000X-0.300000X0.225000X0.300000X-0.225000X0.300000X-0.225000X-0.300000X0*%
%ADD18RoundRect,0.051000X0.850000X-0.850000X0.850000X0.850000X-0.850000X0.850000X-0.850000X-0.850000X0*%
%ADD19O,1.802000X1.802000*%
%ADD20RoundRect,0.051000X-0.850000X0.850000X-0.850000X-0.850000X0.850000X-0.850000X0.850000X0.850000X0*%
G04 APERTURE END LIST*
D10*
X324380952Y-113751428D02*
X324380952Y-115751428D01*
X324380952Y-113846666D02*
X324190476Y-113751428D01*
X323809523Y-113751428D01*
X323619047Y-113846666D01*
X323523809Y-113941904D01*
X323428571Y-114132380D01*
X323428571Y-114703809D01*
X323523809Y-114894285D01*
X323619047Y-114989523D01*
X323809523Y-115084761D01*
X324190476Y-115084761D01*
X324380952Y-114989523D01*
X322571428Y-115084761D02*
X322571428Y-113084761D01*
X321714285Y-115084761D02*
X321714285Y-114037142D01*
X321809523Y-113846666D01*
X322000000Y-113751428D01*
X322285714Y-113751428D01*
X322476190Y-113846666D01*
X322571428Y-113941904D01*
X320380952Y-113084761D02*
X320190476Y-113084761D01*
X320000000Y-113180000D01*
X319904761Y-113275238D01*
X319809523Y-113465714D01*
X319714285Y-113846666D01*
X319714285Y-114322857D01*
X319809523Y-114703809D01*
X319904761Y-114894285D01*
X320000000Y-114989523D01*
X320190476Y-115084761D01*
X320380952Y-115084761D01*
X320571428Y-114989523D01*
X320666666Y-114894285D01*
X320761904Y-114703809D01*
X320857142Y-114322857D01*
X320857142Y-113846666D01*
X320761904Y-113465714D01*
X320666666Y-113275238D01*
X320571428Y-113180000D01*
X320380952Y-113084761D01*
X318095238Y-114989523D02*
X318285714Y-115084761D01*
X318666666Y-115084761D01*
X318857142Y-114989523D01*
X318952380Y-114799047D01*
X318952380Y-114037142D01*
X318857142Y-113846666D01*
X318666666Y-113751428D01*
X318285714Y-113751428D01*
X318095238Y-113846666D01*
X318000000Y-114037142D01*
X318000000Y-114227619D01*
X318952380Y-114418095D01*
X317142857Y-113751428D02*
X317142857Y-115084761D01*
X317142857Y-113941904D02*
X317047619Y-113846666D01*
X316857142Y-113751428D01*
X316571428Y-113751428D01*
X316380952Y-113846666D01*
X316285714Y-114037142D01*
X316285714Y-115084761D01*
X314285714Y-115084761D02*
X315428571Y-115084761D01*
X314857142Y-115084761D02*
X314857142Y-113084761D01*
X315047619Y-113370476D01*
X315238095Y-113560952D01*
X315428571Y-113656190D01*
X313619047Y-115084761D02*
X312571428Y-113751428D01*
X313619047Y-113751428D02*
X312571428Y-115084761D01*
X310285714Y-115084761D02*
X310285714Y-113084761D01*
X310285714Y-113846666D02*
X310095238Y-113751428D01*
X309714285Y-113751428D01*
X309523809Y-113846666D01*
X309428571Y-113941904D01*
X309333333Y-114132380D01*
X309333333Y-114703809D01*
X309428571Y-114894285D01*
X309523809Y-114989523D01*
X309714285Y-115084761D01*
X310095238Y-115084761D01*
X310285714Y-114989523D01*
X308666666Y-113751428D02*
X308190476Y-115084761D01*
X307714285Y-113751428D02*
X308190476Y-115084761D01*
X308380952Y-115560952D01*
X308476190Y-115656190D01*
X308666666Y-115751428D01*
X305523809Y-114989523D02*
X305333333Y-115084761D01*
X304952380Y-115084761D01*
X304761904Y-114989523D01*
X304666666Y-114799047D01*
X304666666Y-114703809D01*
X304761904Y-114513333D01*
X304952380Y-114418095D01*
X305238095Y-114418095D01*
X305428571Y-114322857D01*
X305523809Y-114132380D01*
X305523809Y-114037142D01*
X305428571Y-113846666D01*
X305238095Y-113751428D01*
X304952380Y-113751428D01*
X304761904Y-113846666D01*
X303809523Y-115084761D02*
X303809523Y-113084761D01*
X302952380Y-115084761D02*
X302952380Y-114037142D01*
X303047619Y-113846666D01*
X303238095Y-113751428D01*
X303523809Y-113751428D01*
X303714285Y-113846666D01*
X303809523Y-113941904D01*
X301619047Y-113084761D02*
X301428571Y-113084761D01*
X301238095Y-113180000D01*
X301142857Y-113275238D01*
X301047619Y-113465714D01*
X300952380Y-113846666D01*
X300952380Y-114322857D01*
X301047619Y-114703809D01*
X301142857Y-114894285D01*
X301238095Y-114989523D01*
X301428571Y-115084761D01*
X301619047Y-115084761D01*
X301809523Y-114989523D01*
X301904761Y-114894285D01*
X302000000Y-114703809D01*
X302095238Y-114322857D01*
X302095238Y-113846666D01*
X302000000Y-113465714D01*
X301904761Y-113275238D01*
X301809523Y-113180000D01*
X301619047Y-113084761D01*
X299238095Y-114989523D02*
X299428571Y-115084761D01*
X299809523Y-115084761D01*
X300000000Y-114989523D01*
X300095238Y-114894285D01*
X300190476Y-114703809D01*
X300190476Y-114132380D01*
X300095238Y-113941904D01*
X300000000Y-113846666D01*
X299809523Y-113751428D01*
X299428571Y-113751428D01*
X299238095Y-113846666D01*
X298380952Y-115084761D02*
X298380952Y-113084761D01*
X298190476Y-114322857D02*
X297619047Y-115084761D01*
X297619047Y-113751428D02*
X298380952Y-114513333D01*
X295904761Y-115084761D02*
X295904761Y-113084761D01*
X295904761Y-114989523D02*
X296095238Y-115084761D01*
X296476190Y-115084761D01*
X296666666Y-114989523D01*
X296761904Y-114894285D01*
X296857142Y-114703809D01*
X296857142Y-114132380D01*
X296761904Y-113941904D01*
X296666666Y-113846666D01*
X296476190Y-113751428D01*
X296095238Y-113751428D01*
X295904761Y-113846666D01*
X294190476Y-114989523D02*
X294380952Y-115084761D01*
X294761904Y-115084761D01*
X294952380Y-114989523D01*
X295047619Y-114799047D01*
X295047619Y-114037142D01*
X294952380Y-113846666D01*
X294761904Y-113751428D01*
X294380952Y-113751428D01*
X294190476Y-113846666D01*
X294095238Y-114037142D01*
X294095238Y-114227619D01*
X295047619Y-114418095D01*
X293333333Y-114989523D02*
X293142857Y-115084761D01*
X292761904Y-115084761D01*
X292571428Y-114989523D01*
X292476190Y-114799047D01*
X292476190Y-114703809D01*
X292571428Y-114513333D01*
X292761904Y-114418095D01*
X293047619Y-114418095D01*
X293238095Y-114322857D01*
X293333333Y-114132380D01*
X293333333Y-114037142D01*
X293238095Y-113846666D01*
X293047619Y-113751428D01*
X292761904Y-113751428D01*
X292571428Y-113846666D01*
X291619047Y-115084761D02*
X291619047Y-113751428D01*
X291619047Y-113084761D02*
X291714285Y-113180000D01*
X291619047Y-113275238D01*
X291523809Y-113180000D01*
X291619047Y-113084761D01*
X291619047Y-113275238D01*
X289809523Y-113751428D02*
X289809523Y-115370476D01*
X289904761Y-115560952D01*
X290000000Y-115656190D01*
X290190476Y-115751428D01*
X290476190Y-115751428D01*
X290666666Y-115656190D01*
X289809523Y-114989523D02*
X290000000Y-115084761D01*
X290380952Y-115084761D01*
X290571428Y-114989523D01*
X290666666Y-114894285D01*
X290761904Y-114703809D01*
X290761904Y-114132380D01*
X290666666Y-113941904D01*
X290571428Y-113846666D01*
X290380952Y-113751428D01*
X290000000Y-113751428D01*
X289809523Y-113846666D01*
X288857142Y-113751428D02*
X288857142Y-115084761D01*
X288857142Y-113941904D02*
X288761904Y-113846666D01*
X288571428Y-113751428D01*
X288285714Y-113751428D01*
X288095238Y-113846666D01*
X288000000Y-114037142D01*
X288000000Y-115084761D01*
X283904761Y-115084761D02*
X284000000Y-115084761D01*
X284190476Y-114989523D01*
X284476190Y-114703809D01*
X284952380Y-114132380D01*
X285142857Y-113846666D01*
X285238095Y-113560952D01*
X285238095Y-113370476D01*
X285142857Y-113180000D01*
X284952380Y-113084761D01*
X284857142Y-113084761D01*
X284666666Y-113180000D01*
X284571428Y-113370476D01*
X284571428Y-113465714D01*
X284666666Y-113656190D01*
X284761904Y-113751428D01*
X285333333Y-114132380D01*
X285428571Y-114227619D01*
X285523809Y-114418095D01*
X285523809Y-114703809D01*
X285428571Y-114894285D01*
X285333333Y-114989523D01*
X285142857Y-115084761D01*
X284857142Y-115084761D01*
X284666666Y-114989523D01*
X284571428Y-114894285D01*
X284285714Y-114513333D01*
X284190476Y-114227619D01*
X284190476Y-114037142D01*
X281523809Y-113751428D02*
X281523809Y-115751428D01*
X281523809Y-113846666D02*
X281333333Y-113751428D01*
X280952380Y-113751428D01*
X280761904Y-113846666D01*
X280666666Y-113941904D01*
X280571428Y-114132380D01*
X280571428Y-114703809D01*
X280666666Y-114894285D01*
X280761904Y-114989523D01*
X280952380Y-115084761D01*
X281333333Y-115084761D01*
X281523809Y-114989523D01*
X278952380Y-114989523D02*
X279142857Y-115084761D01*
X279523809Y-115084761D01*
X279714285Y-114989523D01*
X279809523Y-114799047D01*
X279809523Y-114037142D01*
X279714285Y-113846666D01*
X279523809Y-113751428D01*
X279142857Y-113751428D01*
X278952380Y-113846666D01*
X278857142Y-114037142D01*
X278857142Y-114227619D01*
X279809523Y-114418095D01*
X277714285Y-115084761D02*
X277904761Y-114989523D01*
X278000000Y-114799047D01*
X278000000Y-113084761D01*
X276952380Y-115084761D02*
X276952380Y-113751428D01*
X276952380Y-114132380D02*
X276857142Y-113941904D01*
X276761904Y-113846666D01*
X276571428Y-113751428D01*
X276380952Y-113751428D01*
X274857142Y-113751428D02*
X274857142Y-115084761D01*
X275714285Y-113751428D02*
X275714285Y-114799047D01*
X275619047Y-114989523D01*
X275428571Y-115084761D01*
X275142857Y-115084761D01*
X274952380Y-114989523D01*
X274857142Y-114894285D01*
X273904761Y-113751428D02*
X273904761Y-115084761D01*
X273904761Y-113941904D02*
X273809523Y-113846666D01*
X273619047Y-113751428D01*
X273333333Y-113751428D01*
X273142857Y-113846666D01*
X273047619Y-114037142D01*
X273047619Y-115084761D01*
X270571428Y-114322857D02*
X269047619Y-114322857D01*
X266571428Y-115084761D02*
X266571428Y-113751428D01*
X266571428Y-114132380D02*
X266476190Y-113941904D01*
X266380952Y-113846666D01*
X266190476Y-113751428D01*
X266000000Y-113751428D01*
X264571428Y-114989523D02*
X264761904Y-115084761D01*
X265142857Y-115084761D01*
X265333333Y-114989523D01*
X265428571Y-114799047D01*
X265428571Y-114037142D01*
X265333333Y-113846666D01*
X265142857Y-113751428D01*
X264761904Y-113751428D01*
X264571428Y-113846666D01*
X264476190Y-114037142D01*
X264476190Y-114227619D01*
X265428571Y-114418095D01*
X263809523Y-113751428D02*
X263333333Y-115084761D01*
X262857142Y-113751428D01*
X262095238Y-115084761D02*
X262095238Y-113751428D01*
X262095238Y-113084761D02*
X262190476Y-113180000D01*
X262095238Y-113275238D01*
X262000000Y-113180000D01*
X262095238Y-113084761D01*
X262095238Y-113275238D01*
X261238095Y-114989523D02*
X261047619Y-115084761D01*
X260666666Y-115084761D01*
X260476190Y-114989523D01*
X260380952Y-114799047D01*
X260380952Y-114703809D01*
X260476190Y-114513333D01*
X260666666Y-114418095D01*
X260952380Y-114418095D01*
X261142857Y-114322857D01*
X261238095Y-114132380D01*
X261238095Y-114037142D01*
X261142857Y-113846666D01*
X260952380Y-113751428D01*
X260666666Y-113751428D01*
X260476190Y-113846666D01*
X259523809Y-115084761D02*
X259523809Y-113751428D01*
X259523809Y-113084761D02*
X259619047Y-113180000D01*
X259523809Y-113275238D01*
X259428571Y-113180000D01*
X259523809Y-113084761D01*
X259523809Y-113275238D01*
X258285714Y-115084761D02*
X258476190Y-114989523D01*
X258571428Y-114894285D01*
X258666666Y-114703809D01*
X258666666Y-114132380D01*
X258571428Y-113941904D01*
X258476190Y-113846666D01*
X258285714Y-113751428D01*
X258000000Y-113751428D01*
X257809523Y-113846666D01*
X257714285Y-113941904D01*
X257619047Y-114132380D01*
X257619047Y-114703809D01*
X257714285Y-114894285D01*
X257809523Y-114989523D01*
X258000000Y-115084761D01*
X258285714Y-115084761D01*
X256761904Y-113751428D02*
X256761904Y-115084761D01*
X256761904Y-113941904D02*
X256666666Y-113846666D01*
X256476190Y-113751428D01*
X256190476Y-113751428D01*
X256000000Y-113846666D01*
X255904761Y-114037142D01*
X255904761Y-115084761D01*
X252380952Y-115084761D02*
X253523809Y-115084761D01*
X252952380Y-115084761D02*
X252952380Y-113084761D01*
X253142857Y-113370476D01*
X253333333Y-113560952D01*
X253523809Y-113656190D01*
X251523809Y-114894285D02*
X251428571Y-114989523D01*
X251523809Y-115084761D01*
X251619047Y-114989523D01*
X251523809Y-114894285D01*
X251523809Y-115084761D01*
X250190476Y-113084761D02*
X250000000Y-113084761D01*
X249809523Y-113180000D01*
X249714285Y-113275238D01*
X249619047Y-113465714D01*
X249523809Y-113846666D01*
X249523809Y-114322857D01*
X249619047Y-114703809D01*
X249714285Y-114894285D01*
X249809523Y-114989523D01*
X250000000Y-115084761D01*
X250190476Y-115084761D01*
X250380952Y-114989523D01*
X250476190Y-114894285D01*
X250571428Y-114703809D01*
X250666666Y-114322857D01*
X250666666Y-113846666D01*
X250571428Y-113465714D01*
X250476190Y-113275238D01*
X250380952Y-113180000D01*
X250190476Y-113084761D01*
X105807380Y-127991904D02*
X104807380Y-127991904D01*
X104807380Y-128230000D01*
X104855000Y-128372857D01*
X104950238Y-128468095D01*
X105045476Y-128515714D01*
X105235952Y-128563333D01*
X105378809Y-128563333D01*
X105569285Y-128515714D01*
X105664523Y-128468095D01*
X105759761Y-128372857D01*
X105807380Y-128230000D01*
X105807380Y-127991904D01*
X104807380Y-129182380D02*
X104807380Y-129277619D01*
X104855000Y-129372857D01*
X104902619Y-129420476D01*
X104997857Y-129468095D01*
X105188333Y-129515714D01*
X105426428Y-129515714D01*
X105616904Y-129468095D01*
X105712142Y-129420476D01*
X105759761Y-129372857D01*
X105807380Y-129277619D01*
X105807380Y-129182380D01*
X105759761Y-129087142D01*
X105712142Y-129039523D01*
X105616904Y-128991904D01*
X105426428Y-128944285D01*
X105188333Y-128944285D01*
X104997857Y-128991904D01*
X104902619Y-129039523D01*
X104855000Y-129087142D01*
X104807380Y-129182380D01*
X210582380Y-146565714D02*
X209582380Y-146565714D01*
X209582380Y-146803809D01*
X209630000Y-146946666D01*
X209725238Y-147041904D01*
X209820476Y-147089523D01*
X210010952Y-147137142D01*
X210153809Y-147137142D01*
X210344285Y-147089523D01*
X210439523Y-147041904D01*
X210534761Y-146946666D01*
X210582380Y-146803809D01*
X210582380Y-146565714D01*
X210582380Y-148089523D02*
X210582380Y-147518095D01*
X210582380Y-147803809D02*
X209582380Y-147803809D01*
X209725238Y-147708571D01*
X209820476Y-147613333D01*
X209868095Y-147518095D01*
X209582380Y-148422857D02*
X209582380Y-149089523D01*
X210582380Y-148660952D01*
X143907380Y-127991904D02*
X142907380Y-127991904D01*
X142907380Y-128230000D01*
X142955000Y-128372857D01*
X143050238Y-128468095D01*
X143145476Y-128515714D01*
X143335952Y-128563333D01*
X143478809Y-128563333D01*
X143669285Y-128515714D01*
X143764523Y-128468095D01*
X143859761Y-128372857D01*
X143907380Y-128230000D01*
X143907380Y-127991904D01*
X143002619Y-128944285D02*
X142955000Y-128991904D01*
X142907380Y-129087142D01*
X142907380Y-129325238D01*
X142955000Y-129420476D01*
X143002619Y-129468095D01*
X143097857Y-129515714D01*
X143193095Y-129515714D01*
X143335952Y-129468095D01*
X143907380Y-128896666D01*
X143907380Y-129515714D01*
X105807380Y-184665714D02*
X104807380Y-184665714D01*
X104807380Y-184903809D01*
X104855000Y-185046666D01*
X104950238Y-185141904D01*
X105045476Y-185189523D01*
X105235952Y-185237142D01*
X105378809Y-185237142D01*
X105569285Y-185189523D01*
X105664523Y-185141904D01*
X105759761Y-185046666D01*
X105807380Y-184903809D01*
X105807380Y-184665714D01*
X104807380Y-185570476D02*
X104807380Y-186189523D01*
X105188333Y-185856190D01*
X105188333Y-185999047D01*
X105235952Y-186094285D01*
X105283571Y-186141904D01*
X105378809Y-186189523D01*
X105616904Y-186189523D01*
X105712142Y-186141904D01*
X105759761Y-186094285D01*
X105807380Y-185999047D01*
X105807380Y-185713333D01*
X105759761Y-185618095D01*
X105712142Y-185570476D01*
X105140714Y-187046666D02*
X105807380Y-187046666D01*
X104759761Y-186808571D02*
X105474047Y-186570476D01*
X105474047Y-187189523D01*
X277257380Y-165615714D02*
X276257380Y-165615714D01*
X276257380Y-165853809D01*
X276305000Y-165996666D01*
X276400238Y-166091904D01*
X276495476Y-166139523D01*
X276685952Y-166187142D01*
X276828809Y-166187142D01*
X277019285Y-166139523D01*
X277114523Y-166091904D01*
X277209761Y-165996666D01*
X277257380Y-165853809D01*
X277257380Y-165615714D01*
X276257380Y-166520476D02*
X276257380Y-167139523D01*
X276638333Y-166806190D01*
X276638333Y-166949047D01*
X276685952Y-167044285D01*
X276733571Y-167091904D01*
X276828809Y-167139523D01*
X277066904Y-167139523D01*
X277162142Y-167091904D01*
X277209761Y-167044285D01*
X277257380Y-166949047D01*
X277257380Y-166663333D01*
X277209761Y-166568095D01*
X277162142Y-166520476D01*
X277257380Y-168091904D02*
X277257380Y-167520476D01*
X277257380Y-167806190D02*
X276257380Y-167806190D01*
X276400238Y-167710952D01*
X276495476Y-167615714D01*
X276543095Y-167520476D01*
X277257380Y-184665714D02*
X276257380Y-184665714D01*
X276257380Y-184903809D01*
X276305000Y-185046666D01*
X276400238Y-185141904D01*
X276495476Y-185189523D01*
X276685952Y-185237142D01*
X276828809Y-185237142D01*
X277019285Y-185189523D01*
X277114523Y-185141904D01*
X277209761Y-185046666D01*
X277257380Y-184903809D01*
X277257380Y-184665714D01*
X276590714Y-186094285D02*
X277257380Y-186094285D01*
X276209761Y-185856190D02*
X276924047Y-185618095D01*
X276924047Y-186237142D01*
X277257380Y-187141904D02*
X277257380Y-186570476D01*
X277257380Y-186856190D02*
X276257380Y-186856190D01*
X276400238Y-186760952D01*
X276495476Y-186665714D01*
X276543095Y-186570476D01*
X229632380Y-184665714D02*
X228632380Y-184665714D01*
X228632380Y-184903809D01*
X228680000Y-185046666D01*
X228775238Y-185141904D01*
X228870476Y-185189523D01*
X229060952Y-185237142D01*
X229203809Y-185237142D01*
X229394285Y-185189523D01*
X229489523Y-185141904D01*
X229584761Y-185046666D01*
X229632380Y-184903809D01*
X229632380Y-184665714D01*
X228632380Y-185570476D02*
X228632380Y-186189523D01*
X229013333Y-185856190D01*
X229013333Y-185999047D01*
X229060952Y-186094285D01*
X229108571Y-186141904D01*
X229203809Y-186189523D01*
X229441904Y-186189523D01*
X229537142Y-186141904D01*
X229584761Y-186094285D01*
X229632380Y-185999047D01*
X229632380Y-185713333D01*
X229584761Y-185618095D01*
X229537142Y-185570476D01*
X229632380Y-186665714D02*
X229632380Y-186856190D01*
X229584761Y-186951428D01*
X229537142Y-186999047D01*
X229394285Y-187094285D01*
X229203809Y-187141904D01*
X228822857Y-187141904D01*
X228727619Y-187094285D01*
X228680000Y-187046666D01*
X228632380Y-186951428D01*
X228632380Y-186760952D01*
X228680000Y-186665714D01*
X228727619Y-186618095D01*
X228822857Y-186570476D01*
X229060952Y-186570476D01*
X229156190Y-186618095D01*
X229203809Y-186665714D01*
X229251428Y-186760952D01*
X229251428Y-186951428D01*
X229203809Y-187046666D01*
X229156190Y-187094285D01*
X229060952Y-187141904D01*
X239157380Y-127991904D02*
X238157380Y-127991904D01*
X238157380Y-128230000D01*
X238205000Y-128372857D01*
X238300238Y-128468095D01*
X238395476Y-128515714D01*
X238585952Y-128563333D01*
X238728809Y-128563333D01*
X238919285Y-128515714D01*
X239014523Y-128468095D01*
X239109761Y-128372857D01*
X239157380Y-128230000D01*
X239157380Y-127991904D01*
X238157380Y-128896666D02*
X238157380Y-129563333D01*
X239157380Y-129134761D01*
X124857380Y-184665714D02*
X123857380Y-184665714D01*
X123857380Y-184903809D01*
X123905000Y-185046666D01*
X124000238Y-185141904D01*
X124095476Y-185189523D01*
X124285952Y-185237142D01*
X124428809Y-185237142D01*
X124619285Y-185189523D01*
X124714523Y-185141904D01*
X124809761Y-185046666D01*
X124857380Y-184903809D01*
X124857380Y-184665714D01*
X123857380Y-185570476D02*
X123857380Y-186189523D01*
X124238333Y-185856190D01*
X124238333Y-185999047D01*
X124285952Y-186094285D01*
X124333571Y-186141904D01*
X124428809Y-186189523D01*
X124666904Y-186189523D01*
X124762142Y-186141904D01*
X124809761Y-186094285D01*
X124857380Y-185999047D01*
X124857380Y-185713333D01*
X124809761Y-185618095D01*
X124762142Y-185570476D01*
X123857380Y-187094285D02*
X123857380Y-186618095D01*
X124333571Y-186570476D01*
X124285952Y-186618095D01*
X124238333Y-186713333D01*
X124238333Y-186951428D01*
X124285952Y-187046666D01*
X124333571Y-187094285D01*
X124428809Y-187141904D01*
X124666904Y-187141904D01*
X124762142Y-187094285D01*
X124809761Y-187046666D01*
X124857380Y-186951428D01*
X124857380Y-186713333D01*
X124809761Y-186618095D01*
X124762142Y-186570476D01*
X112932380Y-112766666D02*
X113646666Y-112766666D01*
X113789523Y-112719047D01*
X113884761Y-112623809D01*
X113932380Y-112480952D01*
X113932380Y-112385714D01*
X113932380Y-113766666D02*
X113932380Y-113195238D01*
X113932380Y-113480952D02*
X112932380Y-113480952D01*
X113075238Y-113385714D01*
X113170476Y-113290476D01*
X113218095Y-113195238D01*
X201057380Y-165615714D02*
X200057380Y-165615714D01*
X200057380Y-165853809D01*
X200105000Y-165996666D01*
X200200238Y-166091904D01*
X200295476Y-166139523D01*
X200485952Y-166187142D01*
X200628809Y-166187142D01*
X200819285Y-166139523D01*
X200914523Y-166091904D01*
X201009761Y-165996666D01*
X201057380Y-165853809D01*
X201057380Y-165615714D01*
X200152619Y-166568095D02*
X200105000Y-166615714D01*
X200057380Y-166710952D01*
X200057380Y-166949047D01*
X200105000Y-167044285D01*
X200152619Y-167091904D01*
X200247857Y-167139523D01*
X200343095Y-167139523D01*
X200485952Y-167091904D01*
X201057380Y-166520476D01*
X201057380Y-167139523D01*
X200057380Y-167472857D02*
X200057380Y-168139523D01*
X201057380Y-167710952D01*
X286782380Y-146565714D02*
X285782380Y-146565714D01*
X285782380Y-146803809D01*
X285830000Y-146946666D01*
X285925238Y-147041904D01*
X286020476Y-147089523D01*
X286210952Y-147137142D01*
X286353809Y-147137142D01*
X286544285Y-147089523D01*
X286639523Y-147041904D01*
X286734761Y-146946666D01*
X286782380Y-146803809D01*
X286782380Y-146565714D01*
X285877619Y-147518095D02*
X285830000Y-147565714D01*
X285782380Y-147660952D01*
X285782380Y-147899047D01*
X285830000Y-147994285D01*
X285877619Y-148041904D01*
X285972857Y-148089523D01*
X286068095Y-148089523D01*
X286210952Y-148041904D01*
X286782380Y-147470476D01*
X286782380Y-148089523D01*
X286782380Y-149041904D02*
X286782380Y-148470476D01*
X286782380Y-148756190D02*
X285782380Y-148756190D01*
X285925238Y-148660952D01*
X286020476Y-148565714D01*
X286068095Y-148470476D01*
X229632380Y-146565714D02*
X228632380Y-146565714D01*
X228632380Y-146803809D01*
X228680000Y-146946666D01*
X228775238Y-147041904D01*
X228870476Y-147089523D01*
X229060952Y-147137142D01*
X229203809Y-147137142D01*
X229394285Y-147089523D01*
X229489523Y-147041904D01*
X229584761Y-146946666D01*
X229632380Y-146803809D01*
X229632380Y-146565714D01*
X229632380Y-148089523D02*
X229632380Y-147518095D01*
X229632380Y-147803809D02*
X228632380Y-147803809D01*
X228775238Y-147708571D01*
X228870476Y-147613333D01*
X228918095Y-147518095D01*
X229060952Y-148660952D02*
X229013333Y-148565714D01*
X228965714Y-148518095D01*
X228870476Y-148470476D01*
X228822857Y-148470476D01*
X228727619Y-148518095D01*
X228680000Y-148565714D01*
X228632380Y-148660952D01*
X228632380Y-148851428D01*
X228680000Y-148946666D01*
X228727619Y-148994285D01*
X228822857Y-149041904D01*
X228870476Y-149041904D01*
X228965714Y-148994285D01*
X229013333Y-148946666D01*
X229060952Y-148851428D01*
X229060952Y-148660952D01*
X229108571Y-148565714D01*
X229156190Y-148518095D01*
X229251428Y-148470476D01*
X229441904Y-148470476D01*
X229537142Y-148518095D01*
X229584761Y-148565714D01*
X229632380Y-148660952D01*
X229632380Y-148851428D01*
X229584761Y-148946666D01*
X229537142Y-148994285D01*
X229441904Y-149041904D01*
X229251428Y-149041904D01*
X229156190Y-148994285D01*
X229108571Y-148946666D01*
X229060952Y-148851428D01*
X258207380Y-184665714D02*
X257207380Y-184665714D01*
X257207380Y-184903809D01*
X257255000Y-185046666D01*
X257350238Y-185141904D01*
X257445476Y-185189523D01*
X257635952Y-185237142D01*
X257778809Y-185237142D01*
X257969285Y-185189523D01*
X258064523Y-185141904D01*
X258159761Y-185046666D01*
X258207380Y-184903809D01*
X258207380Y-184665714D01*
X257540714Y-186094285D02*
X258207380Y-186094285D01*
X257159761Y-185856190D02*
X257874047Y-185618095D01*
X257874047Y-186237142D01*
X257207380Y-186808571D02*
X257207380Y-186903809D01*
X257255000Y-186999047D01*
X257302619Y-187046666D01*
X257397857Y-187094285D01*
X257588333Y-187141904D01*
X257826428Y-187141904D01*
X258016904Y-187094285D01*
X258112142Y-187046666D01*
X258159761Y-186999047D01*
X258207380Y-186903809D01*
X258207380Y-186808571D01*
X258159761Y-186713333D01*
X258112142Y-186665714D01*
X258016904Y-186618095D01*
X257826428Y-186570476D01*
X257588333Y-186570476D01*
X257397857Y-186618095D01*
X257302619Y-186665714D01*
X257255000Y-186713333D01*
X257207380Y-186808571D01*
X315357380Y-165615714D02*
X314357380Y-165615714D01*
X314357380Y-165853809D01*
X314405000Y-165996666D01*
X314500238Y-166091904D01*
X314595476Y-166139523D01*
X314785952Y-166187142D01*
X314928809Y-166187142D01*
X315119285Y-166139523D01*
X315214523Y-166091904D01*
X315309761Y-165996666D01*
X315357380Y-165853809D01*
X315357380Y-165615714D01*
X314357380Y-166520476D02*
X314357380Y-167139523D01*
X314738333Y-166806190D01*
X314738333Y-166949047D01*
X314785952Y-167044285D01*
X314833571Y-167091904D01*
X314928809Y-167139523D01*
X315166904Y-167139523D01*
X315262142Y-167091904D01*
X315309761Y-167044285D01*
X315357380Y-166949047D01*
X315357380Y-166663333D01*
X315309761Y-166568095D01*
X315262142Y-166520476D01*
X314357380Y-167472857D02*
X314357380Y-168091904D01*
X314738333Y-167758571D01*
X314738333Y-167901428D01*
X314785952Y-167996666D01*
X314833571Y-168044285D01*
X314928809Y-168091904D01*
X315166904Y-168091904D01*
X315262142Y-168044285D01*
X315309761Y-167996666D01*
X315357380Y-167901428D01*
X315357380Y-167615714D01*
X315309761Y-167520476D01*
X315262142Y-167472857D01*
X172482380Y-184665714D02*
X171482380Y-184665714D01*
X171482380Y-184903809D01*
X171530000Y-185046666D01*
X171625238Y-185141904D01*
X171720476Y-185189523D01*
X171910952Y-185237142D01*
X172053809Y-185237142D01*
X172244285Y-185189523D01*
X172339523Y-185141904D01*
X172434761Y-185046666D01*
X172482380Y-184903809D01*
X172482380Y-184665714D01*
X171482380Y-185570476D02*
X171482380Y-186189523D01*
X171863333Y-185856190D01*
X171863333Y-185999047D01*
X171910952Y-186094285D01*
X171958571Y-186141904D01*
X172053809Y-186189523D01*
X172291904Y-186189523D01*
X172387142Y-186141904D01*
X172434761Y-186094285D01*
X172482380Y-185999047D01*
X172482380Y-185713333D01*
X172434761Y-185618095D01*
X172387142Y-185570476D01*
X171482380Y-186522857D02*
X171482380Y-187189523D01*
X172482380Y-186760952D01*
X296307380Y-165615714D02*
X295307380Y-165615714D01*
X295307380Y-165853809D01*
X295355000Y-165996666D01*
X295450238Y-166091904D01*
X295545476Y-166139523D01*
X295735952Y-166187142D01*
X295878809Y-166187142D01*
X296069285Y-166139523D01*
X296164523Y-166091904D01*
X296259761Y-165996666D01*
X296307380Y-165853809D01*
X296307380Y-165615714D01*
X295307380Y-166520476D02*
X295307380Y-167139523D01*
X295688333Y-166806190D01*
X295688333Y-166949047D01*
X295735952Y-167044285D01*
X295783571Y-167091904D01*
X295878809Y-167139523D01*
X296116904Y-167139523D01*
X296212142Y-167091904D01*
X296259761Y-167044285D01*
X296307380Y-166949047D01*
X296307380Y-166663333D01*
X296259761Y-166568095D01*
X296212142Y-166520476D01*
X295402619Y-167520476D02*
X295355000Y-167568095D01*
X295307380Y-167663333D01*
X295307380Y-167901428D01*
X295355000Y-167996666D01*
X295402619Y-168044285D01*
X295497857Y-168091904D01*
X295593095Y-168091904D01*
X295735952Y-168044285D01*
X296307380Y-167472857D01*
X296307380Y-168091904D01*
X201057380Y-127991904D02*
X200057380Y-127991904D01*
X200057380Y-128230000D01*
X200105000Y-128372857D01*
X200200238Y-128468095D01*
X200295476Y-128515714D01*
X200485952Y-128563333D01*
X200628809Y-128563333D01*
X200819285Y-128515714D01*
X200914523Y-128468095D01*
X201009761Y-128372857D01*
X201057380Y-128230000D01*
X201057380Y-127991904D01*
X200057380Y-129468095D02*
X200057380Y-128991904D01*
X200533571Y-128944285D01*
X200485952Y-128991904D01*
X200438333Y-129087142D01*
X200438333Y-129325238D01*
X200485952Y-129420476D01*
X200533571Y-129468095D01*
X200628809Y-129515714D01*
X200866904Y-129515714D01*
X200962142Y-129468095D01*
X201009761Y-129420476D01*
X201057380Y-129325238D01*
X201057380Y-129087142D01*
X201009761Y-128991904D01*
X200962142Y-128944285D01*
X220107380Y-127991904D02*
X219107380Y-127991904D01*
X219107380Y-128230000D01*
X219155000Y-128372857D01*
X219250238Y-128468095D01*
X219345476Y-128515714D01*
X219535952Y-128563333D01*
X219678809Y-128563333D01*
X219869285Y-128515714D01*
X219964523Y-128468095D01*
X220059761Y-128372857D01*
X220107380Y-128230000D01*
X220107380Y-127991904D01*
X219107380Y-129420476D02*
X219107380Y-129230000D01*
X219155000Y-129134761D01*
X219202619Y-129087142D01*
X219345476Y-128991904D01*
X219535952Y-128944285D01*
X219916904Y-128944285D01*
X220012142Y-128991904D01*
X220059761Y-129039523D01*
X220107380Y-129134761D01*
X220107380Y-129325238D01*
X220059761Y-129420476D01*
X220012142Y-129468095D01*
X219916904Y-129515714D01*
X219678809Y-129515714D01*
X219583571Y-129468095D01*
X219535952Y-129420476D01*
X219488333Y-129325238D01*
X219488333Y-129134761D01*
X219535952Y-129039523D01*
X219583571Y-128991904D01*
X219678809Y-128944285D01*
X239157380Y-165615714D02*
X238157380Y-165615714D01*
X238157380Y-165853809D01*
X238205000Y-165996666D01*
X238300238Y-166091904D01*
X238395476Y-166139523D01*
X238585952Y-166187142D01*
X238728809Y-166187142D01*
X238919285Y-166139523D01*
X239014523Y-166091904D01*
X239109761Y-165996666D01*
X239157380Y-165853809D01*
X239157380Y-165615714D01*
X238252619Y-166568095D02*
X238205000Y-166615714D01*
X238157380Y-166710952D01*
X238157380Y-166949047D01*
X238205000Y-167044285D01*
X238252619Y-167091904D01*
X238347857Y-167139523D01*
X238443095Y-167139523D01*
X238585952Y-167091904D01*
X239157380Y-166520476D01*
X239157380Y-167139523D01*
X239157380Y-167615714D02*
X239157380Y-167806190D01*
X239109761Y-167901428D01*
X239062142Y-167949047D01*
X238919285Y-168044285D01*
X238728809Y-168091904D01*
X238347857Y-168091904D01*
X238252619Y-168044285D01*
X238205000Y-167996666D01*
X238157380Y-167901428D01*
X238157380Y-167710952D01*
X238205000Y-167615714D01*
X238252619Y-167568095D01*
X238347857Y-167520476D01*
X238585952Y-167520476D01*
X238681190Y-167568095D01*
X238728809Y-167615714D01*
X238776428Y-167710952D01*
X238776428Y-167901428D01*
X238728809Y-167996666D01*
X238681190Y-168044285D01*
X238585952Y-168091904D01*
X258207380Y-127991904D02*
X257207380Y-127991904D01*
X257207380Y-128230000D01*
X257255000Y-128372857D01*
X257350238Y-128468095D01*
X257445476Y-128515714D01*
X257635952Y-128563333D01*
X257778809Y-128563333D01*
X257969285Y-128515714D01*
X258064523Y-128468095D01*
X258159761Y-128372857D01*
X258207380Y-128230000D01*
X258207380Y-127991904D01*
X257635952Y-129134761D02*
X257588333Y-129039523D01*
X257540714Y-128991904D01*
X257445476Y-128944285D01*
X257397857Y-128944285D01*
X257302619Y-128991904D01*
X257255000Y-129039523D01*
X257207380Y-129134761D01*
X257207380Y-129325238D01*
X257255000Y-129420476D01*
X257302619Y-129468095D01*
X257397857Y-129515714D01*
X257445476Y-129515714D01*
X257540714Y-129468095D01*
X257588333Y-129420476D01*
X257635952Y-129325238D01*
X257635952Y-129134761D01*
X257683571Y-129039523D01*
X257731190Y-128991904D01*
X257826428Y-128944285D01*
X258016904Y-128944285D01*
X258112142Y-128991904D01*
X258159761Y-129039523D01*
X258207380Y-129134761D01*
X258207380Y-129325238D01*
X258159761Y-129420476D01*
X258112142Y-129468095D01*
X258016904Y-129515714D01*
X257826428Y-129515714D01*
X257731190Y-129468095D01*
X257683571Y-129420476D01*
X257635952Y-129325238D01*
X116432380Y-112806666D02*
X117146666Y-112806666D01*
X117289523Y-112759047D01*
X117384761Y-112663809D01*
X117432380Y-112520952D01*
X117432380Y-112425714D01*
X116765714Y-113711428D02*
X117432380Y-113711428D01*
X116384761Y-113473333D02*
X117099047Y-113235238D01*
X117099047Y-113854285D01*
X296307380Y-127515714D02*
X295307380Y-127515714D01*
X295307380Y-127753809D01*
X295355000Y-127896666D01*
X295450238Y-127991904D01*
X295545476Y-128039523D01*
X295735952Y-128087142D01*
X295878809Y-128087142D01*
X296069285Y-128039523D01*
X296164523Y-127991904D01*
X296259761Y-127896666D01*
X296307380Y-127753809D01*
X296307380Y-127515714D01*
X296307380Y-129039523D02*
X296307380Y-128468095D01*
X296307380Y-128753809D02*
X295307380Y-128753809D01*
X295450238Y-128658571D01*
X295545476Y-128563333D01*
X295593095Y-128468095D01*
X295307380Y-129658571D02*
X295307380Y-129753809D01*
X295355000Y-129849047D01*
X295402619Y-129896666D01*
X295497857Y-129944285D01*
X295688333Y-129991904D01*
X295926428Y-129991904D01*
X296116904Y-129944285D01*
X296212142Y-129896666D01*
X296259761Y-129849047D01*
X296307380Y-129753809D01*
X296307380Y-129658571D01*
X296259761Y-129563333D01*
X296212142Y-129515714D01*
X296116904Y-129468095D01*
X295926428Y-129420476D01*
X295688333Y-129420476D01*
X295497857Y-129468095D01*
X295402619Y-129515714D01*
X295355000Y-129563333D01*
X295307380Y-129658571D01*
X162957380Y-165615714D02*
X161957380Y-165615714D01*
X161957380Y-165853809D01*
X162005000Y-165996666D01*
X162100238Y-166091904D01*
X162195476Y-166139523D01*
X162385952Y-166187142D01*
X162528809Y-166187142D01*
X162719285Y-166139523D01*
X162814523Y-166091904D01*
X162909761Y-165996666D01*
X162957380Y-165853809D01*
X162957380Y-165615714D01*
X162052619Y-166568095D02*
X162005000Y-166615714D01*
X161957380Y-166710952D01*
X161957380Y-166949047D01*
X162005000Y-167044285D01*
X162052619Y-167091904D01*
X162147857Y-167139523D01*
X162243095Y-167139523D01*
X162385952Y-167091904D01*
X162957380Y-166520476D01*
X162957380Y-167139523D01*
X161957380Y-168044285D02*
X161957380Y-167568095D01*
X162433571Y-167520476D01*
X162385952Y-167568095D01*
X162338333Y-167663333D01*
X162338333Y-167901428D01*
X162385952Y-167996666D01*
X162433571Y-168044285D01*
X162528809Y-168091904D01*
X162766904Y-168091904D01*
X162862142Y-168044285D01*
X162909761Y-167996666D01*
X162957380Y-167901428D01*
X162957380Y-167663333D01*
X162909761Y-167568095D01*
X162862142Y-167520476D01*
X182007380Y-127991904D02*
X181007380Y-127991904D01*
X181007380Y-128230000D01*
X181055000Y-128372857D01*
X181150238Y-128468095D01*
X181245476Y-128515714D01*
X181435952Y-128563333D01*
X181578809Y-128563333D01*
X181769285Y-128515714D01*
X181864523Y-128468095D01*
X181959761Y-128372857D01*
X182007380Y-128230000D01*
X182007380Y-127991904D01*
X181340714Y-129420476D02*
X182007380Y-129420476D01*
X180959761Y-129182380D02*
X181674047Y-128944285D01*
X181674047Y-129563333D01*
X296307380Y-184665714D02*
X295307380Y-184665714D01*
X295307380Y-184903809D01*
X295355000Y-185046666D01*
X295450238Y-185141904D01*
X295545476Y-185189523D01*
X295735952Y-185237142D01*
X295878809Y-185237142D01*
X296069285Y-185189523D01*
X296164523Y-185141904D01*
X296259761Y-185046666D01*
X296307380Y-184903809D01*
X296307380Y-184665714D01*
X295640714Y-186094285D02*
X296307380Y-186094285D01*
X295259761Y-185856190D02*
X295974047Y-185618095D01*
X295974047Y-186237142D01*
X295402619Y-186570476D02*
X295355000Y-186618095D01*
X295307380Y-186713333D01*
X295307380Y-186951428D01*
X295355000Y-187046666D01*
X295402619Y-187094285D01*
X295497857Y-187141904D01*
X295593095Y-187141904D01*
X295735952Y-187094285D01*
X296307380Y-186522857D01*
X296307380Y-187141904D01*
X310594880Y-146565714D02*
X309594880Y-146565714D01*
X309594880Y-146803809D01*
X309642500Y-146946666D01*
X309737738Y-147041904D01*
X309832976Y-147089523D01*
X310023452Y-147137142D01*
X310166309Y-147137142D01*
X310356785Y-147089523D01*
X310452023Y-147041904D01*
X310547261Y-146946666D01*
X310594880Y-146803809D01*
X310594880Y-146565714D01*
X309690119Y-147518095D02*
X309642500Y-147565714D01*
X309594880Y-147660952D01*
X309594880Y-147899047D01*
X309642500Y-147994285D01*
X309690119Y-148041904D01*
X309785357Y-148089523D01*
X309880595Y-148089523D01*
X310023452Y-148041904D01*
X310594880Y-147470476D01*
X310594880Y-148089523D01*
X309690119Y-148470476D02*
X309642500Y-148518095D01*
X309594880Y-148613333D01*
X309594880Y-148851428D01*
X309642500Y-148946666D01*
X309690119Y-148994285D01*
X309785357Y-149041904D01*
X309880595Y-149041904D01*
X310023452Y-148994285D01*
X310594880Y-148422857D01*
X310594880Y-149041904D01*
X110569880Y-146565714D02*
X109569880Y-146565714D01*
X109569880Y-146803809D01*
X109617500Y-146946666D01*
X109712738Y-147041904D01*
X109807976Y-147089523D01*
X109998452Y-147137142D01*
X110141309Y-147137142D01*
X110331785Y-147089523D01*
X110427023Y-147041904D01*
X110522261Y-146946666D01*
X110569880Y-146803809D01*
X110569880Y-146565714D01*
X110569880Y-148089523D02*
X110569880Y-147518095D01*
X110569880Y-147803809D02*
X109569880Y-147803809D01*
X109712738Y-147708571D01*
X109807976Y-147613333D01*
X109855595Y-147518095D01*
X109665119Y-148470476D02*
X109617500Y-148518095D01*
X109569880Y-148613333D01*
X109569880Y-148851428D01*
X109617500Y-148946666D01*
X109665119Y-148994285D01*
X109760357Y-149041904D01*
X109855595Y-149041904D01*
X109998452Y-148994285D01*
X110569880Y-148422857D01*
X110569880Y-149041904D01*
X220107380Y-165615714D02*
X219107380Y-165615714D01*
X219107380Y-165853809D01*
X219155000Y-165996666D01*
X219250238Y-166091904D01*
X219345476Y-166139523D01*
X219535952Y-166187142D01*
X219678809Y-166187142D01*
X219869285Y-166139523D01*
X219964523Y-166091904D01*
X220059761Y-165996666D01*
X220107380Y-165853809D01*
X220107380Y-165615714D01*
X219202619Y-166568095D02*
X219155000Y-166615714D01*
X219107380Y-166710952D01*
X219107380Y-166949047D01*
X219155000Y-167044285D01*
X219202619Y-167091904D01*
X219297857Y-167139523D01*
X219393095Y-167139523D01*
X219535952Y-167091904D01*
X220107380Y-166520476D01*
X220107380Y-167139523D01*
X219535952Y-167710952D02*
X219488333Y-167615714D01*
X219440714Y-167568095D01*
X219345476Y-167520476D01*
X219297857Y-167520476D01*
X219202619Y-167568095D01*
X219155000Y-167615714D01*
X219107380Y-167710952D01*
X219107380Y-167901428D01*
X219155000Y-167996666D01*
X219202619Y-168044285D01*
X219297857Y-168091904D01*
X219345476Y-168091904D01*
X219440714Y-168044285D01*
X219488333Y-167996666D01*
X219535952Y-167901428D01*
X219535952Y-167710952D01*
X219583571Y-167615714D01*
X219631190Y-167568095D01*
X219726428Y-167520476D01*
X219916904Y-167520476D01*
X220012142Y-167568095D01*
X220059761Y-167615714D01*
X220107380Y-167710952D01*
X220107380Y-167901428D01*
X220059761Y-167996666D01*
X220012142Y-168044285D01*
X219916904Y-168091904D01*
X219726428Y-168091904D01*
X219631190Y-168044285D01*
X219583571Y-167996666D01*
X219535952Y-167901428D01*
X162957380Y-127991904D02*
X161957380Y-127991904D01*
X161957380Y-128230000D01*
X162005000Y-128372857D01*
X162100238Y-128468095D01*
X162195476Y-128515714D01*
X162385952Y-128563333D01*
X162528809Y-128563333D01*
X162719285Y-128515714D01*
X162814523Y-128468095D01*
X162909761Y-128372857D01*
X162957380Y-128230000D01*
X162957380Y-127991904D01*
X161957380Y-128896666D02*
X161957380Y-129515714D01*
X162338333Y-129182380D01*
X162338333Y-129325238D01*
X162385952Y-129420476D01*
X162433571Y-129468095D01*
X162528809Y-129515714D01*
X162766904Y-129515714D01*
X162862142Y-129468095D01*
X162909761Y-129420476D01*
X162957380Y-129325238D01*
X162957380Y-129039523D01*
X162909761Y-128944285D01*
X162862142Y-128896666D01*
X153432380Y-146565714D02*
X152432380Y-146565714D01*
X152432380Y-146803809D01*
X152480000Y-146946666D01*
X152575238Y-147041904D01*
X152670476Y-147089523D01*
X152860952Y-147137142D01*
X153003809Y-147137142D01*
X153194285Y-147089523D01*
X153289523Y-147041904D01*
X153384761Y-146946666D01*
X153432380Y-146803809D01*
X153432380Y-146565714D01*
X153432380Y-148089523D02*
X153432380Y-147518095D01*
X153432380Y-147803809D02*
X152432380Y-147803809D01*
X152575238Y-147708571D01*
X152670476Y-147613333D01*
X152718095Y-147518095D01*
X152765714Y-148946666D02*
X153432380Y-148946666D01*
X152384761Y-148708571D02*
X153099047Y-148470476D01*
X153099047Y-149089523D01*
X277257380Y-127991904D02*
X276257380Y-127991904D01*
X276257380Y-128230000D01*
X276305000Y-128372857D01*
X276400238Y-128468095D01*
X276495476Y-128515714D01*
X276685952Y-128563333D01*
X276828809Y-128563333D01*
X277019285Y-128515714D01*
X277114523Y-128468095D01*
X277209761Y-128372857D01*
X277257380Y-128230000D01*
X277257380Y-127991904D01*
X277257380Y-129039523D02*
X277257380Y-129230000D01*
X277209761Y-129325238D01*
X277162142Y-129372857D01*
X277019285Y-129468095D01*
X276828809Y-129515714D01*
X276447857Y-129515714D01*
X276352619Y-129468095D01*
X276305000Y-129420476D01*
X276257380Y-129325238D01*
X276257380Y-129134761D01*
X276305000Y-129039523D01*
X276352619Y-128991904D01*
X276447857Y-128944285D01*
X276685952Y-128944285D01*
X276781190Y-128991904D01*
X276828809Y-129039523D01*
X276876428Y-129134761D01*
X276876428Y-129325238D01*
X276828809Y-129420476D01*
X276781190Y-129468095D01*
X276685952Y-129515714D01*
X172482380Y-146565714D02*
X171482380Y-146565714D01*
X171482380Y-146803809D01*
X171530000Y-146946666D01*
X171625238Y-147041904D01*
X171720476Y-147089523D01*
X171910952Y-147137142D01*
X172053809Y-147137142D01*
X172244285Y-147089523D01*
X172339523Y-147041904D01*
X172434761Y-146946666D01*
X172482380Y-146803809D01*
X172482380Y-146565714D01*
X172482380Y-148089523D02*
X172482380Y-147518095D01*
X172482380Y-147803809D02*
X171482380Y-147803809D01*
X171625238Y-147708571D01*
X171720476Y-147613333D01*
X171768095Y-147518095D01*
X171482380Y-148994285D02*
X171482380Y-148518095D01*
X171958571Y-148470476D01*
X171910952Y-148518095D01*
X171863333Y-148613333D01*
X171863333Y-148851428D01*
X171910952Y-148946666D01*
X171958571Y-148994285D01*
X172053809Y-149041904D01*
X172291904Y-149041904D01*
X172387142Y-148994285D01*
X172434761Y-148946666D01*
X172482380Y-148851428D01*
X172482380Y-148613333D01*
X172434761Y-148518095D01*
X172387142Y-148470476D01*
X134382380Y-146565714D02*
X133382380Y-146565714D01*
X133382380Y-146803809D01*
X133430000Y-146946666D01*
X133525238Y-147041904D01*
X133620476Y-147089523D01*
X133810952Y-147137142D01*
X133953809Y-147137142D01*
X134144285Y-147089523D01*
X134239523Y-147041904D01*
X134334761Y-146946666D01*
X134382380Y-146803809D01*
X134382380Y-146565714D01*
X134382380Y-148089523D02*
X134382380Y-147518095D01*
X134382380Y-147803809D02*
X133382380Y-147803809D01*
X133525238Y-147708571D01*
X133620476Y-147613333D01*
X133668095Y-147518095D01*
X133382380Y-148422857D02*
X133382380Y-149041904D01*
X133763333Y-148708571D01*
X133763333Y-148851428D01*
X133810952Y-148946666D01*
X133858571Y-148994285D01*
X133953809Y-149041904D01*
X134191904Y-149041904D01*
X134287142Y-148994285D01*
X134334761Y-148946666D01*
X134382380Y-148851428D01*
X134382380Y-148565714D01*
X134334761Y-148470476D01*
X134287142Y-148422857D01*
X258207380Y-165615714D02*
X257207380Y-165615714D01*
X257207380Y-165853809D01*
X257255000Y-165996666D01*
X257350238Y-166091904D01*
X257445476Y-166139523D01*
X257635952Y-166187142D01*
X257778809Y-166187142D01*
X257969285Y-166139523D01*
X258064523Y-166091904D01*
X258159761Y-165996666D01*
X258207380Y-165853809D01*
X258207380Y-165615714D01*
X257207380Y-166520476D02*
X257207380Y-167139523D01*
X257588333Y-166806190D01*
X257588333Y-166949047D01*
X257635952Y-167044285D01*
X257683571Y-167091904D01*
X257778809Y-167139523D01*
X258016904Y-167139523D01*
X258112142Y-167091904D01*
X258159761Y-167044285D01*
X258207380Y-166949047D01*
X258207380Y-166663333D01*
X258159761Y-166568095D01*
X258112142Y-166520476D01*
X257207380Y-167758571D02*
X257207380Y-167853809D01*
X257255000Y-167949047D01*
X257302619Y-167996666D01*
X257397857Y-168044285D01*
X257588333Y-168091904D01*
X257826428Y-168091904D01*
X258016904Y-168044285D01*
X258112142Y-167996666D01*
X258159761Y-167949047D01*
X258207380Y-167853809D01*
X258207380Y-167758571D01*
X258159761Y-167663333D01*
X258112142Y-167615714D01*
X258016904Y-167568095D01*
X257826428Y-167520476D01*
X257588333Y-167520476D01*
X257397857Y-167568095D01*
X257302619Y-167615714D01*
X257255000Y-167663333D01*
X257207380Y-167758571D01*
X182007380Y-165615714D02*
X181007380Y-165615714D01*
X181007380Y-165853809D01*
X181055000Y-165996666D01*
X181150238Y-166091904D01*
X181245476Y-166139523D01*
X181435952Y-166187142D01*
X181578809Y-166187142D01*
X181769285Y-166139523D01*
X181864523Y-166091904D01*
X181959761Y-165996666D01*
X182007380Y-165853809D01*
X182007380Y-165615714D01*
X181102619Y-166568095D02*
X181055000Y-166615714D01*
X181007380Y-166710952D01*
X181007380Y-166949047D01*
X181055000Y-167044285D01*
X181102619Y-167091904D01*
X181197857Y-167139523D01*
X181293095Y-167139523D01*
X181435952Y-167091904D01*
X182007380Y-166520476D01*
X182007380Y-167139523D01*
X181007380Y-167996666D02*
X181007380Y-167806190D01*
X181055000Y-167710952D01*
X181102619Y-167663333D01*
X181245476Y-167568095D01*
X181435952Y-167520476D01*
X181816904Y-167520476D01*
X181912142Y-167568095D01*
X181959761Y-167615714D01*
X182007380Y-167710952D01*
X182007380Y-167901428D01*
X181959761Y-167996666D01*
X181912142Y-168044285D01*
X181816904Y-168091904D01*
X181578809Y-168091904D01*
X181483571Y-168044285D01*
X181435952Y-167996666D01*
X181388333Y-167901428D01*
X181388333Y-167710952D01*
X181435952Y-167615714D01*
X181483571Y-167568095D01*
X181578809Y-167520476D01*
X115332380Y-165615714D02*
X114332380Y-165615714D01*
X114332380Y-165853809D01*
X114380000Y-165996666D01*
X114475238Y-166091904D01*
X114570476Y-166139523D01*
X114760952Y-166187142D01*
X114903809Y-166187142D01*
X115094285Y-166139523D01*
X115189523Y-166091904D01*
X115284761Y-165996666D01*
X115332380Y-165853809D01*
X115332380Y-165615714D01*
X114427619Y-166568095D02*
X114380000Y-166615714D01*
X114332380Y-166710952D01*
X114332380Y-166949047D01*
X114380000Y-167044285D01*
X114427619Y-167091904D01*
X114522857Y-167139523D01*
X114618095Y-167139523D01*
X114760952Y-167091904D01*
X115332380Y-166520476D01*
X115332380Y-167139523D01*
X114332380Y-167472857D02*
X114332380Y-168091904D01*
X114713333Y-167758571D01*
X114713333Y-167901428D01*
X114760952Y-167996666D01*
X114808571Y-168044285D01*
X114903809Y-168091904D01*
X115141904Y-168091904D01*
X115237142Y-168044285D01*
X115284761Y-167996666D01*
X115332380Y-167901428D01*
X115332380Y-167615714D01*
X115284761Y-167520476D01*
X115237142Y-167472857D01*
X267732380Y-146565714D02*
X266732380Y-146565714D01*
X266732380Y-146803809D01*
X266780000Y-146946666D01*
X266875238Y-147041904D01*
X266970476Y-147089523D01*
X267160952Y-147137142D01*
X267303809Y-147137142D01*
X267494285Y-147089523D01*
X267589523Y-147041904D01*
X267684761Y-146946666D01*
X267732380Y-146803809D01*
X267732380Y-146565714D01*
X266827619Y-147518095D02*
X266780000Y-147565714D01*
X266732380Y-147660952D01*
X266732380Y-147899047D01*
X266780000Y-147994285D01*
X266827619Y-148041904D01*
X266922857Y-148089523D01*
X267018095Y-148089523D01*
X267160952Y-148041904D01*
X267732380Y-147470476D01*
X267732380Y-148089523D01*
X266732380Y-148708571D02*
X266732380Y-148803809D01*
X266780000Y-148899047D01*
X266827619Y-148946666D01*
X266922857Y-148994285D01*
X267113333Y-149041904D01*
X267351428Y-149041904D01*
X267541904Y-148994285D01*
X267637142Y-148946666D01*
X267684761Y-148899047D01*
X267732380Y-148803809D01*
X267732380Y-148708571D01*
X267684761Y-148613333D01*
X267637142Y-148565714D01*
X267541904Y-148518095D01*
X267351428Y-148470476D01*
X267113333Y-148470476D01*
X266922857Y-148518095D01*
X266827619Y-148565714D01*
X266780000Y-148613333D01*
X266732380Y-148708571D01*
X248682380Y-146565714D02*
X247682380Y-146565714D01*
X247682380Y-146803809D01*
X247730000Y-146946666D01*
X247825238Y-147041904D01*
X247920476Y-147089523D01*
X248110952Y-147137142D01*
X248253809Y-147137142D01*
X248444285Y-147089523D01*
X248539523Y-147041904D01*
X248634761Y-146946666D01*
X248682380Y-146803809D01*
X248682380Y-146565714D01*
X248682380Y-148089523D02*
X248682380Y-147518095D01*
X248682380Y-147803809D02*
X247682380Y-147803809D01*
X247825238Y-147708571D01*
X247920476Y-147613333D01*
X247968095Y-147518095D01*
X248682380Y-148565714D02*
X248682380Y-148756190D01*
X248634761Y-148851428D01*
X248587142Y-148899047D01*
X248444285Y-148994285D01*
X248253809Y-149041904D01*
X247872857Y-149041904D01*
X247777619Y-148994285D01*
X247730000Y-148946666D01*
X247682380Y-148851428D01*
X247682380Y-148660952D01*
X247730000Y-148565714D01*
X247777619Y-148518095D01*
X247872857Y-148470476D01*
X248110952Y-148470476D01*
X248206190Y-148518095D01*
X248253809Y-148565714D01*
X248301428Y-148660952D01*
X248301428Y-148851428D01*
X248253809Y-148946666D01*
X248206190Y-148994285D01*
X248110952Y-149041904D01*
X315357380Y-127515714D02*
X314357380Y-127515714D01*
X314357380Y-127753809D01*
X314405000Y-127896666D01*
X314500238Y-127991904D01*
X314595476Y-128039523D01*
X314785952Y-128087142D01*
X314928809Y-128087142D01*
X315119285Y-128039523D01*
X315214523Y-127991904D01*
X315309761Y-127896666D01*
X315357380Y-127753809D01*
X315357380Y-127515714D01*
X315357380Y-129039523D02*
X315357380Y-128468095D01*
X315357380Y-128753809D02*
X314357380Y-128753809D01*
X314500238Y-128658571D01*
X314595476Y-128563333D01*
X314643095Y-128468095D01*
X315357380Y-129991904D02*
X315357380Y-129420476D01*
X315357380Y-129706190D02*
X314357380Y-129706190D01*
X314500238Y-129610952D01*
X314595476Y-129515714D01*
X314643095Y-129420476D01*
X315357380Y-184665714D02*
X314357380Y-184665714D01*
X314357380Y-184903809D01*
X314405000Y-185046666D01*
X314500238Y-185141904D01*
X314595476Y-185189523D01*
X314785952Y-185237142D01*
X314928809Y-185237142D01*
X315119285Y-185189523D01*
X315214523Y-185141904D01*
X315309761Y-185046666D01*
X315357380Y-184903809D01*
X315357380Y-184665714D01*
X314690714Y-186094285D02*
X315357380Y-186094285D01*
X314309761Y-185856190D02*
X315024047Y-185618095D01*
X315024047Y-186237142D01*
X314357380Y-186522857D02*
X314357380Y-187141904D01*
X314738333Y-186808571D01*
X314738333Y-186951428D01*
X314785952Y-187046666D01*
X314833571Y-187094285D01*
X314928809Y-187141904D01*
X315166904Y-187141904D01*
X315262142Y-187094285D01*
X315309761Y-187046666D01*
X315357380Y-186951428D01*
X315357380Y-186665714D01*
X315309761Y-186570476D01*
X315262142Y-186522857D01*
X191532380Y-146565714D02*
X190532380Y-146565714D01*
X190532380Y-146803809D01*
X190580000Y-146946666D01*
X190675238Y-147041904D01*
X190770476Y-147089523D01*
X190960952Y-147137142D01*
X191103809Y-147137142D01*
X191294285Y-147089523D01*
X191389523Y-147041904D01*
X191484761Y-146946666D01*
X191532380Y-146803809D01*
X191532380Y-146565714D01*
X191532380Y-148089523D02*
X191532380Y-147518095D01*
X191532380Y-147803809D02*
X190532380Y-147803809D01*
X190675238Y-147708571D01*
X190770476Y-147613333D01*
X190818095Y-147518095D01*
X190532380Y-148946666D02*
X190532380Y-148756190D01*
X190580000Y-148660952D01*
X190627619Y-148613333D01*
X190770476Y-148518095D01*
X190960952Y-148470476D01*
X191341904Y-148470476D01*
X191437142Y-148518095D01*
X191484761Y-148565714D01*
X191532380Y-148660952D01*
X191532380Y-148851428D01*
X191484761Y-148946666D01*
X191437142Y-148994285D01*
X191341904Y-149041904D01*
X191103809Y-149041904D01*
X191008571Y-148994285D01*
X190960952Y-148946666D01*
X190913333Y-148851428D01*
X190913333Y-148660952D01*
X190960952Y-148565714D01*
X191008571Y-148518095D01*
X191103809Y-148470476D01*
X143907380Y-165615714D02*
X142907380Y-165615714D01*
X142907380Y-165853809D01*
X142955000Y-165996666D01*
X143050238Y-166091904D01*
X143145476Y-166139523D01*
X143335952Y-166187142D01*
X143478809Y-166187142D01*
X143669285Y-166139523D01*
X143764523Y-166091904D01*
X143859761Y-165996666D01*
X143907380Y-165853809D01*
X143907380Y-165615714D01*
X143002619Y-166568095D02*
X142955000Y-166615714D01*
X142907380Y-166710952D01*
X142907380Y-166949047D01*
X142955000Y-167044285D01*
X143002619Y-167091904D01*
X143097857Y-167139523D01*
X143193095Y-167139523D01*
X143335952Y-167091904D01*
X143907380Y-166520476D01*
X143907380Y-167139523D01*
X143240714Y-167996666D02*
X143907380Y-167996666D01*
X142859761Y-167758571D02*
X143574047Y-167520476D01*
X143574047Y-168139523D01*
X124857380Y-127991904D02*
X123857380Y-127991904D01*
X123857380Y-128230000D01*
X123905000Y-128372857D01*
X124000238Y-128468095D01*
X124095476Y-128515714D01*
X124285952Y-128563333D01*
X124428809Y-128563333D01*
X124619285Y-128515714D01*
X124714523Y-128468095D01*
X124809761Y-128372857D01*
X124857380Y-128230000D01*
X124857380Y-127991904D01*
X124857380Y-129515714D02*
X124857380Y-128944285D01*
X124857380Y-129230000D02*
X123857380Y-129230000D01*
X124000238Y-129134761D01*
X124095476Y-129039523D01*
X124143095Y-128944285D01*
X143907380Y-184665714D02*
X142907380Y-184665714D01*
X142907380Y-184903809D01*
X142955000Y-185046666D01*
X143050238Y-185141904D01*
X143145476Y-185189523D01*
X143335952Y-185237142D01*
X143478809Y-185237142D01*
X143669285Y-185189523D01*
X143764523Y-185141904D01*
X143859761Y-185046666D01*
X143907380Y-184903809D01*
X143907380Y-184665714D01*
X142907380Y-185570476D02*
X142907380Y-186189523D01*
X143288333Y-185856190D01*
X143288333Y-185999047D01*
X143335952Y-186094285D01*
X143383571Y-186141904D01*
X143478809Y-186189523D01*
X143716904Y-186189523D01*
X143812142Y-186141904D01*
X143859761Y-186094285D01*
X143907380Y-185999047D01*
X143907380Y-185713333D01*
X143859761Y-185618095D01*
X143812142Y-185570476D01*
X142907380Y-187046666D02*
X142907380Y-186856190D01*
X142955000Y-186760952D01*
X143002619Y-186713333D01*
X143145476Y-186618095D01*
X143335952Y-186570476D01*
X143716904Y-186570476D01*
X143812142Y-186618095D01*
X143859761Y-186665714D01*
X143907380Y-186760952D01*
X143907380Y-186951428D01*
X143859761Y-187046666D01*
X143812142Y-187094285D01*
X143716904Y-187141904D01*
X143478809Y-187141904D01*
X143383571Y-187094285D01*
X143335952Y-187046666D01*
X143288333Y-186951428D01*
X143288333Y-186760952D01*
X143335952Y-186665714D01*
X143383571Y-186618095D01*
X143478809Y-186570476D01*
X201057380Y-184665714D02*
X200057380Y-184665714D01*
X200057380Y-184903809D01*
X200105000Y-185046666D01*
X200200238Y-185141904D01*
X200295476Y-185189523D01*
X200485952Y-185237142D01*
X200628809Y-185237142D01*
X200819285Y-185189523D01*
X200914523Y-185141904D01*
X201009761Y-185046666D01*
X201057380Y-184903809D01*
X201057380Y-184665714D01*
X200057380Y-185570476D02*
X200057380Y-186189523D01*
X200438333Y-185856190D01*
X200438333Y-185999047D01*
X200485952Y-186094285D01*
X200533571Y-186141904D01*
X200628809Y-186189523D01*
X200866904Y-186189523D01*
X200962142Y-186141904D01*
X201009761Y-186094285D01*
X201057380Y-185999047D01*
X201057380Y-185713333D01*
X201009761Y-185618095D01*
X200962142Y-185570476D01*
X200485952Y-186760952D02*
X200438333Y-186665714D01*
X200390714Y-186618095D01*
X200295476Y-186570476D01*
X200247857Y-186570476D01*
X200152619Y-186618095D01*
X200105000Y-186665714D01*
X200057380Y-186760952D01*
X200057380Y-186951428D01*
X200105000Y-187046666D01*
X200152619Y-187094285D01*
X200247857Y-187141904D01*
X200295476Y-187141904D01*
X200390714Y-187094285D01*
X200438333Y-187046666D01*
X200485952Y-186951428D01*
X200485952Y-186760952D01*
X200533571Y-186665714D01*
X200581190Y-186618095D01*
X200676428Y-186570476D01*
X200866904Y-186570476D01*
X200962142Y-186618095D01*
X201009761Y-186665714D01*
X201057380Y-186760952D01*
X201057380Y-186951428D01*
X201009761Y-187046666D01*
X200962142Y-187094285D01*
X200866904Y-187141904D01*
X200676428Y-187141904D01*
X200581190Y-187094285D01*
X200533571Y-187046666D01*
X200485952Y-186951428D01*
D11*
X104355000Y-130230000D02*
X104355000Y-127680000D01*
X102655000Y-130230000D02*
X102655000Y-127680000D01*
X104355000Y-130230000D02*
X102655000Y-130230000D01*
X209130000Y-149280000D02*
X207430000Y-149280000D01*
X207430000Y-149280000D02*
X207430000Y-146730000D01*
X209130000Y-149280000D02*
X209130000Y-146730000D01*
X142455000Y-130230000D02*
X140755000Y-130230000D01*
X142455000Y-130230000D02*
X142455000Y-127680000D01*
X140755000Y-130230000D02*
X140755000Y-127680000D01*
X102655000Y-187380000D02*
X102655000Y-184830000D01*
X104355000Y-187380000D02*
X102655000Y-187380000D01*
X104355000Y-187380000D02*
X104355000Y-184830000D01*
X275805000Y-168330000D02*
X274105000Y-168330000D01*
X275805000Y-168330000D02*
X275805000Y-165780000D01*
X274105000Y-168330000D02*
X274105000Y-165780000D01*
X274105000Y-187380000D02*
X274105000Y-184830000D01*
X275805000Y-187380000D02*
X275805000Y-184830000D01*
X275805000Y-187380000D02*
X274105000Y-187380000D01*
X226480000Y-187380000D02*
X226480000Y-184830000D01*
X228180000Y-187380000D02*
X228180000Y-184830000D01*
X228180000Y-187380000D02*
X226480000Y-187380000D01*
X237705000Y-130230000D02*
X236005000Y-130230000D01*
X236005000Y-130230000D02*
X236005000Y-127680000D01*
X237705000Y-130230000D02*
X237705000Y-127680000D01*
X123405000Y-187380000D02*
X123405000Y-184830000D01*
X123405000Y-187380000D02*
X121705000Y-187380000D01*
X121705000Y-187380000D02*
X121705000Y-184830000D01*
X109880000Y-111770000D02*
X102200000Y-111770000D01*
X109880000Y-114430000D02*
X109880000Y-111770000D01*
X112480000Y-114430000D02*
X112480000Y-113100000D01*
X111150000Y-114430000D02*
X112480000Y-114430000D01*
X102200000Y-114430000D02*
X102200000Y-111770000D01*
X109880000Y-114430000D02*
X102200000Y-114430000D01*
X197905000Y-168330000D02*
X197905000Y-165780000D01*
X199605000Y-168330000D02*
X199605000Y-165780000D01*
X199605000Y-168330000D02*
X197905000Y-168330000D01*
X285330000Y-149280000D02*
X285330000Y-146730000D01*
X283630000Y-149280000D02*
X283630000Y-146730000D01*
X285330000Y-149280000D02*
X283630000Y-149280000D01*
X228180000Y-149280000D02*
X226480000Y-149280000D01*
X228180000Y-149280000D02*
X228180000Y-146730000D01*
X226480000Y-149280000D02*
X226480000Y-146730000D01*
X256755000Y-187380000D02*
X256755000Y-184830000D01*
X256755000Y-187380000D02*
X255055000Y-187380000D01*
X255055000Y-187380000D02*
X255055000Y-184830000D01*
X313905000Y-168330000D02*
X312205000Y-168330000D01*
X312205000Y-168330000D02*
X312205000Y-165780000D01*
X313905000Y-168330000D02*
X313905000Y-165780000D01*
X169330000Y-187380000D02*
X169330000Y-184830000D01*
X171030000Y-187380000D02*
X169330000Y-187380000D01*
X171030000Y-187380000D02*
X171030000Y-184830000D01*
X293155000Y-168330000D02*
X293155000Y-165780000D01*
X294855000Y-168330000D02*
X294855000Y-165780000D01*
X294855000Y-168330000D02*
X293155000Y-168330000D01*
X199605000Y-130230000D02*
X197905000Y-130230000D01*
X197905000Y-130230000D02*
X197905000Y-127680000D01*
X199605000Y-130230000D02*
X199605000Y-127680000D01*
X216955000Y-130230000D02*
X216955000Y-127680000D01*
X218655000Y-130230000D02*
X218655000Y-127680000D01*
X218655000Y-130230000D02*
X216955000Y-130230000D01*
X237705000Y-168330000D02*
X237705000Y-165780000D01*
X237705000Y-168330000D02*
X236005000Y-168330000D01*
X236005000Y-168330000D02*
X236005000Y-165780000D01*
X255055000Y-130230000D02*
X255055000Y-127680000D01*
X256755000Y-130230000D02*
X255055000Y-130230000D01*
X256755000Y-130230000D02*
X256755000Y-127680000D01*
X120580000Y-111810000D02*
X146040000Y-111810000D01*
X120580000Y-114470000D02*
X146040000Y-114470000D01*
X119310000Y-111810000D02*
X117980000Y-111810000D01*
X117980000Y-111810000D02*
X117980000Y-113140000D01*
X146040000Y-111810000D02*
X146040000Y-114470000D01*
X120580000Y-111810000D02*
X120580000Y-114470000D01*
X294855000Y-130230000D02*
X294855000Y-127680000D01*
X294855000Y-130230000D02*
X293155000Y-130230000D01*
X293155000Y-130230000D02*
X293155000Y-127680000D01*
X161505000Y-168330000D02*
X161505000Y-165780000D01*
X159805000Y-168330000D02*
X159805000Y-165780000D01*
X161505000Y-168330000D02*
X159805000Y-168330000D01*
X180555000Y-130230000D02*
X180555000Y-127680000D01*
X180555000Y-130230000D02*
X178855000Y-130230000D01*
X178855000Y-130230000D02*
X178855000Y-127680000D01*
X294855000Y-187380000D02*
X293155000Y-187380000D01*
X294855000Y-187380000D02*
X294855000Y-184830000D01*
X293155000Y-187380000D02*
X293155000Y-184830000D01*
X309142500Y-149280000D02*
X307442500Y-149280000D01*
X309142500Y-149280000D02*
X309142500Y-146730000D01*
X307442500Y-149280000D02*
X307442500Y-146730000D01*
X107417500Y-149280000D02*
X107417500Y-146730000D01*
X109117500Y-149280000D02*
X107417500Y-149280000D01*
X109117500Y-149280000D02*
X109117500Y-146730000D01*
X218655000Y-168330000D02*
X216955000Y-168330000D01*
X218655000Y-168330000D02*
X218655000Y-165780000D01*
X216955000Y-168330000D02*
X216955000Y-165780000D01*
X159805000Y-130230000D02*
X159805000Y-127680000D01*
X161505000Y-130230000D02*
X161505000Y-127680000D01*
X161505000Y-130230000D02*
X159805000Y-130230000D01*
X151980000Y-149280000D02*
X151980000Y-146730000D01*
X151980000Y-149280000D02*
X150280000Y-149280000D01*
X150280000Y-149280000D02*
X150280000Y-146730000D01*
X274105000Y-130230000D02*
X274105000Y-127680000D01*
X275805000Y-130230000D02*
X275805000Y-127680000D01*
X275805000Y-130230000D02*
X274105000Y-130230000D01*
X171030000Y-149280000D02*
X169330000Y-149280000D01*
X169330000Y-149280000D02*
X169330000Y-146730000D01*
X171030000Y-149280000D02*
X171030000Y-146730000D01*
X132930000Y-149280000D02*
X132930000Y-146730000D01*
X132930000Y-149280000D02*
X131230000Y-149280000D01*
X131230000Y-149280000D02*
X131230000Y-146730000D01*
X256755000Y-168330000D02*
X256755000Y-165780000D01*
X255055000Y-168330000D02*
X255055000Y-165780000D01*
X256755000Y-168330000D02*
X255055000Y-168330000D01*
X180555000Y-168330000D02*
X178855000Y-168330000D01*
X180555000Y-168330000D02*
X180555000Y-165780000D01*
X178855000Y-168330000D02*
X178855000Y-165780000D01*
X112180000Y-168330000D02*
X112180000Y-165780000D01*
X113880000Y-168330000D02*
X113880000Y-165780000D01*
X113880000Y-168330000D02*
X112180000Y-168330000D01*
X266280000Y-149280000D02*
X266280000Y-146730000D01*
X266280000Y-149280000D02*
X264580000Y-149280000D01*
X264580000Y-149280000D02*
X264580000Y-146730000D01*
X247230000Y-149280000D02*
X247230000Y-146730000D01*
X245530000Y-149280000D02*
X245530000Y-146730000D01*
X247230000Y-149280000D02*
X245530000Y-149280000D01*
X312205000Y-130230000D02*
X312205000Y-127680000D01*
X313905000Y-130230000D02*
X312205000Y-130230000D01*
X313905000Y-130230000D02*
X313905000Y-127680000D01*
X313905000Y-187380000D02*
X313905000Y-184830000D01*
X313905000Y-187380000D02*
X312205000Y-187380000D01*
X312205000Y-187380000D02*
X312205000Y-184830000D01*
X188380000Y-149280000D02*
X188380000Y-146730000D01*
X190080000Y-149280000D02*
X190080000Y-146730000D01*
X190080000Y-149280000D02*
X188380000Y-149280000D01*
X140755000Y-168330000D02*
X140755000Y-165780000D01*
X142455000Y-168330000D02*
X140755000Y-168330000D01*
X142455000Y-168330000D02*
X142455000Y-165780000D01*
X123405000Y-130230000D02*
X123405000Y-127680000D01*
X121705000Y-130230000D02*
X121705000Y-127680000D01*
X123405000Y-130230000D02*
X121705000Y-130230000D01*
X142455000Y-187380000D02*
X140755000Y-187380000D01*
X142455000Y-187380000D02*
X142455000Y-184830000D01*
X140755000Y-187380000D02*
X140755000Y-184830000D01*
X197905000Y-187380000D02*
X197905000Y-184830000D01*
X199605000Y-187380000D02*
X197905000Y-187380000D01*
X199605000Y-187380000D02*
X199605000Y-184830000D01*
%LPC*%
D12*
X102235000Y-124920000D03*
D13*
X107315000Y-124920000D03*
D12*
X112395000Y-124920000D03*
D14*
X109855000Y-119840000D03*
X103505000Y-122380000D03*
D15*
X99070000Y-143130000D03*
X323950000Y-144280000D03*
D12*
X131445000Y-124920000D03*
D13*
X126365000Y-124920000D03*
D12*
X121285000Y-124920000D03*
D14*
X128905000Y-119840000D03*
X122555000Y-122380000D03*
D12*
X311785000Y-124920000D03*
X321945000Y-124920000D03*
D13*
X316865000Y-124920000D03*
D14*
X319405000Y-119840000D03*
X313055000Y-122380000D03*
D12*
X187960000Y-143970000D03*
D13*
X193040000Y-143970000D03*
D12*
X198120000Y-143970000D03*
D14*
X195580000Y-138890000D03*
X189230000Y-141430000D03*
D12*
X255270000Y-143970000D03*
X245110000Y-143970000D03*
D13*
X250190000Y-143970000D03*
D14*
X252730000Y-138890000D03*
X246380000Y-141430000D03*
D12*
X292735000Y-163020000D03*
D13*
X297815000Y-163020000D03*
D12*
X302895000Y-163020000D03*
D14*
X300355000Y-157940000D03*
X294005000Y-160480000D03*
D13*
X297815000Y-124920000D03*
D12*
X292735000Y-124920000D03*
X302895000Y-124920000D03*
D14*
X300355000Y-119840000D03*
X294005000Y-122380000D03*
D12*
X178435000Y-124920000D03*
X188595000Y-124920000D03*
D13*
X183515000Y-124920000D03*
D14*
X186055000Y-119840000D03*
X179705000Y-122380000D03*
D12*
X254635000Y-163020000D03*
X264795000Y-163020000D03*
D13*
X259715000Y-163020000D03*
D14*
X262255000Y-157940000D03*
X255905000Y-160480000D03*
D12*
X197485000Y-163020000D03*
X207645000Y-163020000D03*
D13*
X202565000Y-163020000D03*
D14*
X205105000Y-157940000D03*
X198755000Y-160480000D03*
D12*
X274320000Y-143970000D03*
X264160000Y-143970000D03*
D13*
X269240000Y-143970000D03*
D14*
X271780000Y-138890000D03*
X265430000Y-141430000D03*
D12*
X226060000Y-182070000D03*
D13*
X243040000Y-190310000D03*
D16*
X243040000Y-175070000D03*
D13*
X231140000Y-182070000D03*
D12*
X236220000Y-182070000D03*
D16*
X219240000Y-175070000D03*
D13*
X219240000Y-190310000D03*
D14*
X233680000Y-176990000D03*
X227330000Y-179530000D03*
D12*
X283845000Y-124920000D03*
X273685000Y-124920000D03*
D13*
X278765000Y-124920000D03*
D14*
X281305000Y-119840000D03*
X274955000Y-122380000D03*
D13*
X231140000Y-143970000D03*
D12*
X236220000Y-143970000D03*
X226060000Y-143970000D03*
D14*
X233680000Y-138890000D03*
X227330000Y-141430000D03*
D12*
X179070000Y-143970000D03*
X168910000Y-143970000D03*
D13*
X173990000Y-143970000D03*
D14*
X176530000Y-138890000D03*
X170180000Y-141430000D03*
D13*
X135890000Y-143970000D03*
D12*
X130810000Y-143970000D03*
X140970000Y-143970000D03*
D14*
X138430000Y-138890000D03*
X132080000Y-141430000D03*
D13*
X112077500Y-143970000D03*
D12*
X106997500Y-143970000D03*
X117157500Y-143970000D03*
D14*
X114617500Y-138890000D03*
X108267500Y-141430000D03*
D13*
X183515000Y-163020000D03*
D12*
X188595000Y-163020000D03*
X178435000Y-163020000D03*
D14*
X186055000Y-157940000D03*
X179705000Y-160480000D03*
D13*
X278765000Y-182070000D03*
D12*
X273685000Y-182070000D03*
X283845000Y-182070000D03*
D14*
X281305000Y-176990000D03*
X274955000Y-179530000D03*
D12*
X150495000Y-124920000D03*
D13*
X145415000Y-124920000D03*
D12*
X140335000Y-124920000D03*
D14*
X147955000Y-119840000D03*
X141605000Y-122380000D03*
D12*
X169545000Y-124920000D03*
D13*
X164465000Y-124920000D03*
D12*
X159385000Y-124920000D03*
D14*
X167005000Y-119840000D03*
X160655000Y-122380000D03*
D13*
X212090000Y-143970000D03*
D12*
X217170000Y-143970000D03*
X207010000Y-143970000D03*
D14*
X214630000Y-138890000D03*
X208280000Y-141430000D03*
D12*
X150495000Y-163020000D03*
X140335000Y-163020000D03*
D13*
X145415000Y-163020000D03*
D14*
X147955000Y-157940000D03*
X141605000Y-160480000D03*
D12*
X283210000Y-143970000D03*
X293370000Y-143970000D03*
D13*
X288290000Y-143970000D03*
D14*
X290830000Y-138890000D03*
X284480000Y-141430000D03*
D12*
X149860000Y-143970000D03*
X160020000Y-143970000D03*
D13*
X154940000Y-143970000D03*
D14*
X157480000Y-138890000D03*
X151130000Y-141430000D03*
D12*
X121920000Y-163020000D03*
D13*
X116840000Y-163020000D03*
D16*
X128740000Y-156020000D03*
X104940000Y-156020000D03*
D13*
X104940000Y-171260000D03*
X128740000Y-171260000D03*
D12*
X111760000Y-163020000D03*
D14*
X119380000Y-157940000D03*
X113030000Y-160480000D03*
D13*
X240665000Y-124920000D03*
D12*
X235585000Y-124920000D03*
X245745000Y-124920000D03*
D14*
X243205000Y-119840000D03*
X236855000Y-122380000D03*
D12*
X216535000Y-163020000D03*
X226695000Y-163020000D03*
D13*
X221615000Y-163020000D03*
D14*
X224155000Y-157940000D03*
X217805000Y-160480000D03*
D13*
X316865000Y-182070000D03*
D12*
X311785000Y-182070000D03*
X321945000Y-182070000D03*
D14*
X319405000Y-176990000D03*
X313055000Y-179530000D03*
D13*
X259715000Y-124920000D03*
D12*
X254635000Y-124920000D03*
X264795000Y-124920000D03*
D14*
X262255000Y-119840000D03*
X255905000Y-122380000D03*
D12*
X321945000Y-163020000D03*
X311785000Y-163020000D03*
D13*
X316865000Y-163020000D03*
D14*
X319405000Y-157940000D03*
X313055000Y-160480000D03*
D12*
X197485000Y-124920000D03*
D13*
X202565000Y-124920000D03*
D12*
X207645000Y-124920000D03*
D14*
X205105000Y-119840000D03*
X198755000Y-122380000D03*
D12*
X159385000Y-163020000D03*
X169545000Y-163020000D03*
D13*
X164465000Y-163020000D03*
D14*
X167005000Y-157940000D03*
X160655000Y-160480000D03*
D12*
X150495000Y-182070000D03*
D13*
X145415000Y-182070000D03*
D12*
X140335000Y-182070000D03*
D14*
X147955000Y-176990000D03*
X141605000Y-179530000D03*
D12*
X317182500Y-143970000D03*
D13*
X312102500Y-143970000D03*
D12*
X307022500Y-143970000D03*
D14*
X314642500Y-138890000D03*
X308292500Y-141430000D03*
D12*
X235585000Y-163020000D03*
X245745000Y-163020000D03*
D13*
X240665000Y-163020000D03*
D14*
X243205000Y-157940000D03*
X236855000Y-160480000D03*
D12*
X283845000Y-163020000D03*
D13*
X278765000Y-163020000D03*
D12*
X273685000Y-163020000D03*
D14*
X281305000Y-157940000D03*
X274955000Y-160480000D03*
D13*
X202565000Y-182070000D03*
D12*
X197485000Y-182070000D03*
X207645000Y-182070000D03*
D14*
X205105000Y-176990000D03*
X198755000Y-179530000D03*
D12*
X254635000Y-182070000D03*
X264795000Y-182070000D03*
D13*
X259715000Y-182070000D03*
D14*
X262255000Y-176990000D03*
X255905000Y-179530000D03*
D12*
X302895000Y-182070000D03*
D13*
X297815000Y-182070000D03*
D12*
X292735000Y-182070000D03*
D14*
X300355000Y-176990000D03*
X294005000Y-179530000D03*
D12*
X112395000Y-182070000D03*
X102235000Y-182070000D03*
D13*
X107315000Y-182070000D03*
D14*
X109855000Y-176990000D03*
X103505000Y-179530000D03*
D13*
X173990000Y-182070000D03*
D16*
X185890000Y-175070000D03*
X162090000Y-175070000D03*
D12*
X168910000Y-182070000D03*
D13*
X162090000Y-190310000D03*
X185890000Y-190310000D03*
D12*
X179070000Y-182070000D03*
D14*
X176530000Y-176990000D03*
X170180000Y-179530000D03*
D13*
X126365000Y-182070000D03*
D12*
X131445000Y-182070000D03*
X121285000Y-182070000D03*
D14*
X128905000Y-176990000D03*
X122555000Y-179530000D03*
D13*
X221615000Y-124920000D03*
D12*
X216535000Y-124920000D03*
X226695000Y-124920000D03*
D14*
X224155000Y-119840000D03*
X217805000Y-122380000D03*
D17*
X103505000Y-129780000D03*
X103505000Y-127680000D03*
X208280000Y-148830000D03*
X208280000Y-146730000D03*
X141605000Y-129780000D03*
X141605000Y-127680000D03*
X103505000Y-186930000D03*
X103505000Y-184830000D03*
X274955000Y-167880000D03*
X274955000Y-165780000D03*
X274955000Y-186930000D03*
X274955000Y-184830000D03*
X227330000Y-186930000D03*
X227330000Y-184830000D03*
X236855000Y-129780000D03*
X236855000Y-127680000D03*
X122555000Y-186930000D03*
X122555000Y-184830000D03*
D18*
X111150000Y-113100000D03*
D19*
X108610000Y-113100000D03*
X106070000Y-113100000D03*
X103530000Y-113100000D03*
D17*
X198755000Y-167880000D03*
X198755000Y-165780000D03*
X284480000Y-148830000D03*
X284480000Y-146730000D03*
X227330000Y-148830000D03*
X227330000Y-146730000D03*
X255905000Y-186930000D03*
X255905000Y-184830000D03*
X313055000Y-167880000D03*
X313055000Y-165780000D03*
X170180000Y-186930000D03*
X170180000Y-184830000D03*
X294005000Y-167880000D03*
X294005000Y-165780000D03*
X198755000Y-129780000D03*
X198755000Y-127680000D03*
X217805000Y-129780000D03*
X217805000Y-127680000D03*
X236855000Y-167880000D03*
X236855000Y-165780000D03*
X255905000Y-129780000D03*
X255905000Y-127680000D03*
D20*
X119310000Y-113140000D03*
D19*
X121850000Y-113140000D03*
X124390000Y-113140000D03*
X126930000Y-113140000D03*
X129470000Y-113140000D03*
X132010000Y-113140000D03*
X134550000Y-113140000D03*
X137090000Y-113140000D03*
X139630000Y-113140000D03*
X142170000Y-113140000D03*
X144710000Y-113140000D03*
D17*
X294005000Y-129780000D03*
X294005000Y-127680000D03*
X160655000Y-167880000D03*
X160655000Y-165780000D03*
X179705000Y-129780000D03*
X179705000Y-127680000D03*
X294005000Y-186930000D03*
X294005000Y-184830000D03*
X308292500Y-148830000D03*
X308292500Y-146730000D03*
X108267500Y-148830000D03*
X108267500Y-146730000D03*
X217805000Y-167880000D03*
X217805000Y-165780000D03*
X160655000Y-129780000D03*
X160655000Y-127680000D03*
X151130000Y-148830000D03*
X151130000Y-146730000D03*
X274955000Y-129780000D03*
X274955000Y-127680000D03*
X170180000Y-148830000D03*
X170180000Y-146730000D03*
X132080000Y-148830000D03*
X132080000Y-146730000D03*
X255905000Y-167880000D03*
X255905000Y-165780000D03*
X179705000Y-167880000D03*
X179705000Y-165780000D03*
X113030000Y-167880000D03*
X113030000Y-165780000D03*
X265430000Y-148830000D03*
X265430000Y-146730000D03*
X246380000Y-148830000D03*
X246380000Y-146730000D03*
X313055000Y-129780000D03*
X313055000Y-127680000D03*
X313055000Y-186930000D03*
X313055000Y-184830000D03*
X189230000Y-148830000D03*
X189230000Y-146730000D03*
X141605000Y-167880000D03*
X141605000Y-165780000D03*
X122555000Y-129780000D03*
X122555000Y-127680000D03*
X141605000Y-186930000D03*
X141605000Y-184830000D03*
X198755000Y-186930000D03*
X198755000Y-184830000D03*
M02*
