M48
; DRILL file {KiCad (6.0.2-0)} date Thursday, 17 March 2022 at 10:58:20 pm
; FORMAT={-:-/ absolute / metric / decimal}
; #@! TF.CreationDate,2022-03-17T22:58:20+11:00
; #@! TF.GenerationSoftware,Kicad,Pcbnew,(6.0.2-0)
; #@! TF.FileFunction,Plated,1,2,PTH
FMAT,2
METRIC
; #@! TA.AperFunction,Plated,PTH,ViaDrill
T1C0.400
; #@! TA.AperFunction,Plated,PTH,ComponentDrill
T2C1.000
; #@! TA.AperFunction,Plated,PTH,ComponentDrill
T3C1.500
%
G90
G05
T1
X126.785Y-167.855
T2
X189.23Y-113.284
X191.77Y-113.284
X194.31Y-113.284
X196.85Y-113.284
X198.384Y-193.802
X199.39Y-113.284
X200.924Y-193.802
X201.93Y-113.284
X203.464Y-193.802
X204.47Y-113.284
X206.004Y-193.802
X207.01Y-113.284
X209.55Y-113.284
X212.09Y-113.284
X214.63Y-113.284
T3
X103.505Y-122.38
X103.505Y-179.53
X108.267Y-141.43
X109.855Y-119.84
X109.855Y-176.99
X113.03Y-160.48
X114.617Y-138.89
X119.38Y-157.94
X122.555Y-122.38
X122.555Y-179.53
X128.905Y-119.84
X128.905Y-176.99
X132.08Y-141.43
X138.43Y-138.89
X141.605Y-122.38
X141.605Y-160.48
X141.605Y-179.53
X147.955Y-119.84
X147.955Y-157.94
X147.955Y-176.99
X151.13Y-141.43
X157.48Y-138.89
X160.655Y-122.38
X160.655Y-160.48
X167.005Y-119.84
X167.005Y-157.94
X170.18Y-141.43
X170.18Y-179.53
X176.53Y-138.89
X176.53Y-176.99
X179.705Y-122.38
X179.705Y-160.48
X186.055Y-119.84
X186.055Y-157.94
X189.23Y-141.43
X195.58Y-138.89
X198.755Y-122.38
X198.755Y-160.48
X198.755Y-179.53
X205.105Y-119.84
X205.105Y-157.94
X205.105Y-176.99
X208.28Y-141.43
X214.63Y-138.89
X217.805Y-122.38
X217.805Y-160.48
X224.155Y-119.84
X224.155Y-157.94
X227.33Y-141.43
X227.33Y-179.53
X233.68Y-138.89
X233.68Y-176.99
X236.855Y-122.38
X236.855Y-160.48
X243.205Y-119.84
X243.205Y-157.94
X246.38Y-141.43
X252.73Y-138.89
X255.905Y-122.38
X255.905Y-160.48
X255.905Y-179.53
X262.255Y-119.84
X262.255Y-157.94
X262.255Y-176.99
X265.43Y-141.43
X271.78Y-138.89
X274.955Y-122.38
X274.955Y-160.48
X274.955Y-179.53
X281.305Y-119.84
X281.305Y-157.94
X281.305Y-176.99
X284.48Y-141.43
X290.83Y-138.89
X294.005Y-122.38
X294.005Y-160.48
X294.005Y-179.53
X300.355Y-119.84
X300.355Y-157.94
X300.355Y-176.99
X308.292Y-141.43
X313.055Y-122.38
X313.055Y-160.48
X313.055Y-179.53
X314.642Y-138.89
X319.405Y-119.84
X319.405Y-157.94
X319.405Y-176.99
T0
M30
