G04 #@! TF.GenerationSoftware,KiCad,Pcbnew,(6.0.2-0)*
G04 #@! TF.CreationDate,2022-03-17T22:57:48+11:00*
G04 #@! TF.ProjectId,keyboard,6b657962-6f61-4726-942e-6b696361645f,rev?*
G04 #@! TF.SameCoordinates,Original*
G04 #@! TF.FileFunction,Copper,L2,Bot*
G04 #@! TF.FilePolarity,Positive*
%FSLAX46Y46*%
G04 Gerber Fmt 4.6, Leading zero omitted, Abs format (unit mm)*
G04 Created by KiCad (PCBNEW (6.0.2-0)) date 2022-03-17 22:57:48*
%MOMM*%
%LPD*%
G01*
G04 APERTURE LIST*
G04 #@! TA.AperFunction,ComponentPad*
%ADD10C,2.200000*%
G04 #@! TD*
G04 #@! TA.AperFunction,SMDPad,CuDef*
%ADD11R,0.450000X0.600000*%
G04 #@! TD*
G04 #@! TA.AperFunction,ComponentPad*
%ADD12R,1.700000X1.700000*%
G04 #@! TD*
G04 #@! TA.AperFunction,ComponentPad*
%ADD13O,1.700000X1.700000*%
G04 #@! TD*
G04 #@! TA.AperFunction,ViaPad*
%ADD14C,0.800000*%
G04 #@! TD*
G04 #@! TA.AperFunction,Conductor*
%ADD15C,0.250000*%
G04 #@! TD*
G04 APERTURE END LIST*
D10*
X109855000Y-119840000D03*
X103505000Y-122380000D03*
X128905000Y-119840000D03*
X122555000Y-122380000D03*
X319405000Y-119840000D03*
X313055000Y-122380000D03*
X195580000Y-138890000D03*
X189230000Y-141430000D03*
X252730000Y-138890000D03*
X246380000Y-141430000D03*
X300355000Y-157940000D03*
X294005000Y-160480000D03*
X300355000Y-119840000D03*
X294005000Y-122380000D03*
X186055000Y-119840000D03*
X179705000Y-122380000D03*
X262255000Y-157940000D03*
X255905000Y-160480000D03*
X205105000Y-157940000D03*
X198755000Y-160480000D03*
X271780000Y-138890000D03*
X265430000Y-141430000D03*
X233680000Y-176990000D03*
X227330000Y-179530000D03*
X281305000Y-119840000D03*
X274955000Y-122380000D03*
X233680000Y-138890000D03*
X227330000Y-141430000D03*
X176530000Y-138890000D03*
X170180000Y-141430000D03*
X138430000Y-138890000D03*
X132080000Y-141430000D03*
X114617500Y-138890000D03*
X108267500Y-141430000D03*
X186055000Y-157940000D03*
X179705000Y-160480000D03*
X281305000Y-176990000D03*
X274955000Y-179530000D03*
X147955000Y-119840000D03*
X141605000Y-122380000D03*
X167005000Y-119840000D03*
X160655000Y-122380000D03*
X214630000Y-138890000D03*
X208280000Y-141430000D03*
X147955000Y-157940000D03*
X141605000Y-160480000D03*
X290830000Y-138890000D03*
X284480000Y-141430000D03*
X157480000Y-138890000D03*
X151130000Y-141430000D03*
X119380000Y-157940000D03*
X113030000Y-160480000D03*
X243205000Y-119840000D03*
X236855000Y-122380000D03*
X224155000Y-157940000D03*
X217805000Y-160480000D03*
X319405000Y-176990000D03*
X313055000Y-179530000D03*
X262255000Y-119840000D03*
X255905000Y-122380000D03*
X319405000Y-157940000D03*
X313055000Y-160480000D03*
X205105000Y-119840000D03*
X198755000Y-122380000D03*
X167005000Y-157940000D03*
X160655000Y-160480000D03*
X147955000Y-176990000D03*
X141605000Y-179530000D03*
X314642500Y-138890000D03*
X308292500Y-141430000D03*
X243205000Y-157940000D03*
X236855000Y-160480000D03*
X281305000Y-157940000D03*
X274955000Y-160480000D03*
X205105000Y-176990000D03*
X198755000Y-179530000D03*
X262255000Y-176990000D03*
X255905000Y-179530000D03*
X300355000Y-176990000D03*
X294005000Y-179530000D03*
X109855000Y-176990000D03*
X103505000Y-179530000D03*
X176530000Y-176990000D03*
X170180000Y-179530000D03*
X128905000Y-176990000D03*
X122555000Y-179530000D03*
X224155000Y-119840000D03*
X217805000Y-122380000D03*
D11*
X103505000Y-129780000D03*
X103505000Y-127680000D03*
X208280000Y-148830000D03*
X208280000Y-146730000D03*
X141605000Y-129780000D03*
X141605000Y-127680000D03*
X103505000Y-186930000D03*
X103505000Y-184830000D03*
X274955000Y-167880000D03*
X274955000Y-165780000D03*
X274955000Y-186930000D03*
X274955000Y-184830000D03*
X227330000Y-186930000D03*
X227330000Y-184830000D03*
X236855000Y-129780000D03*
X236855000Y-127680000D03*
X122555000Y-186930000D03*
X122555000Y-184830000D03*
D12*
X198384000Y-193802000D03*
D13*
X200924000Y-193802000D03*
X203464000Y-193802000D03*
X206004000Y-193802000D03*
D11*
X198755000Y-167880000D03*
X198755000Y-165780000D03*
X284480000Y-148830000D03*
X284480000Y-146730000D03*
X227330000Y-148830000D03*
X227330000Y-146730000D03*
X255905000Y-186930000D03*
X255905000Y-184830000D03*
X313055000Y-167880000D03*
X313055000Y-165780000D03*
X170180000Y-186930000D03*
X170180000Y-184830000D03*
X294005000Y-167880000D03*
X294005000Y-165780000D03*
X198755000Y-129780000D03*
X198755000Y-127680000D03*
X217805000Y-129780000D03*
X217805000Y-127680000D03*
X236855000Y-167880000D03*
X236855000Y-165780000D03*
X255905000Y-129780000D03*
X255905000Y-127680000D03*
D12*
X189230000Y-113284000D03*
D13*
X191770000Y-113284000D03*
X194310000Y-113284000D03*
X196850000Y-113284000D03*
X199390000Y-113284000D03*
X201930000Y-113284000D03*
X204470000Y-113284000D03*
X207010000Y-113284000D03*
X209550000Y-113284000D03*
X212090000Y-113284000D03*
X214630000Y-113284000D03*
D11*
X294005000Y-129780000D03*
X294005000Y-127680000D03*
X160655000Y-167880000D03*
X160655000Y-165780000D03*
X179705000Y-129780000D03*
X179705000Y-127680000D03*
X294005000Y-186930000D03*
X294005000Y-184830000D03*
X308292500Y-148830000D03*
X308292500Y-146730000D03*
X108267500Y-148830000D03*
X108267500Y-146730000D03*
X217805000Y-167880000D03*
X217805000Y-165780000D03*
X160655000Y-129780000D03*
X160655000Y-127680000D03*
X151130000Y-148830000D03*
X151130000Y-146730000D03*
X274955000Y-129780000D03*
X274955000Y-127680000D03*
X170180000Y-148830000D03*
X170180000Y-146730000D03*
X132080000Y-148830000D03*
X132080000Y-146730000D03*
X255905000Y-167880000D03*
X255905000Y-165780000D03*
X179705000Y-167880000D03*
X179705000Y-165780000D03*
X113030000Y-167880000D03*
X113030000Y-165780000D03*
X265430000Y-148830000D03*
X265430000Y-146730000D03*
X246380000Y-148830000D03*
X246380000Y-146730000D03*
X313055000Y-129780000D03*
X313055000Y-127680000D03*
X313055000Y-186930000D03*
X313055000Y-184830000D03*
X189230000Y-148830000D03*
X189230000Y-146730000D03*
X141605000Y-167880000D03*
X141605000Y-165780000D03*
X122555000Y-129780000D03*
X122555000Y-127680000D03*
X141605000Y-186930000D03*
X141605000Y-184830000D03*
X198755000Y-186930000D03*
X198755000Y-184830000D03*
D14*
X126785000Y-167855000D03*
D15*
X104126000Y-129780000D02*
X104101000Y-129755000D01*
X198384000Y-193802000D02*
X188976000Y-193802000D01*
X294005000Y-129780000D02*
X115700000Y-129780000D01*
X115700000Y-129780000D02*
X104126000Y-129780000D01*
X187706000Y-195072000D02*
X160274000Y-195072000D01*
X103505000Y-146431000D02*
X103505000Y-129780000D01*
X160274000Y-195072000D02*
X158750000Y-193548000D01*
X96520000Y-190500000D02*
X96520000Y-153416000D01*
X103505000Y-129755000D02*
X104101000Y-129755000D01*
X188976000Y-193802000D02*
X187706000Y-195072000D01*
X158750000Y-193548000D02*
X99568000Y-193548000D01*
X104101000Y-129755000D02*
X112053000Y-129755000D01*
X96520000Y-153416000D02*
X103505000Y-146431000D01*
X99568000Y-193548000D02*
X96520000Y-190500000D01*
X191008000Y-189484000D02*
X187198000Y-193294000D01*
X208280000Y-148830000D02*
X227330000Y-148830000D01*
X156210000Y-188976000D02*
X160528000Y-193294000D01*
X98552000Y-186944000D02*
X100584000Y-188976000D01*
X170180000Y-148830000D02*
X189230000Y-148830000D01*
X151130000Y-148830000D02*
X170180000Y-148830000D01*
X200924000Y-193802000D02*
X196606000Y-189484000D01*
X189230000Y-148830000D02*
X208280000Y-148830000D01*
X118858000Y-148830000D02*
X151130000Y-148830000D01*
X108267500Y-148830000D02*
X118858000Y-148830000D01*
X246380000Y-148830000D02*
X265430000Y-148830000D01*
X98552000Y-158545500D02*
X98552000Y-186944000D01*
X187198000Y-193294000D02*
X160782000Y-193294000D01*
X196606000Y-189484000D02*
X191008000Y-189484000D01*
X100584000Y-188976000D02*
X156210000Y-188976000D01*
X160528000Y-193294000D02*
X160782000Y-193294000D01*
X227330000Y-148830000D02*
X246380000Y-148830000D01*
X284480000Y-148830000D02*
X308292500Y-148830000D01*
X108267500Y-148830000D02*
X98552000Y-158545500D01*
X265430000Y-148830000D02*
X284480000Y-148830000D01*
X197597479Y-187935479D02*
X203464000Y-193802000D01*
X313055000Y-167855000D02*
X104179000Y-167855000D01*
X102640521Y-187935479D02*
X102845479Y-187935479D01*
X99568000Y-172466000D02*
X99568000Y-186436000D01*
X102845479Y-187935479D02*
X197597479Y-187935479D01*
X104179000Y-167855000D02*
X99568000Y-172466000D01*
X99568000Y-186436000D02*
X101067479Y-187935479D01*
X101067479Y-187935479D02*
X102845479Y-187935479D01*
X111291000Y-186905000D02*
X212129000Y-186905000D01*
X319485000Y-136605000D02*
X313055000Y-130175000D01*
X212129000Y-187677000D02*
X206004000Y-193802000D01*
X323169521Y-182577214D02*
X323169521Y-156520479D01*
X319485000Y-152835958D02*
X323169521Y-156520479D01*
X212129000Y-186905000D02*
X313055000Y-186905000D01*
X318816735Y-186930000D02*
X323169521Y-182577214D01*
X103505000Y-186905000D02*
X111291000Y-186905000D01*
X313055000Y-186930000D02*
X318816735Y-186930000D01*
X111170479Y-186784479D02*
X111291000Y-186905000D01*
X319485000Y-136605000D02*
X319485000Y-152835958D01*
X313055000Y-130175000D02*
X313055000Y-129780000D01*
X212129000Y-186905000D02*
X212129000Y-187677000D01*
X290830000Y-138890000D02*
X290878000Y-138890000D01*
X103475000Y-122380000D02*
X103475000Y-127610000D01*
X122525000Y-122380000D02*
X122525000Y-127610000D01*
X141575000Y-122380000D02*
X141575000Y-127610000D01*
X160625000Y-122380000D02*
X160625000Y-127610000D01*
X179675000Y-122380000D02*
X179675000Y-127610000D01*
X198725000Y-122380000D02*
X198725000Y-127610000D01*
X217775000Y-122380000D02*
X217775000Y-127610000D01*
X236825000Y-122380000D02*
X236825000Y-127610000D01*
X255875000Y-122380000D02*
X255875000Y-127610000D01*
X274925000Y-122380000D02*
X274925000Y-127610000D01*
X293975000Y-122380000D02*
X293975000Y-127610000D01*
X313025000Y-122380000D02*
X313025000Y-127610000D01*
X108237500Y-141430000D02*
X108237500Y-146660000D01*
X132050000Y-141430000D02*
X132050000Y-146660000D01*
X151100000Y-141430000D02*
X151100000Y-146660000D01*
X170150000Y-141430000D02*
X170150000Y-146660000D01*
X189200000Y-141430000D02*
X189200000Y-146660000D01*
X208250000Y-141430000D02*
X208250000Y-146660000D01*
X227300000Y-141430000D02*
X227300000Y-146660000D01*
X246350000Y-141430000D02*
X246350000Y-146660000D01*
X265400000Y-141430000D02*
X265400000Y-146660000D01*
X284450000Y-141430000D02*
X284450000Y-146660000D01*
X308262500Y-141430000D02*
X308262500Y-146660000D01*
X113000000Y-160480000D02*
X113000000Y-165710000D01*
X141575000Y-160480000D02*
X141575000Y-165710000D01*
X160625000Y-160480000D02*
X160625000Y-165710000D01*
X179675000Y-160480000D02*
X179675000Y-165710000D01*
X198725000Y-160480000D02*
X198725000Y-165710000D01*
X217775000Y-160480000D02*
X217775000Y-165710000D01*
X236825000Y-160480000D02*
X236825000Y-165710000D01*
X255875000Y-160480000D02*
X255875000Y-165710000D01*
X274925000Y-160480000D02*
X274925000Y-165710000D01*
X293975000Y-160480000D02*
X293975000Y-165710000D01*
X313025000Y-160480000D02*
X313025000Y-165710000D01*
X103475000Y-179530000D02*
X103475000Y-184760000D01*
X122525000Y-179530000D02*
X122525000Y-184760000D01*
X141575000Y-179530000D02*
X141575000Y-184760000D01*
X170150000Y-179530000D02*
X170150000Y-184760000D01*
X198725000Y-179530000D02*
X198725000Y-184760000D01*
X227300000Y-179530000D02*
X227300000Y-184760000D01*
X255875000Y-179530000D02*
X255875000Y-184760000D01*
X274925000Y-179530000D02*
X274925000Y-184760000D01*
X293975000Y-179530000D02*
X293975000Y-184760000D01*
X313025000Y-179530000D02*
X313025000Y-184760000D01*
M02*
